<svg xmlns="http://www.w3.org/2000/svg" width="64" height="64" viewBox="0 0 64 64">
    <defs>
        <clipPath id="exmva9ycpa">
            <circle data-name="타원 555" cx="32" cy="32" r="32" transform="translate(0 -.025)" style="fill:none"/>
        </clipPath>
    </defs>
    <g transform="translate(-752.445 -761.238)">
        <circle data-name="타원 526" cx="32" cy="32" r="32" transform="translate(752.445 761.238)" style="fill:#f7ebdf"/>
        <g data-name="그룹 103613" transform="translate(752.445 761.263)" style="clip-path:url(#exmva9ycpa)">
            <path data-name="패스 1743" d="M610.556 781.9c2.32-1.84 5.841-1.186 8.262.519a15.5 15.5 0 0 1 5.135 6.756 39.217 39.217 0 0 1 2.215 8.289c1.027 5.659 1.774 11.4 3.508 16.879.707 2.236 1.576 4.423 2.155 6.7a5.843 5.843 0 0 1-.09 4.152 4.577 4.577 0 0 1-1.458 1.547 12.832 12.832 0 0 1-4.91 1.847c-5.435 1.091-11.033.931-16.574.768-.5-.015-1.168-.19-1.158-.692" transform="translate(-579.087 -774.091)" style="fill:#362d2c"/>
            <path data-name="패스 1744" d="M587.446 781.747a3.565 3.565 0 0 0-2.244-1.039c-3.493-.466-6.894 1.947-8.542 5.061a16.751 16.751 0 0 0-1.3 3.423c-3.034 11.085 1.189 23.384-2.757 34.179a2 2 0 0 0-.152 1.486 1.713 1.713 0 0 0 .981.764 16.347 16.347 0 0 0 5.712.862q13.213.386 26.435.14" transform="translate(-555.774 -773.993)" style="fill:#362d2c"/>
            <g data-name="그룹 103607">
                <path data-name="패스 1745" d="M594.18 898.483a3.6 3.6 0 0 0-1.7-.962 72.747 72.747 0 0 0-11.879-3.015c-1.4-.215-2.8-.373-4.209-.459a44.048 44.048 0 0 1-1.731-.145c-1.8-.18-3.6-.423-5.392-.458l-10.748-.484-3.753.963-1.87.48-3.38.868-2 .512c-3.592.922-7.362 1.941-10.008 4.539a3.872 3.872 0 0 0-1.216 1.961c-.264 1.416.775 2.712 1.745 3.776 2.831 3.107 5.748 6.261 9.452 8.249a37.674 37.674 0 0 0 7.94 2.834q.648.178 1.3.353c3.817 1.02 7.771 1.871 11.6 1.014a24.907 24.907 0 0 0 5.9-2.391v.678c.073-.038.146 1.283.218 1.245 3.867-2 7.689-6.131 11.463-8.305.856-.493 1.71-.991 2.516-1.562 2.558-1.814 4.585-1.315 5.77-4.22.459-1.115.752-4.544-.018-5.471z" transform="translate(-531.923 -848.193)" style="fill:#1aa4a4"/>
                <path data-name="패스 1746" d="M609.033 863.537c-.119 1.975-.395 4.834.119 6.755s3.171 4.362 3.14 5.072-2.262 4.185-8.307 4.185-8.4-3.841-8.4-4.57 2.715-2.767 3.229-4.687a18.475 18.475 0 0 0 .433-5.9" transform="translate(-571.183 -828.754)" style="fill:#f2cabf"/>
                <path data-name="패스 1747" d="M609.918 880.491a2.9 2.9 0 0 0 1.855.869 2.448 2.448 0 0 0 1.122-.394 6.525 6.525 0 0 0 2.9-3.688 15.043 15.043 0 0 1-2.58 1.357 5.049 5.049 0 0 1-2.865.276 7.5 7.5 0 0 1-1.053-.356 8.943 8.943 0 0 0-2.02-.763c-.026.459.742.982 1.041 1.269q.773.739 1.6 1.43z" transform="translate(-578.845 -837.832)" style="fill:#e7b9ac"/>
                <path data-name="패스 1748" d="m588.135 888.832 7.12 6.028-4.625 3.955-8.166-8.035 7.149-4.068z" transform="translate(-562.452 -844.065)" style="fill:#fff"/>
                <path data-name="패스 1749" d="m627.091 888.832-6.932 6.028 4.808 4.275 7.348-9.182-6.512-3.24z" transform="translate(-587.357 -844.065)" style="fill:#fff"/>
            </g>
            <path data-name="패스 1750" d="M609.471 807.329s0 7.8-2.18 11.36-7 7.114-8.606 6.77c-1.606.344-6.426-3.213-8.606-6.77s-2.18-11.36-2.18-11.36l7.977-8.385 7.809 1.764 2.371 1.631z" transform="translate(-566.043 -786.079)" style="fill:#f9d6cd"/>
            <g data-name="그룹 103612" transform="translate(24.135 22.788)">
                <ellipse data-name="타원 552" cx=".678" cy=".871" rx=".678" ry=".871" transform="translate(3.706 2.251)" style="fill:#0a0807"/>
                <path data-name="패스 1751" d="M630.55 835.691a.7.7 0 1 1-.678-.871.793.793 0 0 1 .678.871z" transform="translate(-617.46 -832.569)" style="fill:#0a0807"/>
                <g data-name="그룹 103608">
                    <path data-name="패스 1752" d="M615.761 854.043a2.067 2.067 0 0 0 .138-.863 16.55 16.55 0 0 1-2.439.358 14.448 14.448 0 0 1-2.874-.066c-.381-.021-1.824-.319-1.85-.175a2.142 2.142 0 0 0 .1.809c.796.284 2.797.687 6.925-.063z" transform="translate(-603.938 -844.699)" style="fill:#fff"/>
                    <path data-name="패스 1753" d="M611.75 859.819a5.795 5.795 0 0 0-.408.085 2.226 2.226 0 0 0 .333.322 2.938 2.938 0 0 0 1.373.647 4.493 4.493 0 0 0 2.379-.184 3.234 3.234 0 0 0 .853-.514 3.833 3.833 0 0 0 .279-.274 3.975 3.975 0 0 0-.759-.164 13.5 13.5 0 0 0-4.05.082z" transform="translate(-605.666 -848.955)" style="fill:#ff5c5c"/>
                    <path data-name="패스 1754" d="M615.805 856.171c.051-.114.114-.274.171-.448-4.128.75-6.129.347-6.924.063a4.153 4.153 0 0 0 .777 1.542 5.68 5.68 0 0 1 .408-.085 13.5 13.5 0 0 1 4.049-.082 3.97 3.97 0 0 1 .759.164 4.232 4.232 0 0 0 .76-1.154z" transform="translate(-604.153 -846.379)" style="fill:#0a0807"/>
                </g>
                <g data-name="그룹 103609">
                    <path data-name="패스 1755" d="M614.93 837.136a.17.17 0 0 1-.129-.059l-.707-.824a.324.324 0 0 1-.089-.187.329.329 0 0 1 .119-.256 3.058 3.058 0 0 0 .815-1.922 7.111 7.111 0 0 0-.229-2.177.17.17 0 1 1 .331-.076 7.422 7.422 0 0 1 .236 2.282 3.394 3.394 0 0 1-.914 2.134l-.006.006.7.8a.17.17 0 0 1-.129.28z" transform="translate(-607.426 -830.378)" style="fill:#bd9886"/>
                </g>
                <ellipse data-name="타원 553" cx="1.824" cy="1.039" rx="1.824" ry="1.039" transform="translate(0 6.344)" style="fill:#eebaba"/>
                <g data-name="그룹 103610">
                    <path data-name="패스 1756" d="M631.389 829.2a.169.169 0 0 1-.086-.023 4.77 4.77 0 0 0-2.63-.641 1.749 1.749 0 0 0-1.016.3.17.17 0 0 1-.209-.268 2.067 2.067 0 0 1 1.207-.374 5.115 5.115 0 0 1 2.82.687.17.17 0 0 1-.086.316z" transform="translate(-616.264 -828.187)" style="fill:#54433b"/>
                </g>
                <g data-name="그룹 103611">
                    <path data-name="패스 1757" d="M599.084 829.2a.17.17 0 0 1-.086-.316 5.111 5.111 0 0 1 2.82-.687 2.069 2.069 0 0 1 1.207.374.17.17 0 0 1-.209.268 1.751 1.751 0 0 0-1.017-.3 4.763 4.763 0 0 0-2.63.641.169.169 0 0 1-.085.02z" transform="translate(-597.457 -828.187)" style="fill:#54433b"/>
                </g>
                <ellipse data-name="타원 554" cx="1.824" cy="1.039" rx="1.824" ry="1.039" transform="translate(12.233 5.823)" style="fill:#eebaba"/>
            </g>
            <path data-name="패스 1758" d="M584.054 835.157a2.055 2.055 0 0 0-3.3.576 2.52 2.52 0 0 0-.006 1.99 4.317 4.317 0 0 0 1.221 1.619 6.779 6.779 0 0 0 1.577 1.024 5.578 5.578 0 0 1 1.275.675" transform="translate(-561.183 -809.611)" style="fill:#f9d6cd"/>
            <path data-name="패스 1759" d="M646.794 835.157a2.055 2.055 0 0 1 3.3.576 2.52 2.52 0 0 1 .006 1.99 4.318 4.318 0 0 1-1.222 1.619 6.781 6.781 0 0 1-1.577 1.024 5.577 5.577 0 0 0-1.275.675" transform="translate(-604.45 -809.611)" style="fill:#f9d6cd"/>
            <path data-name="패스 1760" d="M650.976 837.23a2.27 2.27 0 0 0-1.57.414q.713.11 1.42.256c.26.054.563.151.635.406a.635.635 0 0 1-.769.886l-.9-.113a.728.728 0 0 0 .533.371.322.322 0 0 1 .19.059.246.246 0 0 1 .047.195 1.761 1.761 0 0 1-1.35 1.562 1.876 1.876 0 0 0 1.584-.5 3.539 3.539 0 0 0 .893-1.454c.125-.35.4-1.036.1-1.355-.234-.262-.489-.632-.813-.727z" transform="translate(-606.552 -811.354)" style="fill:#e7b9ac"/>
            <path data-name="패스 1761" d="M583.138 837.23a2.27 2.27 0 0 1 1.57.414q-.714.11-1.42.256c-.26.054-.563.151-.635.406a.635.635 0 0 0 .769.886l.9-.113a.728.728 0 0 1-.533.371.321.321 0 0 0-.189.059.246.246 0 0 0-.048.195 1.761 1.761 0 0 0 1.35 1.562 1.875 1.875 0 0 1-1.583-.5 3.539 3.539 0 0 1-.893-1.454c-.125-.35-.4-1.036-.1-1.355.233-.262.486-.632.812-.727z" transform="translate(-562.271 -811.354)" style="fill:#e7b9ac"/>
            <path data-name="패스 1762" d="M593.372 796.817a4.065 4.065 0 0 0-2.318.659 5.518 5.518 0 0 0-1.709 3.013l-1.054 3.4a5.371 5.371 0 0 1-1.147 2.3c-1.167 1.165-3.085 1.049-4.722.761 1.32-2.54-.611-5.741.352-8.431a7.623 7.623 0 0 1 .912-1.657 14.085 14.085 0 0 1 2.759-3.215 6.066 6.066 0 0 1 3.935-1.447 7.1 7.1 0 0 1 4.453 1.875c.494.555-.173 3.245-.178 3.285-.108.86-.525-.56-1.283-.543z" transform="translate(-562.425 -781.618)" style="fill:#3b3230"/>
            <path data-name="패스 1763" d="M618.891 796.659a4.786 4.786 0 0 1 2.491.816 5.521 5.521 0 0 1 1.71 3.013l1.054 3.4a5.371 5.371 0 0 0 1.147 2.3c1.167 1.165 3.085 1.049 4.722.761-1.32-2.54.611-5.741-.352-8.431a7.625 7.625 0 0 0-.912-1.657 14.086 14.086 0 0 0-2.759-3.215 6.066 6.066 0 0 0-3.935-1.447 7.1 7.1 0 0 0-4.453 1.875c-.519.583-.57 2.24-.464 3.075.055.432.3.147.63-.085a2.011 2.011 0 0 1 1.121-.405z" transform="translate(-585.331 -781.618)" style="fill:#3b3230"/>
        </g>
    </g>
</svg>
