<svg xmlns="http://www.w3.org/2000/svg" width="64" height="64" viewBox="0 0 64 64">
    <defs>
        <clipPath id="q1wbqcu1da">
            <ellipse data-name="타원 551" cx="32" cy="31.993" rx="32" ry="31.993" transform="translate(.05)" style="fill:none"/>
        </clipPath>
    </defs>
    <g transform="translate(-752.445 -761.238)">
        <circle data-name="타원 526" cx="32" cy="32" r="32" transform="translate(752.445 761.238)" style="fill:#f7ebdf"/>
        <g transform="translate(752.395 761.238)" style="clip-path:url(#q1wbqcu1da)">
            <g data-name="그룹 103603" transform="translate(.048 -.377)">
                <g data-name="그룹 103602">
                    <path data-name="패스 1714" d="M801.311 894.179s5.78-1.653 6.164-1.855 9.5 2.271 9.5 2.271h4.683l2.624-1.655 2.7-.576 5.988.892-1.422 12.278L818 908.4l-9.952-2.18-7.065-6.257z" transform="translate(-784.513 -847.373)" style="fill:#e8e8e8"/>
                    <g data-name="그룹 103601">
                        <path data-name="패스 1715" d="M837.363 864.049a18.492 18.492 0 0 0 .433 5.906c.514 1.922 3.175 4.367 3.144 5.078s-2.249 8.256-8.3 8.256-8.335-7.527-8.335-8.256 2.63-3.156 3.145-5.078a18.508 18.508 0 0 0 .433-5.906" transform="translate(-799.904 -828.719)" style="fill:#f2cabf"/>
                    </g>
                    <path data-name="패스 1716" d="m824.659 881.42-4.581 3.715 4.453 9.423 5.28-3.117-5.967-7.2z" transform="translate(-797.116 -840.184)" style="fill:#fff"/>
                    <path data-name="패스 1717" d="m853.9 881.42 4.575 3.755-4.492 9.383-5.28-3.117 5.967-7.2z" transform="translate(-816.011 -840.184)" style="fill:#fff"/>
                    <path data-name="패스 1718" d="m833.175 914.012 5.19 16.643h2.109l3.261-16.643-5.28-3.117z" transform="translate(-805.76 -859.639)" style="fill:#e8e8e8"/>
                    <path data-name="패스 1719" d="m840.42 912.7 1.808 3.568h2.379l1.685-3.568-3.055-1.8z" transform="translate(-810.542 -859.639)" style="fill:#1aa4a4"/>
                    <path data-name="패스 1720" d="m843.107 926.693-1.355 7.1 2.364 7.505h2.019l1.535-8.049-2.184-6.554z" transform="translate(-811.422 -870.066)" style="fill:#448787"/>
                    <path data-name="패스 1721" d="M822.45 897.751a3.608 3.608 0 0 0-1.7-.964 130.026 130.026 0 0 0-15.975-3.7c-1.265 2.556-1.911 10.17-11.7 10.17-9.9 0-10.523-7.481-11.617-9.744-.666.171-5.07 1.361-5.736 1.532-3.6.923-7.372 1.944-10.023 4.544a3.877 3.877 0 0 0-1.217 1.964c-.264 1.418.776 2.715 1.748 3.781 2.835 3.111 5.757 6.269 9.466 8.26a37.738 37.738 0 0 0 7.952 2.838q.649.178 1.305.354c3.823 1.021 7.782 1.873 11.616 1.015a24.939 24.939 0 0 0 5.906-2.394v.679c.072-.037.146 1.284.218 1.247 3.873-2.007 7.7-6.139 11.48-8.316.857-.494 1.712-.992 2.519-1.564 2.562-1.817 4.592-1.317 5.778-4.225.457-1.116.751-4.549-.02-5.477z" transform="translate(-760.393 -847.886)" style="fill:#f2bf3f"/>
                </g>
                <path data-name="패스 1722" d="M838.541 880.232a2.9 2.9 0 0 0 1.858.87 2.454 2.454 0 0 0 1.123-.395 6.532 6.532 0 0 0 2.9-3.692 15.068 15.068 0 0 1-2.583 1.359 5.056 5.056 0 0 1-2.869.276 7.537 7.537 0 0 1-1.055-.357 8.923 8.923 0 0 0-2.023-.764c-.026.46.744.983 1.043 1.27q.779.745 1.606 1.433z" transform="translate(-807.555 -837.277)" style="fill:#e7b9ac"/>
                <ellipse data-name="타원 550" cx="32.41" cy="32.404" rx="32.41" ry="32.404" style="fill:none"/>
            </g>
            <path data-name="패스 1723" d="M835.445 789.432a8.158 8.158 0 0 1 2.571-.472 4.957 4.957 0 0 1 1.172.1 10.7 10.7 0 0 1 2.509 1.13c.989.684 1.6 1.845 2.655 2.423a1.587 1.587 0 0 1 .413.27 1.227 1.227 0 0 1 .233.444 12.584 12.584 0 0 1 .77 7.089 15.838 15.838 0 0 1-.564 1.733 8.06 8.06 0 0 1-.576 1.315 6.124 6.124 0 0 1-1.237 1.428 12.6 12.6 0 0 1-1.037.832 1.356 1.356 0 0 1-.533.268.5.5 0 0 1-.523-.209l-14.736-9.12.117-3.367" transform="translate(-801.347 -779.534)" style="fill:#3d312b"/>
            <path data-name="패스 1724" d="M829.208 787.317a4.916 4.916 0 0 0-3.978-1.769 76.1 76.1 0 0 0-7.7.45 3.961 3.961 0 0 1-3.082-.432 6.1 6.1 0 0 0-1.076 3.8 9.209 9.209 0 0 1 .059 1.341c-.1 1.067-.826 1.964-1.155 2.984a8.213 8.213 0 0 0-.238 2.75 14.788 14.788 0 0 0 .19 2.375 10.316 10.316 0 0 0 .449 1.576 16.867 16.867 0 0 0 2.445 4.48" transform="translate(-791.754 -777.282)" style="fill:#3d312b"/>
            <path data-name="패스 1725" d="M813.115 833.2a1.842 1.842 0 0 0-1.827-.591 2.252 2.252 0 0 0-1.453 1.47 3.676 3.676 0 0 0 .083 2.42 5.161 5.161 0 0 0 1.295 1.9 6.629 6.629 0 0 0 1.623 1.159 5.225 5.225 0 0 1 1.306.752" transform="translate(-790.197 -808.306)" style="fill:#f9d6cd"/>
            <path data-name="패스 1726" d="M875.667 830.447a1.888 1.888 0 0 1 1.777-.8 2.153 2.153 0 0 1 1.556 1.33 3.784 3.784 0 0 1 .095 2.455 5.511 5.511 0 0 1-1.15 2.065 7.011 7.011 0 0 1-1.532 1.35 5.474 5.474 0 0 0-1.246.9" transform="translate(-833.427 -806.378)" style="fill:#f9d6cd"/>
            <path data-name="패스 1727" d="M837.213 803.723c.81 2.039 1.51 3.68 1.374 5.859a34.394 34.394 0 0 1-.358 5.272c-.612 2.219 0 3.745-1.268 5.7a14.515 14.515 0 0 1-6.819 5 6.222 6.222 0 0 1-2.984.144 14.349 14.349 0 0 1-3.351-1.145 9.264 9.264 0 0 1-2.456-2.013 9.406 9.406 0 0 1-1.8-3.652c-1.336-4.318-1.078-7.058-1.5-11.544 0 0-.417-6.96 8.284-7.348s10.247 2.136 10.878 3.727z" transform="translate(-795.734 -786.794)" style="fill:#f9d6cd"/>
            <path data-name="패스 1728" d="M879.682 832.844a2 2 0 0 0-1.552.6q.719.1 1.433.238a.742.742 0 0 1 .653.466 1.125 1.125 0 0 1 .011.382 1.051 1.051 0 0 1-.19.63.631.631 0 0 1-.551.123l-.9-.09a.733.733 0 0 0 .55.429.277.277 0 0 1 .192.063.355.355 0 0 1 .056.238 2.139 2.139 0 0 1-1.281 2 1.694 1.694 0 0 0 1.562-.709 4.732 4.732 0 0 0 .829-1.843c.109-.439.35-1.3.044-1.677-.257-.309-.526-.751-.856-.85z" transform="translate(-835.363 -808.484)" style="fill:#e7b9ac"/>
            <path data-name="패스 1729" d="M812.08 835.487a1.955 1.955 0 0 1 1.589.419q-.709.172-1.41.388c-.257.079-.557.214-.617.528a1.086 1.086 0 0 0 .016.376.992.992 0 0 0 .235.6.629.629 0 0 0 .557.062l.9-.186a.766.766 0 0 1-.517.48.29.29 0 0 0-.187.082.353.353 0 0 0-.039.239 2.016 2.016 0 0 0 1.421 1.826 1.653 1.653 0 0 1-1.606-.526 4.444 4.444 0 0 1-.959-1.719c-.141-.419-.442-1.238-.165-1.641.223-.332.459-.795.782-.928z" transform="translate(-791.195 -810.211)" style="fill:#e7b9ac"/>
            <path data-name="패스 1730" d="M818.151 804.193a7.211 7.211 0 0 1-.263-1.622c.047-.233 2.407-2.376 6.6-2.94a11.593 11.593 0 0 1 2.815-.107l4.072.446a3.066 3.066 0 0 1 1.869.64c.674.659.594 1.747.912 2.635a58.473 58.473 0 0 0 2.818 5.723c.446-.3.419-.827.485-1.361a18.012 18.012 0 0 0 .092-3.517 5.09 5.09 0 0 0-.4-1.834 5.556 5.556 0 0 0-1.557-1.768 9.809 9.809 0 0 0-1.958-1.357 8.732 8.732 0 0 0-2.305-.683 37.138 37.138 0 0 0-6.973-.4 11.008 11.008 0 0 0-2.216.181 10.594 10.594 0 0 0-4.429 2.606 6.557 6.557 0 0 0-1.427 1.529 6.9 6.9 0 0 0-.652 3.617c0 .788-.019 4.072 1.1 4.022.088 0 .552-1.487.713-1.861a11.53 11.53 0 0 0 .656-1.855 4.476 4.476 0 0 0 .048-2.094z" transform="translate(-794.135 -785.529)" style="fill:#3d312b"/>
            <path data-name="패스 1731" d="m875.311 823.529.223 1.615a16.193 16.193 0 0 1 .208 2.33.854.854 0 0 0 .369-.477 7.262 7.262 0 0 0 .7-3.659" transform="translate(-833.523 -802.226)" style="fill:#3d312b"/>
            <path data-name="패스 1732" d="m818.637 827.428-.136 1.66c-.065.795-.131 1.592-.119 2.391a.869.869 0 0 1-.255-.476 10.615 10.615 0 0 1-.51-3.722" transform="translate(-795.432 -804.828)" style="fill:#3d312b"/>
            <g data-name="그룹 103606">
                <path data-name="패스 1733" d="M836.319 833.874a.7.7 0 1 1-.677-.874.794.794 0 0 1 .677.874z" transform="translate(-806.89 -808.603)" style="fill:#0a0807"/>
                <path data-name="패스 1734" d="M859.964 833.941a.7.7 0 1 1-.677-.873.794.794 0 0 1 .677.873z" transform="translate(-822.497 -808.648)" style="fill:#0a0807"/>
                <g data-name="그룹 103604">
                    <path data-name="패스 1735" d="M844.326 835.351a.169.169 0 0 1-.129-.059l-.706-.827a.323.323 0 0 1-.089-.188.329.329 0 0 1 .12-.256 3.063 3.063 0 0 0 .822-1.922 7.116 7.116 0 0 0-.223-2.18.17.17 0 0 1 .332-.076 7.431 7.431 0 0 1 .23 2.285 3.4 3.4 0 0 1-.921 2.134l-.006.006.7.8a.17.17 0 0 1-.019.24.172.172 0 0 1-.111.043z" transform="translate(-812.462 -806.432)" style="fill:#bd9886"/>
                </g>
                <path data-name="패스 1736" d="M827.663 845.08c0 .574-.821 1.038-1.83 1.035s-1.825-.471-1.824-1.046.821-1.038 1.83-1.035 1.826.466 1.824 1.046z" transform="translate(-799.663 -815.886)" style="fill:#eebaba"/>
                <path data-name="패스 1737" d="M863.7 843.65c0 .574-.821 1.038-1.83 1.035s-1.825-.471-1.823-1.046.821-1.038 1.829-1.035 1.824.471 1.824 1.046z" transform="translate(-823.45 -814.942)" style="fill:#eebaba"/>
                <path data-name="패스 1738" d="M859.73 825.056a1.408 1.408 0 0 1 .72.259 5.774 5.774 0 0 1-1.857.066 7.417 7.417 0 0 1-2.1.07c.067-.363 1.226-.4 1.475-.424a7.233 7.233 0 0 1 1.762.029z" transform="translate(-821.104 -803.314)" style="fill:#0a0807"/>
                <path data-name="패스 1739" d="M831.293 825.279a6.445 6.445 0 0 0-2.5.083.968.968 0 0 0-.761.455 2.963 2.963 0 0 0 1.088-.025 17.285 17.285 0 0 1 3.042-.144 1.635 1.635 0 0 0-1.411-.385" transform="translate(-802.319 -803.447)" style="fill:#0a0807"/>
                <g data-name="그룹 103605">
                    <path data-name="패스 1740" d="M843.067 856.23a4.876 4.876 0 0 0 1.1-1.841 3.155 3.155 0 0 0 .109-.449 33.259 33.259 0 0 1-8.22.341 4.076 4.076 0 0 1-.5-.051 10.729 10.729 0 0 0 .672 1.509 4.2 4.2 0 0 0 .521.65 27.317 27.317 0 0 1 6.318-.159z" transform="translate(-807.283 -822.424)" style="fill:#0a0807"/>
                    <path data-name="패스 1741" d="M843.943 852.291a1.676 1.676 0 0 0-.006-.668.24.24 0 0 0-.094-.162.265.265 0 0 0-.184-.007 31.458 31.458 0 0 1-3.281.5 19.91 19.91 0 0 1-2.875.069 44.18 44.18 0 0 0-2.44-.027c-.038 0 .038.254.161.589a4.052 4.052 0 0 0 .5.051 33.247 33.247 0 0 0 8.219-.345z" transform="translate(-806.951 -820.775)" style="fill:#fff"/>
                    <path data-name="패스 1742" d="M839.065 860.617a4.09 4.09 0 0 0 1.11.834 4.442 4.442 0 0 0 3.8.036 4.618 4.618 0 0 0 1.412-1.031 27.323 27.323 0 0 0-6.322.161z" transform="translate(-809.6 -826.651)" style="fill:#ff5959"/>
                </g>
            </g>
        </g>
    </g>
</svg>
