<svg xmlns="http://www.w3.org/2000/svg" width="64" height="64" viewBox="0 0 64 64">
    <g data-name="그룹 103559">
        <path data-name="Shape 5" d="M5.284 35.706A5.251 5.251 0 0 1 0 30.5V5.33A5.313 5.313 0 0 1 5.284 0H42.8a5.313 5.313 0 0 1 5.284 5.33V30.5a5.251 5.251 0 0 1-5.284 5.206zM2.061 30.5a3.2 3.2 0 0 0 3.224 3.175H42.8a3.2 3.2 0 0 0 3.221-3.175V12.361H2.061zm0-25.171v4.952h43.96V5.33A3.241 3.241 0 0 0 42.8 2.079H5.284A3.241 3.241 0 0 0 2.061 5.33zM5.8 26.777a1.023 1.023 0 0 1 0-2.046h12.43a1.023 1.023 0 0 1 0 2.046zm28.83-6.185a1.024 1.024 0 0 1 0-2.046h4.92a1.024 1.024 0 0 1 0 2.046zm-9.616 0a1.024 1.024 0 0 1 0-2.046h4.92a1.024 1.024 0 0 1 0 2.046zm-9.617 0a1.024 1.024 0 0 1 0-2.046h4.92a1.024 1.024 0 0 1 0 2.046zm-9.617 0a1.024 1.024 0 0 1 0-2.046h4.92a1.024 1.024 0 0 1 0 2.046z" transform="translate(8.001 14.877)" style="fill:#fff"/>
    </g>
</svg>
