<svg xmlns="http://www.w3.org/2000/svg" width="24" height="24" viewBox="0 0 24 24">
    <path data-name="Rectangle 1" style="fill:transparent" d="M0 0h24v24H0z"/>
    <path data-name="Ellipse 1 copy" d="M2.925 11.991a8.908 8.908 0 0 1 7.485-8.905l.715-.356h1.066v5.343a4.053 4.053 0 0 0-3.92 3.918 3.742 3.742 0 0 0 7.484 0h5.346v1.069h-.068a9.086 9.086 0 0 1-18.108-1.069zm1.069 0a8.015 8.015 0 0 0 15.959 1.069h-3.252a4.81 4.81 0 0 1-9.5-1.069 4.909 4.909 0 0 1 3.924-4.63V3.799a8.432 8.432 0 0 0-7.131 8.192zm16.931-1.069h-4.979a4 4 0 0 0-2.685-2.492V3.086a9.156 9.156 0 0 1 8.128 7.836zm-6.6-3.205a5.2 5.2 0 0 1 2.33 2.137h3.428a8.43 8.43 0 0 0-5.758-5.7z"/>
</svg>
