<svg xmlns="http://www.w3.org/2000/svg" width="32" height="32" viewBox="0 0 32 32">
    <path data-name="사각형 16338" style="fill:none" d="M0 0h32v32H0z"/>
    <g data-name="그룹 103580">
        <path data-name="패스 19511" d="M17.508 13.305a.79.79 0 0 0 1.348.559l3.3-3.305a.729.729 0 0 0 .053-.058V10.5a.6.6 0 0 0 .042-.057l.006-.008c.011-.018.024-.038.034-.058v-.009l.029-.061V10.3l.023-.065v-.006l.016-.069v-.01a.577.577 0 0 1 .01-.071V9.92a.407.407 0 0 0-.01-.07v-.005a1.671 1.671 0 0 0-.016-.068v-.006a.735.735 0 0 0-.023-.066V9.7c-.009-.02-.018-.041-.029-.061V9.63c-.01-.02-.023-.039-.034-.058l-.006-.008a.759.759 0 0 0-.042-.057V9.5a.729.729 0 0 0-.053-.058l-3.3-3.3a.79.79 0 1 0-1.117 1.118l1.956 1.95h-7.029a.791.791 0 0 0 0 1.581h7.029l-1.955 1.954a.785.785 0 0 0-.232.56" style="fill:#111" transform="translate(4.813 6)"/>
        <path data-name="패스 19512" d="M15.648 16.338A8.5 8.5 0 1 1 10 1.5a8.073 8.073 0 0 1 5.518 2.155.778.778 0 0 0 1.03-.011.8.8 0 0 0-.01-1.2 10 10 0 1 0 .111 15.018.752.752 0 0 0-1-1.122" style="fill:#111" transform="translate(4.813 6)"/>
    </g>
</svg>
