<svg xmlns="http://www.w3.org/2000/svg" width="96" height="96" viewBox="0 0 96 96">
    <defs>
        <linearGradient id="ag2qauxclb" x1=".5" y1="1.067" x2=".5" y2=".081" gradientUnits="objectBoundingBox">
            <stop offset="0" stop-color="#ffd7ba"/>
            <stop offset="1" stop-color="#b47544"/>
        </linearGradient>
        <clipPath id="dqnb0hrsha">
            <circle data-name="타원 45" cx="39.581" cy="39.581" style="fill:#ecdbc3" r="39.581"/>
        </clipPath>
    </defs>
    <g transform="translate(-556.511 -312.891)">
        <path data-name="사각형 16628" transform="translate(556.511 312.892)" style="fill:none" d="M0 0h96v96H0z"/>
        <circle data-name="타원 64" cx="39.581" cy="39.581" transform="translate(567.585 329.729)" style="fill:#ecdbc3" r="39.581"/>
        <g data-name="마스크 그룹 1" transform="translate(567.585 329.729)" style="clip-path:url(#dqnb0hrsha)">
            <g transform="translate(.77 51.95)">
                <ellipse data-name="타원 46" cx="2.226" cy="2.474" rx="2.226" ry="2.474" transform="translate(3.463)" style="fill:#fff"/>
                <ellipse data-name="타원 47" cx="2.474" cy="2.721" rx="2.474" ry="2.721" transform="translate(0 1.979)" style="fill:#fff"/>
                <ellipse data-name="타원 48" cx="2.226" cy="1.979" rx="2.226" ry="1.979" transform="translate(6.432 3.463)" style="fill:#fff"/>
                <path data-name="사각형 16346" transform="translate(2.474 3.958)" style="fill:#fff" d="M0 0h5.442v3.463H0z"/>
            </g>
            <g data-name="그룹 103480">
                <g data-name="그룹 103475">
                    <path data-name="패스 19461" d="M132.692 77.646h16.761v64.4h-16.742" transform="translate(-93.316 -35.971)" style="fill-rule:evenodd;fill:#d89d70"/>
                    <path data-name="사각형 16371" transform="translate(22.595 41.675)" style="fill:url(#ag2qauxclb)" d="M0 0h16.78v64.399H0z"/>
                    <path data-name="패스 19462" d="m114.051 76.829 16.78-7.371 16.761 7.371-16.76 7.371z" transform="translate(-91.456 -35.154)" style="fill:#efbf9b;fill-rule:evenodd"/>
                </g>
                <g data-name="그룹 103479">
                    <path data-name="패스 19463" d="M126.957 91.931h-.64V95.3h-7.069v-3.369h-1.279v51.539h1.279v-3.514h7.069v3.514h1.283V91.931zm-7.709 4.1h7.069v4.149h-7.069zm0 4.881h7.069v4.148h-7.069zm0 4.881h7.069v4.148h-7.069zm0 4.88h7.069v4.149h-7.069zm0 4.881h7.069v4.146h-7.069zm0 4.88h7.069v4.149h-7.069zm0 4.881h7.069v4.148h-7.069zm0 4.881h7.069v4.148h-7.069zm0 9.028v-4.148h7.069v4.148z" transform="translate(-91.848 -37.397)" style="fill:#d1d3d4;mix-blend-mode:multiply;isolation:isolate"/>
                    <g data-name="그룹 103478">
                        <g data-name="그룹 103476">
                            <path data-name="사각형 16372" transform="rotate(8.291 -362.419 208.673)" style="fill:#efbf9b" d="M0 0h1.28v51.99H0z"/>
                            <path data-name="사각형 16373" transform="rotate(-81.708 70.993 41.752)" style="fill:#845a35" d="M0 0h51.99v.64H0z"/>
                        </g>
                        <g data-name="그룹 103477">
                            <path data-name="사각형 16374" transform="rotate(8.291 -358.288 265.662)" style="fill:#efbf9b" d="M0 0h1.28v51.99H0z"/>
                            <path data-name="사각형 16375" transform="rotate(-81.709 75.122 36.976)" style="fill:#845a35" d="M0 0h51.99v.64H0z"/>
                        </g>
                        <path data-name="패스 19464" d="M119.172 144.951h-7.589l.092-.687h7.589z" transform="translate(-91.211 -42.619)" style="fill:#c4976d"/>
                        <path data-name="패스 19465" d="M119.857 140.048h-7.589l.092-.687h7.589z" transform="translate(-91.279 -42.13)" style="fill:#c4976d"/>
                        <path data-name="패스 19466" d="M120.569 135.356h-7.589l.092-.687h7.589z" transform="translate(-91.35 -41.661)" style="fill:#c4976d"/>
                        <path data-name="패스 19467" d="M121.291 130.189H113.7l.092-.687h7.589z" transform="translate(-91.422 -41.146)" style="fill:#c4976d"/>
                        <path data-name="패스 19468" d="M121.992 125.023H114.4l.092-.687h7.589z" transform="translate(-91.492 -40.63)" style="fill:#c4976d"/>
                        <path data-name="패스 19469" d="M122.8 119.856h-7.589l.092-.687h7.589z" transform="translate(-91.573 -40.115)" style="fill:#c4976d"/>
                        <path data-name="패스 19470" d="M123.561 114.69h-7.589l.092-.687h7.589z" transform="translate(-91.648 -39.599)" style="fill:#c4976d"/>
                        <path data-name="패스 19471" d="M124.325 109.524h-7.589l.092-.687h7.589z" transform="translate(-91.725 -39.084)" style="fill:#c4976d"/>
                        <path data-name="패스 19472" d="M125.076 104.357h-7.589l.092-.687h7.589z" transform="translate(-91.8 -38.568)" style="fill:#c4976d"/>
                        <path data-name="패스 19473" d="M125.8 99.191h-7.589l.092-.687h7.589z" transform="translate(-91.872 -38.053)" style="fill:#c4976d"/>
                    </g>
                </g>
            </g>
        </g>
        <g data-name="구름" transform="translate(559.978 339.506)">
            <circle data-name="타원 46" cx="5.955" cy="5.955" transform="translate(7.278)" style="fill:#fff" r="5.955"/>
            <circle data-name="타원 47" cx="5.955" cy="5.955" transform="translate(0 4.632)" style="fill:#fff" r="5.955"/>
            <circle data-name="타원 48" cx="4.632" cy="4.632" transform="translate(15.218 7.278)" style="fill:#fff" r="4.632"/>
            <path data-name="사각형 16346" transform="translate(5.955 9.263)" style="fill:#fff" d="M0 0h13.233v7.278H0z"/>
        </g>
        <g data-name="구름" transform="translate(634.601 381.806)">
            <ellipse data-name="타원 46" cx="4.203" cy="4.386" rx="4.203" ry="4.386" transform="translate(5.482)" style="fill:#fff"/>
            <circle data-name="타원 47" cx="4.386" cy="4.386" transform="translate(0 3.289)" style="fill:#fff" r="4.386"/>
            <ellipse data-name="타원 48" cx="3.472" cy="3.289" rx="3.472" ry="3.289" transform="translate(10.965 5.482)" style="fill:#fff"/>
            <path data-name="사각형 16346" transform="translate(4.386 6.579)" style="fill:#fff" d="M0 0h9.503v5.482H0z"/>
        </g>
        <g data-name="그룹 103509" transform="translate(600.762 312.891)">
            <ellipse data-name="타원 78" cx="5.631" cy="1.841" rx="5.631" ry="1.841" transform="rotate(21 -147.579 32.288)" style="opacity:.2"/>
            <path data-name="패스 19525" d="M-153.651 58.576h.109a.742.742 0 0 0 .75-.672l.024-1.206a.661.661 0 0 0-.724-.631h-.109a.741.741 0 0 0-.75.672l-.024 1.205a.661.661 0 0 0 .724.632z" transform="translate(164.263 -17.913)" style="fill:#ffd0b0"/>
            <path data-name="패스 19526" d="M-156.609 37.366c3 1.782 4.985 4.335 7.3 6.8a12.02 12.02 0 0 0 10.986 4.019c12.356-1.643 17.069-14.359 16.673-25.1a35.347 35.347 0 0 1-18.5 4.376 83.545 83.545 0 0 1-16.174-2.67c-3.428-.832-6.776-1.631-10.032-1.229a5.359 5.359 0 0 0-4.037 3.886 4.467 4.467 0 0 0 .653 3.857c3.686 2.769 9.323 3.802 13.131 6.061z" transform="translate(171.63 -2.907)" style="fill:#f97878"/>
            <path data-name="패스 19527" d="M-165.976 89.489a2.44 2.44 0 0 0-1.945.071l-.756.384c-.573.291-.636.735-.139.987a2.437 2.437 0 0 0 1.944-.071l.756-.384c.573-.291.636-.734.14-.987z" transform="translate(170.986 -33.045)" style="fill:#543329"/>
            <path data-name="패스 19528" d="M-155.761 94.707a2.439 2.439 0 0 0-1.945.071l-.756.384c-.573.291-.636.735-.14.987a2.438 2.438 0 0 0 1.945-.071l.756-.384c.574-.294.636-.734.14-.987z" transform="translate(166.338 -35.42)" style="fill:#543329"/>
            <g data-name="그룹 103492">
                <path data-name="패스 19529" d="m-169.083 49.06 1.911 21.488z" transform="translate(170.955 -14.727)" style="fill:#4056a9"/>
                <g data-name="그룹 103491">
                    <path data-name="패스 19530" d="M-171.661 47.924c.637 7.163 1.913 14.475 2.55 21.638.161 1.8 2.325 1.673 2.163-.15l-1.911-21.488c-.161-1.8-2.965-1.822-2.8 0z" transform="translate(172.131 -13.591)" style="fill:#af8d7e"/>
                </g>
            </g>
            <g data-name="그룹 103494">
                <path data-name="패스 19531" d="m-162.226 55.115 3.8 21.115z" transform="translate(167.836 -17.481)" style="fill:#4056a9"/>
                <g data-name="그룹 103493">
                    <path data-name="패스 19532" d="M-164.8 54.152c1.267 7.038 3.238 14.208 4.505 21.246.322 1.789 2.4 1.329 2.078-.472l-3.8-21.115c-.322-1.789-3.106-1.461-2.782.341z" transform="translate(169.019 -16.347)" style="fill:#af8d7e"/>
                </g>
            </g>
            <g data-name="그룹 103495">
                <path data-name="패스 19533" d="M-168.4 3.473c.682-1.206-.669-1.7-1.347-.5-2.864 5.067-3.643 10.942-1.681 15.434l1.853-.989c-1.799-3.99-1.408-9.384 1.175-13.945z" transform="translate(172.519 6.559)" style="fill:#1aa4a4"/>
            </g>
            <g data-name="그룹 103496">
                <path data-name="패스 19534" d="M-158.054 44.188c-.114 1.385 1.373 1.392 1.487.014.481-5.819-1.265-11.477-4.918-14.706l-1.267 1.69c3.29 2.843 5.131 7.764 4.698 13.002z" transform="translate(168.074 -5.824)" style="fill:#1aa4a4"/>
            </g>
            <path data-name="패스 19535" d="M-171.676 31.553a68.02 68.02 0 0 0-.13 8.587c.137 2.258-.088 2.372 4.179 4.347a4.4 4.4 0 0 0 1.686.411c.585.02.814-.317 1.14-.756.292-.393.068-1.988.058-2.461-.227-11.445.472-10.741.033-12.288-.467-1.646-2.111-1.984-4.152-2.489-1.911-.472-2.686 2.816-2.814 4.649z" transform="translate(172.233 -4.624)" style="fill:#1aa4a4"/>
            <g data-name="그룹 103507">
                <g data-name="그룹 103497">
                    <path data-name="패스 19536" d="M-166.8-8.235a3.286 3.286 0 0 1-.215-4c.412-.661.8-1 1.224-1.063.544-.083.982.3 1.446.7.107.094.219.191.334.284a.326.326 0 0 1 .05.456.317.317 0 0 1-.45.051c-.124-.1-.24-.2-.352-.3-.365-.317-.679-.591-.934-.553-.219.033-.481.292-.778.768a2.664 2.664 0 0 0 .126 3.194 1.7 1.7 0 0 0 .128.115.327.327 0 0 1 .05.456.317.317 0 0 1-.45.05 2.289 2.289 0 0 1-.179-.158z" transform="translate(170.272 13.654)" style="fill:#ffd33f"/>
                </g>
                <g data-name="그룹 103498">
                    <path data-name="패스 19537" d="M-160.079-.264a2.491 2.491 0 0 1-.162-.179.328.328 0 0 1 .041-.457.317.317 0 0 1 .451.043c.037.044.075.087.116.127a2.575 2.575 0 0 0 3.154.078c.465-.308.717-.578.746-.8.034-.258-.241-.573-.56-.937a9.16 9.16 0 0 1-.3-.352.327.327 0 0 1 .043-.457.317.317 0 0 1 .451.044c.094.115.192.226.286.334.4.463.788.9.715 1.453-.057.429-.384.829-1.03 1.257a3.179 3.179 0 0 1-3.951-.154z" transform="translate(166.965 9.085)" style="fill:#ffd33f"/>
                </g>
                <g data-name="그룹 103501">
                    <g data-name="그룹 103499">
                        <path data-name="패스 19538" d="M-170.01 3.747a2.658 2.658 0 0 0-1.158-.714c-.8-.209-1.267.269-1.049 1.068a2.679 2.679 0 0 0 .731 1.164 2.637 2.637 0 0 0 1.16.723c.792.208 1.257-.275 1.037-1.079a2.7 2.7 0 0 0-.721-1.162z" transform="translate(172.405 6.239)" style="fill:#ffd33f"/>
                    </g>
                    <g data-name="그룹 103500">
                        <path data-name="패스 19539" d="M-169.749 3.478a2.652 2.652 0 0 0-1.158-.714c-.8-.21-1.267.268-1.048 1.068A2.676 2.676 0 0 0-171.223 5a2.634 2.634 0 0 0 1.16.723c.792.208 1.257-.275 1.037-1.08a2.7 2.7 0 0 0-.723-1.165z" transform="translate(172.286 6.362)" style="fill:#ffe840"/>
                    </g>
                </g>
                <g data-name="그룹 103502">
                    <path data-name="패스 19540" d="M-169.257 4.993a.566.566 0 0 0-.252-.159c-.169-.045-.268.057-.222.226a.571.571 0 0 0 .162.253.562.562 0 0 0 .253.161c.168.044.266-.058.22-.228a.571.571 0 0 0-.161-.253z" transform="translate(171.254 5.402)" style="fill:#ffb140"/>
                </g>
                <g data-name="그룹 103503">
                    <path data-name="패스 19541" d="M-169.632 2.654A3.342 3.342 0 0 0-167.811 0l.643.677.013.012.011.012.678.641a3.287 3.287 0 0 0-2.595 1.886z" transform="translate(171.205 7.6)" style="fill:#ffb140"/>
                </g>
                <g data-name="그룹 103504">
                    <path data-name="패스 19542" d="M-165.937-5.175a1.928 1.928 0 0 1-.52-.832 1.1 1.1 0 0 1-.033-.176c-.966-3.016 2.855-7.015 2.855-7.015l1.919 3.234.269.168.171.27 3.222 1.894s-3.887 3.934-6.879 3a1.006 1.006 0 0 1-.174-.031 1.892 1.892 0 0 1-.83-.512z" transform="translate(169.846 13.603)" style="fill:#ffd33f"/>
                </g>
                <g data-name="그룹 103505">
                    <path data-name="패스 19543" d="M-157.173-12.346a5.664 5.664 0 0 0-2.441-1.488c-1.712-.45-2.719.576-2.251 2.292a5.721 5.721 0 0 0 1.526 2.455 5.621 5.621 0 0 0 2.447 1.508c1.7.447 2.7-.59 2.227-2.316a5.767 5.767 0 0 0-1.508-2.451z" transform="translate(167.723 13.94)" style="fill:#ffe840"/>
                </g>
                <g data-name="그룹 103506">
                    <path data-name="패스 19544" d="M-158.432-10.152a5.094 5.094 0 0 1 1.3 2.07 2.68 2.68 0 0 1 .11.633c1.011.011 1.522-.778 1.167-1.989a5.1 5.1 0 0 0-1.3-2.071 5 5 0 0 0-2.064-1.286c-1.216-.345-1.991.2-1.943 1.253a2.521 2.521 0 0 1 .666.1 5.007 5.007 0 0 1 2.064 1.29z" transform="translate(167.352 13.466)" style="fill:#ffb140"/>
                    <path data-name="패스 19545" d="M-159.733-7.72a4.969 4.969 0 0 0 2.068 1.3 2.481 2.481 0 0 0 .646.1 2.681 2.681 0 0 0-.11-.633 5.094 5.094 0 0 0-1.3-2.07 5.008 5.008 0 0 0-2.064-1.286 2.521 2.521 0 0 0-.666-.1 2.609 2.609 0 0 0 .108.613 5.05 5.05 0 0 0 1.318 2.076z" transform="translate(167.35 12.333)" style="fill:#ff8f43"/>
                </g>
            </g>
            <path data-name="패스 19546" d="M-158.458 30.128a6.541 6.541 0 0 0-5.575-1.386c-.862.192-1.678.56-2.542.736a2.131 2.131 0 0 1-2.159-.528 1.765 1.765 0 0 1-.2-1.536 5.171 5.171 0 0 1 .752-1.408 8.616 8.616 0 0 1 4.668-.293 8.189 8.189 0 0 1 3.549 2.846z" transform="translate(170.926 -4.001)" style="fill:#f97878"/>
            <g data-name="그룹 103508">
                <path data-name="패스 19547" d="M-165.47 17.556c0-.072-.007-.147-.016-.217 0-.029-.013-.043-.023-.048a.791.791 0 0 0-.427-.729 2.32 2.32 0 0 0-1.692-.35c-.179-.015-.379.057-.56.051-.277-.008-.455-.192-.731-.2a1.15 1.15 0 0 0-.31.044 1.227 1.227 0 0 0-.741.443.643.643 0 0 0-.085.3 1.459 1.459 0 0 0 .44 1.082.639.639 0 0 0 .336.3c.638.249 1.68-.461 2.267.068a.683.683 0 0 1 .214.313c.054.192.005.452.189.552a.25.25 0 0 0 .049.018.718.718 0 0 1-.019-.176c0-.288.16-.55.348-.586s.336.169.332.457a.627.627 0 0 1-.3.571.35.35 0 0 1 .019.113v.163a2.122 2.122 0 0 0 .274-.384 5.149 5.149 0 0 0 .26-.593c.033-.086.066-.171.093-.257a2.146 2.146 0 0 0 .088-.5 3.416 3.416 0 0 0-.005-.435z" transform="translate(171.398 .289)" style="fill:#27317a"/>
                <path data-name="패스 19548" d="M-165.57 21.136a.627.627 0 0 0 .3-.571c0-.288-.144-.493-.332-.457s-.344.3-.348.586a.717.717 0 0 0 .019.176.25.25 0 0 1-.049-.018c-.183-.1-.135-.359-.189-.552a.683.683 0 0 0-.214-.313c-.587-.528-1.629.181-2.267-.068l-.022 1.4a1.373 1.373 0 0 0 1.6 1.366v1.347a1.535 1.535 0 0 0-.444.2c-.384.271-.341.612.094.758l.548.184a1.877 1.877 0 0 0 1.489-.228c.383-.271.341-.612-.095-.758l-.086-.029a.4.4 0 0 0 .016-.108q0-1.323-.01-2.645v-.163a.35.35 0 0 0-.01-.107z" transform="translate(170.767 -1.406)" style="fill:#ffd0b0"/>
            </g>
        </g>
    </g>
</svg>
