<svg xmlns="http://www.w3.org/2000/svg" width="64" height="64" viewBox="0 0 64 64">
    <g data-name="그룹 103558">
        <path data-name="Shape 4" d="M3.739 51.982a3.71 3.71 0 0 1-1.451-.295A3.81 3.81 0 0 1 0 48.184V3.8a3.824 3.824 0 0 1 1.093-2.686A3.749 3.749 0 0 1 2.283.3 3.662 3.662 0 0 1 3.739 0h25.115a3.654 3.654 0 0 1 1.456.3 3.724 3.724 0 0 1 1.185.81 3.824 3.824 0 0 1 1.1 2.689v7.4a1.129 1.129 0 1 1-2.258 0V3.8a1.507 1.507 0 0 0-.437-1.068 1.5 1.5 0 0 0-.468-.32 1.447 1.447 0 0 0-.577-.119H3.739a1.454 1.454 0 0 0-.577.118 1.508 1.508 0 0 0-.473.325 1.544 1.544 0 0 0-.316.478 1.52 1.52 0 0 0-.115.586v44.384a1.5 1.5 0 0 0 .115.584 1.515 1.515 0 0 0 .794.808 1.475 1.475 0 0 0 .572.113h25.115a1.475 1.475 0 0 0 .581-.119 1.507 1.507 0 0 0 .9-1.386V37.277a1.129 1.129 0 1 1 2.258 0v10.907a3.8 3.8 0 0 1-2.278 3.5 3.712 3.712 0 0 1-1.461.3zM21.2 38.134a1.862 1.862 0 0 1-.7-1.441v-3.058h-3.791c-1.9 0-3.04-1.7-3.04-3.618v-12a3.467 3.467 0 0 1 3.439-3.486h18.17a3.466 3.466 0 0 1 3.438 3.486v12a3.9 3.9 0 0 1-3.793 3.618h-7.59l-4.921 4.3a1.12 1.12 0 0 1-.755.294 1.108 1.108 0 0 1-.457-.095zm-5.283-20.116v12c0 .665.894 1.324 1.551 1.324h3.794a1.917 1.917 0 0 1 1.518 1.529v1.654l3.277-3.006c.207-.189 1-.177 1.275-.177h7.59c.655 0 1.544-.659 1.544-1.324v-12a1.2 1.2 0 0 0-1.189-1.207H17.108a1.2 1.2 0 0 0-1.191 1.207zm5.762 9.511a1.153 1.153 0 1 1 0-2.306h9.81a1.153 1.153 0 1 1 0 2.306zm0-4.587a1.153 1.153 0 1 1 0-2.306h9.81a1.153 1.153 0 1 1 0 2.306zM11.825 6.887a1.147 1.147 0 1 1 0-2.293h9.013a1.147 1.147 0 1 1 0 2.293z" transform="translate(13.007 6.021)" style="fill:#fff"/>
    </g>
</svg>
