<svg xmlns="http://www.w3.org/2000/svg" width="32" height="32" viewBox="0 0 32 32">
    <defs>
        <clipPath id="ucxoryqkja">
            <path data-name="사각형 16362" style="fill:none" d="M0 0h24v18H0z"/>
        </clipPath>
    </defs>
    <path data-name="사각형 16351" style="fill:none" d="M0 0h32v32H0z"/>
    <g data-name="그룹 103612">
        <g data-name="그룹 103611" style="clip-path:url(#ucxoryqkja)" transform="translate(4 7)">
            <path data-name="패스 19584" d="M22 0H2a2 2 0 0 0-2 2v14a2 2 0 0 0 2 2h15.5v-1H2a1 1 0 0 1-1-1V2a1 1 0 0 1 1-1h20a1 1 0 0 1 1 1v14a1 1 0 0 1-1 1h-1.5v1H22a2 2 0 0 0 2-2V2a2 2 0 0 0-2-2" style="fill:#333"/>
            <path data-name="패스 19585" d="M18 17.5a.5.5 0 1 1-.5-.5.5.5 0 0 1 .5.5" style="fill:#333"/>
            <path data-name="패스 19586" d="M21 17.5a.5.5 0 1 1-.5-.5.5.5 0 0 1 .5.5" style="fill:#333"/>
            <path data-name="사각형 16361" transform="translate(0 13)" style="fill:#333" d="M0 0h24v1H0z"/>
            <path data-name="패스 19587" d="M7.5 4.5h-3a.5.5 0 0 0 0 1h3a.5.5 0 0 0 0-1" style="fill:#1aa4a4"/>
            <path data-name="패스 19588" d="M5.5 8.5h-1a.5.5 0 0 0 0 1h1a.5.5 0 0 0 0-1" style="fill:#333"/>
            <path data-name="패스 19589" d="M9.5 8.5h-1a.5.5 0 0 0 0 1h1a.5.5 0 0 0 0-1" style="fill:#333"/>
            <path data-name="패스 19590" d="M13.5 8.5h-1a.5.5 0 0 0 0 1h1a.5.5 0 0 0 0-1" style="fill:#333"/>
            <path data-name="패스 19591" d="M17.5 8.5h-1a.5.5 0 0 0 0 1h1a.5.5 0 0 0 0-1" style="fill:#333"/>
        </g>
    </g>
</svg>
