<svg xmlns="http://www.w3.org/2000/svg" width="32" height="32" viewBox="0 0 32 32">
    <defs>
        <clipPath id="kez9o8j7ca">
            <path data-name="사각형 16358" style="fill:none" d="M0 0h14v24H0z"/>
        </clipPath>
    </defs>
    <path data-name="사각형 16351" style="fill:none" d="M0 0h32v32H0z"/>
    <g data-name="그룹 103608">
        <g data-name="그룹 103607" style="clip-path:url(#kez9o8j7ca)" transform="translate(9 4)">
            <path data-name="패스 19571" d="M12 0H2a2 2 0 0 0-2 2v20a2 2 0 0 0 2 2h5.5v-1H2a1 1 0 0 1-1-1V2a1 1 0 0 1 1-1h10a1 1 0 0 1 1 1v20a1 1 0 0 1-1 1h-1.5v1H12a2 2 0 0 0 2-2V2a2 2 0 0 0-2-2" style="fill:#333"/>
            <path data-name="패스 19572" d="M8 23.5a.5.5 0 1 1-.5-.5.5.5 0 0 1 .5.5" style="fill:#333"/>
            <path data-name="패스 19573" d="M11 23.5a.5.5 0 1 1-.5-.5.5.5 0 0 1 .5.5" style="fill:#333"/>
            <path data-name="사각형 16357" transform="translate(0 19)" style="fill:#333" d="M0 0h14v1H0z"/>
            <path data-name="패스 19574" d="M8.5 21h-3a.5.5 0 0 0 0 1h3a.5.5 0 0 0 0-1" style="fill:#1aa4a4"/>
            <path data-name="패스 19575" d="M7.5 2.5h-1a.5.5 0 0 0 0 1h1a.5.5 0 0 0 0-1" style="fill:#333"/>
        </g>
    </g>
</svg>
