<svg width="98" height="40" viewBox="0 0 98 40" fill="none" xmlns="http://www.w3.org/2000/svg">
<path d="M24.7578 13.2427V11.8529H26.7328V13.2427H29.4393V14.5594H28.0495C28.7078 15.2908 29.0735 16.3881 29.0735 17.6316C29.0735 20.0454 27.6837 21.8741 25.7819 21.8741C23.8069 21.8741 22.4171 20.0454 22.4171 17.6316C22.4171 16.3881 22.7828 15.2908 23.4412 14.5594H22.1245V13.2427H24.7578ZM25.7087 14.5594C24.9041 14.5594 24.3189 15.7297 24.3189 17.6316C24.3189 19.3871 24.9041 20.5575 25.7087 20.5575C26.5134 20.5575 27.0985 19.3871 27.0985 17.6316C27.0985 15.7297 26.5134 14.5594 25.7087 14.5594ZM32.6578 17.1195V24.8732H30.7559V11.8529H32.6578V15.8029H34.4864V17.1195H32.6578Z" fill="#008E71"/>
<path d="M38.0708 19.826H41.2893C42.1671 19.826 42.8254 19.826 43.63 19.4602V11.8529H45.5319V15.8029H47.3605V17.1195H45.5319V24.8732H43.63V20.7769C42.9717 21.0695 42.0208 21.1426 41.2162 21.1426H36.9005C36.0227 21.1426 35.4375 20.338 35.4375 19.3871V12.4381H37.3393V19.314C37.3393 19.314 37.5588 19.826 37.9977 19.826H38.0708Z" fill="#008E71"/>
<path d="M56.0651 17.1198C56.2846 16.3883 56.3577 15.4374 56.3577 14.5596V13.4624H49.555V12.1458H58.3327V14.4865C58.3327 15.4374 58.1864 16.3883 57.967 17.1198H59.7225V18.4364H48.092V17.1198H56.0651ZM58.2595 19.6799V24.9466H50.7985C50.067 24.9466 49.4818 24.1419 49.4818 23.191V19.6799H58.2595ZM51.4568 20.9966V23.191C51.4568 23.5568 51.6763 23.7031 52.042 23.7031H56.3577V20.9966H51.4568Z" fill="#008E71"/>
<path d="M69.8897 21.1428C69.8897 21.1428 70.1091 21.8011 70.1091 22.1668C70.1091 24.1418 68.2804 25.239 66.5249 25.239C64.6231 25.239 62.8675 24.0687 62.8675 22.1668C62.8675 21.8011 62.8675 21.4354 63.087 21.0696V18.1437H60.6731V16.8271H63.6721C63.2333 16.2419 62.9407 15.5104 62.9407 14.7789C62.9407 13.0965 64.4036 11.4873 66.5249 11.4873C68.6462 11.4873 70.1091 13.0234 70.1091 14.7789C70.1091 15.5836 69.8165 16.315 69.3777 16.8271H72.3036V18.1437H69.8897V21.0696V21.1428ZM66.4517 20.3382C65.9397 20.3382 65.2814 20.6307 64.9888 21.2159C64.8425 21.5085 64.7694 21.8011 64.7694 22.1668C64.7694 23.3372 65.6471 23.9955 66.4517 23.9955C67.2564 23.9955 68.1341 23.4103 68.1341 22.1668C68.1341 20.9233 67.2564 20.3382 66.4517 20.3382ZM66.4517 12.804C65.5008 12.804 64.7694 13.6817 64.7694 14.8521C64.7694 15.9493 65.5008 16.9002 66.4517 16.9002C67.4027 16.9002 68.061 16.0225 68.1341 14.8521C68.1341 13.7549 67.4027 12.804 66.4517 12.804ZM66.4517 19.0215C66.9638 19.0215 67.4758 19.0946 67.9147 19.3141V18.2169H64.9888V19.3141C65.4277 19.1678 65.9397 19.0215 66.4517 19.0215Z" fill="#008E71"/>
<path d="M79.9847 21.655C80.4236 20.5578 80.5699 19.3143 80.5699 17.9245V13.9014H73.7671V12.5847H82.5449V17.9245C82.5449 19.4606 82.3254 20.7772 81.8865 21.7282H83.9347V23.0448H72.3042V21.7282H79.9847V21.655Z" fill="#008E71"/>
<path d="M84.8853 18.2168H96.5157V19.5335H91.688V20.8501H89.713V19.5335H84.8853V18.2168ZM95.1991 17.4122H87.8112C87.0065 17.4122 86.3482 16.6076 86.3482 15.6567V14.0474H93.1509V13.2428H86.3482V11.9261H95.1259V14.0474C95.1259 14.7058 94.687 15.2909 94.175 15.2909H88.3232V15.5835C88.3232 15.5835 88.5426 16.0956 88.9084 16.0956H95.2722V17.4122H95.1991ZM88.25 21.3622H93.1509V20.1918H95.0528V24.9464H87.8112C87.0065 24.9464 86.3482 24.1418 86.3482 23.1909V20.1918H88.25V21.3622ZM88.25 22.6788V23.0446C88.25 23.4103 88.4695 23.6298 88.8352 23.6298H93.1509V22.6057H88.25V22.6788Z" fill="#008E71"/>
<path d="M9.03271 10.8287C9.03271 11.7796 9.83734 12.5842 10.7883 12.5842C11.7392 12.5842 12.5438 11.7796 12.5438 10.8287C12.5438 10.6824 12.5438 10.5361 12.4706 10.3898C12.3244 10.0972 12.1781 9.95092 12.1781 9.51203C12.1781 9 11.5197 9 11.2271 9C10.8614 9 10.4225 9 10.0568 9.21944C9.76419 9.36574 9.54475 9.58518 9.39845 9.80462C9.25216 10.0972 9.10586 10.3898 9.10586 10.6824" fill="#D80C18"/>
<path d="M19.5652 13.0232C19.5652 13.0232 19.1994 12.8038 18.7605 12.9501C18.1022 13.0964 16.0541 13.4621 12.8356 13.6084C11.3726 13.6084 9.69025 13.6084 8.08101 13.5352C6.76435 13.389 4.20419 13.0232 3.61901 12.9501C3.32642 12.9501 2.59494 12.8769 2.30235 13.1695C1.86347 13.5352 1.93662 14.1204 2.30235 14.6325C2.30235 14.6325 2.88753 15.5834 4.35048 15.876C6.39862 16.2417 9.61711 16.0954 10.6412 16.0223C12.9819 15.8028 14.8106 15.4371 16.2004 15.0713C16.2004 15.0713 18.1022 14.5593 19.0531 13.9741C19.4189 13.7547 19.9309 13.389 19.7115 13.0232H19.5652Z" fill="#008E71"/>
<path d="M12.617 17.2657C11.4466 16.6074 10.0568 16.6074 8.88643 17.2657C7.05774 18.2898 6.39942 20.6305 7.49663 22.5323C8.3744 23.9221 9.61791 23.6296 9.9105 23.2638C10.3494 22.8249 10.2031 22.3129 9.9105 22.0203C9.47161 21.4351 9.39846 21.0694 9.39846 20.7768C9.39846 20.0453 9.98364 19.387 10.7883 19.387C11.154 19.387 11.5929 19.5333 11.8123 19.8259C12.1781 20.2648 12.1781 20.8499 12.1781 21.362C12.0318 24.2879 10.8614 26.7749 10.7883 26.9212C10.7883 27.0675 10.642 27.3601 10.8614 27.5064C11.0809 27.5795 11.3003 27.5064 11.5197 27.2869C12.0318 26.848 13.129 25.5314 13.641 24.2147C13.9336 23.4833 14.6651 21.6546 14.4456 19.8259C14.2262 18.4361 13.2753 17.5583 12.4707 17.1194L12.617 17.2657Z" fill="#008E71"/>
</svg>
