<svg xmlns="http://www.w3.org/2000/svg" width="32" height="32" viewBox="0 0 32 32">
    <defs>
        <clipPath id="gvrasydpla">
            <path data-name="사각형 16384" style="fill:none" d="M0 0h24v24.003H0z"/>
        </clipPath>
    </defs>
    <path data-name="사각형 16373" style="fill:none" d="M0 0h32v32H0z"/>
    <g data-name="그룹 103627">
        <g data-name="그룹 103626" transform="translate(4 4)" style="clip-path:url(#gvrasydpla)">
            <path data-name="패스 19604" d="M16.939 21.963a7 7 0 0 1-9.881 0l-5.02-5.019a7.012 7.012 0 0 1 0-9.885l5.02-5.019a7 7 0 0 1 9.881 0l5.022 5.019a7.01 7.01 0 0 1 0 9.885z" style="fill:#dc000c"/>
            <path data-name="패스 19605" d="M23.463 50.58a.742.742 0 0 1-.546-1.245.757.757 0 0 1 .516-.239.743.743 0 0 1 .067 1.484z" transform="translate(-14.441 -31.205)" style="fill:#fff"/>
            <path data-name="패스 19606" d="M26.637 13.244a1.339 1.339 0 0 0-1 .39 4.677 4.677 0 0 0-.842 3.288c.032 1.916.488 5.678 2 7.614a3.415 3.415 0 0 0 .779.744 1.73 1.73 0 0 0 1.031.346 2.28 2.28 0 0 0 .4-.036 5.454 5.454 0 0 0 2.753-2.451.669.669 0 0 1 .566-.314.676.676 0 0 1 .354.1.669.669 0 0 1 .209.919 6.55 6.55 0 0 1-3.6 3.044.177.177 0 0 0-.031.007 3.765 3.765 0 0 1-.661.061 3.073 3.073 0 0 1-1.756-.566 4.735 4.735 0 0 1-1.1-1.039c-2.124-2.725-2.266-7.837-2.278-8.41-.023-1.358.173-3.2 1.235-4.257a2.647 2.647 0 0 1 1.93-.773h.125a2.649 2.649 0 0 1 1.932.773c1.061 1.056 1.258 2.9 1.234 4.257a13.73 13.73 0 0 1-1.752 6.622.667.667 0 0 1-.572.325.682.682 0 0 1-.34-.093.671.671 0 0 1-.231-.915 11.53 11.53 0 0 0 1.565-5.961 4.7 4.7 0 0 0-.84-3.288 1.345 1.345 0 0 0-1-.39z" transform="translate(-14.914 -7.573)" style="fill:#fff"/>
        </g>
    </g>
</svg>
