<svg xmlns="http://www.w3.org/2000/svg" width="24" height="24" viewBox="0 0 24 24">
    <g data-name="그룹 38">
        <path data-name="패스 30" d="m7.62 953.6.4.314a10.7 10.7 0 0 0 6.222 2.118v6.745c0 1.333-.8 2.51-2.154 3.647A41.722 41.722 0 0 1 7.62 969.6a38.052 38.052 0 0 1-4.467-3.176C1.838 965.247 1 964.07 1 962.776v-6.706a10.4 10.4 0 0 0 6.182-2.117z" transform="translate(4 -949.599)" style="fill:none;stroke:#111;stroke-miterlimit:10"/>
    </g>
    <path data-name="패스 31" d="M15.376 14.8a1.486 1.486 0 0 1 1.476 1.451 1.4 1.4 0 0 1-.758 1.255.41.41 0 0 0-.2.353v1.765a.519.519 0 0 1-1.037 0v-1.765a.41.41 0 0 0-.2-.353 1.447 1.447 0 0 1-.758-1.255 1.486 1.486 0 0 1 1.477-1.451z" transform="translate(-3.755 -5.481)" style="fill:none;stroke:#111;stroke-miterlimit:10"/>
</svg>
