<svg width="161" height="32" viewBox="0 0 161 32" fill="none" xmlns="http://www.w3.org/2000/svg">
<path d="M30.6662 12.5293V10.8757H33.1017V12.5293H36.356V14.0957H34.6508C35.4167 15.0177 35.9036 16.3234 35.9208 17.8368C35.9036 20.7776 34.2499 22.9696 31.8833 22.9696C29.4479 22.9868 27.8286 20.7776 27.8286 17.8368C27.8286 16.3234 28.3155 15.0177 29.0814 14.0957H27.4807V12.5293H30.6649H30.6662ZM31.8846 14.13C30.9282 14.13 30.1622 15.5918 30.1794 17.8368C30.1622 19.9772 30.911 21.4033 31.8674 21.4033C32.8239 21.4033 33.5726 20.0116 33.5726 17.8368C33.5726 15.4873 32.8768 14.13 31.8846 14.13ZM40.2718 17.2269V26.6234H37.9223V10.8757H40.2718V15.6606H42.5339V17.2269H40.2718Z" fill="#008E71"/>
<path d="M46.9102 20.5328H50.8604C51.9213 20.5328 52.7217 20.5858 53.7139 20.0632V10.8757H56.0633V15.6606H58.3255V17.2269H56.0633V26.6234H53.7139V21.6295C52.8963 21.9946 51.7996 22.0991 50.8088 22.0991H45.6059C44.5793 22.0991 43.7961 21.107 43.7961 19.9415V11.5716H46.1456V19.8886C46.1456 20.2894 46.4062 20.5328 46.9116 20.5328H46.9102Z" fill="#008E71"/>
<path d="M64.191 11.1363V12.0769C64.191 14.5997 65.0786 16.461 66.7137 17.0351V18.6715C64.7995 18.4109 63.1816 16.9663 62.9382 16.166C62.6948 16.9663 61.024 18.4281 59.2314 18.6715V17.0351C60.8149 16.4782 61.737 14.6341 61.7542 12.0941V11.1363H64.1896H64.191ZM73.1522 22.9167C73.135 25.4222 70.9245 26.97 68.7668 26.97C66.4174 26.97 64.3471 25.4209 64.3643 22.8982C64.3471 20.9839 65.7387 19.4878 67.4969 18.9652V10.8757H69.759V13.6591H70.8901V10.8757H73.1522V22.9167ZM68.7668 20.341C67.8091 20.341 66.7137 21.2115 66.7137 22.8995C66.7137 24.4486 67.7403 25.405 68.7496 25.405C69.759 25.405 70.8028 24.483 70.8028 22.8995C70.7856 21.1771 69.759 20.341 68.7668 20.341ZM69.759 15.2254V18.8792C70.1599 18.9837 70.525 19.1226 70.8901 19.2959V15.2241H69.759V15.2254Z" fill="#008E71"/>
<path d="M82.943 11.2237V12.3547H85.6404V10.8757H87.9899V22.8995C87.9899 25.4222 85.7621 26.9714 83.6058 26.9714C81.2563 26.9714 79.186 25.4222 79.2032 22.8995C79.186 20.55 81.2921 18.7932 83.6058 18.7932C84.3188 18.7932 85.016 18.9665 85.6417 19.2801V17.2269H82.9443V18.2707H77.08C76.0362 18.2707 75.3748 17.3314 75.3748 16.1647V11.2237H82.943ZM77.7229 12.79V16.0271C77.7229 16.4795 77.9835 16.7057 78.3671 16.7057H80.5949V12.79H77.7242H77.7229ZM83.6045 20.3595C82.648 20.3595 81.5513 21.2115 81.5513 22.8995C81.5513 24.4486 82.5779 25.405 83.5873 25.405C84.5966 25.405 85.6404 24.483 85.6404 22.8995C85.6232 21.1771 84.5966 20.3595 83.6045 20.3595ZM82.943 13.921V15.6606H85.6404V13.921H82.943Z" fill="#008E71"/>
<path d="M11.6366 9.65886C11.6366 10.8204 12.5785 11.7636 13.7413 11.7636C14.9041 11.7636 15.8447 10.8204 15.8447 9.65886C15.8447 9.48556 15.805 9.31226 15.7322 9.15351C15.5497 8.7712 15.3486 8.58599 15.3671 8.12695C15.3962 7.51048 14.6025 7.50122 14.1752 7.50122C13.7122 7.50122 13.2148 7.56472 12.7968 7.77638C12.4607 7.94571 12.1723 8.20368 11.9686 8.51985C11.7583 8.84528 11.6445 9.22363 11.6353 9.60991V9.65886" fill="#D80C18"/>
<path d="M24.4225 12.2808C24.2703 12.0493 23.9674 12.048 23.4025 12.1525C22.5717 12.3072 20.0966 12.8099 16.1716 12.9449C14.3685 13.0071 12.3921 13.011 10.4025 12.8338C8.77662 12.6882 5.69958 12.1935 5.01432 12.126C4.64523 12.0876 3.8052 12.0308 3.37526 12.3893C2.80641 12.8629 2.96913 13.5653 3.30514 14.1262C3.30514 14.1262 4.05126 15.3248 5.77631 15.678C8.27922 16.0934 12.1553 15.9836 13.4332 15.842C16.2721 15.5788 18.4602 15.1687 20.1958 14.6964C20.1958 14.6964 22.5109 14.0323 23.642 13.396C24.0679 13.1565 24.6765 12.6975 24.4225 12.2821V12.2808Z" fill="#008E71"/>
<path d="M15.9466 17.4069C14.5324 16.641 12.8524 16.637 11.4594 17.4334C9.21705 18.7166 8.4339 21.5409 9.7687 23.8481C10.8614 25.5586 12.3219 25.1498 12.7373 24.7159C13.2585 24.1391 13.0614 23.5438 12.7849 23.1721C12.2187 22.4709 12.1605 21.9934 12.1605 21.697C12.1605 20.7895 12.896 20.054 13.8035 20.054C14.2811 20.054 14.7428 20.2683 15.0523 20.6308C15.4849 21.1401 15.5392 21.873 15.5074 22.4577C15.3169 25.9726 13.8842 29.0034 13.8115 29.2256C13.7466 29.387 13.6382 29.7892 13.9424 29.9532C14.1739 30.0683 14.4464 29.9625 14.7137 29.727C15.3751 29.1634 16.6504 27.568 17.329 26.0017C17.6955 25.1577 18.6003 22.9194 18.3053 20.6864C18.0024 18.9639 16.9004 17.9242 15.944 17.4056L15.9466 17.4069Z" fill="#008E71"/>
<path d="M106.104 11.9934V24.8338H103.592V18.652H98.3817V24.8338H95.8691V11.9934H98.3817V16.9824H103.592V11.9934H106.104Z" fill="#008E71"/>
<path d="M113.991 24.8348C113.885 24.7444 113.8 24.6316 113.743 24.5046C113.655 24.3474 113.607 24.1708 113.605 23.9907C113.253 24.3776 112.803 24.6627 112.303 24.8162C111.833 24.9599 111.344 25.034 110.853 25.036C110.055 25.0622 109.279 24.7762 108.688 24.2389C108.397 23.9593 108.169 23.6205 108.021 23.2453C107.872 22.8701 107.805 22.4674 107.826 22.0643C107.822 21.654 107.901 21.2473 108.057 20.8679C108.213 20.4885 108.443 20.1439 108.734 19.8545C109.448 19.1755 110.382 18.7752 111.366 18.7262L113.417 18.4878C113.452 18.1983 113.423 17.9047 113.333 17.6274C113.243 17.3502 113.093 17.096 112.894 16.8828C112.564 16.6024 112.144 16.4496 111.711 16.452C111.179 16.4503 110.655 16.5727 110.179 16.8095C109.695 17.048 109.248 17.3535 108.849 17.7171L108.427 15.861C108.902 15.5261 109.424 15.2662 109.978 15.0902C110.588 14.9099 111.222 14.8236 111.858 14.8342C112.32 14.8366 112.78 14.898 113.226 15.0169C113.684 15.1351 114.115 15.3408 114.496 15.6226C114.896 15.9132 115.222 16.2928 115.45 16.7314C115.71 17.2584 115.836 17.8411 115.817 18.4282V22.4267C115.819 22.8319 115.85 23.2363 115.909 23.6371C115.966 24.0519 116.09 24.4547 116.276 24.8299L113.991 24.8348ZM113.441 20.0284L112.211 20.1935C111.697 20.2409 111.211 20.4456 110.818 20.7797C110.647 20.927 110.51 21.1103 110.418 21.3165C110.326 21.5227 110.281 21.7467 110.285 21.9724C110.266 22.3482 110.395 22.7165 110.643 22.9992C110.749 23.1208 110.88 23.2181 111.027 23.2845C111.174 23.3509 111.334 23.3849 111.495 23.3841C111.746 23.3847 111.997 23.3474 112.237 23.2737C112.476 23.2001 112.69 23.0602 112.853 22.8702C113.053 22.6451 113.2 22.378 113.284 22.0887C113.399 21.6802 113.451 21.2567 113.44 20.8324L113.441 20.0284Z" fill="#008E71"/>
<path d="M120.377 15.021V15.8651C120.708 15.534 121.105 15.2749 121.541 15.1041C122.239 14.8396 122.996 14.7707 123.729 14.9049C124.463 15.039 125.147 15.371 125.706 15.8651C126.055 16.2405 126.326 16.6825 126.501 17.1647C126.676 17.6469 126.751 18.1595 126.724 18.6717V24.835H124.321V19.0205C124.35 18.3769 124.173 17.7407 123.816 17.2044C123.657 16.9784 123.443 16.7961 123.195 16.6743C122.946 16.5524 122.671 16.4949 122.395 16.5069C122.121 16.5044 121.851 16.5648 121.604 16.6834C121.358 16.8019 121.142 16.9755 120.973 17.1907C120.56 17.7345 120.356 18.4076 120.395 19.0889V24.8301H118.012V15.021H120.377Z" fill="#008E71"/>
<path d="M134.536 24.8349C134.43 24.7444 134.346 24.6316 134.289 24.5047C134.201 24.3476 134.153 24.1709 134.151 23.9908C133.799 24.3777 133.349 24.6628 132.849 24.8163C132.379 24.96 131.891 25.034 131.4 25.0361C130.602 25.0623 129.826 24.7763 129.235 24.239C128.944 23.9594 128.717 23.6205 128.568 23.2454C128.419 22.8702 128.352 22.4675 128.373 22.0644C128.37 21.6542 128.448 21.2476 128.604 20.8682C128.76 20.4888 128.99 20.1442 129.28 19.8546C129.995 19.1756 130.929 18.7752 131.913 18.7263L133.964 18.488C133.999 18.1985 133.97 17.905 133.88 17.6278C133.79 17.3506 133.64 17.0964 133.442 16.8829C133.111 16.6026 132.691 16.4498 132.258 16.4521C131.726 16.4506 131.202 16.573 130.726 16.8096C130.242 17.0482 129.795 17.3537 129.396 17.7172L128.973 15.8611C129.448 15.5265 129.971 15.2666 130.524 15.0903C131.134 14.9101 131.768 14.8238 132.404 14.8344C132.866 14.8369 133.326 14.8983 133.772 15.017C134.232 15.1348 134.665 15.3405 135.047 15.6227C135.446 15.9135 135.773 16.293 136 16.7315C136.26 17.2583 136.387 17.8411 136.368 18.4284V22.4268C136.37 22.8319 136.4 23.2364 136.459 23.6372C136.516 24.0521 136.641 24.4549 136.827 24.83L134.536 24.8349ZM133.986 20.0285L132.757 20.1936C132.243 20.2409 131.756 20.4456 131.363 20.7798C131.192 20.9272 131.056 21.1105 130.964 21.3167C130.872 21.5229 130.826 21.7468 130.831 21.9726C130.812 22.3482 130.94 22.7163 131.188 22.9993C131.294 23.1208 131.425 23.2182 131.573 23.2846C131.72 23.351 131.88 23.385 132.041 23.3842C132.293 23.3848 132.543 23.3476 132.784 23.2738C133.023 23.1999 133.236 23.06 133.399 22.8703C133.598 22.6449 133.746 22.378 133.83 22.0888C133.945 21.6803 133.997 21.2568 133.986 20.8325V20.0285Z" fill="#008E71"/>
<path d="M140.938 15.0209V15.865C141.227 15.5812 141.556 15.3404 141.914 15.1499C142.315 14.9368 142.763 14.8295 143.217 14.8383C143.49 14.8395 143.763 14.8608 144.033 14.9018C144.36 14.9585 144.674 15.0733 144.96 15.2407L144.52 16.9464C144.255 16.7743 143.96 16.6558 143.649 16.5977C143.405 16.5515 143.156 16.5331 142.907 16.5429C142.688 16.5736 142.475 16.6351 142.274 16.7256C142.034 16.8338 141.819 16.9897 141.641 17.1838C141.426 17.4082 141.26 17.6742 141.153 17.9653C141.015 18.3378 140.949 18.7328 140.957 19.1298V24.8349H138.554V15.0209H140.938Z" fill="#008E71"/>
<path d="M145.872 19.9191C145.865 19.2233 145.989 18.5326 146.239 17.8832C146.468 17.2851 146.811 16.7371 147.248 16.2694C147.675 15.8174 148.19 15.4582 148.761 15.2143C149.356 14.9666 149.993 14.839 150.637 14.839C151.28 14.839 151.918 14.9666 152.512 15.2143C153.087 15.457 153.605 15.8163 154.035 16.2694C154.473 16.7382 154.818 17.2858 155.053 17.8832C155.308 18.5313 155.436 19.2226 155.429 19.9191C155.438 20.6278 155.31 21.3317 155.053 21.992C154.818 22.5895 154.473 23.1371 154.035 23.6059C153.602 24.0497 153.084 24.4021 152.512 24.6424C151.918 24.8906 151.28 25.0183 150.637 25.0183C149.993 25.0183 149.356 24.8906 148.761 24.6424C148.193 24.4009 147.679 24.0486 147.248 23.6059C146.811 23.1383 146.468 22.5902 146.239 21.992C145.987 21.3304 145.863 20.627 145.872 19.9191ZM148.367 19.9191C148.321 20.8368 148.551 21.7472 149.027 22.5332C149.189 22.8214 149.423 23.0628 149.706 23.234C149.988 23.4052 150.311 23.5003 150.641 23.5101C150.971 23.4973 151.292 23.401 151.574 23.2301C151.856 23.0592 152.091 22.8194 152.255 22.5332C152.7 21.7357 152.934 20.8374 152.934 19.9239C152.934 19.0105 152.7 18.1122 152.255 17.3146C152.093 17.0257 151.859 16.7831 151.577 16.6097C151.294 16.4363 150.972 16.338 150.641 16.3241C150.309 16.3351 149.986 16.4322 149.703 16.6059C149.42 16.7796 149.187 17.0238 149.027 17.3146C148.554 18.0982 148.325 19.0047 148.368 19.9191H148.367Z" fill="#008E71"/>
</svg>
