<svg xmlns="http://www.w3.org/2000/svg" width="72" height="72" viewBox="0 0 72 72">
    <defs>
        <clipPath id="fy4jxtnqva">
            <circle data-name="타원 555" cx="36" cy="36" r="36" style="fill:none"/>
        </clipPath>
    </defs>
    <g>
        <circle data-name="타원 526" cx="36" cy="36" r="36" style="fill:#f7ebdf"/>
        <g data-name="그룹 103613" style="clip-path:url(#fy4jxtnqva)">
            <path data-name="패스 1743" d="M610.921 782.043c2.61-2.07 6.572-1.334 9.295.584a17.442 17.442 0 0 1 5.777 7.6 44.118 44.118 0 0 1 2.492 9.325c1.155 6.366 2 12.819 3.946 18.989.8 2.515 1.773 4.976 2.424 7.532a6.573 6.573 0 0 1-.1 4.671 5.149 5.149 0 0 1-1.641 1.74 14.437 14.437 0 0 1-5.524 2.078c-6.114 1.227-12.412 1.048-18.646.864-.564-.017-1.314-.213-1.3-.778" transform="translate(-575.518 -773.223)" style="fill:#362d2c"/>
            <path data-name="패스 1744" d="M589.332 781.885a4.01 4.01 0 0 0-2.524-1.169c-3.93-.524-7.755 2.19-9.609 5.694a18.847 18.847 0 0 0-1.463 3.851c-3.413 12.471 1.338 26.307-3.1 38.451a2.245 2.245 0 0 0-.171 1.671 1.927 1.927 0 0 0 1.1.86 18.39 18.39 0 0 0 6.426.97q14.865.434 29.739.157" transform="translate(-553.702 -773.132)" style="fill:#362d2c"/>
            <g data-name="그룹 103607">
                <path data-name="패스 1745" d="M601.421 899.174a4.052 4.052 0 0 0-1.915-1.083 81.837 81.837 0 0 0-13.364-3.392 52.1 52.1 0 0 0-4.735-.517c-.649-.04-1.3-.1-1.947-.163-2.023-.2-4.047-.476-6.066-.515l-12.094-.544-4.222 1.084-2.1.54-3.8.976-2.245.576c-4.041 1.037-8.282 2.184-11.259 5.106a4.355 4.355 0 0 0-1.367 2.206c-.3 1.593.872 3.05 1.964 4.248 3.184 3.5 6.467 7.044 10.633 9.28a42.386 42.386 0 0 0 8.933 3.188l1.466.4c4.295 1.148 8.743 2.1 13.049 1.141a28.02 28.02 0 0 0 6.635-2.69v.763c.082-.042.164 1.443.245 1.4 4.35-2.255 8.651-6.9 12.9-9.343.963-.554 1.924-1.115 2.83-1.758 2.878-2.041 5.158-1.48 6.491-4.747.504-1.256.834-5.114-.032-6.156z" transform="translate(-531.382 -842.568)" style="fill:#1aa4a4"/>
                <path data-name="패스 1746" d="M610.714 863.537c-.134 2.222-.444 5.439.134 7.6s3.567 4.907 3.533 5.706-2.545 4.708-9.345 4.708-9.445-4.322-9.445-5.141 3.054-3.113 3.632-5.273a20.786 20.786 0 0 0 .487-6.635" transform="translate(-568.132 -824.377)" style="fill:#f2cabf"/>
                <path data-name="패스 1747" d="M610.249 880.893a3.261 3.261 0 0 0 2.087.977 2.754 2.754 0 0 0 1.262-.443 7.341 7.341 0 0 0 3.26-4.149 16.92 16.92 0 0 1-2.9 1.526 5.68 5.68 0 0 1-3.223.31 8.45 8.45 0 0 1-1.185-.4 10.062 10.062 0 0 0-2.272-.859c-.029.517.835 1.1 1.171 1.428q.869.837 1.8 1.61z" transform="translate(-575.291 -832.873)" style="fill:#e7b9ac"/>
                <path data-name="패스 1748" d="m588.844 889.1 8.01 6.781-5.2 4.449-9.187-9.039 8.042-4.577z" transform="translate(-559.951 -838.705)" style="fill:#fff"/>
                <path data-name="패스 1749" d="m627.958 889.1-7.8 6.781 5.409 4.809 8.266-10.33-7.326-3.646z" transform="translate(-583.257 -838.705)" style="fill:#fff"/>
            </g>
            <path data-name="패스 1750" d="M612.167 808.377s0 8.778-2.453 12.78-7.874 8-9.682 7.616c-1.807.387-7.229-3.615-9.682-7.616s-2.453-12.78-2.453-12.78l8.974-9.433 8.786 1.985 2.667 1.835z" transform="translate(-563.311 -784.442)" style="fill:#f9d6cd"/>
            <g data-name="그룹 103612" transform="translate(27.152 25.665)">
                <ellipse data-name="타원 552" cx=".763" cy=".979" rx=".763" ry=".979" transform="translate(4.169 2.532)" style="fill:#0a0807"/>
                <path data-name="패스 1751" d="M630.72 835.8a.787.787 0 1 1-.763-.979.892.892 0 0 1 .763.979z" transform="translate(-615.994 -832.288)" style="fill:#0a0807"/>
                <g data-name="그룹 103608">
                    <path data-name="패스 1752" d="M616.64 854.151a2.324 2.324 0 0 0 .155-.971 18.626 18.626 0 0 1-2.744.4 16.254 16.254 0 0 1-3.233-.074c-.429-.024-2.052-.359-2.082-.2a2.41 2.41 0 0 0 .113.91c.896.325 3.151.778 7.791-.065z" transform="translate(-603.34 -843.639)" style="fill:#fff"/>
                    <path data-name="패스 1753" d="M611.8 859.843a4.86 4.86 0 0 0-.458.1 2.5 2.5 0 0 0 .375.363 3.306 3.306 0 0 0 1.544.728 5.054 5.054 0 0 0 2.676-.207 3.639 3.639 0 0 0 .959-.578 4.316 4.316 0 0 0 .313-.308 4.472 4.472 0 0 0-.854-.185 15.188 15.188 0 0 0-4.555.087z" transform="translate(-604.957 -847.622)" style="fill:#ff5c5c"/>
                    <path data-name="패스 1754" d="M616.649 856.227a6.1 6.1 0 0 0 .193-.5c-4.643.844-6.9.391-7.79.07a4.671 4.671 0 0 0 .874 1.735c.152-.038.3-.069.458-.1a15.182 15.182 0 0 1 4.555-.092 4.464 4.464 0 0 1 .854.185 4.763 4.763 0 0 0 .856-1.298z" transform="translate(-603.541 -845.211)" style="fill:#0a0807"/>
                </g>
                <g data-name="그룹 103609">
                    <path data-name="패스 1755" d="M615.046 837.84a.191.191 0 0 1-.145-.067l-.8-.927a.365.365 0 0 1-.1-.211.37.37 0 0 1 .134-.288 3.439 3.439 0 0 0 .917-2.162 8 8 0 0 0-.258-2.449.191.191 0 1 1 .372-.086 8.348 8.348 0 0 1 .266 2.567 3.818 3.818 0 0 1-1.028 2.4l-.007.007.789.9a.191.191 0 0 1-.145.315z" transform="translate(-606.604 -830.237)" style="fill:#bd9886"/>
                </g>
                <ellipse data-name="타원 553" cx="2.052" cy="1.169" rx="2.052" ry="1.169" transform="translate(0 7.137)" style="fill:#eebaba"/>
                <g data-name="그룹 103610">
                    <path data-name="패스 1756" d="M631.89 829.323a.19.19 0 0 1-.1-.026 5.366 5.366 0 0 0-2.959-.721 1.968 1.968 0 0 0-1.143.341.191.191 0 0 1-.235-.3 2.326 2.326 0 0 1 1.358-.421 5.755 5.755 0 0 1 3.173.773.191.191 0 0 1-.1.356z" transform="translate(-614.874 -828.187)" style="fill:#54433b"/>
                </g>
                <g data-name="그룹 103611">
                    <path data-name="패스 1757" d="M599.106 829.323a.191.191 0 0 1-.1-.356 5.749 5.749 0 0 1 3.172-.773 2.327 2.327 0 0 1 1.358.421.191.191 0 0 1-.235.3 1.97 1.97 0 0 0-1.144-.341 5.358 5.358 0 0 0-2.959.721.191.191 0 0 1-.092.028z" transform="translate(-597.274 -828.187)" style="fill:#54433b"/>
                </g>
                <ellipse data-name="타원 554" cx="2.052" cy="1.169" rx="2.052" ry="1.169" transform="translate(13.762 6.551)" style="fill:#eebaba"/>
            </g>
            <path data-name="패스 1758" d="M584.493 835.232a2.312 2.312 0 0 0-3.717.648 2.835 2.835 0 0 0-.007 2.239 4.858 4.858 0 0 0 1.374 1.821 7.625 7.625 0 0 0 1.774 1.152 6.274 6.274 0 0 1 1.435.759" transform="translate(-558.763 -806.463)" style="fill:#f9d6cd"/>
            <path data-name="패스 1759" d="M646.89 835.232a2.312 2.312 0 0 1 3.717.648 2.835 2.835 0 0 1 .007 2.239 4.858 4.858 0 0 1-1.374 1.821 7.629 7.629 0 0 1-1.774 1.152 6.273 6.273 0 0 0-1.435.759" transform="translate(-599.253 -806.463)" style="fill:#f9d6cd"/>
            <path data-name="패스 1760" d="M651.2 837.234a2.555 2.555 0 0 0-1.766.466q.8.124 1.6.288c.292.06.634.17.715.457a.715.715 0 0 1-.865 1l-1.012-.127a.819.819 0 0 0 .6.418.363.363 0 0 1 .213.067.276.276 0 0 1 .053.219 1.981 1.981 0 0 1-1.519 1.758 2.111 2.111 0 0 0 1.782-.567 3.981 3.981 0 0 0 .999-1.639c.141-.394.445-1.166.117-1.524-.269-.294-.553-.709-.917-.816z" transform="translate(-601.22 -808.095)" style="fill:#e7b9ac"/>
            <path data-name="패스 1761" d="M583.256 837.234a2.554 2.554 0 0 1 1.766.466q-.8.124-1.6.288c-.292.06-.634.17-.715.457a.715.715 0 0 0 .865 1l1.012-.127a.819.819 0 0 1-.6.418.362.362 0 0 0-.213.067.276.276 0 0 0-.054.219 1.981 1.981 0 0 0 1.519 1.758 2.11 2.11 0 0 1-1.781-.567 3.981 3.981 0 0 1-1.005-1.635c-.141-.394-.445-1.166-.117-1.524.272-.298.556-.713.923-.82z" transform="translate(-559.782 -808.095)" style="fill:#e7b9ac"/>
            <path data-name="패스 1762" d="M594.741 797.395a4.574 4.574 0 0 0-2.608.741 6.208 6.208 0 0 0-1.923 3.389l-1.185 3.822a6.042 6.042 0 0 1-1.291 2.586c-1.313 1.31-3.471 1.18-5.312.857 1.485-2.857-.687-6.458.4-9.485a8.573 8.573 0 0 1 1.026-1.864 15.846 15.846 0 0 1 3.1-3.617 6.824 6.824 0 0 1 4.427-1.627 7.992 7.992 0 0 1 5.01 2.11c.556.625-.194 3.651-.2 3.7-.123.967-.591-.628-1.444-.612z" transform="translate(-559.925 -780.267)" style="fill:#3b3230"/>
            <path data-name="패스 1763" d="M619.115 797.218a5.385 5.385 0 0 1 2.8.918 6.211 6.211 0 0 1 1.923 3.389l1.185 3.822a6.042 6.042 0 0 0 1.291 2.586c1.313 1.31 3.471 1.18 5.312.857-1.485-2.857.687-6.458-.4-9.485a8.578 8.578 0 0 0-1.026-1.864 15.846 15.846 0 0 0-3.1-3.617 6.824 6.824 0 0 0-4.427-1.627 7.992 7.992 0 0 0-5.01 2.11c-.584.656-.641 2.52-.522 3.46.061.486.338.165.709-.1a2.262 2.262 0 0 1 1.265-.449z" transform="translate(-581.361 -780.267)" style="fill:#3b3230"/>
        </g>
    </g>
</svg>
