<svg xmlns="http://www.w3.org/2000/svg" width="24" height="24" viewBox="0 0 24 24">
    <path data-name="Rectangle 1" style="fill:transparent" d="M0 0h24v24H0z"/>
    <path data-name="Rectangle 7 copy" d="M18.939 19.905H5.06a2.122 2.122 0 0 1-2.135-2.109V8.837A2.122 2.122 0 0 1 5.06 6.729h2.665a1.061 1.061 0 0 0 1.068-1.054v.527a2.122 2.122 0 0 1 2.135-2.108h2.135a2.122 2.122 0 0 1 2.135 2.108v-.527a1.061 1.061 0 0 0 1.068 1.054h2.669a2.122 2.122 0 0 1 2.135 2.108v8.959a2.122 2.122 0 0 1-2.131 2.109zm1.068-11.066a1.061 1.061 0 0 0-1.068-1.054h-3.2a1.061 1.061 0 0 1-1.068-1.054l-.356-.176-.178-.351a1.061 1.061 0 0 0-1.068-1.054h-2.135a1.061 1.061 0 0 0-1.068 1.054l-.178.351-.356.176a1.061 1.061 0 0 1-1.068 1.054h-3.2a1.061 1.061 0 0 0-1.068 1.054v8.959a1.061 1.061 0 0 0 1.068 1.054h13.879a1.061 1.061 0 0 0 1.068-1.054zM12 16.217a3.162 3.162 0 1 1 3.2-3.162 3.182 3.182 0 0 1-3.2 3.161zm0-5.27a2.108 2.108 0 1 0 2.135 2.108A2.122 2.122 0 0 0 12 10.946z"/>
</svg>
