<svg xmlns="http://www.w3.org/2000/svg" width="32" height="32" viewBox="0 0 32 32">
    <defs>
        <clipPath id="e8tt698s3a">
            <path d="M-7937-4344v-27h25v11h-14v16z" transform="translate(9270 4670)" style="opacity:.45;fill:red"/>
        </clipPath>
    </defs>
    <g data-name="그룹 103785">
        <g data-name="사각형 16567" transform="rotate(45 -17.801 46.455)" style="stroke:#333;fill:none">
            <rect width="4" height="1.5" rx=".75" style="stroke:none"/>
            <rect x=".5" y=".5" width="3" height=".5" rx=".25" style="fill:none"/>
        </g>
        <g data-name="타원 567" transform="translate(17.528 17.147)" style="stroke-width:1.5px;fill:#c8f7f4;stroke:#333">
            <circle cx="5.849" cy="5.849" r="5.849" style="stroke:none"/>
            <circle cx="5.849" cy="5.849" r="5.099" style="fill:none"/>
        </g>
    </g>
    <g data-name="사각형 16564" transform="translate(8.5 9)" style="stroke:#333;fill:none">
        <rect width="13" height="1.5" rx=".75" style="stroke:none"/>
        <rect x=".5" y=".5" width="12" height=".5" rx=".25" style="fill:none"/>
    </g>
    <g data-name="사각형 16565" transform="translate(8.647 14.001)" style="stroke:#333;fill:none">
        <rect width="7" height="1.5" rx=".75" style="stroke:none"/>
        <rect x=".5" y=".5" width="6" height=".5" rx=".25" style="fill:none"/>
    </g>
    <g data-name="사각형 16566" transform="translate(8.5 19.001)" style="stroke:#333;fill:none">
        <rect width="5.399" height="1.5" rx=".75" style="stroke:none"/>
        <rect x=".5" y=".5" width="4.399" height=".5" rx=".25" style="fill:none"/>
    </g>
    <g data-name="사각형 16568" transform="translate(10.248 27.5)" style="stroke:#333;fill:none">
        <rect width="5.399" height="1.5" rx=".75" style="stroke:none"/>
        <rect x=".5" y=".5" width="4.399" height=".5" rx=".25" style="fill:none"/>
    </g>
    <g data-name="사각형 16569" transform="rotate(-90 20.573 -5.927)" style="stroke:#333;fill:none">
        <rect width="5.399" height="1.5" rx=".75" style="stroke:none"/>
        <rect x=".5" y=".5" width="4.399" height=".5" rx=".25" style="fill:none"/>
    </g>
    <g data-name="마스크 그룹 103629" style="clip-path:url(#e8tt698s3a)" transform="translate(-1330 -297)">
        <g data-name="사각형 16563" transform="translate(1333 299)" style="stroke-width:1.5px;stroke:#333;fill:none">
            <rect width="25" height="27" rx="4" style="stroke:none"/>
            <rect x=".75" y=".75" width="23.5" height="25.5" rx="3.25" style="fill:none"/>
        </g>
    </g>
</svg>
