<svg width="161" height="32" viewBox="0 0 161 32" fill="none" xmlns="http://www.w3.org/2000/svg">
<path d="M30.6662 9.02813V7.37451H33.1017V9.02813H36.356V10.5944H34.6508C35.4167 11.5165 35.9036 12.8222 35.9208 14.3356C35.9036 17.2764 34.2499 19.4684 31.8833 19.4684C29.4479 19.4856 27.8286 17.2764 27.8286 14.3356C27.8286 12.8222 28.3155 11.5165 29.0814 10.5944H27.4807V9.02813H30.6649H30.6662ZM31.8846 10.6288C30.9282 10.6288 30.1622 12.0906 30.1794 14.3356C30.1622 16.476 30.911 17.9021 31.8674 17.9021C32.8239 17.9021 33.5726 16.5104 33.5726 14.3356C33.5726 11.9861 32.8768 10.6288 31.8846 10.6288ZM40.2718 13.7257V23.1222H37.9223V7.37451H40.2718V12.1594H42.5339V13.7257H40.2718Z" fill="white"/>
<path d="M46.9102 17.0316H50.8604C51.9213 17.0316 52.7217 17.0845 53.7139 16.562V7.37451H56.0633V12.1594H58.3255V13.7257H56.0633V23.1222H53.7139V18.1283C52.8963 18.4934 51.7996 18.5979 50.8088 18.5979H45.6059C44.5793 18.5979 43.7961 17.6058 43.7961 16.4403V8.07035H46.1456V16.3874C46.1456 16.7882 46.4062 17.0316 46.9116 17.0316H46.9102Z" fill="white"/>
<path d="M64.191 7.63512V8.5757C64.191 11.0985 65.0786 12.9598 66.7137 13.5339V15.1703C64.7995 14.9097 63.1816 13.4651 62.9382 12.6648C62.6948 13.4651 61.024 14.9269 59.2314 15.1703V13.5339C60.8149 12.977 61.737 11.1328 61.7542 8.59289V7.63512H64.1896H64.191ZM73.1522 19.4155C73.135 21.921 70.9245 23.4688 68.7668 23.4688C66.4174 23.4688 64.3471 21.9197 64.3643 19.3969C64.3471 17.4827 65.7387 15.9865 67.4969 15.464V7.37451H69.759V10.1579H70.8901V7.37451H73.1522V19.4155ZM68.7668 16.8398C67.8091 16.8398 66.7137 17.7103 66.7137 19.3983C66.7137 20.9474 67.7403 21.9038 68.7496 21.9038C69.759 21.9038 70.8028 20.9818 70.8028 19.3983C70.7856 17.6759 69.759 16.8398 68.7668 16.8398ZM69.759 11.7242V15.378C70.1599 15.4825 70.525 15.6214 70.8901 15.7947V11.7229H69.759V11.7242Z" fill="white"/>
<path d="M82.943 7.72243V8.8535H85.6404V7.37451H87.9899V19.3983C87.9899 21.921 85.7621 23.4701 83.6058 23.4701C81.2563 23.4701 79.186 21.921 79.2032 19.3983C79.186 17.0488 81.2921 15.292 83.6058 15.292C84.3188 15.292 85.016 15.4653 85.6417 15.7788V13.7257H82.9443V14.7695H77.08C76.0362 14.7695 75.3748 13.8302 75.3748 12.6634V7.72243H82.943ZM77.7229 9.28874V12.5259C77.7229 12.9783 77.9835 13.2045 78.3671 13.2045H80.5949V9.28874H77.7242H77.7229ZM83.6045 16.8583C82.648 16.8583 81.5513 17.7103 81.5513 19.3983C81.5513 20.9474 82.5779 21.9038 83.5873 21.9038C84.5966 21.9038 85.6404 20.9818 85.6404 19.3983C85.6232 17.6759 84.5966 16.8583 83.6045 16.8583ZM82.943 10.4198V12.1594H85.6404V10.4198H82.943Z" fill="white"/>
<path d="M11.6366 6.15764C11.6366 7.31913 12.5785 8.26236 13.7413 8.26236C14.9041 8.26236 15.8447 7.31913 15.8447 6.15764C15.8447 5.98434 15.805 5.81104 15.7322 5.65229C15.5497 5.26998 15.3486 5.08477 15.3671 4.62573C15.3962 4.00926 14.6025 4 14.1752 4C13.7122 4 13.2148 4.0635 12.7968 4.27516C12.4607 4.44449 12.1723 4.70246 11.9686 5.01863C11.7583 5.34406 11.6445 5.7224 11.6353 6.10869V6.15764" fill="white"/>
<path d="M24.4225 8.77957C24.2703 8.54806 23.9674 8.54674 23.4025 8.65125C22.5717 8.80603 20.0966 9.30872 16.1716 9.44366C14.3685 9.50584 12.3921 9.5098 10.4025 9.33254C8.77662 9.18702 5.69958 8.69226 5.01432 8.62479C4.64523 8.58643 3.8052 8.52954 3.37526 8.88804C2.80641 9.36164 2.96913 10.0641 3.30514 10.625C3.30514 10.625 4.05126 11.8235 5.77631 12.1768C8.27922 12.5921 12.1553 12.4823 13.4332 12.3408C16.2721 12.0775 18.4602 11.6674 20.1958 11.1952C20.1958 11.1952 22.5109 10.5311 23.642 9.89477C24.0679 9.65532 24.6765 9.19628 24.4225 8.78089V8.77957Z" fill="white"/>
<path d="M15.9466 13.9057C14.5324 13.1397 12.8524 13.1358 11.4594 13.9321C9.21705 15.2153 8.4339 18.0397 9.7687 20.3468C10.8614 22.0573 12.3219 21.6486 12.7373 21.2147C13.2585 20.6379 13.0614 20.0426 12.7849 19.6708C12.2187 18.9697 12.1605 18.4922 12.1605 18.1958C12.1605 17.2883 12.896 16.5528 13.8035 16.5528C14.2811 16.5528 14.7428 16.7671 15.0523 17.1296C15.4849 17.6389 15.5392 18.3718 15.5074 18.9565C15.3169 22.4714 13.8842 25.5022 13.8115 25.7244C13.7466 25.8858 13.6382 26.288 13.9424 26.452C14.1739 26.5671 14.4464 26.4612 14.7137 26.2258C15.3751 25.6622 16.6504 24.0668 17.329 22.5005C17.6955 21.6565 18.6003 19.4182 18.3053 17.1851C18.0024 15.4627 16.9004 14.4229 15.944 13.9044L15.9466 13.9057Z" fill="white"/>
<path d="M106.104 8.49219V21.3325H103.592V15.1507H98.3817V21.3325H95.8691V8.49219H98.3817V13.4812H103.592V8.49219H106.104Z" fill="white"/>
<path d="M113.991 21.3335C113.885 21.2432 113.8 21.1304 113.743 21.0033C113.655 20.8461 113.607 20.6695 113.605 20.4895C113.253 20.8763 112.803 21.1614 112.303 21.315C111.833 21.4587 111.344 21.5328 110.853 21.5348C110.055 21.561 109.279 21.275 108.688 20.7376C108.397 20.4581 108.169 20.1192 108.021 19.7441C107.872 19.3689 107.805 18.9661 107.826 18.563C107.822 18.1528 107.901 17.7461 108.057 17.3667C108.213 16.9872 108.443 16.6427 108.734 16.3533C109.448 15.6743 110.382 15.274 111.366 15.225L113.417 14.9866C113.452 14.6971 113.423 14.4034 113.333 14.1262C113.243 13.849 113.093 13.5948 112.894 13.3816C112.564 13.1012 112.144 12.9484 111.711 12.9508C111.179 12.9491 110.655 13.0715 110.179 13.3083C109.695 13.5468 109.248 13.8523 108.849 14.2158L108.427 12.3597C108.902 12.0249 109.424 11.765 109.978 11.589C110.588 11.4087 111.222 11.3224 111.858 11.333C112.32 11.3354 112.78 11.3968 113.226 11.5157C113.684 11.6339 114.115 11.8396 114.496 12.1214C114.896 12.412 115.222 12.7916 115.45 13.2302C115.71 13.7572 115.836 14.3399 115.817 14.927V18.9255C115.819 19.3306 115.85 19.7351 115.909 20.1358C115.966 20.5507 116.09 20.9535 116.276 21.3287L113.991 21.3335ZM113.441 16.5272L112.211 16.6923C111.697 16.7396 111.211 16.9443 110.818 17.2784C110.647 17.4258 110.51 17.6091 110.418 17.8153C110.326 18.0215 110.281 18.2455 110.285 18.4712C110.266 18.8469 110.395 19.2152 110.643 19.4979C110.749 19.6195 110.88 19.7169 111.027 19.7833C111.174 19.8497 111.334 19.8837 111.495 19.8828C111.746 19.8834 111.997 19.8462 112.237 19.7724C112.476 19.6989 112.69 19.559 112.853 19.369C113.053 19.1438 113.2 18.8768 113.284 18.5875C113.399 18.179 113.451 17.7554 113.44 17.3312L113.441 16.5272Z" fill="white"/>
<path d="M120.377 11.5198V12.3639C120.708 12.0328 121.105 11.7737 121.541 11.6028C122.239 11.3384 122.996 11.2695 123.729 11.4036C124.463 11.5378 125.147 11.8698 125.706 12.3639C126.055 12.7392 126.326 13.1813 126.501 13.6635C126.676 14.1457 126.751 14.6583 126.724 15.1705V21.3338H124.321V15.5192C124.35 14.8757 124.173 14.2395 123.816 13.7032C123.657 13.4772 123.443 13.2949 123.195 13.173C122.946 13.0512 122.671 12.9936 122.395 13.0057C122.121 13.0032 121.851 13.0636 121.604 13.1821C121.358 13.3007 121.142 13.4743 120.973 13.6895C120.56 14.2333 120.356 14.9064 120.395 15.5876V21.3289H118.012V11.5198H120.377Z" fill="white"/>
<path d="M134.536 21.3337C134.43 21.2432 134.346 21.1304 134.289 21.0035C134.201 20.8464 134.153 20.6697 134.151 20.4896C133.799 20.8765 133.349 21.1616 132.849 21.3151C132.379 21.4587 131.891 21.5328 131.4 21.5349C130.602 21.5611 129.826 21.2751 129.235 20.7377C128.944 20.4581 128.717 20.1193 128.568 19.7442C128.419 19.369 128.352 18.9662 128.373 18.5632C128.37 18.153 128.448 17.7464 128.604 17.3669C128.76 16.9875 128.99 16.643 129.28 16.3534C129.995 15.6744 130.929 15.274 131.913 15.2251L133.964 14.9867C133.999 14.6973 133.97 14.4038 133.88 14.1266C133.79 13.8494 133.64 13.5952 133.442 13.3817C133.111 13.1014 132.691 12.9486 132.258 12.9509C131.726 12.9494 131.202 13.0718 130.726 13.3084C130.242 13.547 129.795 13.8525 129.396 14.216L128.973 12.3599C129.448 12.0253 129.971 11.7654 130.524 11.5891C131.134 11.4089 131.768 11.3226 132.404 11.3331C132.866 11.3357 133.326 11.3971 133.772 11.5158C134.232 11.6336 134.665 11.8392 135.047 12.1215C135.446 12.4123 135.773 12.7918 136 13.2303C136.26 13.7571 136.387 14.3399 136.368 14.9271V18.9256C136.37 19.3307 136.4 19.7352 136.459 20.136C136.516 20.5508 136.641 20.9537 136.827 21.3288L134.536 21.3337ZM133.986 16.5273L132.757 16.6924C132.243 16.7397 131.756 16.9444 131.363 17.2785C131.192 17.426 131.056 17.6093 130.964 17.8155C130.872 18.0217 130.826 18.2456 130.831 18.4713C130.812 18.847 130.94 19.2151 131.188 19.4981C131.294 19.6196 131.425 19.7169 131.573 19.7833C131.72 19.8498 131.88 19.8837 132.041 19.883C132.293 19.8836 132.543 19.8464 132.784 19.7726C133.023 19.6986 133.236 19.5588 133.399 19.3691C133.598 19.1437 133.746 18.8767 133.83 18.5876C133.945 18.1791 133.997 17.7555 133.986 17.3313V16.5273Z" fill="white"/>
<path d="M140.938 11.5197V12.3638C141.227 12.08 141.556 11.8392 141.914 11.6487C142.315 11.4356 142.763 11.3283 143.217 11.337C143.49 11.3383 143.763 11.3596 144.033 11.4005C144.36 11.4573 144.674 11.5721 144.96 11.7395L144.52 13.4452C144.255 13.2731 143.96 13.1546 143.649 13.0964C143.405 13.0503 143.156 13.0319 142.907 13.0417C142.688 13.0724 142.475 13.1339 142.274 13.2244C142.034 13.3326 141.819 13.4885 141.641 13.6826C141.426 13.907 141.26 14.1729 141.153 14.4641C141.015 14.8365 140.949 15.2316 140.957 15.6285V21.3336H138.554V11.5197H140.938Z" fill="white"/>
<path d="M145.872 16.4178C145.865 15.7221 145.989 15.0314 146.239 14.382C146.468 13.7839 146.811 13.2359 147.248 12.7681C147.675 12.3162 148.19 11.957 148.761 11.7131C149.356 11.4653 149.993 11.3378 150.637 11.3378C151.28 11.3378 151.918 11.4653 152.512 11.7131C153.087 11.9558 153.605 12.315 154.035 12.7681C154.473 13.237 154.818 13.7846 155.053 14.382C155.308 15.0301 155.436 15.7213 155.429 16.4178C155.438 17.1266 155.31 17.8304 155.053 18.4908C154.818 19.0882 154.473 19.6358 154.035 20.1047C153.602 20.5485 153.084 20.9009 152.512 21.1411C151.918 21.3893 151.28 21.5171 150.637 21.5171C149.993 21.5171 149.356 21.3893 148.761 21.1411C148.193 20.8997 147.679 20.5473 147.248 20.1047C146.811 19.6371 146.468 19.089 146.239 18.4908C145.987 17.8291 145.863 17.1258 145.872 16.4178ZM148.367 16.4178C148.321 17.3356 148.551 18.246 149.027 19.032C149.189 19.3202 149.423 19.5616 149.706 19.7328C149.988 19.9039 150.311 19.9991 150.641 20.0089C150.971 19.9961 151.292 19.8997 151.574 19.7289C151.856 19.558 152.091 19.3182 152.255 19.032C152.7 18.2345 152.934 17.3362 152.934 16.4227C152.934 15.5092 152.7 14.611 152.255 13.8134C152.093 13.5245 151.859 13.2819 151.577 13.1085C151.294 12.9351 150.972 12.8368 150.641 12.8229C150.309 12.8339 149.986 12.931 149.703 13.1047C149.42 13.2783 149.187 13.5226 149.027 13.8134C148.554 14.597 148.325 15.5035 148.368 16.4178H148.367Z" fill="white"/>
</svg>
