<svg xmlns="http://www.w3.org/2000/svg" width="32" height="32" viewBox="0 0 32 32">
    <defs>
        <clipPath id="d2pvvh6qga">
            <path d="M0 0v27h25V16H11V0z" style="opacity:.45;fill:red"/>
        </clipPath>
    </defs>
    <g data-name="사각형 16568" transform="translate(10.248 2.001)" style="stroke:#333;fill:none">
        <rect width="10.399" height="1.5" rx=".75" style="stroke:none"/>
        <rect x=".5" y=".5" width="9.399" height=".5" rx=".25" style="fill:none"/>
    </g>
    <g data-name="사각형 16569" transform="rotate(90 5.823 22.177)" style="stroke:#333;fill:none">
        <rect width="5.399" height="1.5" rx=".75" style="stroke:none"/>
        <rect x=".5" y=".5" width="4.399" height=".5" rx=".25" style="fill:none"/>
    </g>
    <g data-name="document" style="clip-path:url(#d2pvvh6qga)" transform="translate(2.999 2)">
        <g data-name="사각형 16563" transform="translate(.001 .001)" style="stroke-width:1.5px;stroke:#333;fill:none">
            <rect width="25" height="27" rx="4" style="stroke:none"/>
            <rect x=".75" y=".75" width="23.5" height="25.5" rx="3.25" style="fill:none"/>
        </g>
    </g>
    <g data-name="사각형 16613" transform="translate(8.5 20.25)" style="stroke:#333;fill:none">
        <rect width="14" height="1.5" rx=".75" style="stroke:none"/>
        <rect x=".5" y=".5" width="13" height=".5" rx=".25" style="fill:none"/>
    </g>
    <g data-name="사각형 16614" transform="translate(8.5 14.75)" style="stroke:#333;fill:none">
        <rect width="6" height="1.5" rx=".75" style="stroke:none"/>
        <rect x=".5" y=".5" width="5" height=".5" rx=".25" style="fill:none"/>
    </g>
    <g data-name="사각형 16615" transform="translate(8.5 9.25)" style="stroke:#333;fill:none">
        <rect width="6" height="1.5" rx=".75" style="stroke:none"/>
        <rect x=".5" y=".5" width="5" height=".5" rx=".25" style="fill:none"/>
    </g>
    <g>
        <path data-name="패스 19728" d="M871.5 1356.659h-11.24a.689.689 0 0 1-.5-.213l-1.58-1.664a.655.655 0 0 1 0-.906l1.58-1.664a.689.689 0 0 1 .5-.213h11.24a.673.673 0 0 1 .681.666v3.328a.673.673 0 0 1-.681.666z" transform="rotate(-45 -1178.405 1698.662)" style="fill:#c8f7f4;stroke-linecap:round;stroke-linejoin:round;stroke-width:1.5px;stroke:#333"/>
        <g data-name="사각형 16586" transform="rotate(45 5.793 32.162)" style="stroke:#333;fill:none">
            <rect width="5" height="1.5" rx=".75" style="stroke:none"/>
            <rect x=".5" y=".5" width="4" height=".5" rx=".25" style="fill:none"/>
        </g>
    </g>
</svg>
