<svg xmlns="http://www.w3.org/2000/svg" width="72" height="72" viewBox="0 0 72 72">
    <defs>
        <clipPath id="cov0j917ja">
            <ellipse data-name="타원 551" cx="35.96" cy="35.953" rx="35.96" ry="35.953" style="fill:none"/>
        </clipPath>
    </defs>
    <g>
        <circle data-name="타원 526" cx="36" cy="36" r="36" style="fill:#f7ebdf"/>
        <g style="clip-path:url(#cov0j917ja)">
            <g data-name="그룹 103603" transform="translate(-.002 -.424)">
                <g data-name="그룹 103602">
                    <path data-name="패스 1714" d="M801.352 894.41s6.5-1.858 6.927-2.085 10.672 2.552 10.672 2.552h5.263l2.949-1.86 3.035-.647 6.729 1-1.6 13.8-15.222 3.221-11.184-2.45-7.94-7.031z" transform="translate(-782.474 -841.811)" style="fill:#e8e8e8"/>
                    <g data-name="그룹 103601">
                        <path data-name="패스 1715" d="M838.979 864.049a20.781 20.781 0 0 0 .487 6.637c.578 2.16 3.568 4.908 3.534 5.707s-2.527 9.278-9.33 9.278-9.367-8.459-9.367-9.278 2.955-3.547 3.534-5.707a20.8 20.8 0 0 0 .487-6.637" transform="translate(-796.885 -824.346)" style="fill:#f2cabf"/>
                    </g>
                    <path data-name="패스 1716" d="m825.226 881.42-5.148 4.174 5 10.589 5.934-3.5-6.705-8.091z" transform="translate(-794.274 -835.08)" style="fill:#fff"/>
                    <path data-name="패스 1717" d="m854.546 881.42 5.142 4.219-5.048 10.544-5.934-3.5 6.705-8.091z" transform="translate(-811.964 -835.08)" style="fill:#fff"/>
                    <path data-name="패스 1718" d="m833.175 914.4 5.832 18.7h2.37l3.665-18.7-5.934-3.5z" transform="translate(-802.367 -853.294)" style="fill:#e8e8e8"/>
                    <path data-name="패스 1719" d="m840.42 912.921 2.032 4.009h2.673l1.893-4.009-3.433-2.026z" transform="translate(-806.844 -853.294)" style="fill:#1aa4a4"/>
                    <path data-name="패스 1720" d="m843.275 926.693-1.523 7.976 2.657 8.434h2.269l1.725-9.045-2.455-7.365z" transform="translate(-807.668 -863.057)" style="fill:#448787"/>
                    <path data-name="패스 1721" d="M829.629 898.328a4.055 4.055 0 0 0-1.915-1.083 146.122 146.122 0 0 0-17.952-4.156c-1.422 2.872-2.147 11.429-13.143 11.429-11.121 0-11.825-8.407-13.055-10.95-.748.192-5.7 1.53-6.446 1.722-4.042 1.037-8.285 2.184-11.263 5.106a4.358 4.358 0 0 0-1.368 2.207c-.3 1.593.873 3.051 1.964 4.249 3.186 3.5 6.47 7.045 10.637 9.282a42.409 42.409 0 0 0 8.936 3.189l1.467.4c4.3 1.148 8.745 2.105 13.053 1.141a28.019 28.019 0 0 0 6.637-2.69v.763c.081-.042.164 1.443.245 1.4 4.352-2.256 8.654-6.9 12.9-9.345.963-.555 1.924-1.115 2.831-1.758 2.88-2.042 5.16-1.48 6.493-4.748.516-1.257.85-5.115-.021-6.158z" transform="translate(-759.892 -842.291)" style="fill:#f2bf3f"/>
                </g>
                <path data-name="패스 1722" d="M838.869 880.63a3.265 3.265 0 0 0 2.088.978 2.758 2.758 0 0 0 1.262-.443 7.34 7.34 0 0 0 3.261-4.149 16.932 16.932 0 0 1-2.9 1.527 5.681 5.681 0 0 1-3.224.31 8.475 8.475 0 0 1-1.185-.4 10.028 10.028 0 0 0-2.273-.858c-.029.516.836 1.1 1.172 1.428q.869.834 1.799 1.607z" transform="translate(-804.048 -832.359)" style="fill:#e7b9ac"/>
                <ellipse data-name="타원 550" cx="36.421" cy="36.414" rx="36.421" ry="36.414" style="fill:none"/>
            </g>
            <path data-name="패스 1723" d="M836.544 789.49a9.167 9.167 0 0 1 2.889-.53 5.568 5.568 0 0 1 1.317.109 12.031 12.031 0 0 1 2.82 1.27c1.112.769 1.8 2.073 2.984 2.723a1.782 1.782 0 0 1 .464.3 1.379 1.379 0 0 1 .261.5 14.141 14.141 0 0 1 .866 7.966 17.8 17.8 0 0 1-.634 1.948 9.061 9.061 0 0 1-.647 1.478 6.883 6.883 0 0 1-1.39 1.6 14.163 14.163 0 0 1-1.166.935 1.524 1.524 0 0 1-.6.3.556.556 0 0 1-.588-.235l-16.56-10.248.132-3.783" transform="translate(-798.283 -778.368)" style="fill:#3d312b"/>
            <path data-name="패스 1724" d="M831.335 787.536a5.524 5.524 0 0 0-4.471-1.987 85.5 85.5 0 0 0-8.651.505 4.451 4.451 0 0 1-3.463-.486 6.859 6.859 0 0 0-1.209 4.265 10.353 10.353 0 0 1 .066 1.506c-.109 1.2-.928 2.207-1.3 3.353a9.23 9.23 0 0 0-.268 3.091 16.622 16.622 0 0 0 .214 2.669 11.594 11.594 0 0 0 .505 1.771 18.953 18.953 0 0 0 2.747 5.035" transform="translate(-789.301 -776.26)" style="fill:#3d312b"/>
            <path data-name="패스 1725" d="M813.542 833.277a2.07 2.07 0 0 0-2.053-.664 2.53 2.53 0 0 0-1.632 1.652 4.131 4.131 0 0 0 .093 2.719 5.8 5.8 0 0 0 1.455 2.137 7.45 7.45 0 0 0 1.824 1.3 5.872 5.872 0 0 1 1.467.845" transform="translate(-787.843 -805.305)" style="fill:#f9d6cd"/>
            <path data-name="패스 1726" d="M875.729 830.548a2.122 2.122 0 0 1 2-.9 2.42 2.42 0 0 1 1.747 1.491 4.252 4.252 0 0 1 .107 2.759 6.193 6.193 0 0 1-1.292 2.321 7.88 7.88 0 0 1-1.721 1.517 6.148 6.148 0 0 0-1.4 1.015" transform="translate(-828.318 -803.501)" style="fill:#f9d6cd"/>
            <path data-name="패스 1727" d="M839.584 804.189c.911 2.292 1.7 4.135 1.544 6.584a38.646 38.646 0 0 1-.4 5.924c-.688 2.494 0 4.208-1.424 6.408a16.311 16.311 0 0 1-7.663 5.618 6.992 6.992 0 0 1-3.353.162 16.126 16.126 0 0 1-3.766-1.286 10.411 10.411 0 0 1-2.76-2.262 10.569 10.569 0 0 1-2.019-4.1c-1.5-4.853-1.212-7.932-1.681-12.973 0 0-.469-7.821 9.31-8.258s11.503 2.394 12.212 4.183z" transform="translate(-793.027 -785.165)" style="fill:#f9d6cd"/>
            <path data-name="패스 1728" d="M879.878 832.847a2.243 2.243 0 0 0-1.744.671q.808.109 1.61.268a.834.834 0 0 1 .734.524 1.265 1.265 0 0 1 .013.429 1.182 1.182 0 0 1-.214.708.709.709 0 0 1-.619.139l-1.017-.1a.823.823 0 0 0 .618.482.312.312 0 0 1 .216.07.4.4 0 0 1 .063.267 2.4 2.4 0 0 1-1.44 2.251 1.9 1.9 0 0 0 1.755-.8 5.317 5.317 0 0 0 .931-2.071c.123-.493.393-1.461.049-1.885-.281-.345-.584-.842-.955-.953z" transform="translate(-830.13 -805.472)" style="fill:#e7b9ac"/>
            <path data-name="패스 1729" d="M812.191 835.493a2.2 2.2 0 0 1 1.786.47q-.8.194-1.584.436c-.289.089-.625.241-.693.594a1.22 1.22 0 0 0 .018.423 1.115 1.115 0 0 0 .264.672.706.706 0 0 0 .626.069l1.006-.209a.861.861 0 0 1-.581.54.326.326 0 0 0-.21.092.4.4 0 0 0-.044.269 2.266 2.266 0 0 0 1.6 2.052 1.857 1.857 0 0 1-1.805-.592 4.993 4.993 0 0 1-1.078-1.932c-.158-.471-.5-1.391-.185-1.844.253-.37.518-.89.88-1.04z" transform="translate(-788.778 -807.089)" style="fill:#e7b9ac"/>
            <path data-name="패스 1730" d="M818.463 804.954a8.1 8.1 0 0 1-.3-1.822c.053-.262 2.7-2.67 7.414-3.3a13.03 13.03 0 0 1 3.164-.12l4.576.5a3.446 3.446 0 0 1 2.1.719c.758.741.668 1.964 1.025 2.961a65.713 65.713 0 0 0 3.166 6.431c.5-.338.471-.93.546-1.53a20.243 20.243 0 0 0 .1-3.952 5.72 5.72 0 0 0-.446-2.061 6.244 6.244 0 0 0-1.749-1.986 11.023 11.023 0 0 0-2.2-1.525 9.813 9.813 0 0 0-2.591-.768 41.735 41.735 0 0 0-7.836-.449 12.373 12.373 0 0 0-2.49.2 11.906 11.906 0 0 0-4.977 2.928 7.368 7.368 0 0 0-1.6 1.719 7.747 7.747 0 0 0-.732 4.064c0 .885-.021 4.576 1.232 4.52.1 0 .621-1.671.8-2.091a12.96 12.96 0 0 0 .737-2.084 5.03 5.03 0 0 0 .061-2.354z" transform="translate(-791.531 -783.981)" style="fill:#3d312b"/>
            <path data-name="패스 1731" d="m875.311 823.553.251 1.815a18.191 18.191 0 0 1 .233 2.618.96.96 0 0 0 .414-.536 8.161 8.161 0 0 0 .787-4.112" transform="translate(-828.408 -799.613)" style="fill:#3d312b"/>
            <path data-name="패스 1732" d="m818.765 827.446-.153 1.865c-.073.893-.147 1.79-.134 2.687a.977.977 0 0 1-.286-.535 11.932 11.932 0 0 1-.573-4.182" transform="translate(-792.745 -802.049)" style="fill:#3d312b"/>
            <g data-name="그룹 103606">
                <path data-name="패스 1733" d="M836.487 833.982a.787.787 0 1 1-.76-.982.892.892 0 0 1 .76.982z" transform="translate(-803.473 -805.584)" style="fill:#0a0807"/>
                <path data-name="패스 1734" d="M860.132 834.05a.787.787 0 1 1-.761-.982.892.892 0 0 1 .761.982z" transform="translate(-818.084 -805.626)" style="fill:#0a0807"/>
                <g data-name="그룹 103604">
                    <path data-name="패스 1735" d="M844.44 836.049a.19.19 0 0 1-.145-.067l-.793-.93a.362.362 0 0 1-.1-.211.369.369 0 0 1 .134-.288 3.443 3.443 0 0 0 .923-2.16 8 8 0 0 0-.251-2.45.191.191 0 0 1 .373-.085 8.349 8.349 0 0 1 .259 2.568 3.818 3.818 0 0 1-1.035 2.4l-.007.007.787.9a.191.191 0 0 1-.021.269.193.193 0 0 1-.124.047z" transform="translate(-808.689 -803.551)" style="fill:#bd9886"/>
                </g>
                <path data-name="패스 1736" d="M828.115 845.209c0 .646-.923 1.166-2.056 1.163s-2.051-.53-2.049-1.175.922-1.167 2.056-1.163 2.051.529 2.049 1.175z" transform="translate(-796.706 -812.402)" style="fill:#eebaba"/>
                <path data-name="패스 1737" d="M864.155 843.779c0 .646-.923 1.166-2.056 1.163s-2.051-.53-2.049-1.175.922-1.167 2.056-1.163 2.051.529 2.049 1.175z" transform="translate(-818.977 -811.518)" style="fill:#eebaba"/>
                <path data-name="패스 1738" d="M860.131 825.065a1.582 1.582 0 0 1 .809.291 6.492 6.492 0 0 1-2.087.074 8.338 8.338 0 0 1-2.358.079c.075-.408 1.378-.447 1.657-.476a8.13 8.13 0 0 1 1.979.032z" transform="translate(-816.78 -800.632)" style="fill:#0a0807"/>
                <path data-name="패스 1739" d="M831.7 825.29a7.244 7.244 0 0 0-2.807.093 1.088 1.088 0 0 0-.855.511 3.328 3.328 0 0 0 1.223-.028 19.424 19.424 0 0 1 3.418-.162 1.838 1.838 0 0 0-1.585-.433" transform="translate(-799.193 -800.756)" style="fill:#0a0807"/>
                <g data-name="그룹 103605">
                    <path data-name="패스 1740" d="M844 856.513a5.479 5.479 0 0 0 1.235-2.068 3.547 3.547 0 0 0 .122-.5 37.375 37.375 0 0 1-9.237.384 4.58 4.58 0 0 1-.562-.057 12.062 12.062 0 0 0 .755 1.7 4.726 4.726 0 0 0 .586.731 30.7 30.7 0 0 1 7.101-.19z" transform="translate(-803.84 -818.524)" style="fill:#0a0807"/>
                    <path data-name="패스 1741" d="M845.043 852.4a1.883 1.883 0 0 0-.007-.75.27.27 0 0 0-.106-.182.3.3 0 0 0-.206-.008 35.338 35.338 0 0 1-3.688.557 22.375 22.375 0 0 1-3.231.078 49.122 49.122 0 0 0-2.742-.03c-.043 0 .043.286.181.661a4.555 4.555 0 0 0 .561.057 37.363 37.363 0 0 0 9.238-.383z" transform="translate(-803.529 -816.98)" style="fill:#fff"/>
                    <path data-name="패스 1742" d="M839.065 860.651a4.6 4.6 0 0 0 1.248.937 4.992 4.992 0 0 0 4.266.041 5.19 5.19 0 0 0 1.587-1.158 30.706 30.706 0 0 0-7.101.18z" transform="translate(-806.009 -822.482)" style="fill:#ff5959"/>
                </g>
            </g>
        </g>
    </g>
</svg>
