<svg xmlns="http://www.w3.org/2000/svg" width="64" height="64" viewBox="0 0 64 64">
    <g transform="translate(-148.057 -349)">
        <circle data-name="타원 531" cx="32" cy="32" r="32" transform="translate(148.057 349)" style="fill:#f8f8f8"/>
        <g data-name="그룹 103827" transform="translate(111.057 -769)">
            <rect data-name="사각형 16499" width="48" height="20" rx="3" transform="translate(45 1140)" style="fill:#1663bf"/>
            <rect data-name="사각형 16500" width="44" height="16" rx="2" transform="translate(47 1142)" style="fill:#428bf4"/>
            <g data-name="그룹 103826">
                <g data-name="그룹 103822">
                    <path data-name="선 205" transform="translate(54.5 1150)" style="fill:none;stroke:#fff;stroke-linecap:round;stroke-miterlimit:10;stroke-width:1.5px" d="M0 0h5"/>
                    <path data-name="선 206" transform="translate(55.75 1147.835)" style="fill:none;stroke:#fff;stroke-linecap:round;stroke-miterlimit:10;stroke-width:1.5px" d="M0 4.33 2.5 0"/>
                    <path data-name="선 207" transform="translate(55.75 1147.835)" style="fill:none;stroke:#fff;stroke-linecap:round;stroke-miterlimit:10;stroke-width:1.5px" d="M2.5 4.33 0 0"/>
                </g>
                <g data-name="그룹 103823">
                    <path data-name="선 208" transform="translate(62.5 1150)" style="fill:none;stroke:#fff;stroke-linecap:round;stroke-miterlimit:10;stroke-width:1.5px" d="M0 0h5"/>
                    <path data-name="선 209" transform="translate(63.75 1147.835)" style="fill:none;stroke:#fff;stroke-linecap:round;stroke-miterlimit:10;stroke-width:1.5px" d="M0 4.33 2.5 0"/>
                    <path data-name="선 210" transform="translate(63.75 1147.835)" style="fill:none;stroke:#fff;stroke-linecap:round;stroke-miterlimit:10;stroke-width:1.5px" d="M2.5 4.33 0 0"/>
                </g>
                <g data-name="그룹 103824">
                    <path data-name="선 211" transform="translate(70.5 1150)" style="fill:none;stroke:#fff;stroke-linecap:round;stroke-miterlimit:10;stroke-width:1.5px" d="M0 0h5"/>
                    <path data-name="선 212" transform="translate(71.75 1147.835)" style="fill:none;stroke:#fff;stroke-linecap:round;stroke-miterlimit:10;stroke-width:1.5px" d="M0 4.33 2.5 0"/>
                    <path data-name="선 213" transform="translate(71.75 1147.835)" style="fill:none;stroke:#fff;stroke-linecap:round;stroke-miterlimit:10;stroke-width:1.5px" d="M2.5 4.33 0 0"/>
                </g>
                <g data-name="그룹 103825">
                    <path data-name="선 214" transform="translate(78.5 1150)" style="fill:none;stroke:#fff;stroke-linecap:round;stroke-miterlimit:10;stroke-width:1.5px" d="M0 0h5"/>
                    <path data-name="선 215" transform="translate(79.75 1147.835)" style="fill:none;stroke:#fff;stroke-linecap:round;stroke-miterlimit:10;stroke-width:1.5px" d="M0 4.33 2.5 0"/>
                    <path data-name="선 216" transform="translate(79.75 1147.835)" style="fill:none;stroke:#fff;stroke-linecap:round;stroke-miterlimit:10;stroke-width:1.5px" d="M2.5 4.33 0 0"/>
                </g>
            </g>
        </g>
    </g>
</svg>
