<svg xmlns="http://www.w3.org/2000/svg" width="64" height="64" viewBox="0 0 64 64">
    <defs>
        <clipPath id="rvpjqh331a">
            <path data-name="사각형 16501" style="fill:none" d="M0 0h33.413v36H0z"/>
        </clipPath>
    </defs>
    <g transform="translate(-44.057 -349)">
        <circle data-name="타원 530" cx="32" cy="32" r="32" transform="translate(44.057 349)" style="fill:#f8f8f8"/>
        <g data-name="그룹 103829">
            <g data-name="그룹 103828" style="clip-path:url(#rvpjqh331a)" transform="translate(59.057 365)">
                <path data-name="패스 19807" d="M32.933 2.787C32.717 2.672 27.5-.021 16.684 0S.663 2.736.446 2.852A.845.845 0 0 0 0 3.6l.028 14.346a15.572 15.572 0 0 0 8 13.568l7.526 4.186a2.523 2.523 0 0 0 2.4 0l7.512-4.215a15.571 15.571 0 0 0 7.944-13.6l-.026-14.351a.845.845 0 0 0-.451-.746" transform="translate(.001)" style="fill:#0058a7"/>
                <path data-name="패스 19808" d="M26.036 58.662a.939.939 0 0 0-1.282-.341l-7.29 4.205a.938.938 0 0 0 .94 1.623l7.29-4.206a.938.938 0 0 0 .341-1.282" transform="translate(-11.788 -40.356)" style="fill:#fff"/>
                <path data-name="패스 19809" d="m70.921 62.452-7.306-4.176a.938.938 0 1 0-.933 1.627l7.306 4.176a.938.938 0 1 0 .933-1.627" transform="translate(-43.14 -40.326)" style="fill:#fff"/>
                <path data-name="패스 19810" d="M47.677 12.548a3 3 0 0 0-.926 5.856l.007 3.741a.938.938 0 0 0 1.876 0l-.007-3.745a3 3 0 0 0-.95-5.853m1.133 3a1.127 1.127 0 1 1-1.13-1.125 1.128 1.128 0 0 1 1.13 1.125" transform="translate(-30.984 -8.702)" style="fill:#fff"/>
                <path data-name="패스 19811" d="M39.833 32.377a.937.937 0 0 0-1.282-.34L28.449 37.9l-10.125-5.823a.938.938 0 1 0-.935 1.626l10.126 5.819.024 12.218a.938.938 0 1 0 1.876 0v-1.153h1.312a.938.938 0 0 0 0-1.876h-1.312v-.748h1.312a.938.938 0 0 0 0-1.876h-1.312l-.013-6.564 10.1-5.859a.939.939 0 0 0 .341-1.282" transform="translate(-11.732 -22.128)" style="fill:#f68912"/>
            </g>
        </g>
    </g>
</svg>
