<svg xmlns="http://www.w3.org/2000/svg" width="64" height="64" viewBox="0 0 64 64">
    <g transform="translate(-24.057 -313)">
        <circle data-name="타원 533" cx="32" cy="32" r="32" transform="translate(24.057 313)" style="fill:#f8f8f8"/>
        <g data-name="그룹 103663" transform="translate(-463.172 -654.829)">
            <path data-name="패스 19608" d="M532.788 999.829c0-.442-.022-.88-.063-1.312a2.393 2.393 0 0 1 1.2-2.291 2.428 2.428 0 0 0 .889-3.318L533 989.752a2.429 2.429 0 0 0-3.318-.889l-.013.007a2.474 2.474 0 0 1-2.672-.16 13.608 13.608 0 0 0-2.097-1.21 2.473 2.473 0 0 1-1.465-2.229v-.009a2.43 2.43 0 0 0-2.429-2.429h-3.642a2.429 2.429 0 0 0-2.429 2.429v.009a2.473 2.473 0 0 1-1.465 2.229 13.569 13.569 0 0 0-2.1 1.214 2.472 2.472 0 0 1-2.671.16l-.013-.007a2.429 2.429 0 0 0-3.318.889l-1.821 3.154a2.428 2.428 0 0 0 .889 3.318 2.394 2.394 0 0 1 1.2 2.291q-.063.648-.063 1.312t.063 1.312a2.4 2.4 0 0 1-1.2 2.292 2.428 2.428 0 0 0-.889 3.318l1.821 3.154a2.428 2.428 0 0 0 3.318.889l.013-.007a2.474 2.474 0 0 1 2.671.16 13.579 13.579 0 0 0 2.1 1.215 2.47 2.47 0 0 1 1.465 2.228v.009a2.428 2.428 0 0 0 2.429 2.429h3.642a2.429 2.429 0 0 0 2.429-2.429v-.009a2.47 2.47 0 0 1 1.465-2.228 13.618 13.618 0 0 0 2.094-1.215 2.475 2.475 0 0 1 2.672-.16l.013.007a2.428 2.428 0 0 0 3.318-.889l1.821-3.154a2.428 2.428 0 0 0-.889-3.318 2.4 2.4 0 0 1-1.2-2.292c.037-.434.059-.871.059-1.314z" style="fill:#f9b61e"/>
            <circle data-name="타원 534" cx="9" cy="9" r="9" transform="translate(510.188 990.829)" style="fill:#f7a021"/>
            <circle data-name="타원 535" cx="5" cy="5" r="5" transform="translate(514 995)" style="fill:#fff"/>
        </g>
    </g>
</svg>
