<svg xmlns="http://www.w3.org/2000/svg" width="24" height="24" viewBox="0 0 24 24">
    <g transform="translate(.395 -1.3)">
        <g data-name="패스 19506" style="fill:none">
            <path d="M10 0A10 10 0 1 1 0 10 10 10 0 0 1 10 0z" style="stroke:none" transform="translate(1.605 3.3)"/>
            <path d="M10 1.2c-4.852 0-8.8 3.948-8.8 8.8s3.948 8.8 8.8 8.8 8.8-3.948 8.8-8.8-3.948-8.8-8.8-8.8M10 0c5.523 0 10 4.477 10 10s-4.477 10-10 10S0 15.523 0 10 4.477 0 10 0z" style="fill:#111;stroke:none" transform="translate(1.605 3.3)"/>
        </g>
        <circle data-name="타원 536" cx="1" cy="1" r="1" transform="translate(10.605 8.05)" style="fill:#111"/>
        <rect data-name="사각형 15958" width="1.2" height="7" rx=".6" transform="translate(10.974 11.55)" style="fill:#111"/>
    </g>
</svg>
