<svg xmlns="http://www.w3.org/2000/svg" width="96" height="96" viewBox="0 0 96 96">
    <g data-name="그룹 103586">
        <path data-name="사각형 16345" style="fill:none" d="M0 0h96v96H0z"/>
        <g data-name="그룹 103593">
            <path data-name="패스 19552" d="M12.282 38.832v7.935H4v-7.935H0v20.42h4v-9.831h8.286v9.831h4v-20.42z" transform="translate(1.921 36.427)" style="fill:#009591"/>
            <path data-name="패스 19553" d="M26.234 58.761a1.515 1.515 0 0 1-.394-.525 1.721 1.721 0 0 1-.219-.818 4.656 4.656 0 0 1-2.071 1.312 8 8 0 0 1-2.3.351 4.869 4.869 0 0 1-3.45-1.268 4.475 4.475 0 0 1-1.372-3.457 4.915 4.915 0 0 1 1.444-3.515 6.555 6.555 0 0 1 4.186-1.8l3.268-.379a3.185 3.185 0 0 0-.833-2.553 2.885 2.885 0 0 0-1.88-.684 5.43 5.43 0 0 0-2.432.575 9.079 9.079 0 0 0-2.115 1.444l-.671-2.944a8.948 8.948 0 0 1 2.466-1.225 9.946 9.946 0 0 1 2.989-.408 8.7 8.7 0 0 1 2.173.291 5.834 5.834 0 0 1 2.027.964 5.051 5.051 0 0 1 1.517 1.765 5.668 5.668 0 0 1 .583 2.7v6.36a13.575 13.575 0 0 0 .146 1.925 6.191 6.191 0 0 0 .583 1.9zm-.875-7.643-1.955.261a4 4 0 0 0-2.217.934 2.443 2.443 0 0 0-.846 1.9 2.306 2.306 0 0 0 .569 1.634 1.793 1.793 0 0 0 1.356.613 4.032 4.032 0 0 0 1.181-.175 2.107 2.107 0 0 0 .977-.643 3.2 3.2 0 0 0 .686-1.239 6.7 6.7 0 0 0 .248-2z" transform="translate(3.926 36.918)" style="fill:#009591"/>
            <path data-name="패스 19554" d="M34.1 43.153v1.342a5.445 5.445 0 0 1 1.852-1.211 6.507 6.507 0 0 1 6.623 1.211 6.063 6.063 0 0 1 1.625 4.463v9.8h-3.82v-9.246a4.811 4.811 0 0 0-.8-2.888 2.63 2.63 0 0 0-2.261-1.109 2.845 2.845 0 0 0-2.26 1.094 4.553 4.553 0 0 0-.92 3.019v9.132h-3.798V43.153z" transform="translate(5.623 36.918)" style="fill:#009591"/>
            <path data-name="패스 19555" d="M54.314 58.761a1.515 1.515 0 0 1-.394-.525 1.721 1.721 0 0 1-.219-.818 4.656 4.656 0 0 1-2.071 1.312 8 8 0 0 1-2.3.351 4.869 4.869 0 0 1-3.441-1.269 4.475 4.475 0 0 1-1.372-3.457 4.915 4.915 0 0 1 1.444-3.515 6.555 6.555 0 0 1 4.186-1.8l3.268-.379a3.185 3.185 0 0 0-.833-2.553 2.885 2.885 0 0 0-1.88-.684 5.43 5.43 0 0 0-2.441.576 9.079 9.079 0 0 0-2.115 1.444l-.671-2.944a8.948 8.948 0 0 1 2.466-1.225 9.946 9.946 0 0 1 2.989-.408 8.7 8.7 0 0 1 2.173.291 5.834 5.834 0 0 1 2.027.964 5.051 5.051 0 0 1 1.517 1.765 5.668 5.668 0 0 1 .583 2.7v6.36a13.574 13.574 0 0 0 .146 1.925 6.191 6.191 0 0 0 .583 1.9zm-.875-7.643-1.955.261a4 4 0 0 0-2.217.934 2.443 2.443 0 0 0-.846 1.9 2.306 2.306 0 0 0 .569 1.634 1.793 1.793 0 0 0 1.357.613 4.032 4.032 0 0 0 1.181-.175 2.107 2.107 0 0 0 .977-.643 3.2 3.2 0 0 0 .686-1.239 6.7 6.7 0 0 0 .248-2z" transform="translate(7.352 36.918)" style="fill:#009591"/>
            <path data-name="패스 19556" d="M62.214 43.153v1.342a6.793 6.793 0 0 1 1.546-1.137 4.23 4.23 0 0 1 2.071-.5 8.928 8.928 0 0 1 1.3.1 4.449 4.449 0 0 1 1.473.54l-.7 2.713a3.852 3.852 0 0 0-1.386-.554 5.364 5.364 0 0 0-1.181-.088 3.729 3.729 0 0 0-1.006.292 3.044 3.044 0 0 0-1.006.729 3.62 3.62 0 0 0-.773 1.24 5.031 5.031 0 0 0-.306 1.852v9.078h-3.824V43.153z" transform="translate(9.049 36.918)" style="fill:#009591"/>
            <path data-name="패스 19557" d="M68.275 50.943a8.808 8.808 0 0 1 .582-3.238 7.857 7.857 0 0 1 1.606-2.567 7.219 7.219 0 0 1 2.407-1.678 7.741 7.741 0 0 1 5.967 0 7.184 7.184 0 0 1 2.42 1.677 8.06 8.06 0 0 1 1.619 2.563 8.61 8.61 0 0 1 .6 3.238 8.77 8.77 0 0 1-.6 3.3 8.085 8.085 0 0 1-1.619 2.567 7.352 7.352 0 0 1-2.42 1.647 7.727 7.727 0 0 1-5.967 0 7.388 7.388 0 0 1-2.407-1.647 7.88 7.88 0 0 1-1.606-2.567 8.972 8.972 0 0 1-.582-3.3m3.969 0a7.335 7.335 0 0 0 1.049 4.162 3.049 3.049 0 0 0 2.567 1.56 3.1 3.1 0 0 0 2.567-1.56 7.177 7.177 0 0 0 1.079-4.157 7.191 7.191 0 0 0-1.079-4.143 3.1 3.1 0 0 0-2.567-1.576 3.045 3.045 0 0 0-2.567 1.576 7.349 7.349 0 0 0-1.049 4.142" transform="translate(10.251 36.918)" style="fill:#009591"/>
            <path data-name="패스 19558" d="M48.7 21.971a7.294 7.294 0 0 0-.516-1.756 8.63 8.63 0 0 0-3.484-4.027 7.813 7.813 0 0 0-8.056.05 7.057 7.057 0 0 0-2.654 2.841 8.142 8.142 0 0 0-.5 1.245 8.734 8.734 0 0 0 .55 6.8 3.442 3.442 0 0 0 1.629 1.418 2.359 2.359 0 0 0 2.107-.164 2.238 2.238 0 0 0 .788-2.36 6.177 6.177 0 0 1 .077-3.286 2.56 2.56 0 0 1 .583-.938 2.162 2.162 0 0 1 .558-.38 2.325 2.325 0 0 1 1.39-.227 2.67 2.67 0 0 1 1.869 1.526 6.194 6.194 0 0 1 .5 2.435 36.713 36.713 0 0 1-1.622 10.9c-.1.361-.194.718-.3 1.076-.082.277-.22.628-.045.9a.708.708 0 0 0 .323.247c.541.219.98-.112 1.342-.477a19.449 19.449 0 0 0 4.434-7.759 24.76 24.76 0 0 0 .85-3.247 14.237 14.237 0 0 0 .164-4.817" transform="translate(5.954 33.531)" style="fill:#009591"/>
            <path data-name="패스 19559" d="M65.409 6.333a.927.927 0 0 0-1-.889 4.851 4.851 0 0 0-1.5.476c-9.382 3.567-19.962 4.241-29.849 2.817-1.692-.245-3.405-.583-5.106-.85-1.063-.166-2.117-.407-3.19-.488a3.85 3.85 0 0 0-2.792.534 2.955 2.955 0 0 0-.352 3.5 7.893 7.893 0 0 0 3.035 2.936 7.359 7.359 0 0 0 3.981 1.358q5.665-.36 11.3-1.094c6.4-.831 13.118-1.617 19.134-4.1a24.087 24.087 0 0 0 5.592-3.135c.305-.232.746-.616.746-1.059" transform="translate(4.51 32.353)" style="fill:#009591"/>
            <path data-name="패스 19560" d="M36.623 3.782a3.691 3.691 0 0 0 7.382 0 2.041 2.041 0 0 0-.2-.882c-.315-.672-.671-1-.633-1.8C43.216.015 41.827 0 41.077 0a5.408 5.408 0 0 0-2.418.484 3.736 3.736 0 0 0-1.449 1.3 3.681 3.681 0 0 0-.586 1.916v.084" transform="translate(6.389 31.689)" style="fill:#c80029"/>
        </g>
    </g>
</svg>
