<svg xmlns="http://www.w3.org/2000/svg" width="64" height="64" viewBox="0 0 64 64">
    <g transform="translate(-357 -330.931)">
        <circle data-name="타원 540" cx="32" cy="32" r="32" transform="translate(357 330.931)" style="fill:#f8f8f8"/>
        <g data-name="그룹 103678">
            <g data-name="그룹 103677">
                <g data-name="그룹 103676">
                    <g data-name="패스 19619" style="fill:none;stroke-linecap:round;stroke-linejoin:round">
                        <path d="M67.745 691.714A13.724 13.724 0 0 0 70.976 690l.5-.324q.236-.15.469-.293a2.987 2.987 0 0 0 1-4.091l-3.255-5.365a2.579 2.579 0 0 0-2.672-1.4l-.036.006a4.976 4.976 0 0 0-1.707.711 1.159 1.159 0 0 0-.07.039 5.916 5.916 0 0 1-.557.3l-.037-.014a1.28 1.28 0 0 1-.307-.165 3.508 3.508 0 0 1-.589-.561 13.428 13.428 0 0 1-.984-1.316 56.551 56.551 0 0 1-1.132-1.771l-.285-.469a29.488 29.488 0 0 1-.867-1.584 9.679 9.679 0 0 1-.59-1.332 2.747 2.747 0 0 1-.148-.658 1.343 1.343 0 0 1 .009-.24l.013-.055c.141-.113.352-.246.546-.369.8-.505 2.912-1.847 1.458-4.244l-3.256-5.377a2.977 2.977 0 0 0-2.975-1.392l-.037.006a2.937 2.937 0 0 0-1.072.393 10.02 10.02 0 0 1-.231.133l-.337.193c-.133.077-.267.155-.412.235a13.585 13.585 0 0 0-3.034 2.084c-4.005 3.96-.689 11.38.73 14.555 2.275 5.081 9.1 15.262 15.67 14.307a5.993 5.993 0 0 0 .964-.228z" style="stroke:none" transform="translate(326.53 -313.069)"/>
                        <path d="M65.905 692v-1.5a4.604 4.604 0 0 0 1.379-.213c1.001-.324 1.91-.917 2.876-1.547l.5-.324.01-.006c.19-.121.348-.22.496-.31a1.457 1.457 0 0 0 .665-.912 1.445 1.445 0 0 0-.17-1.119l-3.256-5.368c-.38-.63-.759-.702-1.01-.702-.05 0-.1.003-.15.01l-.018.003-.014.002c-.387.06-.81.307-1.184.525l-.06.033-.002.001a1.737 1.737 0 0 1-.017.01l-.01.006c-.224.128-.478.274-.714.373a1.5 1.5 0 0 1-1.109.02l-.033-.013a2.793 2.793 0 0 1-.647-.345 4.914 4.914 0 0 1-.85-.795c0-.002-.002-.004-.004-.006-.423-.485-.777-.989-1.098-1.465a57.534 57.534 0 0 1-1.169-1.828l-.285-.469-.005-.01a30.846 30.846 0 0 1-.916-1.67c-.28-.549-.502-1.02-.675-1.535a4.168 4.168 0 0 1-.225-1.066 2.828 2.828 0 0 1 .02-.513c.007-.048.016-.096.027-.144l.013-.055a1.5 1.5 0 0 1 .522-.825c.201-.162.447-.318.663-.455l.018-.01c.316-.201.845-.537 1.112-.955.112-.174.32-.499-.134-1.246l-3.254-5.373a1.465 1.465 0 0 0-1.469-.69l-.023.004H55.7c-.187.03-.364.095-.526.194l-.008.004c-.09.055-.176.103-.26.151l-.36.206c-.126.073-.257.149-.402.23l-.006.002c-.998.559-1.94 1.086-2.702 1.837-3.267 3.23-.246 9.99 1.044 12.875.956 2.134 2.998 5.674 5.608 8.625 1.96 2.216 4.908 4.858 7.818 4.858v1.5m0 0c-6.292 0-12.62-9.514-14.795-14.37-1.419-3.175-4.735-10.595-.73-14.555.91-.897 1.99-1.5 3.034-2.084.145-.08.279-.158.412-.235l.337-.193c.078-.044.156-.088.231-.133.329-.2.691-.333 1.072-.393l.037-.006a2.976 2.976 0 0 1 2.975 1.392l3.256 5.377c1.454 2.397-.662 3.739-1.458 4.244-.194.123-.405.256-.546.369l-.013.055c-.01.074-.013.157-.009.24.018.275.116.564.148.658.144.43.34.843.59 1.332.247.476.531 1.022.867 1.584l.285.469a56.53 56.53 0 0 0 1.132 1.771c.29.429.611.888.984 1.316.176.2.373.41.589.561.105.075.2.125.307.165l.037.014c.153-.064.365-.186.557-.296.022-.013.046-.027.07-.039.477-.278 1.05-.608 1.707-.711l.036-.006c.627-.09 1.809-.03 2.672 1.4l3.255 5.365c.413.68.534 1.481.343 2.256a2.95 2.95 0 0 1-1.342 1.835c-.156.095-.312.193-.469.293l-.5.324c-1.009.658-2.04 1.33-3.231 1.715a5.992 5.992 0 0 1-1.84.286z" style="fill:#202121;stroke:none" transform="translate(326.53 -313.069)"/>
                    </g>
                </g>
            </g>
            <path data-name="패스 19620" d="M69.182 664.469a9 9 0 0 1 6.359 11.015" style="stroke-width:1.5px;stroke:#009591;fill:none;stroke-linecap:round;stroke-linejoin:round" transform="translate(326.53 -313.069)"/>
            <path data-name="패스 19621" d="M71.815 674.485a5.139 5.139 0 0 0-3.631-6.29" style="stroke:#202121;stroke-width:1.5px;fill:none;stroke-linecap:round;stroke-linejoin:round" transform="translate(326.53 -313.069)"/>
        </g>
    </g>
</svg>
