<svg xmlns="http://www.w3.org/2000/svg" width="40" height="40" viewBox="0 0 40 40">
    <defs>
        <clipPath id="ukllma37ma">
            <path data-name="사각형 16241" style="fill:none" d="M0 0h40v12.25H0z"/>
        </clipPath>
    </defs>
    <g transform="translate(0 14)" style="clip-path:url(#ukllma37ma)">
        <path data-name="패스 19621" d="M128.436 2.187h1.031a.122.122 0 0 0 .122-.122V.121a.122.122 0 0 0-.122-.121h-1.447c-1.675 0-2.561.535-3.069 1.672L121.8 9.383a.959.959 0 0 1-1.008.68V.121a.122.122 0 0 0-.119-.121h-2.312a.121.121 0 0 0-.123.121v11.915a.216.216 0 0 0 .214.214h2.6c1.674 0 2.439-.536 2.945-1.673l3.103-7.614a1.252 1.252 0 0 1 1.336-.776" transform="translate(-90.854)" style="fill:#cb0017"/>
        <path data-name="패스 19622" d="M9.31 6.126a2.74 2.74 0 0 0 1.7-2.691C11.007 1.3 9.173 0 6.96 0H.12A.121.121 0 0 0 0 .121v1.943a.122.122 0 0 0 .12.123h6.365a1.54 1.54 0 0 1 1.721 1.4 1.539 1.539 0 0 1-1.721 1.4H2.7V3.544a.121.121 0 0 0-.123-.123H.12a.121.121 0 0 0-.12.123v8.585a.12.12 0 0 0 .12.121h6.74c2.52 0 4.324-1.175 4.324-3.572A2.636 2.636 0 0 0 9.31 6.126m-2.694 3.99H2.7V7.243h3.916a1.58 1.58 0 0 1 1.767 1.436 1.58 1.58 0 0 1-1.766 1.437" style="fill:#cb0017"/>
        <path data-name="패스 19623" d="m155.785 35.423-3.967-5.071c-.011-.015-.028-.013-.034 0l-1.067 2.612a.046.046 0 0 0 0 .048l1.734 2.324a.521.521 0 0 0 .469.227h2.794a.084.084 0 0 0 .068-.142" transform="translate(-115.807 -23.314)" style="fill:#cb0017"/>
        <path data-name="패스 19624" d="M58.957 14.773H56.64a.121.121 0 0 0-.122.123v8.585a.121.121 0 0 0 .122.121h2.316a.122.122 0 0 0 .121-.121V14.9a.122.122 0 0 0-.121-.123" transform="translate(-43.428 -11.352)" style="fill:#cb0017"/>
        <path data-name="패스 19625" d="M68.482 0h-2.315a.121.121 0 0 0-.121.121v9.942a.959.959 0 0 1-1.008-.68l-3.15-7.711C61.383.535 60.494 0 58.821 0H56.64a.121.121 0 0 0-.122.121v1.943a.122.122 0 0 0 .122.122h1.76a1.257 1.257 0 0 1 1.339.776l3.107 7.615c.507 1.137 1.272 1.673 2.946 1.673h2.594a.217.217 0 0 0 .215-.214V.121A.121.121 0 0 0 68.482 0" transform="translate(-43.428)" style="fill:#cb0017"/>
    </g>
</svg>
