<svg xmlns="http://www.w3.org/2000/svg" width="40" height="40" viewBox="0 0 40 40">
    <path data-name="패스 19510" d="M26.1 22.43a5.918 5.918 0 0 0-.428-1.454 7.169 7.169 0 0 0-2.885-3.342 6.481 6.481 0 0 0-6.685.045 5.828 5.828 0 0 0-2.2 2.355 6.709 6.709 0 0 0-.418 1.034 7.249 7.249 0 0 0 .459 5.641 2.814 2.814 0 0 0 1.351 1.177 1.966 1.966 0 0 0 1.748-.133 1.861 1.861 0 0 0 .653-1.958 5.1 5.1 0 0 1 .068-2.728 2.01 2.01 0 0 1 .482-.775 1.855 1.855 0 0 1 .462-.32 1.92 1.92 0 0 1 1.154-.186 2.2 2.2 0 0 1 1.55 1.264 5.161 5.161 0 0 1 .419 2.022 30.366 30.366 0 0 1-1.347 9.046c-.077.3-.159.6-.246.891-.066.229-.181.523-.036.744a.6.6 0 0 0 .269.207 1.014 1.014 0 0 0 1.11-.394 16.085 16.085 0 0 0 3.683-6.444 19.737 19.737 0 0 0 .7-2.689 11.768 11.768 0 0 0 .136-4" transform="translate(-.124 1.188)" style="fill:#00857e"/>
    <path data-name="패스 19511" d="M36.676 6.773a.766.766 0 0 0-.832-.74 4.134 4.134 0 0 0-1.247.395A50.32 50.32 0 0 1 9.828 8.767c-1.4-.2-2.824-.487-4.235-.706-.883-.139-1.757-.339-2.647-.407A3.214 3.214 0 0 0 .628 8.1 2.448 2.448 0 0 0 .334 11a6.519 6.519 0 0 0 2.521 2.432 6.075 6.075 0 0 0 3.3 1.129q4.7-.3 9.38-.911c5.315-.686 10.886-1.336 15.877-3.4a19.864 19.864 0 0 0 4.642-2.6c.252-.192.619-.508.619-.875" transform="translate(1.974 2.897)" style="fill:#00857e"/>
    <path data-name="패스 19512" d="M17.078 3.139a3.062 3.062 0 1 0 6.123 0 1.788 1.788 0 0 0-.166-.734c-.26-.555-.558-.827-.528-1.494C22.546.013 21.393 0 20.772 0a4.522 4.522 0 0 0-2 .4 3.12 3.12 0 0 0-1.2 1.082 3.049 3.049 0 0 0-.485 1.588z" transform="translate(-.756 3.861)" style="fill:#e4003f"/>
</svg>
