<svg xmlns="http://www.w3.org/2000/svg" width="32" height="32" viewBox="0 0 32 32">
    <defs>
        <clipPath id="m6xa78u38a">
            <path data-name="사각형 16392" style="fill:none" d="M0 0h24v17.095H0z"/>
        </clipPath>
    </defs>
    <path data-name="사각형 16373" style="fill:none" d="M0 0h32v32H0z"/>
    <g data-name="그룹 103647">
        <g data-name="그룹 103646" transform="translate(4 7)" style="clip-path:url(#m6xa78u38a)">
            <path data-name="패스 19623" d="m23.612 8.771-.212-.129a3.705 3.705 0 0 0-3.009-.937 5.63 5.63 0 0 0-2.632.906v-.028c0-.345.039-.719.076-1.081a10.722 10.722 0 0 0 .079-1.1 2.559 2.559 0 0 0-.166-1 .194.194 0 0 0-.19-.119 2.887 2.887 0 0 0-1.213.4l-.09.2a7.932 7.932 0 0 1-.18 1.621c0-.005-.049.133-.049.133a19.982 19.982 0 0 0-.013 4.122c.016.119.245.3.419.36a2.655 2.655 0 0 0 1.141-.221l.134-.02a.2.2 0 0 0 .167-.23l.007-.34A3.389 3.389 0 0 1 20.354 8.9a1.7 1.7 0 0 1 1.639.526 2.262 2.262 0 0 1-.268 1.658 3.444 3.444 0 0 1-1.876 1.479 7.156 7.156 0 0 1-2.871.4c-.043-.031-1.055-.714-1.055-.714a15.112 15.112 0 0 0-3.012-1.789 3.785 3.785 0 0 1-.683-.489l-.1-.086c-.578-.465-1.684-1.2-2.574-1.794l-.478-.32v-.1c.025-.028.582-.364.582-.364a5.9 5.9 0 0 0 1.219-.8c-.015.019.1-.062.1-.062l1.935-1.094a23.669 23.669 0 0 0 5.068-3.32l.055-.174.026-.157a1.075 1.075 0 0 0 .017-.648.214.214 0 0 0-.152-.152 4.231 4.231 0 0 0-2.991 1.383 2.571 2.571 0 0 1-.621.429l-.157.087C13.039 3.437 10.522 5 9.2 5.843A44.358 44.358 0 0 1 9.876.73l-.039-.2A13.792 13.792 0 0 0 9.7.275L9.6.092 9.57.084a.819.819 0 0 0-.633-.038l-.265.1-.35.127A.189.189 0 0 0 8.175.4 21.358 21.358 0 0 0 6.9 6.419a30.5 30.5 0 0 0-2.991-1.655l-.017-.007-.07-.017a2.112 2.112 0 0 1-.7-.322l-.477-.309-.728-.469c.008 0-.192-.043-.192-.043a2.27 2.27 0 0 0-1.093.735.191.191 0 0 0-.032.117.633.633 0 0 0 .034.174l.031.148.035.089a10.225 10.225 0 0 0 2.1 1.423l1 .533 1.537.842c0 .007.264.206.264.206l.18.107.033.02L3.02 9.858l-1.472.975a8.9 8.9 0 0 1-.848.406 1.192 1.192 0 0 0-.66.546l-.04.087.041.053.11.086.153.1.162.112.153.023a3.9 3.9 0 0 0 1.358-.45c.657-.292 2.444-1.368 3.207-1.829l.326-.197a.734.734 0 0 0 .416-.2 3.961 3.961 0 0 1 .69-.417l.23-.128v.088a31.152 31.152 0 0 0 .423 5.343v.023l.025.054a5.8 5.8 0 0 1 .394 1.227l.291.975c.007.013.084.09.084.09a1.911 1.911 0 0 0 1.008.268l.085-.01.054-.12a2.249 2.249 0 0 0 .039-.447c0-.18-.013-.376-.031-.615l-.021-.35c-.107-1.633-.215-3.989-.215-5.554v-.123c.277.173 1.49.937 1.49.937 2.061 1.338 5.178 3.36 7.06 3.895a.275.275 0 0 0 .273-.062l.292-.188.052-.021a.527.527 0 0 0 .193-.43 7.072 7.072 0 0 0 4.985-2.182A3.108 3.108 0 0 0 24 9.932a1.6 1.6 0 0 0-.388-1.16" style="fill:#ff9d00"/>
        </g>
    </g>
</svg>
