<svg xmlns="http://www.w3.org/2000/svg" width="32" height="32" viewBox="0 0 32 32">
    <g data-name="패스 3855" style="fill:#fff">
        <path d="M14 16.937c-1.765 0-3.573-.43-5.372-1.275-1.454-.683-2.906-1.639-4.316-2.84A25.856 25.856 0 0 1 .621 8.937c.488-.644 1.8-2.275 3.691-3.886 1.41-1.201 2.862-2.157 4.316-2.84C10.428 1.365 12.235.937 14 .937c1.765 0 3.573.428 5.372 1.274 1.454.683 2.906 1.639 4.316 2.84a25.856 25.856 0 0 1 3.691 3.886c-.488.643-1.8 2.274-3.691 3.885-1.41 1.201-2.862 2.157-4.316 2.84-1.8.846-3.607 1.275-5.372 1.275z" style="stroke:none" transform="translate(2 6.563)"/>
        <path d="M14 1.437c-1.687 0-3.419.41-5.147 1.22-1.411.662-2.823 1.59-4.198 2.758a25.613 25.613 0 0 0-3.401 3.522 25.612 25.612 0 0 0 3.401 3.52c1.375 1.169 2.787 2.097 4.198 2.758 1.728.81 3.46 1.222 5.147 1.222 1.687 0 3.419-.411 5.147-1.222 1.411-.661 2.823-1.59 4.198-2.757a25.613 25.613 0 0 0 3.401-3.521 25.612 25.612 0 0 0-3.401-3.522c-1.375-1.168-2.787-2.096-4.198-2.757-1.728-.81-3.46-1.221-5.147-1.221m0-1c8.083 0 14 8.5 14 8.5s-5.917 8.5-14 8.5-14-8.5-14-8.5 5.917-8.5 14-8.5z" style="fill:#666;stroke:none" transform="translate(2 6.563)"/>
    </g>
    <g data-name="타원 268" transform="translate(11.551 10.814)" style="stroke:#666;fill:none">
        <circle cx="4.449" cy="4.449" r="4.449" style="stroke:none"/>
        <circle cx="4.449" cy="4.449" r="3.949" style="fill:none"/>
    </g>
</svg>
