<svg xmlns="http://www.w3.org/2000/svg" width="80" height="80" viewBox="0 0 80 80">
    <defs>
        <clipPath id="kgw4uerq9a">
            <path data-name="패스 19721" d="M0 0h53v34.667L30.167 41 0 38z" transform="translate(43.543 117.543)" style="stroke:#707070;fill:#fff"/>
        </clipPath>
    </defs>
    <g data-name="그룹 103750">
        <g data-name="사각형 16467" style="stroke:#111;stroke-width:2px;fill:#fff">
            <path d="M5 0h16a5 5 0 0 1 5 5 11 11 0 0 1-11 11h-4A11 11 0 0 1 0 5a5 5 0 0 1 5-5z" style="stroke:none" transform="translate(31.625 9.562)"/>
            <path d="M5.2 1h15.6A4.2 4.2 0 0 1 25 5.2a9.8 9.8 0 0 1-9.8 9.8h-4.4A9.8 9.8 0 0 1 1 5.2 4.2 4.2 0 0 1 5.2 1z" style="fill:none" transform="translate(31.625 9.562)"/>
        </g>
        <g data-name="마스크 그룹 155" style="clip-path:url(#kgw4uerq9a)" transform="translate(-25.918 -93.981)">
            <g data-name="사각형 16466" transform="translate(46.543 117.543)" style="fill:#c8f7f4;stroke:#111;stroke-width:2px">
                <rect width="48" height="52" rx="22" style="stroke:none"/>
                <rect x="1" y="1" width="46" height="50" rx="21" style="fill:none"/>
            </g>
        </g>
    </g>
    <g data-name="그룹 103749" transform="translate(-26.918 -103.981)">
        <path data-name="패스 19705" d="m336.357 680.04 18.251-12.182a4.658 4.658 0 0 0 1.357-5.941 3.616 3.616 0 0 0-5.271-1.529l-14.338 8.764a7.043 7.043 0 0 1-3.348 1.041l-1.934.091-12.042-8.042-10.355-6.417a7.024 7.024 0 0 0-3.708-1.074h-6.719v19.661l10.924 5.083a11.15 11.15 0 0 0 4.308 1.052l18.7.7a7.028 7.028 0 0 0 4.175-1.207z" transform="translate(-255.957 -506.832)" style="stroke:#111;stroke-width:2px;fill:#fff"/>
        <path data-name="패스 19707" d="M324.45 662.75h10.1a4.091 4.091 0 0 1 3.883 4.272h0a4.091 4.091 0 0 1-3.883 4.272h-10.1" transform="translate(-261.308 -507.207)" style="stroke-linecap:round;stroke:#111;stroke-width:2px;fill:#fff"/>
        <rect data-name="사각형 16441" width="32" height="12" rx="3" transform="rotate(90 -49.032 93.95)" style="stroke:#111;stroke-width:2px;fill:#fff"/>
    </g>
</svg>
