<svg xmlns="http://www.w3.org/2000/svg" width="100" height="100" viewBox="0 0 100 100">
    <defs>
        <clipPath id="nwe5cqi4aa">
            <circle data-name="타원 64" cx="50" cy="50" r="50" transform="translate(492 255)" style="fill:#ecdbc3"/>
        </clipPath>
        <clipPath id="oumeok6m6b">
            <path data-name="사각형 16555" transform="rotate(45 -584.06 797.009)" style="fill:none" d="M0 0h7v71H0z"/>
        </clipPath>
        <clipPath id="9e359hg5dc">
            <path data-name="패스 19643" d="M411.9 690.131a61.29 61.29 0 0 0-9.019-.032c-2.884.2-5.622 1.143-8.491 1.456a49.955 49.955 0 0 1-19.464-2.032 57.3 57.3 0 0 0-17.4-1.8c-2.4.056-4.124-2.225-4.124-4.546a4.833 4.833 0 0 1 5-5h53.677z" style="fill:none"/>
        </clipPath>
    </defs>
    <g transform="translate(-752.299 -761.238)">
        <circle data-name="타원 526" cx="50" cy="50" r="50" transform="translate(752.299 761.238)" style="fill:#f2f8e0"/>
        <ellipse data-name="타원 570" cx="27" cy="4" rx="27" ry="4" transform="translate(772.299 832.238)" style="opacity:.1"/>
        <g data-name="마스크 그룹 103626" transform="translate(260.299 506.238)" style="clip-path:url(#nwe5cqi4aa)">
            <g data-name="그룹 103674" transform="translate(170.333 -366.863)">
                <rect data-name="사각형 16553" width="10" height="19" rx="5" transform="translate(362 675.173)" style="fill:#dbb59b"/>
                <rect data-name="사각형 16554" width="10" height="19" rx="5" transform="translate(372 675.173)" style="fill:#dbb59b"/>
                <path data-name="패스 19638" d="M411.992 664.271c-.524-.179-10.109.076-11.012.027a12.9 12.9 0 0 1-5-1.028 47.357 47.357 0 0 1-4.576-2.959 49.682 49.682 0 0 0-6.79-3.692 20.63 20.63 0 0 0-9.931-1.813c-4.012.33-7.99 1.971-11.827 3.114-3.387 1.01-6.331 1.766-8.839 4.428-2.8 2.978-4.875 6.7-7.289 10-1.214 1.656-2.479 3.27-3.725 4.9 0 0-3 3.892 0 6.946 2.23 2.27 4.441 1.362 7.264 1.216 5.926-.306 11.877-.33 17.827-.293 4.72.029 9.2 3.065 13.909 3.059 8.746-.01 21.254 2.011 30 2a46.922 46.922 0 0 0 0-5c-.003-6.967-.027-13.928-.011-20.905z" style="fill:#f9d8c2"/>
                <path data-name="패스 19639" d="m351.287 694.091-5.959 1.986a1.691 1.691 0 0 1-2.139-2.138l1.987-5.96a1.689 1.689 0 0 1 .408-.661l41.676-41.676a2.663 2.663 0 0 1 3.765 0l2.6 2.6a2.66 2.66 0 0 1 0 3.764l-41.676 41.676a1.691 1.691 0 0 1-.662.409z" style="fill:#ff8b8b"/>
                <g data-name="그룹 103671">
                    <g data-name="그룹 103670" style="clip-path:url(#oumeok6m6b)">
                        <path data-name="패스 19640" d="m351.287 694.091-5.959 1.986a1.691 1.691 0 0 1-2.139-2.138l1.987-5.96a1.689 1.689 0 0 1 .408-.661l41.676-41.676a2.663 2.663 0 0 1 3.765 0l2.6 2.6a2.66 2.66 0 0 1 0 3.764l-41.676 41.676a1.691 1.691 0 0 1-.662.409z" style="fill:#cf6e6e"/>
                    </g>
                </g>
                <path data-name="패스 19641" d="M411.9 690.131a61.29 61.29 0 0 0-9.019-.032c-2.884.2-5.622 1.143-8.491 1.456a49.955 49.955 0 0 1-19.464-2.032 57.3 57.3 0 0 0-17.4-1.8c-2.4.056-4.124-2.225-4.124-4.546a4.833 4.833 0 0 1 5-5H372" style="fill:#f9d8c2"/>
                <g data-name="그룹 103673">
                    <g data-name="그룹 103672" style="clip-path:url(#9e359hg5dc)">
                        <path data-name="패스 19642" d="M353 684.173h14.652s4.348 0 6.348 1 16 5 23 1C404 683 413 685 413 685l.337 7.239L399 695.173l-21 2-23-2-2-4.108z" style="fill:#e5c4ae"/>
                    </g>
                </g>
                <path data-name="사각형 16556" transform="translate(409.5 662)" style="fill:#395d80" d="M0 0h16v30.5H0z"/>
                <path data-name="사각형 16557" transform="translate(409.5 662)" style="fill:#fff;opacity:.1" d="M0 0h13v26.293H0z"/>
                <circle data-name="타원 569" cx="1.5" cy="1.5" r="1.5" transform="translate(414 683)" style="fill:#fff"/>
                <path data-name="사각형 16558" transform="rotate(45 -591.802 787.897)" style="fill:#fc0" d="M0 0h9v5H0z"/>
            </g>
        </g>
        <path data-name="패스 19644" d="m774.143 832.363-1.375 4.2 4.688-1.609z"/>
    </g>
</svg>
