<svg xmlns="http://www.w3.org/2000/svg" width="112" height="112" viewBox="0 0 112 112">
    <defs>
        <clipPath id="m78v4q2dna">
            <path data-name="사각형 16120" style="fill:none" d="M0 0h99.271v93.601H0z"/>
        </clipPath>
        <clipPath id="63m4jgt0tb">
            <path data-name="사각형 16115" style="fill:silver" d="M0 0h67.556v49.211H0z"/>
        </clipPath>
    </defs>
    <g data-name="그룹 103247" style="clip-path:url(#m78v4q2dna)" transform="translate(5.969 5.472)">
        <path data-name="패스 19579" d="M36.483 52.617a8.6 8.6 0 0 1-8.6-8.59v47.509a8.6 8.6 0 0 0 8.6 8.59H98.9V52.617z" transform="translate(-4.672 -7.376)" style="stroke:#969696;fill:#fff"/>
        <path data-name="패스 19580" d="M36.483 52.617a8.6 8.6 0 0 1-8.6-8.59v47.509a8.6 8.6 0 0 0 8.6 8.59H98.9V52.617z" transform="translate(-4.672 -7.376)" style="stroke-linecap:round;stroke-linejoin:round;stroke:#969696;fill:none"/>
        <path data-name="패스 19581" d="M98.9 33.7v17.19H36.483a8.595 8.595 0 1 1 0-17.19z" transform="translate(-4.671 -5.645)" style="stroke:#969696;fill:#fff"/>
        <path data-name="패스 19582" d="M98.9 33.7v17.19H36.483a8.595 8.595 0 1 1 0-17.19z" transform="translate(-4.671 -5.645)" style="stroke-linecap:round;stroke-linejoin:round;stroke:#969696;fill:none"/>
        <path data-name="패스 19583" d="M100.084 40.749V46.2H37.665a2.725 2.725 0 1 1 0-5.449z" transform="translate(-5.853 -6.827)" style="fill:silver"/>
        <path data-name="패스 19584" d="M100.084 40.749V46.2H37.665a2.725 2.725 0 1 1 0-5.449z" transform="translate(-5.853 -6.827)" style="stroke-linecap:round;stroke-linejoin:round;stroke:#969696;fill:none"/>
        <g data-name="그룹 103246" style="mix-blend-mode:darken;isolation:isolate">
            <g data-name="그룹 103245">
                <g data-name="그룹 103244" transform="translate(26.675 43.205)" style="clip-path:url(#63m4jgt0tb)">
                    <path data-name="패스 19585" d="M101.928 55.026v47.509H39.509a8.568 8.568 0 0 1-5.136-1.7V53.324a8.568 8.568 0 0 0 5.136 1.7z" transform="translate(-34.373 -53.324)" style="fill:silver"/>
                </g>
            </g>
        </g>
        <path data-name="패스 19586" d="M107.628 61.64v4.933A4.328 4.328 0 0 1 103.3 70.9H88.385a8.421 8.421 0 1 0 0 16.842h14.678a9.189 9.189 0 0 0 9.188-9.188v-12.29a4.624 4.624 0 0 0-4.623-4.624z" transform="translate(-13.397 -10.327)" style="fill:#b4b4b4"/>
        <path data-name="패스 19587" d="M107.628 61.64v4.933A4.328 4.328 0 0 1 103.3 70.9H88.385a8.421 8.421 0 1 0 0 16.842h14.678a9.189 9.189 0 0 0 9.188-9.188v-12.29a4.624 4.624 0 0 0-4.623-4.624z" transform="translate(-13.397 -10.327)" style="stroke-linecap:round;stroke-linejoin:round;stroke:#969696;fill:none"/>
        <path data-name="패스 19588" d="M93.4 82.2a3.374 3.374 0 1 1-3.373-3.373A3.373 3.373 0 0 1 93.4 82.2" transform="translate(-14.517 -13.207)" style="fill:#f5f5f5;stroke:#969696"/>
        <path data-name="패스 19589" d="M93.4 82.2a3.374 3.374 0 1 1-3.373-3.373A3.373 3.373 0 0 1 93.4 82.2z" transform="translate(-14.517 -13.207)" style="stroke-linecap:round;stroke-linejoin:round;stroke:#969696;fill:none"/>
        <path data-name="패스 19591" d="M83.188 39.609a15.886 15.886 0 0 1-.48 3.884h-30.7a15.887 15.887 0 0 1-.479-3.884c0-.529.029-1.056.078-1.565a15.829 15.829 0 0 1 31.5 0c.052.509.081 1.037.081 1.565z" transform="translate(-8.633 -4.204)" style="stroke-linecap:round;stroke-linejoin:round;stroke:#969696;fill:#fff"/>
        <path data-name="패스 19592" d="M73.473 45.082a3.666 3.666 0 0 0-3.666-3.666 3.666 3.666 0 1 1 3.666-3.666" transform="translate(-11.081 -5.71)" style="stroke-linecap:round;stroke-linejoin:round;stroke:#969696;fill:none"/>
        <path data-name="선 256" transform="translate(58.726 26.157)" style="stroke-linecap:round;stroke-linejoin:round;stroke:#969696;fill:none" d="M0 2.215V0"/>
        <path data-name="선 257" transform="translate(58.721 .416)" style="stroke-linecap:round;stroke-linejoin:round;stroke:#969696;fill:none" d="M0 9.334V0"/>
        <path data-name="선 258" transform="translate(37.039 6.241)" style="stroke-linecap:round;stroke-linejoin:round;stroke:#969696;fill:none" d="M4.667 8.083 0 0"/>
        <path data-name="선 259" transform="translate(75.737 6.241)" style="stroke-linecap:round;stroke-linejoin:round;stroke:#969696;fill:none" d="M0 8.083 4.667 0"/>
        <rect data-name="사각형 16116" width="53.858" height="33.134" rx="5.595" transform="translate(4.868 59.616)" style="stroke-linecap:round;stroke-linejoin:round;stroke:#969696;fill:#fff"/>
        <rect data-name="사각형 16117" width="53.858" height="33.134" rx="5.595" transform="translate(.416 59.616)" style="stroke-linecap:round;stroke-linejoin:round;stroke:#969696;fill:#fff"/>
        <path data-name="사각형 16118" transform="translate(7.865 72.904)" style="fill:#fff" d="M0 0h6.559v6.559H0z"/>
        <path data-name="선 260" transform="translate(23.986 85.053)" style="fill:#f4d5cf" d="M0 0h2.872"/>
        <path data-name="선 262" transform="translate(30.723 85.053)" style="fill:#f4d5cf" d="M0 0h2.872"/>
        <path data-name="선 264" transform="translate(37.459 85.053)" style="fill:#f4d5cf" d="M0 0h2.872"/>
        <path data-name="선 266" transform="translate(44.195 85.053)" style="fill:#f4d5cf" d="M0 0h2.872"/>
        <g data-name="그룹 103444">
            <path data-name="사각형 16119" style="stroke-linecap:round;stroke-linejoin:round;stroke:#969696;fill:none" d="M0 0h6.559v6.559H0z" transform="translate(7.865 72.904)"/>
            <path data-name="선 261" transform="translate(23.986 85.053)" style="stroke-linecap:round;stroke-linejoin:round;stroke:#969696;fill:none" d="M0 0h2.872"/>
            <path data-name="선 263" transform="translate(30.722 85.053)" style="stroke-linecap:round;stroke-linejoin:round;stroke:#969696;fill:none" d="M0 0h2.872"/>
            <path data-name="선 265" transform="translate(37.459 85.053)" style="stroke-linecap:round;stroke-linejoin:round;stroke:#969696;fill:none" d="M0 0h2.872"/>
            <path data-name="선 267" transform="translate(44.195 85.053)" style="stroke-linecap:round;stroke-linejoin:round;stroke:#969696;fill:none" d="M0 0h2.872"/>
        </g>
    </g>
</svg>
