<svg xmlns="http://www.w3.org/2000/svg" width="64" height="64" viewBox="0 0 64 64">
    <g data-name="그룹 3024">
        <path data-name="사각형 777" d="M30 0h4a30 30 0 0 1 30 30v24.545A5.455 5.455 0 0 1 58.545 60H30A30 30 0 0 1 0 30 30 30 0 0 1 30 0z" transform="translate(0 2)" style="fill:#def5f6"/>
    </g>
    <g data-name="그룹 5890">
        <g data-name="그룹 5880">
            <path data-name="패스 19409" d="M371.92 379.307c-3.176 0-5.75 2.048-5.75 4.574v28.792h26.093v-33.366z" transform="translate(-350.861 -363.998)" style="fill:#fff"/>
            <path data-name="패스 19410" d="M392.072 412.791h-26.093a.309.309 0 0 1-.309-.309V383.69c0-2.692 2.718-4.883 6.059-4.883h20.343a.308.308 0 0 1 .309.309v33.366a.309.309 0 0 1-.309.309zm-25.784-.618h25.475v-32.748h-20.034c-3 0-5.441 1.913-5.441 4.265z" transform="translate(-350.67 -363.807)" style="fill:#3c2163"/>
        </g>
        <g data-name="그룹 5881">
            <path data-name="패스 19411" d="M408.065 408.491v-24.61c0-2.525-1.517-4.574-3.391-4.574s-3.388 2.048-3.388 4.574v28.792h10.494z" transform="translate(-364.273 -363.998)" style="fill:#8fdae2"/>
            <path data-name="패스 19412" d="M412.278 412.791h-11.491v-29.1c0-2.692 1.658-4.883 3.7-4.883s3.7 2.19 3.7 4.883v24.493zm-10.873-.618h9.5l-3.336-3.755V383.69c0-2.352-1.383-4.265-3.082-4.265s-3.079 1.913-3.079 4.265z" transform="translate(-364.082 -363.807)" style="fill:#3c2163"/>
        </g>
        <g data-name="그룹 5882">
            <path data-name="패스 19413" d="M412.254 415.6v6.361c0 2.527 1.516 4.575 3.387 4.575s3.389-2.048 3.389-4.575V415.6z" transform="translate(-368.462 -377.859)" style="fill:#e3def1"/>
            <path data-name="패스 19414" d="M415.45 426.652c-2.038 0-3.7-2.191-3.7-4.884v-6.361a.308.308 0 0 1 .309-.309h6.776a.308.308 0 0 1 .309.309v6.361c.004 2.692-1.655 4.884-3.694 4.884zm-3.078-10.935v6.052c0 2.352 1.381 4.266 3.078 4.266s3.08-1.914 3.08-4.266v-6.052z" transform="translate(-368.271 -377.668)" style="fill:#3c2163"/>
        </g>
        <path data-name="사각형 15563" transform="translate(18.017 22.934)" style="fill:#f58b93" d="M0 0h4.533v4.022H0z"/>
        <path data-name="사각형 15564" transform="translate(18.017 30.074)" style="fill:#f7d979" d="M0 0h4.533v4.022H0z"/>
        <path data-name="사각형 15565" transform="translate(18.017 37.99)" style="fill:#8fdae2" d="M0 0h4.533v4.022H0z"/>
        <path data-name="사각형 15566" transform="translate(24.982 23.555)" style="fill:#3c2163" d="M0 0h7.499v.618H0z"/>
        <path data-name="사각형 15567" transform="translate(24.982 25.925)" style="fill:#3c2163" d="M0 0h7.499v.618H0z"/>
        <path data-name="사각형 15568" transform="translate(24.982 31.278)" style="fill:#3c2163" d="M0 0h3.749v.618H0z"/>
        <path data-name="사각형 15569" transform="translate(29.871 31.278)" style="fill:#3c2163" d="M0 0h2.61v.618H0z"/>
        <path data-name="사각형 15570" transform="translate(24.982 40.254)" style="fill:#3c2163" d="M0 0h3.749v.618H0z"/>
        <path data-name="사각형 15571" transform="translate(29.871 40.254)" style="fill:#3c2163" d="M0 0h2.61v.618H0z"/>
        <path data-name="사각형 15572" transform="translate(24.982 29.003)" style="fill:#3c2163" d="M0 0h7.499v.618H0z"/>
        <path data-name="사각형 15573" transform="translate(24.982 33.648)" style="fill:#3c2163" d="M0 0h7.499v.618H0z"/>
        <path data-name="사각형 15574" transform="translate(24.982 37.854)" style="fill:#3c2163" d="M0 0h7.499v.618H0z"/>
        <path data-name="사각형 15575" transform="translate(24.982 42.625)" style="fill:#3c2163" d="M0 0h7.499v.618H0z"/>
        <path data-name="패스 19415" d="m398.386 389.66-21.491 22.3s-2.31 2.664-1.383 4.569h10.007l12.618-12.412z" transform="translate(-354.345 -367.952)" style="fill:#eaeaf9;mix-blend-mode:multiply;isolation:isolate"/>
        <g data-name="그룹 5889">
            <g data-name="그룹 5883">
                <path data-name="패스 19416" d="M381.965 429.992a.413.413 0 0 1-.583 0 .414.414 0 0 1 0-.584l1.375-1.375a.414.414 0 0 1 .583 0 .415.415 0 0 1 0 .585z" transform="translate(-356.625 -382.563)" style="fill:#7452c6"/>
                <path data-name="패스 19417" d="M381.485 430.236a.722.722 0 0 1-.512-1.232l1.376-1.376a.739.739 0 0 1 1.02 0 .723.723 0 0 1 0 1.02l-1.376 1.376a.714.714 0 0 1-.508.212zm1.375-2.2a.105.105 0 0 0-.074.031l-1.375 1.373a.106.106 0 0 0 0 .149.089.089 0 0 0 .145 0l1.376-1.375a.1.1 0 0 0-.074-.177z" transform="translate(-356.435 -382.376)" style="fill:#3c2163"/>
            </g>
            <g data-name="그룹 5884">
                <path data-name="패스 19418" d="M414.691 397.317a2.077 2.077 0 0 0-2.938-2.937l-2.218 2.219 2.937 2.937z" transform="translate(-367.424 -369.523)" style="fill:#e3def1"/>
                <path data-name="패스 19419" d="M412.281 399.668a.306.306 0 0 1-.218-.091l-2.937-2.937a.308.308 0 0 1 0-.437l2.217-2.219a2.444 2.444 0 0 1 3.375 0 2.39 2.39 0 0 1 0 3.374l-2.218 2.219a.308.308 0 0 1-.219.091zm-2.5-3.246 2.5 2.5 2-2a1.77 1.77 0 0 0 0-2.5 1.809 1.809 0 0 0-2.5 0z" transform="translate(-367.233 -369.346)" style="fill:#3c2163"/>
            </g>
            <g data-name="그룹 5885">
                <path data-name="사각형 15576" transform="rotate(-45 63.556 -13.598)" style="fill:#ed1651" d="M0 0h19.622v4.154H0z"/>
                <path data-name="패스 19420" d="m389.753 415.324-3.374-3.374 14.312-14.311 3.374 3.374zm-2.5-3.374 2.5 2.5 13.438-13.437-2.5-2.5z" transform="translate(-358.58 -371)" style="fill:#3c2163"/>
            </g>
            <g data-name="그룹 5886">
                <path data-name="패스 19421" d="m385.461 420.793-1.718 1.719a4.425 4.425 0 0 0-.814 3.75 3.988 3.988 0 0 0 3.75-.813l1.719-1.719z" transform="translate(-357.225 -379.844)" style="fill:#e3def1"/>
                <path data-name="패스 19422" d="M383.861 426.541a4.226 4.226 0 0 1-1.21-.172.31.31 0 0 1-.216-.237 4.719 4.719 0 0 1 .9-4.027l1.717-1.719a.317.317 0 0 1 .437 0l2.937 2.936a.308.308 0 0 1 0 .437l-1.719 1.719a4.132 4.132 0 0 1-2.846 1.063zm-.852-.715a3.726 3.726 0 0 0 3.26-.784l1.5-1.5-2.5-2.5-1.5 1.5a4.068 4.068 0 0 0-.759 3.284z" transform="translate(-357.035 -379.655)" style="fill:#3c2163"/>
            </g>
            <g data-name="그룹 5887">
                <path data-name="패스 19423" d="M404.778 411.14a.489.489 0 0 1-.672-.089.485.485 0 0 1-.088-.671l7.669-7.669a.488.488 0 0 1 .671.088.489.489 0 0 1 .088.672z" transform="translate(-365.278 -372.899)" style="fill:#fff"/>
                <path data-name="패스 19424" d="M404.332 411.362a.952.952 0 0 1-.914-.914.663.663 0 0 1 .192-.473l7.668-7.668a.811.811 0 0 1 1.108.088.786.786 0 0 1 .089 1.109l-7.668 7.67a.668.668 0 0 1-.475.188zm7.419-8.627-7.7 7.678a.27.27 0 0 0 .088.234c.1.1.216.109.236.088l7.667-7.668c.018-.018.018-.129-.088-.235a.3.3 0 0 0-.203-.097z" transform="translate(-365.087 -372.714)" style="fill:#3c2163"/>
            </g>
            <g data-name="그룹 5888">
                <path data-name="패스 19425" d="m414.945 402.424-1.925 1.925-.572-.588 1.9-1.9z" transform="translate(-368.536 -372.612)" style="fill:#fff"/>
                <path data-name="패스 19426" d="M412.828 404.468a.311.311 0 0 1-.219-.094l-.572-.587a.309.309 0 0 1 0-.435l1.9-1.9a.308.308 0 0 1 .43-.006l.6.561a.31.31 0 0 1 .007.444l-1.925 1.925a.309.309 0 0 1-.221.092zm-.138-.894.142.145 1.478-1.478-.147-.138z" transform="translate(-368.345 -372.422)" style="fill:#3c2163"/>
            </g>
            <path data-name="패스 19427" d="m385.729 421.707 1.1 1.106a5.808 5.808 0 0 0-3.292 3.292s-.119-2.077.791-2.983z" transform="translate(-357.492 -380.192)" style="fill:#fff"/>
        </g>
    </g>
</svg>
