<svg xmlns="http://www.w3.org/2000/svg" width="48" height="48" viewBox="0 0 48 48">
    <path d="m10.628 26.976.231.218C16.835 33.146 23.882 38 28.258 38c3.2 0 6.6-2.071 8.742-3.659l.165-.124a2.076 2.076 0 0 0 .835-1.66 2.1 2.1 0 0 0-.753-1.6l-8.8-7.287a2.059 2.059 0 0 0-1.423-.568 2.036 2.036 0 0 0-1.443.589l-1.411 1.411a2.278 2.278 0 0 1-3.218 0l-4.031-4.026-4.025-4.032a2.275 2.275 0 0 1 0-3.215l1.412-1.412a2.068 2.068 0 0 0 .019-2.866L7.039.752A2.1 2.1 0 0 0 5.441 0a2.074 2.074 0 0 0-1.659.835L3.659 1C2.07 3.143 0 6.544 0 9.741c0 4.377 4.853 11.421 10.8 17.4" transform="translate(5 5)" style="fill:none;stroke:#111;stroke-width:1.5px"/>
</svg>
