<svg xmlns="http://www.w3.org/2000/svg" width="22" height="22" viewBox="0 0 22 22">
    <g data-name="그룹 301">
        <g data-name="사각형 238" transform="translate(16 8)" style="stroke-width:2px;fill:#009591;stroke:#009591">
            <rect width="6" height="6" rx="3" style="stroke:none"/>
            <rect x="1" y="1" width="4" height="4" rx="2" style="fill:none"/>
        </g>
        <g data-name="사각형 240" transform="translate(16)" style="fill:#ed1651;stroke:#ed1651;stroke-width:2px">
            <rect width="6" height="6" rx="3" style="stroke:none"/>
            <rect x="1" y="1" width="4" height="4" rx="2" style="fill:none"/>
        </g>
        <g data-name="사각형 241" transform="translate(8 8)" style="stroke-width:2px;fill:#009591;stroke:#009591">
            <rect width="6" height="6" rx="3" style="stroke:none"/>
            <rect x="1" y="1" width="4" height="4" rx="2" style="fill:none"/>
        </g>
        <g data-name="사각형 242" style="stroke-width:2px;fill:#009591;stroke:#009591" transform="translate(8)">
            <rect width="6" height="6" rx="3" style="stroke:none"/>
            <rect x="1" y="1" width="4" height="4" rx="2" style="fill:none"/>
        </g>
        <g data-name="사각형 15864" style="stroke-width:2px;fill:#009591;stroke:#009591">
            <rect width="6" height="6" rx="3" style="stroke:none"/>
            <rect x="1" y="1" width="4" height="4" rx="2" style="fill:none"/>
        </g>
        <g data-name="사각형 15865" transform="translate(0 8)" style="stroke-width:2px;fill:#009591;stroke:#009591">
            <rect width="6" height="6" rx="3" style="stroke:none"/>
            <rect x="1" y="1" width="4" height="4" rx="2" style="fill:none"/>
        </g>
        <g data-name="사각형 15866" transform="translate(0 16)" style="stroke-width:2px;fill:#009591;stroke:#009591">
            <rect width="6" height="6" rx="3" style="stroke:none"/>
            <rect x="1" y="1" width="4" height="4" rx="2" style="fill:none"/>
        </g>
        <g data-name="사각형 15867" transform="translate(8 16)" style="stroke-width:2px;fill:#009591;stroke:#009591">
            <rect width="6" height="6" rx="3" style="stroke:none"/>
            <rect x="1" y="1" width="4" height="4" rx="2" style="fill:none"/>
        </g>
        <g data-name="사각형 15868" transform="translate(16 16)" style="stroke-width:2px;fill:#009591;stroke:#009591">
            <rect width="6" height="6" rx="3" style="stroke:none"/>
            <rect x="1" y="1" width="4" height="4" rx="2" style="fill:none"/>
        </g>
    </g>
</svg>
