<svg xmlns="http://www.w3.org/2000/svg" width="80" height="80" viewBox="0 0 80 80">
    <g transform="translate(-1300 -834)">
        <circle data-name="타원 53" cx="40" cy="40" r="40" transform="translate(1300 834)" style="fill:#f5f5f5"/>
        <g data-name="그룹 103839">
            <path data-name="패스 19810" d="M517.52 1430.5a7 7 0 1 1-7 7 7.008 7.008 0 0 1 7-7m0-2a9 9 0 1 0 0 18 9 9 0 0 0 0-18z" style="fill:#111" transform="translate(819.48 -575.5)"/>
            <path data-name="패스 19811" d="M516.52 1444.5h-2.975a12.025 12.025 0 0 0-12.025 12.025v6.51a4.465 4.465 0 0 0 4.465 4.465h7.823a.991.991 0 0 0 .97-1.15v-.02a.972.972 0 0 0-.971-.83h-7.287a3 3 0 0 1-3-3v-5.975a10.025 10.025 0 0 1 10.025-10.025h2.975a1 1 0 0 0 1-1 1 1 0 0 0-1-1z" style="fill:#111" transform="translate(819.48 -575.5)"/>
            <path data-name="패스 19812" d="M522.292 1436.643c-9.465 0-10.64-4.029-10.75-4.535l1.955-.423-.977.211.969-.243c.011.037 1.2 3.736 11.948 2.851l.166 1.992a38.38 38.38 0 0 1-3.311.147z" style="fill:#111" transform="translate(819.48 -575.5)"/>
            <g data-name="그룹 103838">
                <g data-name="그룹 103835" transform="translate(819.48 -575.5)">
                    <circle data-name="타원 589" cx="9" cy="9" r="9" transform="translate(518 1449)" style="fill:#c8f7f4"/>
                    <path data-name="패스 19813" d="M527 1451a7 7 0 1 1-7 7 7.008 7.008 0 0 1 7-7m0-2a9 9 0 1 0 9 9 9 9 0 0 0-9-9z" style="fill:#111"/>
                </g>
                <g data-name="그룹 103836">
                    <path data-name="선 303" transform="translate(1352.48 888.5)" style="fill:#c8f7f4" d="m0 0 5 5"/>
                    <path data-name="패스 19814" d="M538 1470a1 1 0 0 1-.707-.293l-5-5a1 1 0 1 1 1.414-1.414l5 5A1 1 0 0 1 538 1470z" style="fill:#111" transform="translate(819.48 -575.5)"/>
                </g>
                <g data-name="그룹 103837">
                    <path data-name="패스 19815" d="M527 1454a4 4 0 0 1 4 4" style="fill:#c8f7f4" transform="translate(819.48 -575.5)"/>
                    <path data-name="패스 19816" d="M531 1459a1 1 0 0 1-1-1 3 3 0 0 0-3-3 1 1 0 0 1 0-2 5.006 5.006 0 0 1 5 5 1 1 0 0 1-1 1z" style="fill:#111" transform="translate(819.48 -575.5)"/>
                </g>
            </g>
        </g>
    </g>
</svg>
