<svg xmlns="http://www.w3.org/2000/svg" width="80" height="80" viewBox="0 0 80 80">
    <g transform="translate(-880 -834)">
        <circle data-name="타원 50" cx="40" cy="40" r="40" transform="translate(880 834)" style="fill:#f5f5f5"/>
        <g data-name="그룹 103811">
            <path data-name="패스 19753" d="M218 1280a7 7 0 1 1-7 7 7.008 7.008 0 0 1 7-7m0-2a9 9 0 0 0 0 18 9 9 0 0 0 0-18z" style="fill:#111" transform="translate(699 -425)"/>
            <path data-name="패스 19754" d="M217 1294h-2.975A12.025 12.025 0 0 0 202 1306.025v6.51a4.465 4.465 0 0 0 4.465 4.465h5.824a.992.992 0 0 0 .97-1.15v-.02a.972.972 0 0 0-.971-.83H207a3 3 0 0 1-3-3v-5.975A10.025 10.025 0 0 1 214.025 1296H217a1 1 0 0 0 1-1 1 1 0 0 0-1-1z" style="fill:#111" transform="translate(699 -425)"/>
            <g data-name="그룹 103810" transform="translate(699 -425)">
                <circle data-name="타원 583" cx="12" cy="12" r="12" transform="translate(216 1297)" style="fill:#c8f7f4"/>
                <path data-name="패스 19755" d="M228 1299a10 10 0 1 1-10 10 10.011 10.011 0 0 1 10-10m0-2a12 12 0 1 0 12 12 12 12 0 0 0-12-12z" style="fill:#111"/>
            </g>
            <path data-name="패스 19756" d="M232 1310h-8a1 1 0 0 1 0-2h8a1 1 0 0 1 0 2z" style="fill:#111" transform="translate(699 -425)"/>
            <path data-name="패스 19757" d="M228 1314a1 1 0 0 1-1-1v-8a1 1 0 0 1 2 0v8a1 1 0 0 1-1 1z" style="fill:#111" transform="translate(699 -425)"/>
            <path data-name="패스 19758" d="M222.772 1286.143c-9.464 0-10.64-4.029-10.749-4.535l1.954-.423-.977.211.97-.243c.01.037 1.21 3.737 11.947 2.851l.166 1.992a38.398 38.398 0 0 1-3.311.147z" style="fill:#111" transform="translate(699 -425)"/>
        </g>
    </g>
</svg>
