<svg xmlns="http://www.w3.org/2000/svg" width="24" height="24" viewBox="0 0 24 24">
    <g data-name="그룹 103310" transform="translate(-140.7 -210)">
        <path data-name="패스 19614" d="m13.966 11.028-1.508-1.354a.488.488 0 0 1-.173-.37V5.215A5.256 5.256 0 0 0 7.5.023 5.193 5.193 0 0 0 1.679 5v4.263a.488.488 0 0 1-.162.36l-1.484 1.4A.1.1 0 0 0 0 11.1v.8a.1.1 0 0 0 .106.1h13.788a.1.1 0 0 0 .106-.1v-.8a.1.1 0 0 0-.034-.072" transform="translate(145.7 215.498)" style="fill:#4c4c4e"/>
        <rect data-name="사각형 16190" width="2.5" height="6" rx="1.25" transform="translate(151.45 214)" style="fill:#4c4c4e"/>
    </g>
    <path data-name="패스 19615" d="M3.212 1.35H.091A.1.1 0 0 0 0 1.43 1.657 1.657 0 0 0 1.641 3 1.678 1.678 0 0 0 3.21 1.891a1.643 1.643 0 0 0 .09-.461.1.1 0 0 0-.092-.08" transform="translate(10.348 16.85)" style="fill:#4c4c4e"/>
</svg>
