<svg xmlns="http://www.w3.org/2000/svg" width="40.003" height="40" viewBox="0 0 40.003 40">
    <defs>
        <clipPath id="0jun5xo9ba">
            <path data-name="사각형 15980" style="fill:none" d="M0 0h40.003v36.75H0z"/>
        </clipPath>
    </defs>
    <g transform="translate(0 2)" style="clip-path:url(#0jun5xo9ba)">
        <path data-name="패스 19464" d="M20 0C8.955 0 0 7.079 0 15.812 0 21.5 3.794 26.478 9.489 29.265A928.661 928.661 0 0 0 7.754 35.8c-.271 1.088.4 1.073.838.78.344-.229 5.481-3.721 7.7-5.228a25.343 25.343 0 0 0 3.708.273c11.046 0 20-7.081 20-15.813S31.048 0 20 0" style="fill:#111"/>
        <path data-name="패스 19465" d="M56.146 107.656H50.3a.995.995 0 1 0 0 1.99h1.9v7.007a.973.973 0 0 0 .97.97h.213a.972.972 0 0 0 .969-.97v-7.007h1.8a.995.995 0 1 0 0-1.99" transform="translate(-44.193 -96.501)" style="fill:#f7f8f9"/>
        <path data-name="패스 19466" d="M208.814 114.539h-2.72v-7.156a1.079 1.079 0 1 0-2.158 0v7.717a1.05 1.05 0 0 0 .017.173.912.912 0 0 0-.017.172.9.9 0 0 0 .9.9h3.975a.9.9 0 0 0 0-1.806" transform="translate(-182.805 -95.288)" style="fill:#f7f8f9"/>
        <path data-name="패스 19467" d="m272.737 114.867-3.031-3.981 2.739-2.74a.95.95 0 1 0-1.345-1.346l-3.39 3.39v-2.811a1.079 1.079 0 1 0-2.158 0v7.95a1.079 1.079 0 1 0 2.158 0v-2.449l.616-.616 2.867 3.762a.965.965 0 1 0 1.543-1.16" transform="translate(-238.036 -95.288)" style="fill:#f7f8f9"/>
        <path data-name="패스 19468" d="m121.01 115.126-2.915-7.974-.01-.009a1.433 1.433 0 0 0-1.366-.84 1.391 1.391 0 0 0-1.417 1 1.32 1.32 0 0 0-.056.131l-2.866 7.688a.967.967 0 1 0 1.824.641l.5-1.416h3.99l.5 1.416a.967.967 0 1 0 1.824-.641m-5.676-2.582 1.34-3.825h.043l1.339 3.821z" transform="translate(-100.686 -95.288)" style="fill:#f7f8f9"/>
    </g>
</svg>
