<svg xmlns="http://www.w3.org/2000/svg" width="420" height="170" viewBox="0 0 420 170">
    <defs>
        <linearGradient id="1r4e8bzv7b" x1=".5" y1="1.067" x2=".5" y2=".081" gradientUnits="objectBoundingBox">
            <stop offset="0" stop-color="#ffd7ba"/>
            <stop offset="1" stop-color="#b47544"/>
        </linearGradient>
        <clipPath id="rguh30z1ma">
            <circle data-name="타원 45" cx="79" cy="79" r="79" transform="translate(-.334 .145)" style="fill:#ecdbc3"/>
        </clipPath>
    </defs>
    <g transform="translate(-403 -304)">
        <path data-name="사각형 16642" transform="translate(403 304)" style="fill:none" d="M0 0h420v170H0z"/>
        <g style="opacity:.5">
            <path data-name="패스 19494" d="M167.5 95.235A1.761 1.761 0 1 1 169.259 97a1.762 1.762 0 0 1-1.759-1.765z" transform="translate(268.881 215.576)" style="fill:#fff"/>
            <path data-name="패스 19495" d="M385.737 102.261a1.761 1.761 0 1 1 1.761 1.761 1.76 1.76 0 0 1-1.761-1.761z" transform="translate(354.883 218.345)" style="fill:#fff"/>
            <path data-name="패스 19496" d="M442.079 104.732a1.761 1.761 0 1 1 1.761 1.759 1.761 1.761 0 0 1-1.761-1.759z" transform="translate(371.166 219.318)" style="fill:#fff"/>
            <path data-name="패스 19498" d="M278.341 104.5a1.43 1.43 0 1 1 1.429 1.43 1.431 1.431 0 0 1-1.429-1.43z" transform="translate(312.561 219.355)" style="fill:#fff"/>
            <path data-name="패스 19501" d="M148.026 105.331a1.026 1.026 0 1 1 1.026 1.027 1.026 1.026 0 0 1-1.026-1.027z" transform="translate(261.208 219.844)" style="fill:#fff"/>
            <path data-name="패스 19502" d="M210.28 92.747a1.026 1.026 0 1 1 1.026 1.027 1.026 1.026 0 0 1-1.026-1.027z" transform="translate(285.74 214.885)" style="fill:#fff"/>
            <path data-name="패스 19503" d="M266.432 98.564a1.026 1.026 0 1 1 1.026 1.027 1.026 1.026 0 0 1-1.026-1.027z" transform="translate(307.868 217.177)" style="fill:#fff"/>
            <path data-name="패스 19510" d="M188.211 121.831a1.027 1.027 0 1 1 1.027 1.027 1.027 1.027 0 0 1-1.027-1.027z" transform="translate(277.044 226.346)" style="fill:#fff"/>
            <path data-name="패스 19511" d="M342.047 123.626a1.027 1.027 0 1 1 1.026 1.027 1.026 1.026 0 0 1-1.026-1.027z" transform="translate(337.666 227.054)" style="fill:#fff"/>
            <path data-name="패스 19513" d="M391.9 134.249a1.026 1.026 0 1 1 1.026 1.027 1.026 1.026 0 0 1-1.026-1.027z" transform="translate(357.312 231.24)" style="fill:#fff"/>
        </g>
        <circle data-name="타원 64" cx="79" cy="79" r="79" transform="translate(530.511 314.75)" style="fill:#ecdbc3"/>
        <g data-name="마스크 그룹 1" transform="translate(530.845 314.605)" style="clip-path:url(#rguh30z1ma)">
            <g transform="translate(5.919 103.581)">
                <ellipse data-name="타원 46" cx="4.5" cy="5" rx="4.5" ry="5" transform="translate(6.747 -.436)" style="fill:#fff"/>
                <ellipse data-name="타원 47" cx="5" cy="5.5" rx="5" ry="5.5" transform="translate(-.253 3.564)" style="fill:#fff"/>
                <ellipse data-name="타원 48" cx="4.5" cy="4" rx="4.5" ry="4" transform="translate(12.747 6.564)" style="fill:#fff"/>
                <path data-name="사각형 16346" transform="translate(4.747 7.564)" style="fill:#fff" d="M0 0h11v7H0z"/>
            </g>
            <g data-name="그룹 103480">
                <g data-name="그룹 103475">
                    <path data-name="패스 19461" d="M132.692 77.646h33.418v128.4h-33.38" transform="translate(-54.185 5.446)" style="fill-rule:evenodd;fill:#d89d70"/>
                    <path data-name="사각형 16371" transform="translate(45.05 83.092)" style="fill:url(#1r4e8bzv7b)" d="M0 0h33.457v128.402H0z"/>
                    <path data-name="패스 19462" d="m114.051 84.154 33.457-14.7 33.418 14.7-33.418 14.7z" transform="translate(-69.001 -1.062)" style="fill:#efbf9b;fill-rule:evenodd"/>
                </g>
                <g data-name="그룹 103479">
                    <path data-name="패스 19463" d="M135.889 91.931h-1.276v6.715H120.52v-6.715h-2.551v102.761h2.551v-7.005h14.093v7.005h2.551V91.931zM120.52 100.1h14.093v8.273H120.52zm0 9.732h14.093v8.271H120.52zm0 9.732h14.093v8.271H120.52zm0 9.73h14.093v8.273H120.52zm0 9.732h14.093v8.274H120.52zm0 9.73h14.093v8.273H120.52zm0 9.732h14.093v8.271H120.52zm0 9.732h14.093v8.28H120.52zm0 18v-8.271h14.093v8.271z" transform="translate(-65.888 16.802)" style="fill:#d1d3d4;mix-blend-mode:multiply;isolation:isolate"/>
                    <g data-name="그룹 103478">
                        <g data-name="그룹 103476">
                            <path data-name="사각형 16372" transform="rotate(8.291 -722.607 416.068)" style="fill:#efbf9b" d="M0 0h2.552v103.66H0z"/>
                            <path data-name="사각형 16373" transform="rotate(-81.708 141.549 83.247)" style="fill:#845a35" d="M0 0h103.66v1.276H0z"/>
                        </g>
                        <g data-name="그룹 103477">
                            <path data-name="사각형 16374" transform="rotate(8.291 -714.372 529.687)" style="fill:#efbf9b" d="M0 0h2.552v103.66H0z"/>
                            <path data-name="사각형 16375" transform="rotate(-81.709 149.782 73.724)" style="fill:#845a35" d="M0 0h103.66v1.276H0z"/>
                        </g>
                        <path data-name="패스 19464" d="M126.714 145.633h-15.131l.183-1.37H126.9z" transform="translate(-70.964 58.4)" style="fill:#c4976d"/>
                        <path data-name="패스 19465" d="M127.4 140.73h-15.132l.183-1.37h15.131z" transform="translate(-70.419 54.503)" style="fill:#c4976d"/>
                        <path data-name="패스 19466" d="M128.111 136.038H112.98l.183-1.37h15.131z" transform="translate(-69.853 50.773)" style="fill:#c4976d"/>
                        <path data-name="패스 19467" d="M128.834 130.872H113.7l.183-1.37h15.131z" transform="translate(-69.279 46.667)" style="fill:#c4976d"/>
                        <path data-name="패스 19468" d="M129.534 125.706H114.4l.183-1.37h15.131z" transform="translate(-68.722 42.56)" style="fill:#c4976d"/>
                        <path data-name="패스 19469" d="M130.345 120.539h-15.131l.183-1.37h15.131z" transform="translate(-68.078 38.453)" style="fill:#c4976d"/>
                        <path data-name="패스 19470" d="M131.1 115.373h-15.128l.183-1.37h15.131z" transform="translate(-67.475 34.346)" style="fill:#c4976d"/>
                        <path data-name="패스 19471" d="M131.867 110.206h-15.131l.183-1.37h15.131z" transform="translate(-66.868 30.24)" style="fill:#c4976d"/>
                        <path data-name="패스 19472" d="M132.618 105.04h-15.131l.183-1.37h15.13z" transform="translate(-66.27 26.133)" style="fill:#c4976d"/>
                        <path data-name="패스 19473" d="M133.343 99.873h-15.131l.183-1.37h15.131z" transform="translate(-65.694 22.026)" style="fill:#c4976d"/>
                    </g>
                </g>
            </g>
        </g>
        <g data-name="구름" transform="translate(512.102 339.267)">
            <ellipse data-name="타원 46" cx="9" cy="8.5" rx="9" ry="8.5" transform="translate(10.409 .483)" style="fill:#fff"/>
            <ellipse data-name="타원 47" cx="8.5" cy="9" rx="8.5" ry="9" transform="translate(.409 6.483)" style="fill:#fff"/>
            <circle data-name="타원 48" cx="7" cy="7" r="7" transform="translate(22.409 10.483)" style="fill:#fff"/>
            <path data-name="사각형 16346" transform="translate(8.409 13.483)" style="fill:#fff" d="M0 0h20v11H0z"/>
        </g>
        <g data-name="구름" transform="translate(666.98 382.672)">
            <ellipse data-name="타원 46" cx="11.5" cy="12" rx="11.5" ry="12" transform="translate(14.531 .078)" style="fill:#fff"/>
            <ellipse data-name="타원 47" cx="12" cy="11.5" rx="12" ry="11.5" transform="translate(-.469 9.078)" style="fill:#fff"/>
            <ellipse data-name="타원 48" cx="9.5" cy="8.5" rx="9.5" ry="8.5" transform="translate(29.531 15.078)" style="fill:#fff"/>
            <path data-name="사각형 16346" transform="translate(11.531 18.078)" style="fill:#fff" d="M0 0h26v14H0z"/>
        </g>
        <g data-name="그룹 103509" transform="translate(598.301 304)">
            <ellipse data-name="타원 78" cx="9.053" cy="2.959" rx="9.053" ry="2.959" transform="rotate(21 -237.254 51.908)" style="opacity:.2"/>
            <path data-name="패스 19525" d="M-153.212 60.1h.175a1.193 1.193 0 0 0 1.206-1.08l.039-1.939a1.063 1.063 0 0 0-1.164-1.015h-.175a1.192 1.192 0 0 0-1.206 1.08l-.039 1.938a1.063 1.063 0 0 0 1.164 1.016z" transform="translate(170.271 5.269)" style="fill:#ffd0b0"/>
            <path data-name="패스 19526" d="M-148.128 46.043c4.829 2.865 8.014 6.97 11.737 10.928 4.743 5.043 10.393 7.427 17.661 6.461 19.864-2.641 27.441-23.084 26.8-40.347a56.825 56.825 0 0 1-29.747 7.035c-8.8-.36-17.506-2.232-26-4.293-5.512-1.337-10.894-2.622-16.128-1.976-3.2.965-5.659 2.858-6.49 6.247a7.182 7.182 0 0 0 1.05 6.2c5.933 4.453 14.994 6.114 21.117 9.745z" transform="translate(172.276 9.354)" style="fill:#f97878"/>
            <path data-name="패스 19527" d="M-164.047 89.592a3.923 3.923 0 0 0-3.127.114l-1.215.617c-.922.468-1.022 1.182-.224 1.587a3.918 3.918 0 0 0 3.126-.114l1.215-.617c.922-.468 1.023-1.179.225-1.587z" transform="translate(172.101 1.15)" style="fill:#543329"/>
            <path data-name="패스 19528" d="M-153.832 94.81a3.921 3.921 0 0 0-3.126.114l-1.216.617c-.921.468-1.022 1.182-.224 1.587a3.92 3.92 0 0 0 3.127-.114l1.215-.617c.922-.467 1.022-1.181.224-1.587z" transform="translate(170.836 .504)" style="fill:#543329"/>
            <g data-name="그룹 103492">
                <path data-name="패스 19529" d="m-169.083 49.06 3.072 34.546z" transform="translate(172.093 6.137)" style="fill:#4056a9"/>
                <g data-name="그룹 103491">
                    <path data-name="패스 19530" d="M-171.657 48.751c1.024 11.515 3.076 23.271 4.1 34.787.258 2.9 3.738 2.689 3.477-.241l-3.072-34.546c-.258-2.9-4.766-2.93-4.506 0z" transform="translate(172.413 6.446)" style="fill:#af8d7e"/>
                </g>
            </g>
            <g data-name="그룹 103494">
                <path data-name="패스 19531" d="m-162.226 55.115 6.111 33.945z" transform="translate(171.244 5.387)" style="fill:#4056a9"/>
                <g data-name="그룹 103493">
                    <path data-name="패스 19532" d="M-164.785 55.081c2.037 11.315 5.206 22.842 7.243 34.157.518 2.876 3.862 2.137 3.341-.76l-6.111-33.945c-.518-2.876-4.994-2.349-4.473.548z" transform="translate(171.566 5.696)" style="fill:#af8d7e"/>
                </g>
            </g>
            <g data-name="그룹 103495">
                <path data-name="패스 19533" d="M-165.905 4.2c1.1-1.939-1.075-2.739-2.166-.81-4.6 8.146-5.857 17.591-2.7 24.812l2.979-1.59c-2.887-6.412-2.258-15.083 1.887-22.412z" transform="translate(172.519 11.931)" style="fill:#1aa4a4"/>
            </g>
            <g data-name="그룹 103496">
                <path data-name="패스 19534" d="M-155.2 53.116c-.183 2.226 2.208 2.238 2.391.023.773-9.355-2.034-18.451-7.907-23.643l-2.036 2.717c5.289 4.571 8.252 12.487 7.552 20.903z" transform="translate(171.309 8.56)" style="fill:#1aa4a4"/>
            </g>
            <path data-name="패스 19535" d="M-171.546 34.405a109.337 109.337 0 0 0-.209 13.805c.22 3.63-.141 3.813 6.719 6.988a7.07 7.07 0 0 0 2.711.661c.94.032 1.308-.509 1.832-1.215.469-.632.109-3.2.093-3.956-.364-18.4.759-17.268.053-19.754-.75-2.646-3.394-3.19-6.674-4-3.074-.762-4.319 4.525-4.525 7.471z" transform="translate(172.441 8.887)" style="fill:#1aa4a4"/>
            <g data-name="그룹 103507">
                <g data-name="그룹 103497">
                    <path data-name="패스 19536" d="M-166.32-5.151a5.282 5.282 0 0 1-.345-6.431c.662-1.063 1.288-1.606 1.968-1.709.874-.133 1.579.48 2.324 1.128.173.151.352.307.537.457a.525.525 0 0 1 .08.732.509.509 0 0 1-.723.081c-.2-.162-.386-.323-.565-.48-.586-.51-1.092-.951-1.5-.888-.352.053-.773.47-1.25 1.235a4.284 4.284 0 0 0 .2 5.135 2.744 2.744 0 0 0 .205.185.525.525 0 0 1 .08.732.51.51 0 0 1-.724.081 3.683 3.683 0 0 1-.287-.258z" transform="translate(171.907 13.862)" style="fill:#ffd33f"/>
                </g>
                <g data-name="그룹 103498">
                    <path data-name="패스 19537" d="M-159.936 1.563q-.137-.137-.261-.288a.527.527 0 0 1 .068-.734.509.509 0 0 1 .729.069c.059.071.121.139.186.2a4.14 4.14 0 0 0 5.071.125c.748-.5 1.152-.929 1.2-1.286.054-.414-.388-.921-.9-1.506-.157-.18-.32-.366-.482-.565a.526.526 0 0 1 .068-.734.51.51 0 0 1 .725.07c.152.185.308.364.46.537.651.745 1.267 1.449 1.149 2.337-.091.69-.618 1.333-1.656 2.021a5.11 5.11 0 0 1-6.357-.246z" transform="translate(171.008 12.619)" style="fill:#ffd33f"/>
                </g>
                <g data-name="그룹 103501">
                    <g data-name="그룹 103499">
                        <path data-name="패스 19538" d="M-168.637 4.211a4.274 4.274 0 0 0-1.863-1.148c-1.282-.336-2.036.432-1.686 1.717a4.307 4.307 0 0 0 1.176 1.871 4.24 4.24 0 0 0 1.865 1.163c1.274.335 2.02-.442 1.667-1.735a4.334 4.334 0 0 0-1.159-1.868z" transform="translate(172.488 11.844)" style="fill:#ffd33f"/>
                    </g>
                    <g data-name="그룹 103500">
                        <path data-name="패스 19539" d="M-168.376 3.942a4.263 4.263 0 0 0-1.861-1.148c-1.282-.337-2.037.431-1.686 1.716a4.3 4.3 0 0 0 1.176 1.871 4.235 4.235 0 0 0 1.865 1.163c1.274.335 2.02-.442 1.667-1.736a4.347 4.347 0 0 0-1.161-1.866z" transform="translate(172.455 11.878)" style="fill:#ffe840"/>
                    </g>
                </g>
                <g data-name="그룹 103502">
                    <path data-name="패스 19540" d="M-168.962 5.1a.911.911 0 0 0-.4-.255c-.272-.072-.431.091-.357.363a.919.919 0 0 0 .261.407.9.9 0 0 0 .407.258c.27.071.428-.094.353-.367a.917.917 0 0 0-.264-.406z" transform="translate(172.174 11.616)" style="fill:#ffb140"/>
                </g>
                <g data-name="그룹 103503">
                    <path data-name="패스 19541" d="M-169.632 4.27A5.372 5.372 0 0 0-166.7 0c-.026-.025.659.695 1.034 1.089l.02.019.018.019 1.091 1.031a5.284 5.284 0 0 0-4.171 3.031z" transform="translate(172.161 12.214)" style="fill:#ffb140"/>
                </g>
                <g data-name="그룹 103504">
                    <path data-name="패스 19542" d="M-165.505-.3a3.1 3.1 0 0 1-.836-1.337 1.773 1.773 0 0 1-.053-.283c-1.553-4.849 4.589-11.278 4.589-11.278L-158.72-8l.432.271.274.434 5.18 3.045s-6.249 6.324-11.059 4.825a1.618 1.618 0 0 1-.28-.05 3.041 3.041 0 0 1-1.332-.825z" transform="translate(171.791 13.848)" style="fill:#ffd33f"/>
                </g>
                <g data-name="그룹 103505">
                    <path data-name="패스 19543" d="M-154.253-11.377a9.106 9.106 0 0 0-3.924-2.393c-2.752-.724-4.372.926-3.619 3.684a9.2 9.2 0 0 0 2.453 3.947 9.036 9.036 0 0 0 3.934 2.424c2.734.719 4.337-.948 3.58-3.724a9.272 9.272 0 0 0-2.424-3.938z" transform="translate(171.213 13.94)" style="fill:#ffe840"/>
                </g>
                <g data-name="그룹 103506">
                    <path data-name="패스 19544" d="M-156.772-8.485a8.189 8.189 0 0 1 2.092 3.328 4.311 4.311 0 0 1 .177 1.018c1.625.018 2.446-1.251 1.877-3.2a8.192 8.192 0 0 0-2.092-3.329 8.039 8.039 0 0 0-3.318-2.067c-1.955-.555-3.2.327-3.124 2.015a4.053 4.053 0 0 1 1.071.164 8.05 8.05 0 0 1 3.317 2.071z" transform="translate(171.112 13.811)" style="fill:#ffb140"/>
                    <path data-name="패스 19545" d="M-158.866-6.087a7.988 7.988 0 0 0 3.325 2.1 3.988 3.988 0 0 0 1.039.161 4.312 4.312 0 0 0-.177-1.018 8.189 8.189 0 0 0-2.092-3.328 8.05 8.05 0 0 0-3.318-2.068 4.054 4.054 0 0 0-1.071-.164 4.2 4.2 0 0 0 .173.986 8.118 8.118 0 0 0 2.121 3.331z" transform="translate(171.111 13.503)" style="fill:#ff8f43"/>
                </g>
            </g>
            <path data-name="패스 19546" d="M-152.041 32.947A10.515 10.515 0 0 0-161 30.719c-1.385.308-2.7.9-4.087 1.184-1.232.251-2.71.164-3.471-.849a2.838 2.838 0 0 1-.315-2.47 8.314 8.314 0 0 1 1.208-2.263c2.484-.612 5.067-1.251 7.5-.471 2.346.75 4.124 2.668 5.706 4.576z" transform="translate(172.085 9.057)" style="fill:#f97878"/>
            <g data-name="그룹 103508">
                <path data-name="패스 19547" d="M-162.683 18.464c-.007-.117-.011-.236-.026-.35-.007-.047-.02-.069-.037-.077a1.272 1.272 0 0 0-.686-1.172 3.73 3.73 0 0 0-2.72-.562c-.288-.024-.61.091-.9.082-.445-.013-.732-.309-1.176-.322a1.849 1.849 0 0 0-.5.07 1.973 1.973 0 0 0-1.191.711 1.033 1.033 0 0 0-.136.477 2.345 2.345 0 0 0 .707 1.739 1.027 1.027 0 0 0 .54.48c1.026.4 2.7-.74 3.645.109a1.1 1.1 0 0 1 .344.5c.087.309.009.727.3.887a.4.4 0 0 0 .079.029 1.154 1.154 0 0 1-.031-.283c.007-.463.258-.885.56-.943s.541.272.534.735a1.009 1.009 0 0 1-.486.917.562.562 0 0 1 .031.181v.263a3.41 3.41 0 0 0 .44-.618 8.283 8.283 0 0 0 .418-.953c.053-.138.106-.275.149-.413a3.448 3.448 0 0 0 .141-.8 5.485 5.485 0 0 0 .001-.687z" transform="translate(172.214 10.224)" style="fill:#27317a"/>
                <path data-name="패스 19548" d="M-163.686 21.956a1.009 1.009 0 0 0 .486-.917c.007-.463-.231-.793-.534-.735s-.553.479-.56.943a1.153 1.153 0 0 0 .031.283.4.4 0 0 1-.079-.029c-.294-.159-.216-.577-.3-.887a1.1 1.1 0 0 0-.344-.5c-.944-.849-2.619.292-3.645-.109l-.035 2.252a2.208 2.208 0 0 0 2.575 2.2q0 1.083.008 2.165a2.468 2.468 0 0 0-.714.329c-.617.435-.548.984.152 1.219l.881.3a3.018 3.018 0 0 0 2.394-.366c.616-.435.548-.984-.152-1.219l-.138-.046a.639.639 0 0 0 .025-.173l-.016-4.253v-.263a.562.562 0 0 0-.035-.194z" transform="translate(172.042 9.762)" style="fill:#ffd0b0"/>
            </g>
        </g>
    </g>
</svg>
