<svg xmlns="http://www.w3.org/2000/svg" width="40" height="40" viewBox="0 0 40 40">
    <defs>
        <clipPath id="otq5444z4a">
            <path data-name="사각형 16252" style="fill:none" d="M0 0h40v22.8H0z"/>
        </clipPath>
    </defs>
    <g data-name="그룹 103527" transform="translate(.001 7.6)" style="clip-path:url(#otq5444z4a)">
        <path data-name="패스 19641" d="M74.407 5.964a14.01 14.01 0 0 0-22.939 0l-.135.192h3.321l.036-.04a11.318 11.318 0 0 1 16.494 0l.037.04h3.319z" transform="translate(-39.248)" style="fill:#dc000c;fill-rule:evenodd"/>
        <path data-name="패스 19642" d="m10.769 45.1-.062.063a4.8 4.8 0 0 1-3.417 1.59 4.311 4.311 0 0 1-4.381-4.531 4.313 4.313 0 0 1 4.381-4.53 4.8 4.8 0 0 1 3.417 1.594l.062.063 1.631-1.974-.043-.052a6.229 6.229 0 0 0-4.989-2.384A7.57 7.57 0 0 0 2.2 36.833a7.082 7.082 0 0 0-2.2 5.39 7.092 7.092 0 0 0 2.2 5.392 7.549 7.549 0 0 0 5.169 1.9 6.23 6.23 0 0 0 4.989-2.385l.043-.05z" transform="translate(0 -26.713)" style="fill:#003375"/>
        <path data-name="사각형 16250" transform="translate(14.051 8.453)" style="fill:#003375" d="M0 0h2.883v14.077H0z"/>
        <path data-name="패스 19643" d="M91.5 32.738a4.171 4.171 0 0 1-2.128.7c-.932 0-1.353-.491-1.353-1.587v-7.47h2.937v-2.65h-2.934v-4.377L85.2 18.867v2.868h-2.443v2.65H85.2v7.947c0 2.164 1.283 3.644 3.2 3.682a4.519 4.519 0 0 0 2.558-.646l.028-.02.694-2.713z" transform="translate(-63.274 -13.268)" style="fill:#003375"/>
        <path data-name="사각형 16251" transform="translate(30.619 8.453)" style="fill:#003375" d="M0 0h2.885v14.077H0z"/>
        <path data-name="패스 19644" d="M159.7 23.5a1.286 1.286 0 1 1-1.286-1.287A1.261 1.261 0 0 1 159.7 23.5m.247 0a1.533 1.533 0 1 0-1.533 1.532 1.5 1.5 0 0 0 1.533-1.532m-.832-.361a.49.49 0 0 0-.547-.5h-.735v1.672h.284v-.645h.323l.327.645h.335l-.343-.675a.475.475 0 0 0 .356-.492m-.288.008c0 .166-.115.238-.267.238h-.442v-.476h.442a.237.237 0 0 1 .267.238" transform="translate(-119.946 -16.798)" style="fill:#003375"/>
    </g>
</svg>
