<svg xmlns="http://www.w3.org/2000/svg" width="32" height="32" viewBox="0 0 32 32">
    <defs>
        <clipPath id="bf3bp0p5ka">
            <path data-name="사각형 16394" style="fill:none" d="M0 0h32v17.657H0z"/>
        </clipPath>
    </defs>
    <path data-name="사각형 16373" style="fill:none" d="M0 0h32v32H0z"/>
    <g data-name="그룹 103651">
        <g data-name="그룹 103650" transform="translate(0 7)" style="clip-path:url(#bf3bp0p5ka)">
            <path data-name="패스 19626" d="M1.736 0A1.739 1.739 0 0 0 0 1.737v4.631h.579V1.737A1.158 1.158 0 0 1 1.736.579h28.528a1.158 1.158 0 0 1 1.158 1.158v4.631H32V1.737A1.739 1.739 0 0 0 30.264 0z" style="fill:#1a1818"/>
            <path data-name="패스 19627" d="M20.155 16.293c0 .045-.029.062-.078.062h-.429c-.05 0-.066-.017-.066-.066v-1.168a.08.08 0 0 0-.091-.083h-1.127a.073.073 0 0 0-.078.083v1.168c0 .049-.029.066-.074.066h-.438c-.041 0-.058-.017-.058-.062v-2.9c0-.045.017-.07.058-.07h.438a.066.066 0 0 1 .074.07v1.123a.07.07 0 0 0 .078.078h1.127c.054 0 .091-.025.091-.078v-1.125c0-.045.016-.07.066-.07h.429c.049 0 .078.025.078.07z" transform="translate(-14.822 -11.145)" style="fill:#1a1818"/>
            <path data-name="패스 19628" d="M36.516 20.074a.473.473 0 0 1-.483-.475V17.8c0-.054.021-.078.07-.078h.413c.041 0 .07.025.07.078v1.742c0 .05.021.074.078.074h.755c.05 0 .083-.025.083-.074V17.8c0-.054.021-.078.07-.078h.413a.069.069 0 0 1 .074.078v2.629a.448.448 0 0 1-.049.19l-.281.458a.123.123 0 0 1-.1.066h-.054c-.049 0-.07-.029-.07-.074V19.9c0-.05-.029-.07-.074-.058l-.792.223a.58.58 0 0 1-.12.008" transform="translate(-30.146 -14.823)" style="fill:#1a1818"/>
            <path data-name="패스 19629" d="M52.3 20.07a.478.478 0 0 1-.475-.475V17.8c0-.054.021-.078.07-.078h.417c.037 0 .066.025.066.078v1.742c0 .05.025.07.083.07h.755c.049 0 .083-.021.083-.07V17.8c0-.054.017-.078.066-.078h.413a.069.069 0 0 1 .074.078v2.17c0 .046-.029.062-.074.062h-.413c-.049 0-.066-.016-.066-.066V19.9c0-.054-.033-.074-.078-.058l-.793.215a.447.447 0 0 1-.128.012" transform="translate(-43.356 -14.823)" style="fill:#1a1818"/>
            <path data-name="패스 19630" d="M69.641 17.972v1.808c0 .046-.029.062-.074.062h-.413c-.049 0-.066-.016-.066-.066v-1.742a.076.076 0 0 0-.088-.083h-.75a.073.073 0 0 0-.083.083v1.742a.059.059 0 0 1-.066.066h-.417c-.049 0-.07-.016-.07-.062V17.6c0-.054.021-.078.07-.078h.416c.037 0 .066.025.066.078v.07c0 .045.021.066.083.049l.789-.215a.6.6 0 0 1 .12-.021.486.486 0 0 1 .483.483" transform="translate(-56.568 -14.632)" style="fill:#1a1818"/>
            <path data-name="패스 19631" d="M82.9 14.458v-1.04a.53.53 0 0 1 .293-.5l.438-.256a.513.513 0 0 1 .289-.083h.38c.054 0 .078-.021.078-.07v-.855c0-.045.021-.078.062-.078h.421c.049 0 .07.033.07.078v3.178c0 .046-.021.062-.07.062h-.421c-.041 0-.062-.016-.062-.066v-.066c0-.054-.025-.074-.078-.058l-.8.215a.435.435 0 0 1-.124.012.488.488 0 0 1-.479-.475m1.477-.058v-1.306c0-.058-.025-.087-.082-.087h-.763c-.058 0-.078.029-.078.087V14.4c0 .05.021.07.078.07h.763c.058 0 .082-.021.082-.07" transform="translate(-69.353 -9.686)" style="fill:#1a1818"/>
            <path data-name="패스 19632" d="M98.682 20.069a.478.478 0 0 1-.479-.475v-1.04a.534.534 0 0 1 .289-.5l.442-.256a.508.508 0 0 1 .285-.083h.945c.045 0 .07.025.07.078v2.177c0 .046-.025.062-.07.062h-.421c-.045 0-.062-.016-.062-.066V19.9c0-.054-.029-.074-.083-.058l-.792.215a.435.435 0 0 1-.124.012m1-.533v-1.308a.075.075 0 0 0-.083-.087h-.764c-.058 0-.078.029-.078.087v1.308c0 .05.021.07.078.07h.765c.054 0 .083-.021.083-.07" transform="translate(-82.159 -14.822)" style="fill:#1a1818"/>
            <path data-name="패스 19633" d="M114.572 11.994c0 .049-.029.066-.07.066h-.413c-.053 0-.07-.017-.07-.066v-.339c0-.045.017-.078.07-.078h.413a.072.072 0 0 1 .07.078zm0 2.84c0 .045-.029.062-.07.062h-.413c-.053 0-.07-.017-.07-.062v-2.175c0-.054.017-.078.07-.078h.413c.042 0 .07.025.07.078z" transform="translate(-95.392 -9.686)" style="fill:#1a1818"/>
            <path data-name="패스 19634" d="M124.49 15.759V14.2a.577.577 0 0 1 .3-.528l.483-.268a.549.549 0 0 1 .285-.079h1.023a.066.066 0 0 1 .075.074v.3c0 .045-.025.066-.075.066h-1.432c-.049 0-.07.029-.07.083v1.989c0 .054.021.079.07.079h1.473c.045 0 .074.021.074.062a.116.116 0 0 1-.066.107l-.355.2a.584.584 0 0 1-.293.074h-.892a.587.587 0 0 1-.6-.594" transform="translate(-104.152 -11.144)" style="fill:#1a1818"/>
            <path data-name="패스 19635" d="M140.586 20.069a.478.478 0 0 1-.479-.475v-1.04a.533.533 0 0 1 .289-.5l.442-.256a.507.507 0 0 1 .285-.083h.945c.046 0 .07.025.07.078v2.177c0 .046-.025.062-.07.062h-.421c-.046 0-.062-.016-.062-.066V19.9c0-.054-.029-.074-.083-.058l-.792.215a.432.432 0 0 1-.124.012m1-.533v-1.308a.076.076 0 0 0-.083-.087h-.764c-.058 0-.078.029-.078.087v1.308c0 .05.021.07.078.07h.764c.054 0 .083-.021.083-.07" transform="translate(-117.218 -14.822)" style="fill:#1a1818"/>
            <path data-name="패스 19636" d="M157.44 17.952c0 .041-.029.062-.074.062h-.813c-.054 0-.074.029-.074.083v1.742c0 .05-.033.066-.074.066h-.417c-.05 0-.066-.016-.066-.062v-2.176c0-.054.017-.078.066-.078h.417a.071.071 0 0 1 .074.078v.066c0 .046.02.066.074.066a.1.1 0 0 0 .045-.008l.239-.157a.6.6 0 0 1 .285-.07h.243a.066.066 0 0 1 .074.07z" transform="translate(-130.448 -14.695)" style="fill:#1a1818"/>
            <path data-name="패스 19637" d="M165.726 14.458v-1.04a.53.53 0 0 1 .293-.5l.438-.256a.513.513 0 0 1 .289-.083h.38c.054 0 .078-.021.078-.07v-.855c0-.045.021-.078.062-.078h.421c.049 0 .07.033.07.078v3.178c0 .046-.021.062-.07.062h-.421c-.041 0-.062-.016-.062-.066v-.066c0-.054-.024-.074-.078-.058l-.8.215a.435.435 0 0 1-.124.012.488.488 0 0 1-.479-.475m1.477-.056v-1.308c0-.058-.024-.087-.082-.087h-.764c-.058 0-.078.029-.078.087V14.4c0 .05.021.07.078.07h.764c.058 0 .082-.021.082-.07" transform="translate(-138.651 -9.686)" style="fill:#1a1818"/>
            <path data-name="패스 19638" d="M4.423 60.639H.139A.128.128 0 0 1 0 60.5v-.555a.128.128 0 0 1 .139-.139H1.6a.115.115 0 0 0 .13-.13v-.72a.128.128 0 0 1 .139-.139h.711a.135.135 0 0 1 .148.139v.72a.115.115 0 0 0 .13.13h1.565a.127.127 0 0 1 .139.139v.555a.128.128 0 0 1-.139.139m-.339 1.847a1.656 1.656 0 0 1-1.873 1.578 1.6 1.6 0 1 1 0-3.157 1.657 1.657 0 0 1 1.873 1.578m-1.907 2.109v1.179a.115.115 0 0 0 .13.13h4.327a.128.128 0 0 1 .139.139v.6a.128.128 0 0 1-.139.139H2.463a.807.807 0 0 1-.495-.139l-.607-.434a.593.593 0 0 1-.225-.5v-1.11a.128.128 0 0 1 .139-.139h.763a.128.128 0 0 1 .139.139m.923-2.112a.8.8 0 0 0-.893-.772.778.778 0 1 0 0 1.544.8.8 0 0 0 .893-.772m2.68-3.313h.72a.128.128 0 0 1 .139.139v5.481a.128.128 0 0 1-.139.139h-.724a.128.128 0 0 1-.139-.139v-1.084a.115.115 0 0 0-.13-.13h-1a.128.128 0 0 1-.139-.139v-.572a.135.135 0 0 1 .139-.147h1a.115.115 0 0 0 .13-.13v-.572a.115.115 0 0 0-.13-.13h-1a.128.128 0 0 1-.139-.139v-.572a.135.135 0 0 1 .139-.147h1a.115.115 0 0 0 .13-.13v-1.589a.128.128 0 0 1 .139-.139" transform="translate(0 -49.209)" style="fill:#1a1818"/>
            <path data-name="패스 19639" d="M54.739 61.507a.134.134 0 0 1 .139.147v.59a.128.128 0 0 1-.139.139h-1.448a.115.115 0 0 0-.13.13v3.5a.115.115 0 0 0 .13.13l2.35-.017a.115.115 0 0 0 .13-.13v-4.775a.128.128 0 0 1 .139-.139h.685a.128.128 0 0 1 .139.139v2.515a.115.115 0 0 0 .13.13h.746a.115.115 0 0 0 .13-.13v-2.6a.128.128 0 0 1 .138-.136h.694a.128.128 0 0 1 .139.139v7.415a.128.128 0 0 1-.139.139h-.694a.128.128 0 0 1-.139-.139v-3.683a.115.115 0 0 0-.13-.13h-.746a.115.115 0 0 0-.13.13v3.564a.128.128 0 0 1-.139.139h-.684a.128.128 0 0 1-.139-.139v-1.5c0-.087-.043-.139-.13-.13L53.855 67a4.266 4.266 0 0 1-.477.035h-.018a.807.807 0 0 1-.494-.139l-.459-.364a.592.592 0 0 1-.225-.5v-4.386a.128.128 0 0 1 .139-.139z" transform="translate(-43.656 -51.03)" style="fill:#1a1818"/>
            <path data-name="패스 19640" d="M104.493 64.759a.115.115 0 0 0-.13-.13h-2.315a.128.128 0 0 1-.139-.139v-.616a.128.128 0 0 1 .139-.139h2.315a.115.115 0 0 0 .13-.13v-1.2c0-.1-.043-.139-.147-.139H102c-.1 0-.139-.052-.139-.148v-.581c0-.1.043-.147.139-.147h2.22a.763.763 0 0 1 .46.147l.529.382c.278.2.286.4.286.815V66.1a.6.6 0 0 1-.078.347l-.521.754a.247.247 0 0 1-.217.13h-.043a.133.133 0 0 1-.147-.147zM107.216 61h.728a.128.128 0 0 1 .139.139v2.6a.115.115 0 0 0 .13.13h.85a.134.134 0 0 1 .139.148v.59a.128.128 0 0 1-.139.139h-.85a.115.115 0 0 0-.13.13v3.677a.128.128 0 0 1-.139.139h-.728a.128.128 0 0 1-.139-.139v-7.419a.128.128 0 0 1 .139-.139" transform="translate(-85.223 -51.03)" style="fill:#1a1818"/>
            <path data-name="패스 19641" d="M158.253 68.9a.134.134 0 0 1 .138.147v.6a.127.127 0 0 1-.138.139h-7.042a.128.128 0 0 1-.139-.139v-.6a.134.134 0 0 1 .139-.147zm-6.244-5.325a.127.127 0 0 1 .139-.139h5.195a.128.128 0 0 1 .139.139v.6a.128.128 0 0 1-.139.139h-4.18a.115.115 0 0 0-.13.13v1.716a.115.115 0 0 0 .13.13h4.267a.128.128 0 0 1 .139.139v.624a.128.128 0 0 1-.139.139h-4.093a.807.807 0 0 1-.495-.139l-.607-.434a.593.593 0 0 1-.225-.5z" transform="translate(-126.391 -53.073)" style="fill:#1a1818"/>
        </g>
    </g>
</svg>
