<svg xmlns="http://www.w3.org/2000/svg" width="32" height="32" viewBox="0 0 32 32">
    <defs>
        <clipPath id="lw6azjcr2a">
            <path data-name="사각형 16380" style="fill:none" d="M0 0h24v21.819H0z"/>
        </clipPath>
    </defs>
    <path data-name="사각형 16373" style="fill:none" d="M0 0h32v32H0z"/>
    <g data-name="그룹 103618">
        <g data-name="그룹 103617" transform="translate(4 5)" style="clip-path:url(#lw6azjcr2a)">
            <path data-name="패스 19597" d="M21.616 20.459a3.873 3.873 0 0 0-.28-.952 4.691 4.691 0 0 0-1.888-2.187 4.241 4.241 0 0 0-4.375.029 3.814 3.814 0 0 0-1.441 1.541 4.39 4.39 0 0 0-.274.677 4.744 4.744 0 0 0 .3 3.691 1.841 1.841 0 0 0 .884.77 1.286 1.286 0 0 0 1.144-.087 1.217 1.217 0 0 0 .427-1.282 3.335 3.335 0 0 1 .045-1.785 1.315 1.315 0 0 1 .316-.507 1.214 1.214 0 0 1 .3-.209 1.257 1.257 0 0 1 .755-.122 1.442 1.442 0 0 1 1.014.827 3.377 3.377 0 0 1 .274 1.323 19.871 19.871 0 0 1-.881 5.92c-.051.2-.1.391-.161.583-.043.15-.118.342-.024.487a.393.393 0 0 0 .176.135.664.664 0 0 0 .726-.258 10.525 10.525 0 0 0 2.41-4.217 12.915 12.915 0 0 0 .461-1.759 7.7 7.7 0 0 0 .089-2.619" transform="translate(-5.909 -7.53)" style="fill:#009a90"/>
            <path data-name="패스 19598" d="M24 6.517a.5.5 0 0 0-.544-.484 2.7 2.7 0 0 0-.816.258A32.928 32.928 0 0 1 6.431 7.822C5.512 7.69 4.583 7.5 3.66 7.36c-.578-.091-1.15-.222-1.732-.267a2.1 2.1 0 0 0-1.517.292 1.6 1.6 0 0 0-.192 1.9 4.266 4.266 0 0 0 1.649 1.592 3.975 3.975 0 0 0 2.161.739q3.079-.2 6.138-.6c3.478-.449 7.124-.874 10.39-2.226a13 13 0 0 0 3.038-1.7c.165-.125.405-.333.405-.573" transform="translate(0 -2.716)" style="fill:#009a90"/>
            <path data-name="패스 19599" d="M17.078 2.054a2 2 0 1 0 4.007 0 1.17 1.17 0 0 0-.108-.481c-.17-.363-.365-.541-.346-.978C20.656.009 19.9 0 19.495 0a2.959 2.959 0 0 0-1.312.262A2.041 2.041 0 0 0 17.4.97a2 2 0 0 0-.317 1.039z" transform="translate(-7.688)" style="fill:#eb144f"/>
        </g>
    </g>
</svg>
