<svg xmlns="http://www.w3.org/2000/svg" width="40" height="40" viewBox="0 0 40 40">
    <defs>
        <clipPath id="3q7590gdla">
            <path data-name="사각형 16242" style="fill:none" d="M0 0h36v26H0z"/>
        </clipPath>
    </defs>
    <g data-name="그룹 103509">
        <g data-name="그룹 103512" transform="translate(1.999 6.999)" style="clip-path:url(#3q7590gdla)">
            <path data-name="패스 19626" d="m35.712 13.3-.314-.2a5.611 5.611 0 0 0-4.554-1.418 8.55 8.55 0 0 0-3.98 1.374v-.046a15.894 15.894 0 0 1 .117-1.635 16.509 16.509 0 0 0 .119-1.658 3.892 3.892 0 0 0-.254-1.517.3.3 0 0 0-.285-.182 4.346 4.346 0 0 0-1.836.6l-.139.3a12.134 12.134 0 0 1-.272 2.46c.005-.008-.07.2-.07.2a30.088 30.088 0 0 0-.022 6.252c.024.179.369.448.634.546a4.023 4.023 0 0 0 1.729-.335c-.007 0 .2-.032.2-.032a.3.3 0 0 0 .256-.348l.012-.516a5.133 5.133 0 0 1 3.733-3.669 2.58 2.58 0 0 1 2.478.8 3.41 3.41 0 0 1-.4 2.518 5.2 5.2 0 0 1-2.838 2.243 10.847 10.847 0 0 1-4.341.613c-.071-.046-1.6-1.083-1.6-1.083a23.064 23.064 0 0 0-4.556-2.715 5.526 5.526 0 0 1-1.036-.742l-.158-.13c-.878-.706-2.549-1.824-3.892-2.72l-.723-.486v-.153c.039-.042.884-.55.884-.55a9.037 9.037 0 0 0 1.842-1.207c-.024.028.156-.093.156-.093L19.53 8.11c2.811-1.548 5.995-3.306 7.667-5.041l.082-.266.036-.235a1.627 1.627 0 0 0 .024-.986.308.308 0 0 0-.226-.224c-1.307-.131-2.99.654-4.523 2.1a4.057 4.057 0 0 1-.944.652l-.234.131c-1.691.963-5.5 3.333-7.492 4.612a67.361 67.361 0 0 1 1.016-7.755L14.882.8l-.207-.385-.154-.275-.045-.012a1.258 1.258 0 0 0-.962-.06l-.4.147-.531.193a.29.29 0 0 0-.217.192 32.486 32.486 0 0 0-1.934 9.138 45.586 45.586 0 0 0-4.524-2.511l-.024-.013-.1-.022A3.163 3.163 0 0 1 4.73 6.7c-.038-.023-.724-.47-.724-.47L2.9 5.52a5.897 5.897 0 0 1-.292-.066A3.451 3.451 0 0 0 .952 6.57a.329.329 0 0 0-.05.178 1.081 1.081 0 0 0 .05.263L1 7.236l.052.136A15.906 15.906 0 0 0 4.23 9.53l1.52.808 2.327 1.274c0 .011.4.317.4.317l.274.157.05.031-4.232 2.834-2.228 1.478a13.028 13.028 0 0 1-1.283.616 1.833 1.833 0 0 0-1 .828L0 18l.06.085.17.13c-.008 0 .227.149.227.149l.246.169.232.037a5.881 5.881 0 0 0 2.053-.685c.995-.442 3.7-2.077 4.853-2.775l.493-.3a1.092 1.092 0 0 0 .628-.307A6.1 6.1 0 0 1 10 13.876c.01 0 .184-.1.35-.193v.133a47.382 47.382 0 0 0 .641 8.105l.006.035.038.08a8.987 8.987 0 0 1 .6 1.86l.44 1.479c.01.018.125.139.125.139a2.892 2.892 0 0 0 1.528.405l.127-.015.081-.18a3.481 3.481 0 0 0 .059-.678c0-.27-.02-.568-.043-.933l-.035-.533c-.162-2.474-.323-6.045-.323-8.42v-.19c.42.263 2.253 1.422 2.253 1.422 3.12 2.03 7.834 5.1 10.683 5.907a.415.415 0 0 0 .413-.094c0-.006.438-.283.438-.283l.082-.033a.8.8 0 0 0 .292-.654c2.4-.121 5.748-1.048 7.541-3.307a4.712 4.712 0 0 0 1-2.865 2.433 2.433 0 0 0-.586-1.759" transform="translate(0 .255)" style="fill:#ff9d00"/>
        </g>
    </g>
</svg>
