<svg xmlns="http://www.w3.org/2000/svg" width="40" height="40" viewBox="0 0 40 40">
    <defs>
        <clipPath id="ta5aosyuca">
            <path data-name="사각형 16254" style="fill:none" d="M0 0h29v29H0z"/>
        </clipPath>
        <clipPath id="2d55ozn0pb">
            <path data-name="패스 19712" d="M5.214 17.933a13.59 13.59 0 1 0 27.177 0 13.59 13.59 0 1 0-27.177 0" transform="translate(-5.214 -4.166)" style="fill:none"/>
        </clipPath>
    </defs>
    <g data-name="그룹 103530">
        <g data-name="그룹 103529" style="clip-path:url(#ta5aosyuca)" transform="translate(5.5 5.5)">
            <path data-name="패스 19647" d="M29.4 14.5A14.42 14.42 0 0 1 15.074 29 14.419 14.419 0 0 1 .737 14.5 14.417 14.417 0 0 1 15.073 0 14.418 14.418 0 0 1 29.4 14.5" transform="translate(-.627)" style="fill:#fff"/>
            <path data-name="패스 19648" d="M18.879 31.8A13.82 13.82 0 1 0 5.214 17.985 13.741 13.741 0 0 0 18.879 31.8" transform="translate(-4.433 -3.535)" style="fill:#006abd"/>
        </g>
    </g>
    <g data-name="그룹 103532">
        <g data-name="그룹 103531" style="clip-path:url(#2d55ozn0pb)" transform="translate(6.351 6.18)">
            <path data-name="패스 19649" d="M14.421 50.564c5.971 0 11.089 1.684 13.282 4.082a14.074 14.074 0 0 0 1.139-5.573A14.422 14.422 0 0 0 0 49.077a14.07 14.07 0 0 0 1.141 5.57c2.187-2.4 7.31-4.082 13.28-4.082" transform="translate(-.777 -30.154)" style="fill:#006abd"/>
            <path data-name="패스 19650" d="M14.618 51.265c5.956 0 11.061 1.671 13.248 4.05A13.887 13.887 0 0 0 29 49.786a14.3 14.3 0 0 0-14.385-14.2A14.3 14.3 0 0 0 .234 49.789a13.9 13.9 0 0 0 1.138 5.526c2.181-2.378 7.292-4.05 13.246-4.05" transform="translate(-.976 -30.84)" style="fill:#006cbe"/>
            <path data-name="패스 19651" d="M14.822 51.965c5.941 0 11.033 1.657 13.214 4.016A13.714 13.714 0 0 0 29.17 50.5a14.244 14.244 0 0 0-14.348-14.11A14.246 14.246 0 0 0 .476 50.5a13.72 13.72 0 0 0 1.134 5.48c2.176-2.359 7.274-4.016 13.212-4.016" transform="translate(-1.182 -31.524)" style="fill:#006ec0"/>
            <path data-name="패스 19652" d="M15.02 52.669c5.925 0 11 1.644 13.18 3.984a13.536 13.536 0 0 0 1.131-5.439A14.186 14.186 0 0 0 15.02 37.2 14.187 14.187 0 0 0 .711 51.217a13.547 13.547 0 0 0 1.131 5.436c2.17-2.34 7.255-3.984 13.178-3.984" transform="translate(-1.382 -32.213)" style="fill:#0070c1"/>
            <path data-name="패스 19653" d="M15.219 53.37c5.91 0 10.977 1.629 13.146 3.95a13.35 13.35 0 0 0 1.128-5.394 14.128 14.128 0 0 0-14.274-13.917A14.13 14.13 0 0 0 .947 51.929a13.36 13.36 0 0 0 1.129 5.391C4.24 55 9.312 53.37 15.219 53.37" transform="translate(-1.583 -32.899)" style="fill:#0072c3"/>
            <path data-name="패스 19654" d="M15.415 54.073c5.894 0 10.948 1.616 13.111 3.917a13.161 13.161 0 0 0 1.125-5.349 14.069 14.069 0 0 0-14.236-13.822A14.073 14.073 0 0 0 1.179 52.644a13.172 13.172 0 0 0 1.126 5.346c2.158-2.3 7.217-3.917 13.109-3.917" transform="translate(-1.78 -33.586)" style="fill:#0074c4"/>
            <path data-name="패스 19655" d="M15.616 54.774c5.879 0 10.92 1.6 13.077 3.886a13 13 0 0 0 1.122-5.3 14.012 14.012 0 0 0-14.2-13.727 14.014 14.014 0 0 0-14.2 13.73 13.021 13.021 0 0 0 1.122 5.3c2.154-2.283 7.2-3.886 13.076-3.886" transform="translate(-1.984 -34.272)" style="fill:#0076c6"/>
            <path data-name="패스 19656" d="M15.816 55.473c5.864 0 10.892 1.589 13.043 3.852a12.825 12.825 0 0 0 1.12-5.26c0-7.456-6.344-13.633-14.163-13.633S1.654 46.612 1.654 54.068a12.836 12.836 0 0 0 1.12 5.258c2.148-2.263 7.18-3.852 13.042-3.852" transform="translate(-2.185 -34.957)" style="fill:#0078c7"/>
            <path data-name="패스 19657" d="M16.016 56.176c5.848 0 10.863 1.575 13.009 3.819a12.646 12.646 0 0 0 1.117-5.215c0-7.393-6.327-13.539-14.126-13.538S1.891 47.39 1.891 54.783A12.674 12.674 0 0 0 3.007 60c2.142-2.244 7.161-3.819 13.008-3.819" transform="translate(-2.386 -35.644)" style="fill:#007ac9"/>
            <path data-name="패스 19658" d="M16.214 56.878c5.833 0 10.835 1.562 12.975 3.786a12.473 12.473 0 0 0 1.113-5.17c0-7.329-6.31-13.443-14.088-13.443S2.126 48.167 2.126 55.5a12.5 12.5 0 0 0 1.114 5.164c2.137-2.224 7.143-3.786 12.974-3.786" transform="translate(-2.586 -36.331)" style="fill:#007ccb"/>
            <path data-name="패스 19659" d="M16.414 57.582c5.817 0 10.807 1.547 12.941 3.753a12.31 12.31 0 0 0 1.111-5.125c0-7.266-6.294-13.349-14.051-13.348S2.363 48.945 2.363 56.212a12.318 12.318 0 0 0 1.111 5.123c2.131-2.205 7.124-3.753 12.94-3.753" transform="translate(-2.788 -37.019)" style="fill:#007ecc"/>
            <path data-name="패스 19660" d="M16.614 58.282c5.8 0 10.779 1.534 12.907 3.72a12.143 12.143 0 0 0 1.108-5.081c0-7.2-6.277-13.253-14.015-13.253S2.6 49.721 2.6 56.924A12.153 12.153 0 0 0 3.709 62c2.125-2.187 7.105-3.72 12.905-3.72" transform="translate(-2.99 -37.703)" style="fill:#0080ce"/>
            <path data-name="패스 19661" d="M16.813 58.982c5.787 0 10.75 1.52 12.872 3.687a11.957 11.957 0 0 0 1.1-5.035c0-7.139-6.259-13.159-13.977-13.159S2.836 50.5 2.836 57.636a11.979 11.979 0 0 0 1.1 5.033c2.12-2.167 7.087-3.687 12.872-3.687" transform="translate(-3.19 -38.389)" style="fill:#0082cf"/>
            <path data-name="패스 19662" d="M17.011 59.685c5.771 0 10.722 1.506 12.838 3.654a11.782 11.782 0 0 0 1.1-4.99c0-7.076-6.243-13.064-13.94-13.064S3.071 51.274 3.071 58.351a11.812 11.812 0 0 0 1.1 4.988c2.114-2.148 7.068-3.654 12.837-3.654" transform="translate(-3.39 -39.076)" style="fill:#0085d1"/>
            <path data-name="패스 19663" d="M17.21 60.386c5.756 0 10.694 1.492 12.8 3.622a11.628 11.628 0 0 0 1.1-4.946c0-7.012-6.226-12.969-13.9-12.968s-13.9 5.957-13.9 12.97a11.65 11.65 0 0 0 1.1 4.944c2.109-2.129 7.049-3.622 12.8-3.622" transform="translate(-3.592 -39.762)" style="fill:#0087d2"/>
            <path data-name="패스 19664" d="M17.409 61.09c5.74 0 10.667 1.479 12.77 3.589a11.46 11.46 0 0 0 1.1-4.9c0-6.948-6.209-12.874-13.866-12.873s-13.87 5.925-13.87 12.873a11.484 11.484 0 0 0 1.1 4.9c2.1-2.11 7.031-3.589 12.769-3.589" transform="translate(-3.792 -40.451)" style="fill:#0089d4"/>
            <path data-name="패스 19665" d="M17.607 61.79c5.726 0 10.638 1.465 12.736 3.555a11.286 11.286 0 0 0 1.093-4.856c0-6.885-6.192-12.779-13.829-12.779S3.779 53.6 3.779 60.491a11.313 11.313 0 0 0 1.093 4.855c2.1-2.09 7.012-3.555 12.735-3.555" transform="translate(-3.993 -41.136)" style="fill:#008cd6"/>
            <path data-name="패스 19666" d="M17.808 62.49c5.709 0 10.609 1.452 12.7 3.523A11.121 11.121 0 0 0 31.6 61.2c0-6.823-6.175-12.685-13.792-12.685S4.016 54.38 4.016 61.2a11.147 11.147 0 0 0 1.09 4.81c2.094-2.069 6.994-3.52 12.702-3.52" transform="translate(-4.195 -41.82)" style="fill:#008ed7"/>
            <path data-name="패스 19667" d="M18.008 63.2c5.695 0 10.581 1.438 12.668 3.49a10.965 10.965 0 0 0 1.087-4.767c0-6.759-6.159-12.589-13.755-12.589S4.253 55.161 4.253 61.92a10.988 10.988 0 0 0 1.087 4.766c2.086-2.053 6.975-3.49 12.667-3.49" transform="translate(-4.396 -42.51)" style="fill:#0090d9"/>
            <path data-name="패스 19668" d="M18.206 63.9c5.679 0 10.554 1.423 12.634 3.457a10.8 10.8 0 0 0 1.084-4.721c0-6.7-6.142-12.495-13.718-12.495s-13.718 5.8-13.718 12.5a10.819 10.819 0 0 0 1.084 4.72c2.081-2.042 6.956-3.461 12.634-3.461" transform="translate(-4.596 -43.194)" style="fill:#0093db"/>
            <path data-name="패스 19669" d="M18.405 64.6c5.664 0 10.526 1.4 12.595 3.419a10.62 10.62 0 0 0 1.081-4.677c0-6.632-6.125-12.4-13.681-12.4s-13.68 5.769-13.68 12.4a10.652 10.652 0 0 0 1.081 4.675C7.881 66 12.744 64.6 18.405 64.6" transform="translate(-4.798 -43.879)" style="fill:#0095dc"/>
            <path data-name="패스 19670" d="M18.6 65.3c5.648 0 10.5 1.4 12.565 3.391a10.467 10.467 0 0 0 1.078-4.632c0-6.568-6.107-12.3-13.644-12.3S4.958 57.489 4.958 64.058a10.49 10.49 0 0 0 1.079 4.631c2.069-2 6.919-3.391 12.565-3.391" transform="translate(-4.996 -44.566)" style="fill:#0098de"/>
            <path data-name="패스 19671" d="M18.8 66c5.633 0 10.469 1.382 12.531 3.358a10.31 10.31 0 0 0 1.075-4.587c0-6.505-6.091-12.21-13.607-12.21S5.2 58.265 5.2 64.771a10.34 10.34 0 0 0 1.075 4.587C8.337 67.381 13.173 66 18.8 66" transform="translate(-5.2 -45.252)" style="fill:#009adf"/>
            <path data-name="패스 19672" d="M19 66.7c5.618 0 10.441 1.368 12.5 3.325a10.149 10.149 0 0 0 1.073-4.542c0-6.442-6.075-12.115-13.57-12.115S5.432 59.042 5.432 65.484A10.175 10.175 0 0 0 6.5 70.026C8.563 68.069 13.386 66.7 19 66.7" transform="translate(-5.4 -45.939)" style="fill:#009de1"/>
            <path data-name="패스 19673" d="M19.2 67.4c5.6 0 10.412 1.354 12.463 3.292a9.98 9.98 0 0 0 1.07-4.5c0-6.378-6.057-12.02-13.533-12.02S5.668 59.82 5.668 66.2a10.016 10.016 0 0 0 1.07 4.5C8.79 68.757 13.6 67.4 19.2 67.4" transform="translate(-5.6 -46.625)" style="fill:#00a0e3"/>
            <path data-name="패스 19674" d="M19.4 68.1c5.586 0 10.384 1.341 12.429 3.26a9.83 9.83 0 0 0 1.071-4.45c0-6.316-6.041-11.925-13.5-11.925S5.9 60.6 5.9 66.911a9.861 9.861 0 0 0 1.067 4.452c2.047-1.919 6.844-3.26 12.43-3.26" transform="translate(-5.802 -47.311)" style="fill:#00a2e4"/>
            <path data-name="패스 19675" d="M19.6 68.809c5.571 0 10.356 1.327 12.4 3.226a9.662 9.662 0 0 0 1.064-4.408c0-6.251-6.024-11.829-13.459-11.829S6.142 61.377 6.142 67.628a9.693 9.693 0 0 0 1.063 4.407c2.041-1.9 6.825-3.226 12.4-3.226" transform="translate(-6.004 -48.001)" style="fill:#00a5e6"/>
            <path data-name="패스 19676" d="M19.8 69.509c5.556 0 10.327 1.314 12.361 3.193a9.512 9.512 0 0 0 1.061-4.363c0-6.189-6.007-11.739-13.422-11.739S6.378 62.151 6.378 68.34a9.542 9.542 0 0 0 1.061 4.36c2.036-1.88 6.807-3.193 12.361-3.193" transform="translate(-6.205 -48.686)" style="fill:#00a8e8"/>
            <path data-name="패스 19677" d="M20 70.209c5.541 0 10.3 1.3 12.327 3.16a9.35 9.35 0 0 0 1.058-4.318c0-6.126-5.99-11.641-13.385-11.641S6.612 62.926 6.612 69.051a9.393 9.393 0 0 0 1.058 4.318c2.03-1.86 6.788-3.16 12.327-3.16" transform="translate(-6.404 -49.37)" style="fill:#00abe9"/>
            <path data-name="패스 19678" d="M20.2 70.914c5.524 0 10.27 1.286 12.292 3.127a9.2 9.2 0 0 0 1.055-4.274c0-6.061-5.973-11.545-13.347-11.545S6.849 63.705 6.849 69.767A9.231 9.231 0 0 0 7.9 74.041c2.028-1.841 6.773-3.127 12.3-3.127" transform="translate(-6.605 -50.059)" style="fill:#00aeeb"/>
            <path data-name="패스 19679" d="M20.4 71.613c5.51 0 10.243 1.273 12.258 3.095a9.044 9.044 0 0 0 1.052-4.228c0-6-5.957-11.451-13.311-11.451S7.089 64.481 7.089 70.48a9.085 9.085 0 0 0 1.051 4.228c2.019-1.822 6.751-3.095 12.259-3.095" transform="translate(-6.81 -50.744)" style="fill:#0ab0ec"/>
            <path data-name="패스 19680" d="M20.6 72.313c5.495 0 10.214 1.258 12.224 3.061a8.894 8.894 0 0 0 1.046-4.184c0-5.935-5.94-11.356-13.273-11.356S7.323 65.255 7.323 71.19a8.93 8.93 0 0 0 1.049 4.184c2.013-1.8 6.732-3.061 12.225-3.061" transform="translate(-7.009 -51.428)" style="fill:#16b3ee"/>
            <path data-name="패스 19681" d="M20.7 72.98c5.487 0 10.2 1.251 12.207 3.042a8.8 8.8 0 0 0 1.049-4.156c0-5.9-5.932-11.286-13.256-11.286S7.442 65.969 7.442 71.865a8.836 8.836 0 0 0 1.047 4.156c2.011-1.79 6.723-3.041 12.211-3.041" transform="translate(-7.11 -52.06)" style="fill:#27b5ee"/>
            <path data-name="패스 19682" d="M20.8 73.647c5.48 0 10.187 1.242 12.191 3.023a8.715 8.715 0 0 0 1.047-4.13c0-5.857-5.924-11.216-13.238-11.216S7.56 66.683 7.56 72.54a8.748 8.748 0 0 0 1.046 4.13c2.008-1.78 6.713-3.022 12.192-3.023" transform="translate(-7.21 -52.693)" style="fill:#34b7ef"/>
            <path data-name="패스 19683" d="M20.9 74.314c5.472 0 10.172 1.234 12.175 3a8.618 8.618 0 0 0 1.045-4.1c0-5.818-5.916-11.145-13.22-11.145S7.684 67.395 7.684 73.213a8.658 8.658 0 0 0 1.044 4.1c2.005-1.768 6.7-3 12.176-3" transform="translate(-7.316 -53.325)" style="fill:#3fbaef"/>
            <path data-name="패스 19684" d="M21.005 74.976c5.464 0 10.158 1.226 12.159 2.983a8.544 8.544 0 0 0 1.043-4.076c0-5.78-5.909-11.077-13.2-11.077S7.8 68.1 7.8 73.884a8.563 8.563 0 0 0 1.043 4.076c2-1.756 6.7-2.983 12.16-2.983" transform="translate(-7.417 -53.952)" style="fill:#49bcf0"/>
            <path data-name="패스 19685" d="M21.107 75.642c5.458 0 10.145 1.218 12.142 2.963a8.443 8.443 0 0 0 1.042-4.048c0-5.741-5.9-11.006-13.184-11.006S7.923 68.815 7.923 74.556A8.472 8.472 0 0 0 8.964 78.6c2-1.745 6.688-2.963 12.143-2.963" transform="translate(-7.519 -54.583)" style="fill:#52bff1"/>
            <path data-name="패스 19686" d="M21.21 76.31c5.449 0 10.13 1.21 12.125 2.943a8.356 8.356 0 0 0 1.041-4.021c0-5.7-5.893-10.936-13.166-10.936S8.043 69.529 8.043 75.231a8.382 8.382 0 0 0 1.039 4.022c2-1.733 6.678-2.943 12.127-2.944" transform="translate(-7.621 -55.215)" style="fill:#5bc1f1"/>
            <path data-name="패스 19687" d="M21.313 76.976c5.442 0 10.116 1.2 12.109 2.923a8.264 8.264 0 0 0 1.039-3.994c0-5.665-5.885-10.867-13.148-10.867S8.164 70.241 8.164 75.905A8.288 8.288 0 0 0 9.2 79.9c2-1.721 6.669-2.923 12.111-2.923" transform="translate(-7.724 -55.846)" style="fill:#64c4f2"/>
            <path data-name="패스 19688" d="M21.413 77.644c5.435 0 10.1 1.194 12.092 2.9a8.177 8.177 0 0 0 1.039-3.967c0-5.626-5.877-10.8-13.13-10.8S8.282 70.955 8.282 76.58a8.2 8.2 0 0 0 1.037 3.968c1.992-1.71 6.66-2.9 12.094-2.9" transform="translate(-7.825 -56.479)" style="fill:#6cc7f3"/>
            <path data-name="패스 19689" d="M21.517 78.31c5.427 0 10.088 1.187 12.075 2.884a8.091 8.091 0 0 0 1.037-3.94c0-5.587-5.869-10.727-13.112-10.727S8.4 71.668 8.4 77.254a8.115 8.115 0 0 0 1.035 3.94c1.991-1.7 6.652-2.884 12.079-2.884" transform="translate(-7.928 -57.11)" style="fill:#74c9f3"/>
            <path data-name="패스 19690" d="M21.62 78.976c5.42 0 10.075 1.177 12.059 2.864a8 8 0 0 0 1.035-3.912c0-5.548-5.861-10.657-13.094-10.657S8.525 72.379 8.525 77.927a8.021 8.021 0 0 0 1.033 3.913c1.987-1.686 6.642-2.863 12.062-2.864" transform="translate(-8.032 -57.741)" style="fill:#7bccf4"/>
            <path data-name="패스 19691" d="M21.721 79.64c5.413 0 10.059 1.17 12.042 2.844A7.92 7.92 0 0 0 34.8 78.6c0-5.51-5.853-10.587-13.075-10.587S8.643 73.09 8.643 78.6a7.938 7.938 0 0 0 1.032 3.886c1.985-1.674 6.634-2.844 12.046-2.844" transform="translate(-8.132 -58.37)" style="fill:#83cff5"/>
            <path data-name="패스 19692" d="M21.822 80.307c5.4 0 10.045 1.162 12.025 2.824a7.827 7.827 0 0 0 1.032-3.858c0-5.471-5.846-10.517-13.057-10.517S8.762 73.8 8.762 79.273a7.843 7.843 0 0 0 1.03 3.858c1.983-1.662 6.625-2.823 12.03-2.824" transform="translate(-8.233 -59.003)" style="fill:#8ad1f5"/>
            <path data-name="패스 19693" d="M21.926 80.973c5.4 0 10.032 1.155 12.008 2.8a7.738 7.738 0 0 0 1.031-3.83c0-5.432-5.838-10.448-13.04-10.448S8.884 74.515 8.884 79.947a7.754 7.754 0 0 0 1.028 3.831c1.98-1.651 6.616-2.8 12.013-2.805" transform="translate(-8.337 -59.633)" style="fill:#91d4f6"/>
            <path data-name="패스 19694" d="M22.027 81.636c5.39 0 10.018 1.146 11.993 2.784a7.655 7.655 0 0 0 1.029-3.8c0-5.393-5.83-10.378-13.022-10.378S9 75.224 9 80.617a7.668 7.668 0 0 0 1.027 3.8c1.978-1.639 6.607-2.784 12-2.785" transform="translate(-8.439 -60.262)" style="fill:#98d6f7"/>
            <path data-name="패스 19695" d="M22.129 82.306c5.383 0 10 1.138 11.976 2.764a7.564 7.564 0 0 0 1.028-3.776c0-5.355-5.822-10.308-13-10.308S9.123 75.94 9.123 81.294a7.577 7.577 0 0 0 1.025 3.776c1.975-1.627 6.6-2.764 11.98-2.765" transform="translate(-8.54 -60.896)" style="fill:#9fd9f7"/>
            <path data-name="패스 19696" d="M22.231 82.969c5.375 0 9.99 1.13 11.96 2.744a7.487 7.487 0 0 0 1.026-3.748c0-5.317-5.814-10.239-12.985-10.239S9.243 76.65 9.243 81.966a7.492 7.492 0 0 0 1.024 3.749c1.973-1.615 6.59-2.745 11.965-2.746" transform="translate(-8.643 -61.525)" style="fill:#a6dcf8"/>
            <path data-name="패스 19697" d="M22.333 83.637c5.368 0 9.976 1.122 11.943 2.725A7.4 7.4 0 0 0 35.3 82.64c0-5.277-5.806-10.168-12.968-10.168S9.363 77.364 9.363 82.64a7.412 7.412 0 0 0 1.022 3.723c1.97-1.6 6.581-2.725 11.948-2.727" transform="translate(-8.745 -62.158)" style="fill:#acdef8"/>
            <path data-name="패스 19698" d="M22.436 84.3c5.36 0 9.962 1.113 11.926 2.7a7.317 7.317 0 0 0 1.023-3.694c0-5.239-5.8-10.1-12.95-10.1s-12.952 4.86-12.952 10.1a7.328 7.328 0 0 0 1.02 3.7c1.967-1.592 6.572-2.7 11.932-2.706" transform="translate(-8.848 -62.788)" style="fill:#b2e0f9"/>
            <path data-name="패스 19699" d="M22.537 84.965c5.353 0 9.947 1.106 11.91 2.685a7.23 7.23 0 0 0 1.022-3.667c0-5.2-5.79-10.03-12.932-10.03S9.6 78.784 9.6 83.983a7.232 7.232 0 0 0 1.02 3.669c1.964-1.581 6.563-2.685 11.915-2.686" transform="translate(-8.948 -63.416)" style="fill:#b9e3f9"/>
            <path data-name="패스 19700" d="M22.641 85.634c5.345 0 9.934 1.1 11.893 2.665a7.14 7.14 0 0 0 1.021-3.64c0-5.161-5.782-9.959-12.914-9.959S9.724 79.5 9.724 84.66a7.149 7.149 0 0 0 1.018 3.64c1.962-1.568 6.553-2.665 11.9-2.666" transform="translate(-9.052 -64.05)" style="fill:#bfe5fa"/>
            <path data-name="패스 19701" d="M22.744 86.3c5.338 0 9.92 1.09 11.876 2.646a7.062 7.062 0 0 0 1.019-3.613c0-5.123-5.774-9.889-12.9-9.889s-12.9 4.767-12.9 9.889a7.065 7.065 0 0 0 1.016 3.614c1.965-1.559 6.551-2.647 11.889-2.647" transform="translate(-9.155 -64.679)" style="fill:#c5e8fa"/>
            <path data-name="패스 19702" d="M22.844 86.966c5.331 0 9.905 1.082 11.859 2.626a6.978 6.978 0 0 0 1.018-3.585c0-5.086-5.767-9.82-12.878-9.82s-12.88 4.736-12.88 9.819a6.98 6.98 0 0 0 1.015 3.587c1.957-1.545 6.536-2.625 11.866-2.627" transform="translate(-9.255 -65.312)" style="fill:#cbeafb"/>
            <path data-name="패스 19703" d="M22.948 87.631c5.323 0 9.891 1.074 11.843 2.606a6.9 6.9 0 0 0 1.017-3.558c0-5.047-5.759-9.75-12.86-9.75s-12.863 4.7-12.863 9.75a6.9 6.9 0 0 0 1.015 3.56c1.954-1.533 6.527-2.605 11.85-2.607" transform="translate(-9.359 -65.942)" style="fill:#d1edfb"/>
            <path data-name="패스 19704" d="M23.047 88.3c5.316 0 9.878 1.066 11.827 2.587a6.809 6.809 0 0 0 1.015-3.531c0-5.007-5.751-9.68-12.842-9.68S10.2 82.347 10.2 87.354a6.812 6.812 0 0 0 1.012 3.532c1.952-1.521 6.518-2.586 11.834-2.587" transform="translate(-9.459 -66.574)" style="fill:#d7effc"/>
            <path data-name="패스 19705" d="M23.15 88.964c5.308 0 9.864 1.058 11.811 2.567a6.738 6.738 0 0 0 1.014-3.5c0-4.969-5.743-9.61-12.824-9.61s-12.828 4.642-12.828 9.609a6.735 6.735 0 0 0 1.01 3.506c1.949-1.51 6.51-2.566 11.817-2.568" transform="translate(-9.561 -67.205)" style="fill:#ddf2fc"/>
            <path data-name="패스 19706" d="M23.252 89.628c5.3 0 9.849 1.05 11.794 2.548a6.658 6.658 0 0 0 1.012-3.476c0-4.931-5.735-9.541-12.806-9.541s-12.81 4.611-12.81 9.54a6.649 6.649 0 0 0 1.009 3.478c1.946-1.5 6.5-2.546 11.8-2.548" transform="translate(-9.663 -67.834)" style="fill:#e3f4fd"/>
            <path data-name="패스 19707" d="M23.355 90.3c5.294 0 9.836 1.042 11.777 2.527a6.572 6.572 0 0 0 1.011-3.45c0-4.891-5.727-9.47-12.788-9.47s-12.792 4.58-12.792 9.47a6.574 6.574 0 0 0 1.007 3.451c1.944-1.487 6.491-2.526 11.785-2.528" transform="translate(-9.766 -68.466)" style="fill:#e9f6fd"/>
            <path data-name="패스 19708" d="M23.457 90.962c5.287 0 9.822 1.035 11.76 2.508a6.49 6.49 0 0 0 1.009-3.423c0-4.852-5.72-9.4-12.77-9.4s-12.774 4.549-12.774 9.4a6.483 6.483 0 0 0 1.005 3.423c1.943-1.47 6.484-2.506 11.77-2.508" transform="translate(-9.868 -69.098)" style="fill:#eff8fe"/>
            <path data-name="패스 19709" d="M23.561 91.628c5.278 0 9.808 1.026 11.744 2.488a6.412 6.412 0 0 0 1.008-3.4c0-4.814-5.712-9.33-12.752-9.33s-12.756 4.518-12.756 9.33a6.4 6.4 0 0 0 1 3.4c1.939-1.463 6.473-2.486 11.752-2.488" transform="translate(-9.972 -69.729)" style="fill:#f5fbfe"/>
            <path data-name="패스 19710" d="M23.663 92.294c5.271 0 9.793 1.018 11.727 2.468a6.334 6.334 0 0 0 1.01-3.368c0-4.775-5.7-9.261-12.735-9.261s-12.738 4.487-12.738 9.26a6.321 6.321 0 0 0 1 3.37c1.937-1.451 6.465-2.466 11.736-2.468" transform="translate(-10.074 -70.36)" style="fill:#fafdff"/>
            <path data-name="패스 19711" d="M23.764 92.957c5.264 0 9.78 1.01 11.711 2.448a6.251 6.251 0 0 0 1-3.341c0-4.737-5.7-9.191-12.716-9.191s-12.72 4.456-12.72 9.191a6.247 6.247 0 0 0 1 3.343c1.934-1.44 6.456-2.447 11.719-2.45" transform="translate(-10.175 -70.988)" style="fill:#fff"/>
        </g>
    </g>
    <g data-name="그룹 103534">
        <g data-name="그룹 103533" style="clip-path:url(#ta5aosyuca)" transform="translate(5.5 5.5)">
            <path data-name="패스 19713" d="M25.594 118.34a35.624 35.624 0 0 0-12.478 2.138 13.6 13.6 0 0 0 24.962 0 35.661 35.661 0 0 0-12.484-2.138" transform="translate(-11.15 -100.403)" style="fill:#006abd"/>
        </g>
    </g>
</svg>
