<svg xmlns="http://www.w3.org/2000/svg" width="100" height="100" viewBox="0 0 100 100">
    <defs>
        <clipPath id="zy0uzxtfaa">
            <circle data-name="타원 568" cx="50" cy="50" r="50" transform="translate(632 265)" style="fill:#ecdbc3"/>
        </clipPath>
    </defs>
    <g data-name="그룹 103663" transform="translate(-632 -265)">
        <circle data-name="타원 562" cx="50" cy="50" r="50" transform="translate(632 265)" style="fill:#dfe3f7"/>
        <path data-name="패스 19637" d="M664.333 300.333 684 284l20 11.333 20.333-25" transform="translate(-12 7)" style="opacity:.1;stroke:#000;stroke-width:3px;fill:none"/>
        <g data-name="타원 564" transform="translate(648 303)" style="stroke:#fff;stroke-width:2px;fill:#ff8b8b">
            <circle cx="4" cy="4" r="4" style="stroke:none"/>
            <circle cx="4" cy="4" r="5" style="fill:none"/>
        </g>
        <g data-name="타원 565" transform="translate(668 287)" style="fill:#4f667e;stroke:#fff;stroke-width:2px">
            <circle cx="4" cy="4" r="4" style="stroke:none"/>
            <circle cx="4" cy="4" r="5" style="fill:none"/>
        </g>
        <g data-name="타원 566" transform="translate(688 298)" style="fill:#31afaf;stroke:#fff;stroke-width:2px">
            <circle cx="4" cy="4" r="4" style="stroke:none"/>
            <circle cx="4" cy="4" r="5" style="fill:none"/>
        </g>
        <g data-name="타원 567" transform="translate(706 271)" style="fill:#fb0;stroke:#fff;stroke-width:2px">
            <circle cx="6" cy="6" r="6" style="stroke:none"/>
            <circle cx="6" cy="6" r="5" style="fill:none"/>
        </g>
    </g>
    <g data-name="마스크 그룹 103623" style="clip-path:url(#zy0uzxtfaa)" transform="translate(-632 -265)">
        <g data-name="그룹 103662" transform="translate(-10 8)">
            <rect data-name="사각형 16537" width="20" height="53" rx="4" transform="translate(672 307)" style="fill:#466888"/>
            <rect data-name="사각형 16538" width="20" height="53" rx="4" transform="translate(692 318)" style="fill:#31afaf"/>
            <rect data-name="사각형 16539" width="20" height="65" rx="4" transform="translate(712 295)" style="fill:#fb0"/>
            <rect data-name="사각형 16540" width="20" height="73" rx="4" transform="translate(652 323)" style="fill:#ff8b8b"/>
            <path data-name="사각형 16549" d="M0 0h6a4 4 0 0 1 4 4v65a4 4 0 0 1-4 4H4a4 4 0 0 1-4-4V0z" transform="translate(662 323)" style="opacity:.1"/>
            <path data-name="사각형 16550" d="M0 0h6a4 4 0 0 1 4 4v65a4 4 0 0 1-4 4H4a4 4 0 0 1-4-4V0z" transform="translate(682 307)" style="opacity:.1"/>
            <path data-name="사각형 16551" d="M0 0h6a4 4 0 0 1 4 4v65a4 4 0 0 1-4 4H4a4 4 0 0 1-4-4V0z" transform="translate(702 318)" style="opacity:.1"/>
            <path data-name="사각형 16552" d="M0 0h6a4 4 0 0 1 4 4v65a4 4 0 0 1-4 4H4a4 4 0 0 1-4-4V0z" transform="translate(722 295)" style="opacity:.1"/>
        </g>
    </g>
</svg>
