<svg width="64" height="64" viewBox="0 0 64 64" fill="none" xmlns="http://www.w3.org/2000/svg">
<path d="M13.5992 41.6H24.7992V59.2H10.3992C9.55053 59.2 8.73659 58.8628 8.13648 58.2627C7.53636 57.6626 7.19922 56.8487 7.19922 56V48C7.19922 46.3026 7.8735 44.6747 9.07374 43.4745C10.274 42.2743 11.9018 41.6 13.5992 41.6Z" fill="white"/>
<path d="M13.6 42.4H24V58.4H10.4C9.76348 58.4 9.15303 58.1472 8.70294 57.6971C8.25286 57.247 8 56.6365 8 56V48C8 46.5148 8.59 45.0904 9.6402 44.0402C10.6904 42.99 12.1148 42.4 13.6 42.4Z" stroke="#111111" stroke-width="2"/>
<path d="M29.5992 31.2001H40.7992V59.2001H23.1992V37.6001C23.1992 35.9027 23.8735 34.2748 25.0737 33.0746C26.274 31.8744 27.9018 31.2001 29.5992 31.2001Z" fill="white"/>
<path d="M29.6 32.0001H40V58.4001H24V37.6001C24 36.1149 24.59 34.6905 25.6402 33.6403C26.6904 32.5901 28.1148 32.0001 29.6 32.0001Z" stroke="#111111" stroke-width="2"/>
<path d="M45.5992 18.4H50.3992C52.0966 18.4 53.7245 19.0743 54.9247 20.2745C56.1249 21.4748 56.7992 23.1026 56.7992 24.8V56C56.7992 56.8487 56.4621 57.6627 55.862 58.2628C55.2618 58.8629 54.4479 59.2 53.5992 59.2H39.1992V24.8C39.1992 23.1026 39.8735 21.4748 41.0737 20.2745C42.274 19.0743 43.9018 18.4 45.5992 18.4Z" fill="#EFF8F5"/>
<path d="M45.6 19.2001H50.4C51.8852 19.2001 53.3096 19.7901 54.3598 20.8403C55.41 21.8905 56 23.3149 56 24.8001V56.0001C56 56.6366 55.7471 57.247 55.2971 57.6971C54.847 58.1472 54.2365 58.4001 53.6 58.4001H40V24.8001C40 23.3149 40.59 21.8905 41.6402 20.8403C42.6904 19.7901 44.1148 19.2001 45.6 19.2001Z" stroke="#111111" stroke-width="2"/>
<path d="M13.1992 26.4L27.936 15.9944C28.0559 15.9098 28.2017 15.87 28.3479 15.882C28.4942 15.894 28.6315 15.957 28.736 16.06L32.0848 19.3616C32.1907 19.4656 32.33 19.5286 32.478 19.5394C32.6259 19.5503 32.7729 19.5082 32.8928 19.4208L50.6992 6.40002H39.9408" stroke="#111111" stroke-width="2" stroke-linecap="round" stroke-linejoin="round"/>
</svg>
