<svg xmlns="http://www.w3.org/2000/svg" width="80" height="80" viewBox="0 0 80 80">
    <g data-name="사각형 16462" transform="translate(13 12)" style="stroke:#111;stroke-width:2px;fill:#fff">
        <rect width="51" height="58" rx="8" style="stroke:none"/>
        <rect x="1" y="1" width="49" height="56" rx="7" style="fill:none"/>
    </g>
    <g data-name="사각형 16459" transform="translate(25 7)" style="stroke:#111;stroke-width:2px;fill:#fff">
        <rect width="27" height="12" rx="4" style="stroke:none"/>
        <rect x="1" y="1" width="25" height="10" rx="3" style="fill:none"/>
    </g>
    <g data-name="그룹 103746" transform="translate(-175.543 -97.293)">
        <g data-name="타원 557" transform="translate(198.543 127.793)" style="stroke:#111;stroke-width:2px;fill:#fff">
            <circle cx="1.75" cy="1.75" r="1.75" style="stroke:none"/>
            <circle cx="1.75" cy="1.75" r=".75" style="fill:none"/>
        </g>
        <rect data-name="사각형 16460" width="18" height="2" rx="1" transform="translate(206.043 128.543)" style="fill:#111"/>
    </g>
    <g data-name="그룹 103747" transform="translate(-175.543 -97.543)">
        <g data-name="타원 556" transform="translate(198.543 139.543)" style="stroke:#111;stroke-width:2px;fill:#fff">
            <circle cx="1.75" cy="1.75" r="1.75" style="stroke:none"/>
            <circle cx="1.75" cy="1.75" r=".75" style="fill:none"/>
        </g>
        <rect data-name="사각형 16461" width="14" height="2" rx="1" transform="translate(206.043 140.293)" style="fill:#111"/>
    </g>
    <path d="m459.873 336.637-.4.421a.991.991 0 0 1-1.448 0l-.4-.421c-4.414-4.658-12.481-1.44-12.116 5.01a7.355 7.355 0 0 0 1.991 4.653l1.607 1.7 4.823 5.089 2 2.113a3.853 3.853 0 0 0 5.641 0L470 346.3a7.355 7.355 0 0 0 1.986-4.657c.368-6.443-7.699-9.664-12.113-5.006z" transform="translate(-399.5 -283.432)" style="fill:#c8f7f4;stroke:#111;stroke-width:2px"/>
</svg>
