<svg xmlns="http://www.w3.org/2000/svg" width="24" height="24" viewBox="0 0 24 24">
    <path data-name="패스 19495" d="M12.5 14.71V4.386a.338.338 0 0 0-.1-.241L8.829.6a.344.344 0 0 0-.242-.1h-7.4a.683.683 0 0 0-.687.681v14.638a.683.683 0 0 0 .686.681h10.628a.683.683 0 0 0 .686-.681v-1.011" transform="translate(5.5 3.5)" style="stroke-linecap:round;fill:none;stroke:#000"/>
    <path data-name="패스 19496" d="M24.5.5v3.636a.364.364 0 0 0 .364.364h3.462" transform="translate(-10.326 3.5)" style="fill:none;stroke:#000"/>
</svg>
