<svg xmlns="http://www.w3.org/2000/svg" width="80" height="80" viewBox="0 0 80 80">
    <g data-name="그룹 103739">
        <g data-name="사각형 16463" style="stroke:#111;stroke-width:2px;fill:#fff">
            <path d="M8 0h14v22H4a4 4 0 0 1-4-4V8a8 8 0 0 1 8-8z" style="stroke:none" transform="translate(9 52)"/>
            <path d="M8 1h13v20H4a3 3 0 0 1-3-3V8a7 7 0 0 1 7-7z" style="fill:none" transform="translate(9 52)"/>
        </g>
        <g data-name="사각형 16464" style="stroke:#111;stroke-width:2px;fill:#fff">
            <path d="M8 0h14v35H0V8a8 8 0 0 1 8-8z" style="stroke:none" transform="translate(29 39)"/>
            <path d="M8 1h13v33H1V8a7 7 0 0 1 7-7z" style="fill:none" transform="translate(29 39)"/>
        </g>
        <g data-name="사각형 16465" style="fill:#c8f7f4;stroke:#111;stroke-width:2px">
            <path d="M8 0h6a8 8 0 0 1 8 8v39a4 4 0 0 1-4 4H0V8a8 8 0 0 1 8-8z" style="stroke:none" transform="translate(49 23)"/>
            <path d="M8 1h6a7 7 0 0 1 7 7v39a3 3 0 0 1-3 3H1V8a7 7 0 0 1 7-7z" style="fill:none" transform="translate(49 23)"/>
        </g>
        <path d="m380.713 656.5 18.421-13.007a.782.782 0 0 1 1 .082l4.186 4.127a.783.783 0 0 0 1.01.074l22.258-16.276H414.14" transform="translate(-364.213 -623.5)" style="stroke-linecap:round;stroke-linejoin:round;fill:none;stroke:#111;stroke-width:2px"/>
    </g>
</svg>
