<svg xmlns="http://www.w3.org/2000/svg" width="64" height="64" viewBox="0 0 64 64">
    <path data-name="사각형 782" d="M30 0h4a30 30 0 0 1 30 30v24.545A5.455 5.455 0 0 1 58.545 60H30A30 30 0 0 1 0 30 30 30 0 0 1 30 0z" transform="translate(0 2)" style="fill:#def5f6"/>
    <g data-name="그룹 5921">
        <g data-name="그룹 5909">
            <path data-name="사각형 15589" d="M2.96 0h18.561a2.961 2.961 0 0 1 2.961 2.961V34.98a2.96 2.96 0 0 1-2.96 2.96H2.961A2.961 2.961 0 0 1 0 34.979V2.96A2.96 2.96 0 0 1 2.96 0z" transform="translate(19.96 13.344)" style="fill:#8fdae2"/>
            <path data-name="패스 19445" d="M459.059 144.621h-20.4a2.389 2.389 0 0 1-2.386-2.386v-33.859a2.389 2.389 0 0 1 2.386-2.385h20.4a2.388 2.388 0 0 1 2.386 2.385v33.859a2.388 2.388 0 0 1-2.386 2.386zm-20.4-37.94a1.7 1.7 0 0 0-1.7 1.7v33.859a1.7 1.7 0 0 0 1.7 1.7h20.4a1.7 1.7 0 0 0 1.7-1.7v-33.864a1.7 1.7 0 0 0-1.7-1.7z" transform="translate(-416.659 -92.991)" style="fill:#3c2163"/>
        </g>
        <g data-name="그룹 5910">
            <path data-name="사각형 15590" d="M2.96 0h18.561a2.961 2.961 0 0 1 2.961 2.961V34.98a2.96 2.96 0 0 1-2.96 2.96H2.961A2.961 2.961 0 0 1 0 34.979V2.96A2.96 2.96 0 0 1 2.96 0z" transform="translate(17.891 13.344)" style="fill:#fff"/>
            <path data-name="패스 19446" d="M456.059 144.621h-20.4a2.389 2.389 0 0 1-2.386-2.386v-33.859a2.389 2.389 0 0 1 2.386-2.385h20.4a2.388 2.388 0 0 1 2.386 2.385v33.859a2.388 2.388 0 0 1-2.386 2.386zm-20.4-37.94a1.7 1.7 0 0 0-1.7 1.7v33.859a1.7 1.7 0 0 0 1.7 1.7h20.4a1.7 1.7 0 0 0 1.7-1.7v-33.864a1.7 1.7 0 0 0-1.7-1.7z" transform="translate(-415.728 -92.991)" style="fill:#3c2163"/>
        </g>
        <g data-name="그룹 5911">
            <path data-name="사각형 15591" transform="translate(19.557 16.26)" style="fill:#ed1651" d="M0 0h21.196v31.209H0z"/>
            <path data-name="패스 19447" d="M457.576 142.118H435.69v-31.9h21.886zm-21.2-.689h20.507v-30.52h-20.504z" transform="translate(-416.478 -94.304)" style="fill:#3c2163"/>
        </g>
        <g data-name="그룹 5913">
            <g data-name="그룹 5912">
                <path data-name="패스 19448" d="M455.277 124.1a.283.283 0 0 1-.283-.283v-1.605a5.792 5.792 0 0 0-11.571 0 .284.284 0 0 1-.567 0 6.358 6.358 0 0 1 12.7 0v1.605a.284.284 0 0 1-.279.283z" transform="translate(-418.704 -96.138)" style="fill:#fff"/>
                <path data-name="패스 19449" d="M443.31 124.685a.284.284 0 0 1 0-.567 1.731 1.731 0 0 0 1.58-1.266c.064-.364.9-4.545 5.028-4.138a4.309 4.309 0 0 1 4.021 4.48.285.285 0 0 1-.285.282.284.284 0 0 1-.283-.285 3.691 3.691 0 0 0-3.5-3.912c-3.778-.371-4.4 3.515-4.427 3.68a.341.341 0 0 1-.01.044 2.309 2.309 0 0 1-2.124 1.682z" transform="translate(-418.756 -96.933)" style="fill:#fff"/>
                <path data-name="패스 19450" d="M443.124 127.195a.283.283 0 0 1-.007-.566c.023 0 2.373-.075 3.138-1.589a9.6 9.6 0 0 0 .772-1.66c0-.009.007-.017.01-.027a2.391 2.391 0 0 1 2.833-1.549.284.284 0 0 1-.16.545c-1.414-.416-2.075 1.047-2.143 1.205a10 10 0 0 1-.813 1.758c-.912 1.8-3.514 1.881-3.623 1.883z" transform="translate(-418.699 -97.871)" style="fill:#fff"/>
                <path data-name="패스 19451" d="M444.168 132.844a.284.284 0 0 1-.02-.567 8.492 8.492 0 0 0 7.688-5.557c.661-2.27-.474-3.075-.485-3.082a.283.283 0 1 1 .319-.468c.061.041 1.484 1.048.708 3.714a9.208 9.208 0 0 1-8.192 5.96z" transform="translate(-419.023 -98.31)" style="fill:#fff"/>
                <path data-name="패스 19452" d="M445.336 136.039a.284.284 0 0 1-.043-.564 9.937 9.937 0 0 0 8.707-7.789.284.284 0 0 1 .561.094 10.678 10.678 0 0 1-9.185 8.256.209.209 0 0 1-.04.003z" transform="translate(-419.385 -99.654)" style="fill:#fff"/>
                <path data-name="패스 19453" d="M456.217 134.866a.284.284 0 0 1-.169-.512c2.164-1.6 3-5.269 3.013-5.305a.283.283 0 1 1 .553.123c-.035.16-.893 3.908-3.229 5.638a.277.277 0 0 1-.168.056z" transform="translate(-422.764 -100.082)" style="fill:#fff"/>
                <path data-name="패스 19454" d="M447.6 140.642a.283.283 0 0 1-.02-.565 12.182 12.182 0 0 0 4.442-1.666.284.284 0 1 1 .3.481 12.532 12.532 0 0 1-4.7 1.749z" transform="translate(-420.09 -103.044)" style="fill:#fff"/>
                <path data-name="패스 19455" d="M451.254 140.35a.284.284 0 0 1-.016-.567 7.269 7.269 0 0 0 3.278-1.1c2.74-1.738 3-3.773 3-3.793a.283.283 0 1 1 .563.063c-.01.094-.292 2.326-3.251 4.2a7.763 7.763 0 0 1-3.556 1.194z" transform="translate(-421.223 -101.886)" style="fill:#fff"/>
                <path data-name="패스 19456" d="M443.334 129.609h-.2a.284.284 0 0 1 .007-.567h.006a5.592 5.592 0 0 0 5.782-4.573.284.284 0 1 1 .559.1 6.249 6.249 0 0 1-6.154 5.04z" transform="translate(-418.704 -98.655)" style="fill:#fff"/>
                <path data-name="패스 19457" d="M443.693 132.05a.283.283 0 0 1-.007-.567 7.128 7.128 0 0 0 6.654-5.015.284.284 0 1 1 .547.148 7.714 7.714 0 0 1-7.188 5.434z" transform="translate(-418.875 -99.284)" style="fill:#fff"/>
            </g>
        </g>
        <g data-name="그룹 5914">
            <path data-name="패스 19458" d="M471.464 150.17a8.409 8.409 0 1 1-8.41-8.409 8.41 8.41 0 0 1 8.41 8.409z" transform="translate(-422.364 -104.097)" style="fill:#ea348b"/>
            <path data-name="패스 19459" d="M462.9 158.769a8.754 8.754 0 1 1 8.755-8.754 8.764 8.764 0 0 1-8.755 8.754zm0-16.818a8.064 8.064 0 1 0 8.065 8.064 8.074 8.074 0 0 0-8.065-8.064z" transform="translate(-422.209 -103.942)" style="fill:#3c2163"/>
        </g>
        <g data-name="그룹 5915">
            <path data-name="사각형 15592" transform="translate(31.924 50.014)" style="fill:#7452c6" d="M0 0h4.678v1.836H0z"/>
            <path data-name="패스 19460" d="M458.649 161.7h-4.678a.344.344 0 0 1-.345-.345v-1.836a.345.345 0 0 1 .345-.345h4.678a.345.345 0 0 1 .345.345v1.836a.344.344 0 0 1-.345.345zm-4.334-.689h3.985v-1.147h-3.989z" transform="translate(-422.047 -109.504)" style="fill:#3c2163"/>
        </g>
        <g data-name="그룹 5916">
            <path data-name="패스 19461" d="M468.85 150.17a8.409 8.409 0 1 1-8.409-8.409 8.409 8.409 0 0 1 8.409 8.409z" transform="translate(-421.552 -104.097)" style="fill:#8fdae2"/>
            <path data-name="패스 19462" d="M460.285 158.769a8.754 8.754 0 1 1 8.754-8.754 8.764 8.764 0 0 1-8.754 8.754zm0-16.818a8.064 8.064 0 1 0 8.064 8.064 8.073 8.073 0 0 0-8.064-8.064z" transform="translate(-421.397 -103.942)" style="fill:#3c2163"/>
        </g>
        <g data-name="그룹 5920">
            <g data-name="그룹 5917">
                <path data-name="패스 19463" d="M465.509 151.09a.365.365 0 0 1-.365-.367v-1.088a2.268 2.268 0 0 0-4.536 0v1.088a.366.366 0 1 1-.732 0v-1.088a3 3 0 0 1 6 0v1.088a.366.366 0 0 1-.367.367z" transform="translate(-423.987 -105.611)" style="fill:#fff"/>
                <path data-name="패스 19464" d="M465.393 151.232a.625.625 0 0 1-.624-.625v-1.088a2.009 2.009 0 0 0-4.018 0v1.088a.625.625 0 1 1-1.249 0v-1.088a3.259 3.259 0 0 1 6.517 0v1.088a.626.626 0 0 1-.626.625zm-2.633-4.238a2.529 2.529 0 0 1 2.526 2.524v1.088c0 .122.214.121.215 0v-1.088a2.741 2.741 0 0 0-5.483 0v1.088c0 .121.214.122.215 0v-1.088a2.529 2.529 0 0 1 2.527-2.524z" transform="translate(-423.871 -105.495)" style="fill:#3c2163"/>
            </g>
            <g data-name="그룹 5918">
                <path data-name="패스 19465" d="M458.856 152.541a4.056 4.056 0 1 0 7.092 0z" transform="translate(-423.512 -107.444)" style="fill:#f7d979"/>
                <path data-name="패스 19466" d="M462.285 158.707a4.314 4.314 0 0 1-3.771-6.409.258.258 0 0 1 .225-.132h7.092a.258.258 0 0 1 .225.132 4.313 4.313 0 0 1-3.772 6.409zm-3.39-6.024a3.8 3.8 0 1 0 6.781 0z" transform="translate(-423.396 -107.328)" style="fill:#3c2163"/>
            </g>
            <g data-name="그룹 5919">
                <path data-name="패스 19467" d="M463.192 156.155a.813.813 0 1 0 1.042-.774V154.2h-.472v1.185a.814.814 0 0 0-.57.77z" transform="translate(-425.017 -107.959)" style="fill:#fff"/>
                <path data-name="패스 19468" d="M463.889 157.11a1.069 1.069 0 0 1-.5-2.013v-1.273h.989v1.266a1.068 1.068 0 0 1-.487 2.02zm-.01-1.647-.156.05a.552.552 0 1 0 .719.525.546.546 0 0 0-.4-.526z" transform="translate(-424.901 -107.843)" style="fill:#3c2163"/>
            </g>
        </g>
    </g>
</svg>
