<svg xmlns="http://www.w3.org/2000/svg" width="32" height="32" viewBox="0 0 32 32">
    <path data-name="사각형 16501" style="fill:none" d="M0 0h32v32H0z"/>
    <g data-name="그룹 103633">
        <path data-name="패스 19619" d="M708 488h-1.5a3.57 3.57 0 0 1-3.5-3.636v-10.909a5.356 5.356 0 0 1 5.25-5.455h3.5a5.356 5.356 0 0 1 5.25 5.455v5.909" style="stroke:#000111;stroke-linecap:round;stroke-linejoin:round;stroke-width:2px;fill:none" transform="translate(-698 -463)"/>
        <g data-name="사각형 16507" style="stroke:#000111;stroke-linecap:round;stroke-linejoin:round;stroke-width:2px;fill:none">
            <path d="M3 0h3v8H3a3 3 0 0 1-3-3V3a3 3 0 0 1 3-3z" style="stroke:none" transform="translate(0 12)"/>
            <path d="M3 1h2v6h0-2a2 2 0 0 1-2-2V3a2 2 0 0 1 2-2z" style="fill:none" transform="translate(0 12)"/>
        </g>
        <g data-name="사각형 16508" style="stroke:#000111;stroke-linecap:round;stroke-linejoin:round;stroke-width:2px;fill:none">
            <path d="M3 0h1a2 2 0 0 1 2 2v6H3a3 3 0 0 1-3-3V3a3 3 0 0 1 3-3z" style="stroke:none" transform="rotate(180 12 10)"/>
            <path d="M3 1h1a1 1 0 0 1 1 1v5h0-2a2 2 0 0 1-2-2V3a2 2 0 0 1 2-2z" style="fill:none" transform="rotate(180 12 10)"/>
        </g>
        <g data-name="타원 552" transform="translate(9 22)" style="stroke:#000111;stroke-linecap:round;stroke-linejoin:round;stroke-width:2px;fill:none">
            <circle cx="3" cy="3" r="3" style="stroke:none"/>
            <circle cx="3" cy="3" r="2" style="fill:none"/>
        </g>
    </g>
</svg>
