<svg xmlns="http://www.w3.org/2000/svg" width="80" height="80" viewBox="0 0 80 80">
    <g data-name="pig">
        <path data-name="패스 19722" d="M67.612 24.413a21.007 21.007 0 0 1-9.547 18.477 2.13 2.13 0 0 0-1.033 1.837v8.345a2.128 2.128 0 0 1-2.116 2.141h-9.524a2.129 2.129 0 0 1-2.116-2.141V48.79a1.064 1.064 0 0 0-1.058-1.07H31.652a1.065 1.065 0 0 0-1.058 1.07v4.282a2.128 2.128 0 0 1-2.116 2.141h-9.524a2.129 2.129 0 0 1-2.116-2.141v-7.678a2.05 2.05 0 0 0-.731-1.414 30.178 30.178 0 0 1-3.62-3.452c-1.9-2.121-1.794-3.951-2.3-4.675a1.956 1.956 0 0 0-1.634-.979H5.116A2.129 2.129 0 0 1 3 32.733v-8.62a2.129 2.129 0 0 1 2.116-2.141h2.263a2.106 2.106 0 0 0 1.5-.626 21.275 21.275 0 0 1 2.17-3.724 13.5 13.5 0 0 1 2.969-2.545 2.678 2.678 0 0 0 .62-1.514V3.144a2.117 2.117 0 0 1 3.122-1.882l8.6 4.711h19.47a23.945 23.945 0 0 1 12.331 3.278c4.577 2.743 9.028 6.331 9.451 15.162z" transform="translate(1.447 13.789)" style="stroke-width:2px;stroke:#201d1d;stroke-miterlimit:10;fill:#fff"/>
        <path data-name="패스 19723" d="M2.28 0a5.668 5.668 0 0 1 1.527 1.1 4.654 4.654 0 0 1 1.3 4.267A5.412 5.412 0 0 1 0 9.383" transform="rotate(8 -182.369 518.518)" style="stroke-linecap:round;fill:none;stroke-width:2px;stroke:#201d1d;stroke-miterlimit:10"/>
        <g data-name="타원 567" transform="translate(20.199 35.828)" style="stroke:#111;fill:#111">
            <circle cx="2.162" cy="2.162" r="2.162" style="stroke:none"/>
            <circle cx="2.162" cy="2.162" r="1.662" style="fill:none"/>
        </g>
    </g>
    <g data-name="타원 552" transform="translate(28.348 6)" style="fill:#c8f7f4;stroke:#111;stroke-width:2px">
        <circle cx="14" cy="14" r="14" style="stroke:none"/>
        <circle cx="14" cy="14" r="13" style="fill:none"/>
    </g>
    <path data-name="패스 19704" d="m322.5 638 2.5 6.5 2.5-6.5 2.5 6.5 2.5-6.5" transform="translate(-285.152 -621.249)" style="stroke-linejoin:round;stroke:#111;stroke-linecap:round;fill:none;stroke-width:2px"/>
    <path data-name="선 277" transform="translate(36.348 19.751)" style="stroke:#111;stroke-linecap:round;fill:none;stroke-width:2px" d="M0 0h2"/>
    <path data-name="선 280" transform="translate(46.348 19.751)" style="stroke:#111;stroke-linecap:round;fill:none;stroke-width:2px" d="M0 0h2"/>
</svg>
