<svg xmlns="http://www.w3.org/2000/svg" width="24" height="24" viewBox="0 0 24 24">
    <path data-name="패스 19495" d="M16.5 19.151V5.6a.441.441 0 0 0-.134-.316L11.605.631A.462.462 0 0 0 11.282.5H1.414a.9.9 0 0 0-.914.894v19.212a.9.9 0 0 0 .914.894h14.172a.9.9 0 0 0 .914-.894v-1.327" transform="translate(4 1)" style="stroke-linecap:round;fill:none;stroke:#000"/>
    <path data-name="패스 19496" d="M24.5.947v4.369a.5.5 0 0 0 .507.485h4.533" transform="translate(-9.063 .763)" style="fill:none;stroke:#000"/>
</svg>
