<svg width="64" height="64" viewBox="0 0 64 64" fill="none" xmlns="http://www.w3.org/2000/svg">
<path d="M55.2463 30.5616C55.3657 33.4764 54.7243 36.3722 53.3851 38.9639C52.0459 41.5557 50.0552 43.7542 47.6087 45.3432C47.3553 45.4954 47.1459 45.711 47.001 45.9686C46.8561 46.2263 46.7807 46.5172 46.7823 46.8128V53.4888C46.7836 53.7124 46.7409 53.9342 46.6566 54.1413C46.5723 54.3484 46.4479 54.5369 46.2907 54.6959C46.1335 54.855 45.9465 54.9815 45.7404 55.0683C45.5343 55.1551 45.3131 55.2004 45.0895 55.2016H37.4703C37.0187 55.1989 36.5867 55.0169 36.2692 54.6957C35.9518 54.3745 35.7749 53.9404 35.7775 53.4888V50.0632C35.7781 49.9514 35.7567 49.8406 35.7145 49.7371C35.6723 49.6336 35.6102 49.5394 35.5316 49.4599C35.453 49.3804 35.3595 49.3172 35.2564 49.2738C35.1534 49.2305 35.0428 49.2078 34.9311 49.2072H26.4783C26.2526 49.2087 26.0367 49.2997 25.878 49.4601C25.7193 49.6206 25.6308 49.8375 25.6319 50.0632V53.4888C25.6332 53.7124 25.5905 53.9342 25.5062 54.1413C25.4219 54.3484 25.2975 54.5369 25.1403 54.6959C24.9831 54.855 24.7961 54.9815 24.59 55.0683C24.3839 55.1551 24.1627 55.2004 23.9391 55.2016H16.3199C15.8683 55.1989 15.4363 55.0169 15.1188 54.6957C14.8014 54.3745 14.6245 53.9404 14.6271 53.4888V47.3464C14.6099 47.1284 14.5494 46.916 14.4489 46.7217C14.3485 46.5275 14.2102 46.3553 14.0423 46.2152C13.0022 45.3764 12.0335 44.4527 11.1463 43.4536C9.62627 41.7568 9.71107 40.2928 9.30627 39.7136C9.17318 39.4825 8.98323 39.2892 8.75445 39.1521C8.52566 39.0151 8.26564 38.9387 7.99907 38.9304H5.24947C4.79789 38.9277 4.36588 38.7457 4.04844 38.4245C3.731 38.1033 3.55411 37.6692 3.55667 37.2176V30.3216C3.55411 29.87 3.731 29.4359 4.04844 29.1147C4.36588 28.7935 4.79789 28.6116 5.24947 28.6088H7.05987C7.28309 28.609 7.50413 28.5648 7.71013 28.4788C7.91613 28.3929 8.103 28.2668 8.25987 28.108C8.73619 27.0587 9.31784 26.0606 9.99587 25.1288C10.6846 24.3385 11.4847 23.6526 12.3711 23.0928C12.6587 22.7507 12.8321 22.3272 12.8671 21.8816V13.5464C12.8645 13.252 12.9386 12.962 13.0823 12.705C13.2259 12.448 13.4341 12.2329 13.6862 12.0809C13.9384 11.9289 14.2258 11.8453 14.5201 11.8383C14.8145 11.8312 15.1055 11.901 15.3647 12.0408L22.2447 15.8096H37.8207C41.2856 15.7754 44.6949 16.6818 47.6855 18.432C51.3471 20.6264 54.9079 23.4968 55.2463 30.5616Z" fill="white" stroke="#201D1D" stroke-width="2" stroke-miterlimit="10"/>
<path d="M58.1168 24.5955C58.5347 24.8797 58.9022 25.2317 59.204 25.637C59.5843 26.1311 59.8343 26.7128 59.9313 27.3287C60.0282 27.9447 59.9689 28.5751 59.7588 29.1621C59.3936 30.0252 58.7582 30.7466 57.948 31.2177C57.1379 31.6889 56.1967 31.8845 55.2659 31.775" stroke="#201D1D" stroke-width="2" stroke-miterlimit="10" stroke-linecap="round"/>
<path d="M17.8878 32.1216C18.843 32.1216 19.6174 31.3472 19.6174 30.392C19.6174 29.4367 18.843 28.6624 17.8878 28.6624C16.9326 28.6624 16.1582 29.4367 16.1582 30.392C16.1582 31.3472 16.9326 32.1216 17.8878 32.1216Z" fill="#111111"/>
<path d="M17.8882 31.7216C18.6225 31.7216 19.2178 31.1263 19.2178 30.392C19.2178 29.6577 18.6225 29.0624 17.8882 29.0624C17.1539 29.0624 16.5586 29.6577 16.5586 30.392C16.5586 31.1263 17.1539 31.7216 17.8882 31.7216Z" stroke="#111111"/>
<path d="M33.8777 27.2C40.0633 27.2 45.0777 22.1856 45.0777 16C45.0777 9.81446 40.0633 4.80005 33.8777 4.80005C27.6921 4.80005 22.6777 9.81446 22.6777 16C22.6777 22.1856 27.6921 27.2 33.8777 27.2Z" fill="#EFF8F5"/>
<path d="M33.8785 26.4001C39.6223 26.4001 44.2785 21.7439 44.2785 16.0001C44.2785 10.2563 39.6223 5.6001 33.8785 5.6001C28.1348 5.6001 23.4785 10.2563 23.4785 16.0001C23.4785 21.7439 28.1348 26.4001 33.8785 26.4001Z" stroke="#111111" stroke-width="2"/>
<path d="M29.8789 13.4008L31.8789 18.6008L33.8789 13.4008L35.8789 18.6008L37.8789 13.4008" stroke="#111111" stroke-width="2" stroke-linecap="round" stroke-linejoin="round"/>
<path d="M29.0781 15.8008H30.6781" stroke="#111111" stroke-width="2" stroke-linecap="round"/>
<path d="M37.0781 15.8008H38.6781" stroke="#111111" stroke-width="2" stroke-linecap="round"/>
</svg>
