<svg xmlns="http://www.w3.org/2000/svg" width="112" height="112" viewBox="0 0 112 112">
    <defs>
        <clipPath id="7jreyiwfca">
            <path data-name="사각형 16126" style="fill:none" d="M0 0h96.066v101.122H0z"/>
        </clipPath>
        <clipPath id="izpq08a4pb">
            <path data-name="사각형 16125" style="fill:#dedede" d="M0 0h57.814v8.724H0z"/>
        </clipPath>
        <clipPath id="edz6iaw8cc">
            <path data-name="사각형 16156" style="fill:silver" d="M0 0h41.712v41.712H0z"/>
        </clipPath>
    </defs>
    <path data-name="사각형 16122" transform="translate(16.124 84.181)" style="stroke:#969696;fill:#f5f5f5" d="M0 0h63.052v8.724H0z"/>
    <path data-name="사각형 16123" transform="translate(16.124 84.181)" style="stroke-linejoin:round;stroke-linecap:round;stroke:#969696;fill:none" d="M0 0h63.052v8.724H0z"/>
    <g data-name="그룹 103255">
        <g data-name="그룹 103254" style="clip-path:url(#7jreyiwfca)" transform="translate(12.016 9.882)">
            <g data-name="그룹 103253" style="mix-blend-mode:darken;isolation:isolate">
                <g data-name="그룹 103252">
                    <g data-name="그룹 103251" style="clip-path:url(#izpq08a4pb)" transform="translate(9.347 74.299)">
                        <path data-name="사각형 16124" style="fill:#dedede" d="M0 0h57.813v8.724H0z"/>
                    </g>
                </g>
            </g>
        </g>
    </g>
    <path data-name="사각형 16127" transform="translate(19.8 75.456)" style="stroke:#969696;fill:#f5f5f5" d="M0 0h63.052v8.724H0z"/>
    <path data-name="사각형 16128" transform="translate(19.8 75.456)" style="stroke-linejoin:round;stroke-linecap:round;stroke:#969696;fill:none" d="M0 0h63.052v8.724H0z"/>
    <g data-name="그룹 103260">
        <g data-name="그룹 103259" style="clip-path:url(#7jreyiwfca)" transform="translate(12.016 9.882)">
            <g data-name="그룹 103258" style="mix-blend-mode:darken;isolation:isolate">
                <g data-name="그룹 103257">
                    <g data-name="그룹 103256" style="clip-path:url(#izpq08a4pb)" transform="translate(13.022 65.575)">
                        <path data-name="사각형 16129" transform="translate(.001)" style="fill:#dedede" d="M0 0h57.813v8.724H0z"/>
                    </g>
                </g>
            </g>
        </g>
    </g>
    <path data-name="사각형 16132" transform="translate(16.124 66.732)" style="stroke:#969696;fill:#f5f5f5" d="M0 0h63.052v8.724H0z"/>
    <path data-name="패스 19613" d="M0 0h63.052v8.724H0V0z" transform="translate(16.124 66.732)" style="stroke-linecap:round;stroke:#969696;fill:none"/>
    <g data-name="그룹 103265">
        <g data-name="그룹 103264" style="clip-path:url(#7jreyiwfca)" transform="translate(12.016 9.882)">
            <g data-name="그룹 103263" style="mix-blend-mode:darken;isolation:isolate">
                <g data-name="그룹 103262">
                    <g data-name="그룹 103261" style="clip-path:url(#izpq08a4pb)" transform="translate(9.347 56.85)">
                        <path data-name="사각형 16134" style="fill:#dedede" d="M0 0h57.813v8.724H0z"/>
                    </g>
                </g>
            </g>
        </g>
    </g>
    <path data-name="사각형 16137" transform="translate(12.45 58.007)" style="stroke:#969696;fill:#f5f5f5" d="M0 0h63.052v8.724H0z"/>
    <g data-name="그룹 103270">
        <g data-name="그룹 103269" style="clip-path:url(#7jreyiwfca)" transform="translate(12.016 9.882)">
            <path data-name="패스 19614" d="M0 0h63.052v8.724H0z" transform="translate(.434 48.125)" style="stroke-linecap:round;stroke:#969696;fill:none"/>
            <g data-name="그룹 103268" style="mix-blend-mode:darken;isolation:isolate">
                <g data-name="그룹 103267">
                    <g data-name="그룹 103266" style="clip-path:url(#izpq08a4pb)" transform="translate(5.672 48.126)">
                        <path data-name="사각형 16139" transform="translate(.001 -.001)" style="fill:#dedede" d="M0 0h57.813v8.724H0z"/>
                    </g>
                </g>
            </g>
        </g>
    </g>
    <path data-name="사각형 16142" transform="translate(16.124 49.284)" style="stroke:#969696;fill:#f5f5f5" d="M0 0h63.052v8.724H0z"/>
    <path data-name="사각형 16143" transform="translate(16.124 49.284)" style="stroke-linejoin:round;stroke-linecap:round;stroke:#969696;fill:none" d="M0 0h63.052v8.724H0z"/>
    <g data-name="그룹 103275">
        <g data-name="그룹 103274" style="clip-path:url(#7jreyiwfca)" transform="translate(12.016 9.882)">
            <g data-name="그룹 103273" style="mix-blend-mode:darken;isolation:isolate">
                <g data-name="그룹 103272">
                    <g data-name="그룹 103271" style="clip-path:url(#izpq08a4pb)" transform="translate(9.347 39.402)">
                        <path data-name="사각형 16144" style="fill:#dedede" d="M0 0h57.813v8.724H0z"/>
                    </g>
                </g>
            </g>
        </g>
    </g>
    <path data-name="사각형 16147" transform="translate(19.8 40.559)" style="stroke:#969696;fill:#f5f5f5" d="M0 0h63.052v8.724H0z"/>
    <path data-name="사각형 16148" transform="translate(19.8 40.559)" style="stroke-linejoin:round;stroke-linecap:round;stroke:#969696;fill:none" d="M0 0h63.052v8.724H0z"/>
    <g data-name="그룹 103280">
        <g data-name="그룹 103279" style="clip-path:url(#7jreyiwfca)" transform="translate(12.016 9.882)">
            <g data-name="그룹 103278" style="mix-blend-mode:darken;isolation:isolate">
                <g data-name="그룹 103277">
                    <g data-name="그룹 103276" style="clip-path:url(#izpq08a4pb)" transform="translate(13.022 30.677)">
                        <path data-name="사각형 16149" transform="translate(.001)" style="fill:#dedede" d="M0 0h57.813v8.724H0z"/>
                    </g>
                </g>
            </g>
        </g>
    </g>
    <path data-name="사각형 16152" transform="translate(15.206 31.835)" style="stroke:#969696;fill:#f5f5f5" d="M0 0h63.052v8.724H0z"/>
    <path data-name="사각형 16153" transform="translate(15.206 31.835)" style="stroke-linejoin:round;stroke-linecap:round;stroke:#969696;fill:none" d="M0 0h63.052v8.724H0z"/>
    <g data-name="그룹 103288">
        <g data-name="그룹 103287" style="clip-path:url(#7jreyiwfca)" transform="translate(12.016 9.882)">
            <g data-name="그룹 103283" style="mix-blend-mode:darken;isolation:isolate">
                <g data-name="그룹 103282">
                    <g data-name="그룹 103281" style="clip-path:url(#izpq08a4pb)" transform="translate(8.428 21.953)">
                        <path data-name="사각형 16154" transform="translate(.001)" style="fill:#dedede" d="M0 0h57.813v8.724H0z"/>
                    </g>
                </g>
            </g>
            <path data-name="패스 19595" d="M104.294 97.459a32.47 32.47 0 0 1-18.84 16.159" transform="translate(-11.337 -12.93)" style="stroke-linejoin:round;stroke-linecap:round;stroke:#969696;fill:none"/>
            <path data-name="패스 19596" d="M110.331 88.335q-.163.772-.361 1.53" transform="translate(-14.59 -11.72)" style="stroke-width:.75px;stroke-linejoin:round;stroke-linecap:round;stroke:#969696;fill:none"/>
            <path data-name="패스 19597" d="M96.628 76.57a26.791 26.791 0 1 1-26.791-26.791A26.791 26.791 0 0 1 96.628 76.57" transform="translate(-5.711 -6.604)" style="fill:#fff"/>
            <circle data-name="타원 531" cx="26.791" cy="26.791" r="26.791" transform="translate(37.335 43.174)" style="stroke-linejoin:round;stroke-linecap:round;stroke:#969696;fill:none"/>
            <g data-name="그룹 103286" style="mix-blend-mode:darken;isolation:isolate">
                <g data-name="그룹 103285">
                    <g data-name="그룹 103284" style="clip-path:url(#edz6iaw8cc)" transform="translate(43.27 49.081)">
                        <path data-name="패스 19598" d="M91.6 77.445a20.856 20.856 0 1 1-20.855-20.856A20.856 20.856 0 0 1 91.6 77.445" transform="translate(-49.889 -56.588)" style="fill:silver"/>
                    </g>
                </g>
            </g>
            <g data-name="그룹 103445">
                <path data-name="패스 19599" d="M67.825 84.312a5.3 5.3 0 1 0 5.3-5.3 5.3 5.3 0 1 1 5.3-5.3" transform="translate(-8.999 -9.076)" style="stroke-linejoin:round;stroke-linecap:round;stroke:#969696;fill:none"/>
                <path data-name="선 268" transform="translate(64.125 56.137)" style="stroke-linejoin:round;stroke-linecap:round;stroke:#969696;fill:none" d="M0 3.202V0"/>
                <path data-name="선 269" transform="translate(64.125 80.535)" style="stroke-linejoin:round;stroke-linecap:round;stroke:#969696;fill:none" d="M0 0v3.202"/>
            </g>
            <path data-name="선 270" transform="translate(35.635 .434)" style="stroke-linejoin:round;stroke-linecap:round;stroke:#969696;fill:none" d="M0 8.65V0"/>
            <path data-name="선 271" transform="translate(51.405 5.833)" style="stroke-linejoin:round;stroke-linecap:round;stroke:#969696;fill:none" d="M0 7.491 4.325 0"/>
            <path data-name="선 272" transform="translate(15.539 5.833)" style="stroke-linejoin:round;stroke-linecap:round;stroke:#969696;fill:none" d="M4.325 7.491 0 0"/>
        </g>
    </g>
</svg>
