<svg xmlns="http://www.w3.org/2000/svg" width="32" height="32" viewBox="0 0 32 32">
    <path data-name="사각형 16501" style="fill:none" d="M0 0h32v32H0z"/>
    <g data-name="그룹 103852">
        <g data-name="그룹 103851">
            <path data-name="패스 19849" d="M498 491h-16a3 3 0 0 1-3-3v-18a3 3 0 0 1 3-3h16a3 3 0 0 1 3 3v18a3 3 0 0 1-3 3zm-16-22a1 1 0 0 0-1 1v18a1 1 0 0 0 1 1h16a1 1 0 0 0 1-1v-18a1 1 0 0 0-1-1z" style="fill:#111" transform="translate(-474 -463)"/>
        </g>
        <path data-name="패스 19850" d="M488.846 479.75a1 1 0 0 1-.7-.284l-2.845-2.778a1 1 0 1 1 1.4-1.431l2.15 2.1 4.456-4.322a1 1 0 0 1 1.392 1.436l-5.154 5a1 1 0 0 1-.699.279z" style="fill:#111" transform="translate(-474 -463)"/>
        <path data-name="패스 19851" d="M494.167 484.925h-8.334a1 1 0 0 1 0-2h8.334a1 1 0 0 1 0 2z" style="fill:#111" transform="translate(-474 -463)"/>
    </g>
</svg>
