<svg xmlns="http://www.w3.org/2000/svg" width="48" height="48" viewBox="0 0 48 48">
    <g transform="translate(-937 -1118)">
        <path data-name="사각형 16478" transform="translate(937 1118)" style="fill:none" d="M0 0h48v48H0z"/>
        <circle data-name="타원 65" cx="19.5" cy="19.5" r="19.5" transform="translate(937 1122)" style="fill:#f5f5f5"/>
        <g data-name="그룹 103464">
            <g data-name="그룹 103462">
                <path data-name="패스 19442" d="m978.308 1165.734-3.623-1.2a.563.563 0 0 0-.61.163l-2.537 2.852a.642.642 0 0 1-1.085-.368l-3.849-14.367a.691.691 0 0 1 .425-.874l7.381-1.977a.689.689 0 0 1 .8.544l3.85 14.367c.149.543-.27 1.02-.752.86z" transform="translate(-12.191 -5.241)" style="fill:#f451aa"/>
                <path data-name="패스 19443" d="m956.143 1165.734 3.624-1.2a.563.563 0 0 1 .61.163l2.537 2.852a.641.641 0 0 0 1.085-.368l3.85-14.367a.691.691 0 0 0-.425-.874l-7.381-1.977a.689.689 0 0 0-.8.544l-3.85 14.367c-.151.543.268 1.02.75.86z" transform="translate(-9.307 -5.241)" style="fill:#f451aa"/>
            </g>
            <g data-name="그룹 103463" transform="translate(942.942 1127.117)">
                <path data-name="패스 19444" d="m976.116 1139.636 1.622-2.687a1.22 1.22 0 0 0-.57-1.754l-2.892-1.221a1.221 1.221 0 0 1-.741-1.02l-.268-3.127a1.219 1.219 0 0 0-1.492-1.084l-3.057.712a1.222 1.222 0 0 1-1.2-.389l-2.055-2.373a1.22 1.22 0 0 0-1.844 0l-2.055 2.373a1.221 1.221 0 0 1-1.2.389l-3.057-.712a1.219 1.219 0 0 0-1.492 1.084l-.267 3.127a1.22 1.22 0 0 1-.741 1.02l-2.892 1.221a1.22 1.22 0 0 0-.57 1.754l1.622 2.687a1.22 1.22 0 0 1 0 1.261l-1.622 2.688a1.22 1.22 0 0 0 .57 1.754l2.891 1.221a1.22 1.22 0 0 1 .741 1.02l.267 3.127a1.219 1.219 0 0 0 1.492 1.084l3.057-.712a1.221 1.221 0 0 1 1.2.389l2.055 2.373a1.22 1.22 0 0 0 1.844 0l2.055-2.373a1.222 1.222 0 0 1 1.2-.389l3.057.712a1.219 1.219 0 0 0 1.492-1.084l.268-3.127a1.22 1.22 0 0 1 .741-1.02l2.892-1.221a1.22 1.22 0 0 0 .57-1.754l-1.622-2.687a1.22 1.22 0 0 1 .001-1.262z" transform="translate(-951.171 -1126.27)" style="fill:#ffc82c"/>
                <circle data-name="타원 67" cx="8.54" cy="8.54" r="8.54" transform="translate(4.831 5.456)" style="fill:#ffdf57"/>
                <path data-name="패스 19445" d="m967.976 1138.966 1.083 2.194a.607.607 0 0 0 .459.333l2.422.352a.61.61 0 0 1 .338 1.041l-1.752 1.708a.611.611 0 0 0-.175.54l.414 2.412a.61.61 0 0 1-.885.643l-2.166-1.139a.611.611 0 0 0-.568 0l-2.165 1.139a.61.61 0 0 1-.885-.643l.414-2.412a.611.611 0 0 0-.175-.54l-1.752-1.708a.61.61 0 0 1 .338-1.041l2.422-.352a.607.607 0 0 0 .459-.333l1.083-2.194a.61.61 0 0 1 1.091 0z" transform="translate(-954.058 -1129.448)" style="fill:#fff"/>
            </g>
        </g>
    </g>
</svg>
