<svg width="24" height="24" viewBox="0 0 24 24" fill="none" xmlns="http://www.w3.org/2000/svg">
<path d="M17.258 18.36H6.24096C5.94532 18.3558 5.66344 18.2344 5.4572 18.0226C5.25096 17.8107 5.13722 17.5257 5.14096 17.23V10.98C5.14091 10.815 5.17664 10.652 5.24569 10.5021C5.31475 10.3523 5.41548 10.2192 5.54095 10.112L11.049 5.40401C11.2449 5.23489 11.4951 5.14185 11.754 5.14185C12.0128 5.14185 12.263 5.23489 12.459 5.40401L17.967 10.112C18.0924 10.2192 18.1932 10.3523 18.2622 10.5021C18.3313 10.652 18.367 10.815 18.367 10.98V17.23C18.3688 17.3772 18.3415 17.5232 18.2867 17.6598C18.2319 17.7963 18.1506 17.9207 18.0475 18.0257C17.9445 18.1308 17.8216 18.2144 17.6861 18.2717C17.5506 18.3291 17.4051 18.3591 17.258 18.36Z" fill="#004E42"/>
<path d="M5.87498 14.688C11.102 14.688 15.575 12.608 17.433 9.65804L12.455 5.40303C12.259 5.23391 12.0088 5.14087 11.75 5.14087C11.4911 5.14087 11.2409 5.23391 11.045 5.40303L5.54099 10.111C5.41552 10.2182 5.31478 10.3513 5.24573 10.5011C5.17667 10.651 5.14094 10.814 5.14099 10.979V14.663C5.38599 14.673 5.62698 14.688 5.87498 14.688Z" fill="#008E71"/>
<path d="M12.315 11.5801C12.315 11.2681 12.062 11.0151 11.75 11.0151C11.438 11.0151 11.185 11.2681 11.185 11.5801V14.9701C11.185 15.2822 11.438 15.5351 11.75 15.5351C12.062 15.5351 12.315 15.2822 12.315 14.9701V11.5801Z" fill="white"/>
</svg>
