<svg xmlns="http://www.w3.org/2000/svg" width="80" height="80" viewBox="0 0 80 80">
    <defs>
        <clipPath id="i9ybyqaxha">
            <path data-name="사각형 16468" transform="translate(1431 980)" style="stroke:#707070;fill:#fff" d="M0 0h34v13H0z"/>
        </clipPath>
    </defs>
    <g data-name="사각형 16466" transform="translate(10 12)" style="stroke:#111;stroke-width:2px;fill:none">
        <rect width="58" height="58" rx="14" style="stroke:none"/>
        <rect x="1" y="1" width="56" height="56" rx="13" style="fill:none"/>
    </g>
    <path data-name="사각형 16472" transform="translate(47 9)" style="fill:#fff" d="M0 0h24v24H0z"/>
    <g data-name="사각형 16475" transform="rotate(180 30 14)" style="fill:#101010;stroke:#111;stroke-width:2px">
        <rect width="2" height="14" rx="1" style="stroke:none"/>
        <rect x="1" y="1" height="12" style="fill:none"/>
    </g>
    <g data-name="사각형 16476" transform="rotate(-90 37 -15)" style="fill:#101010;stroke:#111;stroke-width:2px">
        <rect width="2" height="14" rx="1" style="stroke:none"/>
        <rect x="1" y="1" height="12" style="fill:none"/>
    </g>
    <g data-name="타원 558" transform="translate(29.5 24)" style="stroke:#111;stroke-width:2px;fill:#fff">
        <circle cx="9.5" cy="9.5" r="9.5" style="stroke:none"/>
        <circle cx="9.5" cy="9.5" r="8.5" style="fill:none"/>
    </g>
    <g data-name="그룹 103752">
        <path data-name="사각형 16477" d="M10 0h14a10 10 0 0 1 10 10v3H0v-3A10 10 0 0 1 10 0z" transform="translate(22 48)" style="fill:#c8f7f4"/>
        <g data-name="마스크 그룹 134" style="clip-path:url(#i9ybyqaxha)" transform="translate(-1409 -933)">
            <g data-name="사각형 16467" transform="translate(1431 981)" style="stroke:#111;stroke-width:2px;fill:none">
                <rect width="34" height="23" rx="10" style="stroke:none"/>
                <rect x="1" y="1" width="32" height="21" rx="9" style="fill:none"/>
            </g>
        </g>
        <g data-name="사각형 16469" transform="translate(22 57)" style="stroke:#111;stroke-width:2px;fill:none">
            <rect width="2" height="4" rx="1" style="stroke:none"/>
            <rect x="1" y="1" height="2" style="fill:none"/>
        </g>
        <g data-name="사각형 16470" transform="translate(54 57)" style="stroke:#111;stroke-width:2px;fill:none">
            <rect width="2" height="4" rx="1" style="stroke:none"/>
            <rect x="1" y="1" height="2" style="fill:none"/>
        </g>
    </g>
    <g data-name="사각형 16471" transform="rotate(90 18.5 30.5)" style="stroke:#111;stroke-width:2px;fill:none">
        <rect width="2" height="7" rx="1" style="stroke:none"/>
        <rect x="1" y="1" height="5" style="fill:none"/>
    </g>
    <g data-name="사각형 16473" transform="rotate(180 34 19.5)" style="stroke:#111;stroke-width:2px;fill:none">
        <rect width="2" height="7" rx="1" style="stroke:none"/>
        <rect x="1" y="1" height="5" style="fill:none"/>
    </g>
</svg>
