<svg xmlns="http://www.w3.org/2000/svg" width="48" height="48" viewBox="0 0 48 48">
    <g transform="translate(-1204 -377)">
        <path data-name="사각형 16479" transform="translate(1204 377)" style="fill:none" d="M0 0h48v48H0z"/>
        <circle data-name="타원 38" cx="19.5" cy="19.5" r="19.5" transform="translate(1204 381)" style="fill:#f5f5f5"/>
        <g data-name="그룹 103469" transform="translate(1209.943 386.348)">
            <path data-name="패스 19458" d="m1128.3 1165.735-3.624-1.2a.564.564 0 0 0-.61.163l-2.537 2.853a.642.642 0 0 1-1.085-.369l-3.849-14.367a.691.691 0 0 1 .425-.874l7.38-1.977a.691.691 0 0 1 .805.544l3.849 14.368c.146.541-.272 1.018-.754.859z" transform="translate(-1105.084 -1132.956)" style="fill:#6d6de2"/>
            <path data-name="패스 19459" d="m1106.135 1165.735 3.623-1.2a.565.565 0 0 1 .611.163l2.537 2.853a.641.641 0 0 0 1.084-.369l3.85-14.367a.69.69 0 0 0-.426-.874l-7.38-1.977a.691.691 0 0 0-.8.544l-3.85 14.368c-.15.541.269 1.018.751.859z" transform="translate(-1102.2 -1132.956)" style="fill:#6d6de2"/>
            <circle data-name="타원 76" cx="13.371" cy="13.371" r="13.371" style="fill:#d3d3d3"/>
            <circle data-name="타원 77" cx="8.54" cy="8.54" r="8.54" transform="translate(4.831 4.831)" style="fill:#ededed"/>
            <path data-name="패스 19460" d="m1117.913 1138.929 1.083 2.194a.608.608 0 0 0 .46.333l2.422.352a.61.61 0 0 1 .338 1.041l-1.752 1.708a.611.611 0 0 0-.176.54l.414 2.412a.61.61 0 0 1-.885.643l-2.166-1.139a.608.608 0 0 0-.568 0l-2.166 1.139a.61.61 0 0 1-.885-.643l.414-2.412a.609.609 0 0 0-.175-.54l-1.752-1.708a.61.61 0 0 1 .338-1.041l2.422-.352a.608.608 0 0 0 .46-.333l1.083-2.194a.61.61 0 0 1 1.091 0z" transform="translate(-1103.995 -1130.036)" style="fill:#fff"/>
        </g>
    </g>
</svg>
