<svg xmlns="http://www.w3.org/2000/svg" width="32" height="32" viewBox="0 0 32 32">
    <path data-name="사각형 16501" style="fill:none" d="M0 0h32v32H0z"/>
    <g data-name="그룹 103848">
        <path data-name="패스 19839" d="m661.985 469.093 2.829 2.828L648.93 487.8l-3.823.995.995-3.823 15.882-15.884m0-2a1.994 1.994 0 0 0-1.414.586l-16.394 16.394-1.176 5.747a1 1 0 0 0 .994 1.092h.094l5.742-1.173 16.394-16.394a2 2 0 0 0 0-2.829l-2.828-2.828a1.994 1.994 0 0 0-1.415-.586z" style="fill:#111" transform="translate(-639 -463.093)"/>
        <path data-name="패스 19842" d="M661.808 476.034a1 1 0 0 1-.707-.293l-3-3a1 1 0 0 1 1.414-1.414l3 3a1 1 0 0 1-.707 1.707z" style="fill:#111" transform="translate(-639 -463.093)"/>
    </g>
</svg>
