<svg xmlns="http://www.w3.org/2000/svg" width="24" height="24" viewBox="0 0 24 24">
    <path d="M16.256 11.1a5.836 5.836 0 0 0 .05-.776 4.766 4.766 0 0 0-.058-.775l1.675-1.3a.4.4 0 0 0 .1-.5L16.438 5a.4.4 0 0 0-.487-.181l-1.972.792a5.828 5.828 0 0 0-1.337-.776l-.3-2.1a.4.4 0 0 0-.4-.338h-3.16a.391.391 0 0 0-.388.338l-.3 2.1a5.957 5.957 0 0 0-1.337.775l-1.968-.793A.394.394 0 0 0 4.3 5L2.726 7.738a.375.375 0 0 0 .1.5L4.5 9.545a4.59 4.59 0 0 0-.016 1.555l-1.675 1.3a.4.4 0 0 0-.1.5l1.584 2.739a.4.4 0 0 0 .487.182l1.972-.792a5.828 5.828 0 0 0 1.337.775l.3 2.1a.406.406 0 0 0 .4.338h3.161a.385.385 0 0 0 .388-.338l.3-2.1a5.658 5.658 0 0 0 1.337-.776l1.972.792a.394.394 0 0 0 .487-.181l1.58-2.739a.382.382 0 0 0-.1-.5zm-5.89 2.195a2.97 2.97 0 1 1 2.97-2.97 2.979 2.979 0 0 1-2.97 2.965z" transform="translate(1.633 1.68)" style="fill:#4c4c4e"/>
</svg>
