<svg xmlns="http://www.w3.org/2000/svg" width="32" height="32" viewBox="0 0 32 32">
    <path d="M19.564 9.135 11.182.5a1.647 1.647 0 0 0-2.363 0L.438 9.135a1.546 1.546 0 0 0 1.108 2.624h.572v5.887A2.355 2.355 0 0 0 4.471 20h2.941A.588.588 0 0 0 8 19.412v-4.654a1.177 1.177 0 0 1 1.176-1.178h1.529a1.177 1.177 0 0 1 1.176 1.177v4.654a.589.589 0 0 0 .588.589h2.941a2.354 2.354 0 0 0 2.353-2.355v-5.886h.691a1.547 1.547 0 0 0 1.108-2.624" transform="translate(5.933 5.932)" style="fill:#fff"/>
</svg>
