<svg xmlns="http://www.w3.org/2000/svg" width="48" height="48" viewBox="0 0 48 48">
    <g transform="translate(-1206 -377)">
        <path data-name="사각형 16480" transform="translate(1206 377)" style="fill:none" d="M0 0h48v48H0z"/>
        <circle data-name="타원 38" cx="19.5" cy="19.5" r="19.5" transform="translate(1206 382)" style="fill:#f5f5f5"/>
        <g data-name="그룹 103468" transform="translate(1212.018 386.467)">
            <path data-name="패스 19455" d="m1128.45 1015.936-3.67-1.218a.571.571 0 0 0-.618.165l-2.569 2.89a.65.65 0 0 1-1.1-.374l-3.9-14.55a.7.7 0 0 1 .43-.885l7.474-2a.7.7 0 0 1 .815.551l3.9 14.551c.15.548-.274 1.034-.762.87z" transform="translate(-1104.938 -982.739)" style="fill:#d19b54"/>
            <path data-name="패스 19456" d="m1106.145 1015.936 3.669-1.218a.572.572 0 0 1 .618.165l2.569 2.89a.65.65 0 0 0 1.1-.374l3.9-14.55a.7.7 0 0 0-.431-.885l-7.474-2a.7.7 0 0 0-.815.551l-3.9 14.551c-.148.548.276 1.034.764.87z" transform="translate(-1102.159 -982.739)" style="fill:#d19b54"/>
            <circle data-name="타원 74" cx="13.542" cy="13.542" r="13.542" style="fill:#edc17c"/>
            <circle data-name="타원 75" cx="8.649" cy="8.649" r="8.649" transform="translate(4.893 4.893)" style="fill:#f4d4ae"/>
            <path data-name="패스 19457" d="m1117.984 988.934 1.1 2.222a.615.615 0 0 0 .466.338l2.453.357a.618.618 0 0 1 .342 1.054l-1.775 1.729a.619.619 0 0 0-.178.547l.419 2.443a.618.618 0 0 1-.9.651l-2.194-1.153a.616.616 0 0 0-.575 0l-2.194 1.153a.618.618 0 0 1-.9-.651l.419-2.443a.617.617 0 0 0-.178-.547l-1.775-1.729a.618.618 0 0 1 .342-1.054l2.453-.357a.615.615 0 0 0 .466-.338l1.1-2.222a.617.617 0 0 1 1.109 0z" transform="translate(-1103.889 -979.927)" style="fill:#fff"/>
        </g>
    </g>
</svg>
