<svg xmlns="http://www.w3.org/2000/svg" width="32" height="32" viewBox="0 0 32 32">
    <path data-name="사각형 16501" style="fill:none" d="M0 0h32v32H0z"/>
    <g data-name="그룹 103849">
        <path data-name="패스 19843" d="M609.95 490h-18.316a3 3 0 0 1-3-3v-17.907a1 1 0 0 1 2 0V487a1 1 0 0 0 1 1h18.316a1 1 0 0 1 0 2z" style="fill:#111" transform="translate(-583.634 -463.093)"/>
        <path data-name="패스 19844" d="M593.308 483a1 1 0 0 1-.585-1.812l4.169-3a1 1 0 0 1 1.136-.021l3.826 2.536 5.125-5.391a1 1 0 1 1 1.449 1.376l-5.7 6a1 1 0 0 1-1.278.145l-3.948-2.618-3.608 2.6a1 1 0 0 1-.586.185z" style="fill:#111" transform="translate(-583.634 -463.093)"/>
        <path data-name="패스 19845" d="M608.777 479.492a1 1 0 0 1-1-.972l-.066-2.431-2.241.066h-.031a1 1 0 0 1-.028-2l3.242-.1a1 1 0 0 1 1.03.972l.094 3.433a1 1 0 0 1-.972 1.027z" style="fill:#111" transform="translate(-583.634 -463.093)"/>
    </g>
</svg>
