<svg xmlns="http://www.w3.org/2000/svg" width="80" height="80" viewBox="0 0 80 80">
    <g transform="translate(-1300 -834)">
        <circle data-name="타원 53" cx="40" cy="40" r="40" transform="translate(1300 834)" style="fill:#f5f5f5"/>
        <g data-name="그룹 103816">
            <path data-name="패스 19773" d="M667 1283.117v8.106a8.982 8.982 0 0 0-7 8.905 9.291 9.291 0 0 0 8.872 8.871H669a9.008 9.008 0 0 0 8.777-7h8.107A16.993 16.993 0 0 1 669 1317a17.639 17.639 0 0 1-1.944-.108 17 17 0 0 1-.056-33.775m1.022-2.091h-.051a19 19 0 0 0-1.134 37.853A19.545 19.545 0 0 0 669 1319a19 19 0 0 0 18.973-17.971 1 1 0 0 0-1-1.029h-10.04a.986.986 0 0 0-.983.859A7 7 0 0 1 669 1307h-.1a7.293 7.293 0 0 1-6.9-6.9 7 7 0 0 1 6.14-7.048.986.986 0 0 0 .859-.984v-10.039a1 1 0 0 0-.978-1z" style="fill:#111" transform="translate(671.013 -426.013)"/>
            <g data-name="그룹 103815">
                <path data-name="패스 19774" d="M671.594 1293.511a7.016 7.016 0 0 1 3.876 3.891.979.979 0 0 0 .914.6h10.334a1.009 1.009 0 0 0 .984-1.192 18.994 18.994 0 0 0-15.509-15.51 1.008 1.008 0 0 0-1.193.984v10.316a.977.977 0 0 0 .594.911z" style="fill:#c8f7f4" transform="translate(671.013 -426.013)"/>
                <path data-name="패스 19775" d="M673 1283.505A16.982 16.982 0 0 1 685.5 1296h-8.464a9.055 9.055 0 0 0-4.032-4.046v-8.449m-.986-2.222a1 1 0 0 0-1.014 1v10.317a.977.977 0 0 0 .594.912 7.016 7.016 0 0 1 3.876 3.891.979.979 0 0 0 .914.6h10.334a1.009 1.009 0 0 0 .984-1.192 18.993 18.993 0 0 0-15.509-15.51 1.089 1.089 0 0 0-.179-.015z" style="fill:#111" transform="translate(671.013 -426.013)"/>
            </g>
        </g>
    </g>
</svg>
