<svg xmlns="http://www.w3.org/2000/svg" width="80" height="80" viewBox="0 0 80 80">
    <defs>
        <clipPath id="uny5xqbtca">
            <circle data-name="타원 555" cx="40" cy="40" r="40" style="fill:none"/>
        </clipPath>
    </defs>
    <g>
        <circle data-name="타원 526" cx="40" cy="40" r="40" style="fill:#f7ebdf"/>
        <g data-name="그룹 103613" style="clip-path:url(#uny5xqbtca)">
            <path data-name="패스 1743" d="M611.262 782.172c2.881-2.286 7.256-1.473 10.263.645a19.259 19.259 0 0 1 6.379 8.393 48.716 48.716 0 0 1 2.752 10.3c1.275 7.029 2.2 14.155 4.357 20.967.878 2.777 1.958 5.494 2.677 8.317.435 1.706.714 3.6-.111 5.157a5.686 5.686 0 0 1-1.812 1.921 15.94 15.94 0 0 1-6.1 2.294c-6.751 1.355-13.7 1.157-20.588.954-.623-.019-1.45-.236-1.439-.859" transform="translate(-572.171 -772.434)" style="fill:#362d2c"/>
            <path data-name="패스 1744" d="M591.1 782.013a4.427 4.427 0 0 0-2.787-1.291c-4.339-.579-8.563 2.418-10.61 6.287a20.811 20.811 0 0 0-1.616 4.252c-3.769 13.77 1.477 29.048-3.424 42.456a2.479 2.479 0 0 0-.189 1.845 2.129 2.129 0 0 0 1.219.949 20.3 20.3 0 0 0 7.1 1.071q16.413.479 32.837.173" transform="translate(-551.759 -772.349)" style="fill:#362d2c"/>
            <g data-name="그룹 103607">
                <path data-name="패스 1745" d="M608.209 899.821a4.473 4.473 0 0 0-2.114-1.2 90.358 90.358 0 0 0-14.756-3.745 57.6 57.6 0 0 0-5.228-.571 55.781 55.781 0 0 1-2.15-.18c-2.234-.223-4.469-.526-6.7-.569l-13.352-.6-4.662 1.2-2.323.6-4.2 1.078-2.478.636c-4.462 1.145-9.145 2.411-12.432 5.638a4.81 4.81 0 0 0-1.51 2.436c-.328 1.759.963 3.368 2.168 4.691 3.516 3.86 7.141 7.778 11.741 10.247a46.794 46.794 0 0 0 9.866 3.518q.806.221 1.619.439c4.742 1.267 9.653 2.324 14.408 1.26a30.946 30.946 0 0 0 7.326-2.97v.842c.09-.047.181 1.593.271 1.547 4.8-2.49 9.552-7.616 14.24-10.317 1.063-.612 2.124-1.231 3.125-1.941 3.178-2.254 5.7-1.634 7.167-5.242.565-1.387.93-5.646-.026-6.797z" transform="translate(-530.874 -837.319)" style="fill:#1aa4a4"/>
                <path data-name="패스 1746" d="M612.289 863.537c-.148 2.453-.491 6.005.147 8.39s3.938 5.418 3.9 6.3-2.81 5.2-10.319 5.2-10.429-4.772-10.429-5.677 3.373-3.437 4.011-5.822a22.948 22.948 0 0 0 .537-7.327" transform="translate(-565.272 -820.298)" style="fill:#f2cabf"/>
                <path data-name="패스 1747" d="M610.559 881.269a3.6 3.6 0 0 0 2.3 1.079 3.038 3.038 0 0 0 1.393-.489 8.106 8.106 0 0 0 3.6-4.581 18.7 18.7 0 0 1-3.2 1.686 6.273 6.273 0 0 1-3.559.343 9.3 9.3 0 0 1-1.308-.443 11.112 11.112 0 0 0-2.509-.948c-.032.57.922 1.22 1.293 1.576q.962.924 1.99 1.777z" transform="translate(-571.959 -828.247)" style="fill:#e7b9ac"/>
                <path data-name="패스 1748" d="m589.508 889.345 8.844 7.487-5.745 4.913-10.144-9.98 8.88-5.053z" transform="translate(-557.606 -833.705)" style="fill:#fff"/>
                <path data-name="패스 1749" d="m628.77 889.345-8.611 7.487 5.973 5.31 9.128-11.406-8.089-4.025z" transform="translate(-579.413 -833.705)" style="fill:#fff"/>
            </g>
            <path data-name="패스 1750" d="M614.7 809.36s0 9.693-2.708 14.111-8.695 8.837-10.691 8.41c-2 .427-7.982-3.991-10.69-8.41S587.9 809.36 587.9 809.36l9.909-10.416 9.7 2.192 2.945 2.026z" transform="translate(-560.75 -782.931)" style="fill:#f9d6cd"/>
            <g data-name="그룹 103612" transform="translate(29.98 28.338)">
                <ellipse data-name="타원 552" cx=".843" cy="1.081" rx=".843" ry="1.081" transform="translate(4.603 2.796)" style="fill:#0a0807"/>
                <path data-name="패스 1751" d="M630.879 835.9a.869.869 0 1 1-.843-1.082.984.984 0 0 1 .843 1.082z" transform="translate(-614.619 -832.024)" style="fill:#0a0807"/>
                <g data-name="그룹 103608">
                    <path data-name="패스 1752" d="M617.465 854.252a2.568 2.568 0 0 0 .172-1.072 20.547 20.547 0 0 1-3.029.444 17.945 17.945 0 0 1-3.57-.082c-.474-.026-2.266-.4-2.3-.217a2.661 2.661 0 0 0 .125 1c.988.358 3.475.858 8.602-.073z" transform="translate(-602.779 -842.645)" style="fill:#fff"/>
                    <path data-name="패스 1753" d="M611.848 859.866c-.169.03-.339.064-.506.106a2.76 2.76 0 0 0 .414.4 3.65 3.65 0 0 0 1.7.8 5.58 5.58 0 0 0 2.955-.229 4.017 4.017 0 0 0 1.059-.639 4.74 4.74 0 0 0 .346-.341 4.944 4.944 0 0 0-.943-.2 16.774 16.774 0 0 0-5.025.103z" transform="translate(-604.292 -846.372)" style="fill:#ff5c5c"/>
                    <path data-name="패스 1754" d="M617.441 856.28c.063-.142.142-.341.213-.557-5.127.932-7.614.431-8.6.078a5.158 5.158 0 0 0 .965 1.916c.167-.042.337-.076.506-.106a16.762 16.762 0 0 1 5.029-.1 4.925 4.925 0 0 1 .943.2 5.257 5.257 0 0 0 .944-1.431z" transform="translate(-602.967 -844.116)" style="fill:#0a0807"/>
                </g>
                <g data-name="그룹 103609">
                    <path data-name="패스 1755" d="M615.154 838.5a.211.211 0 0 1-.16-.074l-.878-1.023a.4.4 0 0 1-.111-.233.409.409 0 0 1 .148-.318 3.8 3.8 0 0 0 1.012-2.387 8.833 8.833 0 0 0-.285-2.7.211.211 0 1 1 .411-.095 9.219 9.219 0 0 1 .293 2.834 4.216 4.216 0 0 1-1.135 2.65l-.008.008.871.994a.211.211 0 0 1-.16.348z" transform="translate(-605.833 -830.105)" style="fill:#bd9886"/>
                </g>
                <ellipse data-name="타원 553" cx="2.266" cy="1.291" rx="2.266" ry="1.291" transform="translate(0 7.88)" style="fill:#eebaba"/>
                <g data-name="그룹 103610">
                    <path data-name="패스 1756" d="M632.359 829.441a.21.21 0 0 1-.107-.029 5.926 5.926 0 0 0-3.267-.8 2.173 2.173 0 0 0-1.262.376.211.211 0 0 1-.259-.333 2.568 2.568 0 0 1 1.5-.465 6.354 6.354 0 0 1 3.5.854.211.211 0 0 1-.107.393z" transform="translate(-613.571 -828.187)" style="fill:#54433b"/>
                </g>
                <g data-name="그룹 103611">
                    <path data-name="패스 1757" d="M599.126 829.441a.211.211 0 0 1-.107-.393 6.349 6.349 0 0 1 3.5-.854 2.571 2.571 0 0 1 1.5.465.211.211 0 0 1-.259.333 2.175 2.175 0 0 0-1.263-.376 5.917 5.917 0 0 0-3.267.8.21.21 0 0 1-.104.025z" transform="translate(-597.103 -828.187)" style="fill:#54433b"/>
                </g>
                <ellipse data-name="타원 554" cx="2.266" cy="1.291" rx="2.266" ry="1.291" transform="translate(15.196 7.234)" style="fill:#eebaba"/>
            </g>
            <path data-name="패스 1758" d="M584.9 835.3a2.553 2.553 0 0 0-4.1.716 3.13 3.13 0 0 0-.008 2.472 5.363 5.363 0 0 0 1.517 2.011 8.427 8.427 0 0 0 1.959 1.272 6.929 6.929 0 0 1 1.584.838" transform="translate(-556.494 -803.536)" style="fill:#f9d6cd"/>
            <path data-name="패스 1759" d="M646.979 835.3a2.553 2.553 0 0 1 4.1.716 3.13 3.13 0 0 1 .008 2.472 5.364 5.364 0 0 1-1.517 2.011 8.429 8.429 0 0 1-1.959 1.272 6.929 6.929 0 0 0-1.584.838" transform="translate(-594.379 -803.536)" style="fill:#f9d6cd"/>
            <path data-name="패스 1760" d="M651.4 837.238a2.82 2.82 0 0 0-1.95.515q.886.137 1.764.318c.322.067.7.187.789.5a.789.789 0 0 1-.955 1.1l-1.117-.14a.9.9 0 0 0 .662.461.4.4 0 0 1 .236.074.3.3 0 0 1 .059.242 2.187 2.187 0 0 1-1.678 1.941 2.33 2.33 0 0 0 1.967-.626 4.4 4.4 0 0 0 1.11-1.806c.156-.435.492-1.287.129-1.683-.294-.32-.607-.778-1.016-.896z" transform="translate(-596.22 -805.063)" style="fill:#e7b9ac"/>
            <path data-name="패스 1761" d="M583.368 837.238a2.82 2.82 0 0 1 1.95.515q-.887.137-1.764.318c-.322.067-.7.187-.789.5a.789.789 0 0 0 .955 1.1l1.117-.14a.9.9 0 0 1-.662.461.4.4 0 0 0-.235.074.305.305 0 0 0-.059.242 2.188 2.188 0 0 0 1.678 1.941 2.329 2.329 0 0 1-1.967-.626 4.4 4.4 0 0 1-1.11-1.806c-.155-.435-.492-1.287-.129-1.683.296-.32.609-.778 1.015-.896z" transform="translate(-557.447 -805.063)" style="fill:#e7b9ac"/>
            <path data-name="패스 1762" d="M596.024 797.937a5.05 5.05 0 0 0-2.88.819 6.855 6.855 0 0 0-2.124 3.742l-1.309 4.22a6.672 6.672 0 0 1-1.425 2.855c-1.45 1.447-3.832 1.3-5.865.946 1.639-3.155-.759-7.131.438-10.473a9.47 9.47 0 0 1 1.133-2.058 17.5 17.5 0 0 1 3.428-3.994 7.535 7.535 0 0 1 4.888-1.8 8.825 8.825 0 0 1 5.531 2.33c.614.69-.215 4.031-.221 4.081-.135 1.075-.652-.685-1.594-.668z" transform="translate(-557.582 -779.025)" style="fill:#3b3230"/>
            <path data-name="패스 1763" d="M619.326 797.741a5.946 5.946 0 0 1 3.094 1.014 6.858 6.858 0 0 1 2.124 3.742l1.309 4.22a6.671 6.671 0 0 0 1.425 2.855c1.45 1.447 3.832 1.3 5.865.946-1.639-3.155.759-7.131-.438-10.473a9.473 9.473 0 0 0-1.133-2.058 17.5 17.5 0 0 0-3.428-3.994 7.535 7.535 0 0 0-4.888-1.8 8.825 8.825 0 0 0-5.531 2.33c-.645.724-.708 2.782-.577 3.82.068.537.373.182.783-.105a2.5 2.5 0 0 1 1.395-.497z" transform="translate(-577.639 -779.025)" style="fill:#3b3230"/>
        </g>
    </g>
</svg>
