<svg width="110" height="30" viewBox="0 0 110 30" fill="none" xmlns="http://www.w3.org/2000/svg">
<path d="M34.2015 7.03424V5.0498H37.1242V7.03424H41.0295V8.9139H38.9832C39.9024 10.0204 40.4866 11.5873 40.5072 13.4035C40.4866 16.9326 38.5022 19.5632 35.662 19.5632C32.7394 19.5838 30.7962 16.9326 30.7962 13.4035C30.7962 11.5873 31.3804 10.0204 32.2996 8.9139H30.3787V7.03424H34.1999H34.2015ZM35.6636 8.95518C34.5158 8.95518 33.5966 10.7094 33.6173 13.4035C33.5966 15.9722 34.4952 17.6835 35.643 17.6835C36.7908 17.6835 37.6893 16.0134 37.6893 13.4035C37.6893 10.584 36.8543 8.95518 35.6636 8.95518ZM45.7287 12.6716V23.948H42.9092V5.0498H45.7287V10.792H48.4434V12.6716H45.7287Z" fill="#008E71"/>
<path d="M53.6949 16.6389H58.4353C59.7085 16.6389 60.669 16.7024 61.8596 16.0753V5.0498H64.6791V10.792H67.3938V12.6716H64.6791V23.948H61.8596V17.955C60.8785 18.3932 59.5624 18.5186 58.3734 18.5186H52.1295C50.8976 18.5186 49.9578 17.3279 49.9578 15.9293V5.88486H52.7773V15.8658C52.7773 16.3468 53.09 16.6389 53.6964 16.6389H53.6949Z" fill="#008E71"/>
<path d="M74.4334 5.36255V6.4913C74.4334 9.51876 75.4987 11.7524 77.4609 12.4414V14.4052C75.1637 14.0925 73.2221 12.3589 72.93 11.3984C72.6379 12.3589 70.6328 14.1131 68.4817 14.4052V12.4414C70.382 11.7731 71.4885 9.56004 71.5092 6.51194V5.36255H74.4318H74.4334ZM85.1875 19.4997C85.1669 22.5065 82.5141 24.364 79.9248 24.364C77.1053 24.364 74.6207 22.5049 74.6414 19.4775C74.6207 17.1803 76.2909 15.3848 78.4007 14.7577V5.0498H81.1154V8.39001H82.4728V5.0498H85.1875V19.4997ZM79.9248 16.4087C78.7754 16.4087 77.4609 17.4533 77.4609 19.4791C77.4609 21.3381 78.6928 22.4859 79.9041 22.4859C81.1154 22.4859 82.368 21.3794 82.368 19.4791C82.3474 17.4121 81.1154 16.4087 79.9248 16.4087ZM81.1154 10.2697V14.6545C81.5965 14.7799 82.0346 14.9466 82.4728 15.1546V10.2681H81.1154V10.2697Z" fill="#008E71"/>
<path d="M96.9369 5.46733V6.82469H100.174V5.0498H102.993V19.4791C102.993 22.5065 100.32 24.3655 97.7322 24.3655C94.9128 24.3655 92.4282 22.5065 92.4489 19.4791C92.4282 16.6596 94.9556 14.5513 97.7322 14.5513C98.5879 14.5513 99.4246 14.7593 100.175 15.1355V12.6716H96.9385V13.9242H89.9008C88.6483 13.9242 87.8545 12.7971 87.8545 11.3968V5.46733H96.9369ZM90.6724 7.34699V11.2317C90.6724 11.7747 90.9851 12.0461 91.4455 12.0461H94.119V7.34699H90.674H90.6724ZM97.7307 16.431C96.5829 16.431 95.2668 17.4533 95.2668 19.4791C95.2668 21.3381 96.4987 22.4859 97.71 22.4859C98.9213 22.4859 100.174 21.3794 100.174 19.4791C100.153 17.4121 98.9213 16.431 97.7307 16.431ZM96.9369 8.70435V10.792H100.174V8.70435H96.9369Z" fill="#008E71"/>
<path d="M11.3644 3.5893C11.3644 4.98317 12.4947 6.11509 13.8902 6.11509C15.2856 6.11509 16.4144 4.98317 16.4144 3.5893C16.4144 3.38133 16.3668 3.17336 16.2794 2.98285C16.0604 2.52405 15.8191 2.30179 15.8413 1.75091C15.8762 1.01111 14.9237 1 14.4109 1C13.8552 1 13.2583 1.0762 12.7567 1.33021C12.3534 1.53342 12.0073 1.84299 11.7629 2.22241C11.5104 2.61295 11.3739 3.06699 11.3628 3.53056V3.5893" fill="#D80C18"/>
<path d="M26.7083 6.73587C26.5257 6.45805 26.1622 6.45646 25.4843 6.58188C24.4873 6.76762 21.517 7.37089 16.8067 7.53282C14.6429 7.60744 12.2711 7.6122 9.88341 7.39947C7.93231 7.22484 4.23966 6.63109 3.41731 6.55013C2.97438 6.50409 1.96629 6.43582 1.45033 6.86605C0.767685 7.43439 0.962954 8.27738 1.36619 8.95051C1.36619 8.95051 2.26157 10.3888 4.33174 10.8127C7.33539 11.3112 11.9869 11.1794 13.5205 11.0096C16.9274 10.6936 19.5532 10.2015 21.6361 9.63474C21.6361 9.63474 24.4143 8.83779 25.7716 8.07418C26.2828 7.78683 27.0131 7.23595 26.7083 6.73746V6.73587Z" fill="#008E71"/>
<path d="M16.5366 12.8877C14.8395 11.9685 12.8234 11.9637 11.1517 12.9194C8.46076 14.4594 7.52093 17.8488 9.12277 20.6175C10.4341 22.6702 12.1867 22.1796 12.6852 21.6589C13.3107 20.9667 13.0742 20.2523 12.7424 19.8062C12.0629 18.9648 11.9931 18.3917 11.9931 18.0361C11.9931 16.9471 12.8757 16.0644 13.9648 16.0644C14.5379 16.0644 15.092 16.3216 15.4635 16.7566C15.9826 17.3678 16.0477 18.2473 16.0096 18.949C15.781 23.1671 14.0616 26.8042 13.9743 27.0709C13.8965 27.2646 13.7664 27.7472 14.1315 27.944C14.4093 28.0821 14.7364 27.9551 15.057 27.6726C15.8508 26.9963 17.3812 25.0817 18.1956 23.202C18.6354 22.1892 19.7213 19.503 19.3672 16.8232C19.0037 14.7562 17.6813 13.5084 16.5335 12.8861L16.5366 12.8877Z" fill="#008E71"/>
</svg>
