<svg width="28" height="28" viewBox="0 0 28 28" fill="none" xmlns="http://www.w3.org/2000/svg">
<g clip-path="url(#clip0_70_371)">
<path d="M11.7158 4.3523C11.7158 5.61859 12.7427 6.64691 14.0104 6.64691C15.2781 6.64691 16.3036 5.61859 16.3036 4.3523C16.3036 4.16337 16.2603 3.97443 16.181 3.80136C15.982 3.38456 15.7627 3.18264 15.7829 2.68218C15.8147 2.0101 14.9493 2 14.4835 2C13.9787 2 13.4364 2.06923 12.9806 2.29999C12.6143 2.48459 12.2999 2.76583 12.0778 3.11053C11.8485 3.46532 11.7245 3.8778 11.7144 4.29894V4.3523" fill="#D80C18"/>
<path d="M25.6553 7.21079C25.4894 6.9584 25.1592 6.95696 24.5433 7.0709C23.6376 7.23964 20.9391 7.78769 16.66 7.9348C14.6942 8.00259 12.5395 8.00691 10.3704 7.81365C8.59785 7.65501 5.24319 7.11561 4.49611 7.04205C4.09372 7.00023 3.17789 6.93821 2.70916 7.32906C2.089 7.84538 2.26639 8.61121 2.63272 9.22273C2.63272 9.22273 3.44615 10.5294 5.32684 10.9145C8.05557 11.3673 12.2813 11.2476 13.6746 11.0933C16.7696 10.8063 19.1551 10.3592 21.0473 9.84433C21.0473 9.84433 23.5712 9.12033 24.8044 8.42661C25.2688 8.16556 25.9322 7.6651 25.6553 7.21224V7.21079Z" fill="#008E71"/>
<path d="M16.4157 12.7995C14.8739 11.9644 13.0423 11.9601 11.5236 12.8283C9.079 14.2273 8.22519 17.3065 9.68042 19.8217C10.8717 21.6866 12.464 21.2409 12.9168 20.7679C13.4851 20.139 13.2702 19.49 12.9687 19.0848C12.3515 18.3204 12.288 17.7997 12.288 17.4767C12.288 16.4873 13.0899 15.6854 14.0793 15.6854C14.5999 15.6854 15.1033 15.919 15.4407 16.3142C15.9124 16.8695 15.9715 17.6685 15.9369 18.3059C15.7292 22.138 14.1672 25.4422 14.0879 25.6845C14.0172 25.8604 13.899 26.2989 14.2307 26.4777C14.4831 26.6032 14.7802 26.4878 15.0715 26.2311C15.7927 25.6167 17.183 23.8773 17.9228 22.1697C18.3224 21.2496 19.3088 18.8093 18.9872 16.3748C18.657 14.497 17.4556 13.3634 16.4128 12.798L16.4157 12.7995Z" fill="#008E71"/>
</g>
<defs>
<clipPath id="clip0_70_371">
<rect width="28" height="28" fill="white"/>
</clipPath>
</defs>
</svg>
