<svg xmlns="http://www.w3.org/2000/svg" width="32" height="32" viewBox="0 0 32 32">
    <path data-name="사각형 16338" style="fill:none" d="M0 0h32v32H0z"/>
    <g data-name="그룹 103577" transform="translate(6 6)">
        <path data-name="패스 19513" d="M17.626 10.75c0-.178-.006-.354-.018-.529a1.659 1.659 0 0 1 .8-1.573l.042-.025a1.622 1.622 0 0 0 .594-2.216l-.758-1.314a1.623 1.623 0 0 0-2.215-.593l-.053.031a1.627 1.627 0 0 1-1.736-.079 7.639 7.639 0 0 0-.965-.559 1.625 1.625 0 0 1-.929-1.46v-.06A1.623 1.623 0 0 0 10.765.75H9.249a1.623 1.623 0 0 0-1.623 1.623v.059a1.625 1.625 0 0 1-.926 1.46 7.639 7.639 0 0 0-.965.559A1.627 1.627 0 0 1 4 4.53l-.057-.03a1.623 1.623 0 0 0-2.217.594L.968 6.407a1.621 1.621 0 0 0 .594 2.216l.042.025a1.659 1.659 0 0 1 .8 1.573 7.723 7.723 0 0 0 0 1.058 1.659 1.659 0 0 1-.8 1.573l-.042.025a1.621 1.621 0 0 0-.594 2.216l.758 1.314A1.623 1.623 0 0 0 3.943 17L4 16.97a1.629 1.629 0 0 1 1.736.078 7.459 7.459 0 0 0 .965.56 1.625 1.625 0 0 1 .929 1.46v.059a1.623 1.623 0 0 0 1.619 1.623h1.516a1.623 1.623 0 0 0 1.623-1.623v-.059a1.625 1.625 0 0 1 .929-1.46 7.527 7.527 0 0 0 .965-.56 1.629 1.629 0 0 1 1.736-.078l.053.031a1.623 1.623 0 0 0 2.217-.594l.758-1.314a1.622 1.622 0 0 0-.594-2.216l-.042-.025a1.659 1.659 0 0 1-.8-1.573c.01-.179.016-.351.016-.529z" transform="translate(-.257 -.278)" style="stroke:#111;stroke-linecap:round;stroke-width:1.5px;fill:none"/>
        <circle data-name="타원 527" cx="3.5" cy="3.5" r="3.5" transform="translate(6.25 6.972)" style="stroke:#111;stroke-linecap:round;stroke-width:1.5px;fill:none"/>
    </g>
</svg>
