<svg xmlns="http://www.w3.org/2000/svg" width="24" height="24" viewBox="0 0 24 24">
    <defs>
        <clipPath id="4s5ipfttya">
            <path data-name="사각형 16215" style="fill:none" d="M0 0h17.256v16.854H0z"/>
        </clipPath>
    </defs>
    <g data-name="그룹 103551">
        <g data-name="그룹 103550" transform="translate(3 4)" style="clip-path:url(#4s5ipfttya)">
            <path data-name="패스 19504" d="M13.707 16.854a2.332 2.332 0 0 1-2.293-1.923H.864a1.521 1.521 0 0 0 1.464 1.114v.809A2.33 2.33 0 0 1 0 14.527v-.4h12.189v.4a1.519 1.519 0 1 0 3.037 0h.809a2.33 2.33 0 0 1-2.327 2.328"/>
            <path data-name="사각형 16214" d="M2.327 16.045h11.38v.809H2.327z"/>
            <path data-name="패스 19505" d="M16.035 14.527h-.809V2.03a2.02 2.02 0 0 1 .41-1.221H4.906A1.222 1.222 0 0 0 3.69 2.03v12.5h-.814V2.03A2.033 2.033 0 0 1 4.906 0h12.35v.809a1.222 1.222 0 0 0-1.221 1.221z"/>
            <path data-name="패스 19506" d="M9.458 11.303a3.838 3.838 0 1 1 2.225-6.966l-.47.659a3.019 3.019 0 1 0 1.081 1.4l.758-.279a3.84 3.84 0 0 1-3.593 5.187"/>
            <path data-name="패스 19507" d="M12.039 5.878a3.062 3.062 0 0 0-.373-.486l.589-.554a3.863 3.863 0 0 1 .472.615z"/>
            <path data-name="패스 19508" d="m9.195 9.083-1.73-1.729.572-.572 1.158 1.157 1.968-1.968.572.572z"/>
        </g>
    </g>
</svg>
