<svg xmlns="http://www.w3.org/2000/svg" width="64" height="64" viewBox="0 0 64 64">
    <path data-name="사각형 783" d="M30 0h4a30 30 0 0 1 30 30v24.545A5.455 5.455 0 0 1 58.545 60H30A30 30 0 0 1 0 30 30 30 0 0 1 30 0z" transform="translate(0 2)" style="fill:#def5f6"/>
    <g data-name="그룹 5908">
        <g data-name="그룹 5897">
            <g data-name="그룹 5891">
                <path data-name="패스 19428" d="M598.919 259.208c-6.227-.959-7.822-9.528-7.822-9.528H572.12c-.1 7.291-7.334 10.94-7.334 10.94 1.676 17.44 12.575 23.323 14.5 24.084.15.06 2.121.786 2.121.786 17.385-7.58 17.512-26.282 17.512-26.282z" transform="translate(-551.021 -235.375)" style="fill:#ed1651"/>
                <path data-name="패스 19429" d="M581.213 285.6a.3.3 0 0 1-.106-.02s-1.977-.728-2.127-.787c-.129-.051-12.862-5.3-14.693-24.339a.305.305 0 0 1 .167-.3c.071-.036 7.071-3.655 7.167-10.672a.305.305 0 0 1 .305-.3H590.9a.305.305 0 0 1 .3.249c.016.084 1.63 8.368 7.568 9.282a.305.305 0 0 1 .259.3c0 .189-.33 18.987-17.695 26.559a.317.317 0 0 1-.119.028zm-16.3-25c1.864 18.51 14.164 23.58 14.289 23.63s1.576.583 2 .739c15.8-6.962 17.1-23.435 17.208-25.7-5.625-1.073-7.439-8.036-7.756-9.478h-18.432c-.265 6.535-6.175 10.168-7.307 10.809z" transform="translate(-550.826 -235.18)" style="fill:#3c2163"/>
            </g>
            <g data-name="그룹 5892">
                <path data-name="패스 19430" d="M595.053 260.233c-6.227-.959-7.335-10.553-7.335-10.553h-19.6c-.1 7.291-7.334 10.94-7.334 10.94 1.676 17.44 15.017 23.323 16.942 24.084.15.06.242.092.242.092a27.624 27.624 0 0 0 17.085-24.563z" transform="translate(-549.463 -235.375)" style="fill:#fff"/>
                <path data-name="패스 19431" d="m577.775 284.929-.114-.042s-.1-.034-.251-.095c-1.575-.623-15.428-6.593-17.135-24.339l-.019-.208.186-.094c.071-.036 7.071-3.655 7.167-10.672v-.3h20.171l.032.27c.011.094 1.154 9.375 7.078 10.287l.254.039v.257a28.141 28.141 0 0 1-17.266 24.848zM560.9 260.6c1.755 17.229 15.2 23.023 16.731 23.63l.12.046a27.5 27.5 0 0 0 16.784-23.978c-5.643-1.1-7.061-8.911-7.293-10.5h-19.031c-.265 6.527-6.174 10.161-7.311 10.802z" transform="translate(-549.256 -235.18)" style="fill:#3c2163"/>
            </g>
            <g data-name="그룹 5893">
                <path data-name="패스 19432" d="M602.416 263.919c-3.72-1.842-5.724-6.047-6.605-9.547H588.4V267.7h13.25a24.911 24.911 0 0 0 .766-3.781z" transform="translate(-560.22 -237.203)" style="fill:#8fdae2"/>
                <path data-name="패스 19433" d="M601.684 267.811H587.9v-13.939h7.956l.058.231c.532 2.115 2.226 7.26 6.445 9.348l.193.1-.026.215a25.287 25.287 0 0 1-.776 3.828zm-13.175-.61h12.714a24.574 24.574 0 0 0 .67-3.3c-4.157-2.182-5.907-7.131-6.512-9.417h-6.871z" transform="translate(-560.025 -237.008)" style="fill:#3c2163"/>
            </g>
            <g data-name="그룹 5894">
                <path data-name="패스 19434" d="M573.048 254.372a16.3 16.3 0 0 1-6.7 9.363 29.165 29.165 0 0 0 .876 3.965h12.583v-13.328z" transform="translate(-551.63 -237.203)" style="fill:#f7d979"/>
                <path data-name="패스 19435" d="M579.613 267.811H567.03a.3.3 0 0 1-.292-.219 29.679 29.679 0 0 1-.886-4.007.3.3 0 0 1 .126-.294c1.995-1.4 5.5-4.464 6.577-9.182a.306.306 0 0 1 .3-.237h6.76a.305.305 0 0 1 .305.305v13.328a.305.305 0 0 1-.307.306zm-12.354-.61h12.049v-12.719h-6.213a16.692 16.692 0 0 1-6.61 9.2 28.955 28.955 0 0 0 .774 3.518z" transform="translate(-551.434 -237.008)" style="fill:#3c2163"/>
            </g>
            <g data-name="그룹 5895">
                <path data-name="패스 19436" d="M567.784 276.207c.145.491.3.972.466 1.434a24.577 24.577 0 0 0 12.117 13.786v-15.22z" transform="translate(-552.189 -245.71)" style="fill:#8fdae2"/>
                <path data-name="패스 19437" d="m580.411 291.724-.439-.217A24.991 24.991 0 0 1 567.7 277.55a25.348 25.348 0 0 1-.471-1.451l-.117-.392h13.3zm-12.477-15.407c.114.37.228.709.342 1.026a24.419 24.419 0 0 0 11.524 13.393v-14.419z" transform="translate(-551.928 -245.515)" style="fill:#3c2163"/>
            </g>
            <g data-name="그룹 5896">
                <path data-name="패스 19438" d="M588.4 276.207v15.22l.118.06a.137.137 0 0 1 .024.011l.1.049a24.062 24.062 0 0 0 12.554-13.906c.173-.491.323-.971.453-1.434z" transform="translate(-560.22 -245.71)" style="fill:#f7d979"/>
                <path data-name="패스 19439" d="M588.446 291.657a.305.305 0 0 1-.141-.034l-.055-.027-.046-.023-.023-.011-.11-.054a.306.306 0 0 1-.173-.276v-15.22a.305.305 0 0 1 .305-.305h13.25a.306.306 0 0 1 .294.389c-.139.488-.293.977-.46 1.452a24.464 24.464 0 0 1-12.707 14.078.306.306 0 0 1-.134.031zm.062-15.34v14.663a23.849 23.849 0 0 0 12.2-13.635c.119-.337.231-.682.335-1.029z" transform="translate(-560.025 -245.515)" style="fill:#3c2163"/>
            </g>
        </g>
        <g data-name="그룹 5898">
            <path data-name="패스 19440" d="M610.889 289.52a.843.843 0 0 1-.833.851H586.3a.842.842 0 0 1-.833-.851v-7.133a.842.842 0 0 1 .833-.851h23.754a.842.842 0 0 1 .833.851z" transform="translate(-559.079 -247.786)" style="fill:#ed1651"/>
            <path data-name="패스 19441" d="M609.861 290.481h-23.754a1.148 1.148 0 0 1-1.138-1.156v-7.133a1.148 1.148 0 0 1 1.138-1.156h23.754a1.149 1.149 0 0 1 1.139 1.156v7.133a1.149 1.149 0 0 1-1.139 1.156zm-23.754-8.835a.537.537 0 0 0-.527.546v7.133a.537.537 0 0 0 .527.546h23.754a.537.537 0 0 0 .528-.546v-7.133a.537.537 0 0 0-.528-.546z" transform="translate(-558.884 -247.591)" style="fill:#3c2163"/>
        </g>
        <path data-name="패스 19442" d="M580.186 278.445a.9.9 0 0 0-.892.913V287a.9.9 0 0 0 .892.911h18.1a57.538 57.538 0 0 0 4.787-9.467z" transform="translate(-556.673 -246.582)" style="fill:#eaeaf9;mix-blend-mode:multiply;isolation:isolate"/>
        <g data-name="그룹 5899">
            <path data-name="패스 19443" d="M608.088 289.52a.842.842 0 0 1-.833.851H583.5a.842.842 0 0 1-.833-.851v-7.133a.842.842 0 0 1 .833-.851h23.754a.842.842 0 0 1 .833.851z" transform="translate(-557.988 -247.786)" style="fill:#fff"/>
            <path data-name="패스 19444" d="M607.061 290.481h-23.754a1.148 1.148 0 0 1-1.138-1.156v-7.133a1.148 1.148 0 0 1 1.138-1.156h23.754a1.149 1.149 0 0 1 1.138 1.156v7.133a1.148 1.148 0 0 1-1.138 1.156zm-23.754-8.835a.537.537 0 0 0-.527.546v7.133a.537.537 0 0 0 .527.546h23.754a.537.537 0 0 0 .528-.546v-7.133a.537.537 0 0 0-.528-.546z" transform="translate(-557.793 -247.591)" style="fill:#3c2163"/>
        </g>
        <g data-name="그룹 5901">
            <g data-name="그룹 5900">
                <path data-name="사각형 15577" transform="translate(30.46 36.462)" style="fill:#3c2163" d="M0 0h.61v3.41H0z"/>
                <path data-name="사각형 15578" transform="rotate(-32.878 80.395 -30.008)" style="fill:#3c2163" d="M0 0h3.411v.61H0z"/>
                <path data-name="사각형 15579" transform="rotate(-57.11 49.02 -8.053)" style="fill:#3c2163" d="M0 0h.61v3.411H0z"/>
            </g>
        </g>
        <g data-name="그룹 5903">
            <g data-name="그룹 5902">
                <path data-name="사각형 15580" transform="translate(35.163 36.462)" style="fill:#3c2163" d="M0 0h.61v3.41H0z"/>
                <path data-name="사각형 15581" transform="rotate(-32.883 82.736 -37.969)" style="fill:#3c2163" d="M0 0h3.41v.61H0z"/>
                <path data-name="사각형 15582" transform="rotate(-57.11 51.37 -12.373)" style="fill:#3c2163" d="M0 0h.61v3.41H0z"/>
            </g>
        </g>
        <g data-name="그룹 5905">
            <g data-name="그룹 5904">
                <path data-name="사각형 15583" transform="translate(39.866 36.462)" style="fill:#3c2163" d="M0 0h.61v3.41H0z"/>
                <path data-name="사각형 15584" transform="rotate(-32.883 85.088 -45.939)" style="fill:#3c2163" d="M0 0h3.41v.61H0z"/>
                <path data-name="사각형 15585" transform="rotate(-57.09 53.787 -16.718)" style="fill:#3c2163" d="M0 0h.61v3.41H0z"/>
            </g>
        </g>
        <g data-name="그룹 5907">
            <g data-name="그룹 5906">
                <path data-name="사각형 15586" transform="translate(44.57 36.462)" style="fill:#3c2163" d="M0 0h.61v3.41H0z"/>
                <path data-name="사각형 15587" transform="rotate(-32.883 87.44 -53.909)" style="fill:#3c2163" d="M0 0h3.41v.61H0z"/>
                <path data-name="사각형 15588" transform="rotate(-57.11 56.073 -21.015)" style="fill:#3c2163" d="M0 0h.61v3.41H0z"/>
            </g>
        </g>
    </g>
</svg>
