<svg xmlns="http://www.w3.org/2000/svg" width="40" height="40" viewBox="0 0 40 40">
    <defs>
        <clipPath id="vpbc04fefa">
            <path data-name="사각형 16245" style="fill:none" d="M0 0h34.711v24.526H0z"/>
        </clipPath>
        <clipPath id="39e7am1deb">
            <path data-name="패스 19635" d="M29.6 32.192c-4.355.546-6.353 1.953-7.637 3.661a23.4 23.4 0 0 0 7.574 1.188C39.248 37.041 46 31.91 46 25.579a8.818 8.818 0 0 0-.157-1.653c-.322 7.435-11.481 7.674-16.243 8.266" transform="translate(-21.961 -23.926)" style="fill:none"/>
        </clipPath>
        <linearGradient id="0kmbxi2yyc" x1="-.405" y1="1.061" x2="-.387" y2="1.061" gradientUnits="objectBoundingBox">
            <stop offset="0" stop-color="#006cbb"/>
            <stop offset=".1" stop-color="#006cbb"/>
            <stop offset=".224" stop-color="#0072c1"/>
            <stop offset=".396" stop-color="#0084d2"/>
            <stop offset=".4" stop-color="#0085d3"/>
            <stop offset=".75" stop-color="#00a88b"/>
            <stop offset="1" stop-color="#70b32f"/>
        </linearGradient>
    </defs>
    <g data-name="그룹 103518">
        <g data-name="그룹 103517" style="clip-path:url(#vpbc04fefa)" transform="translate(2.645 7.737)">
            <path data-name="패스 19633" d="M17.355 0C6.894 0 0 5.49 0 12.264s6.894 12.262 17.355 12.262 17.357-5.491 17.357-12.262S27.816 0 17.355 0" style="fill:#fff"/>
            <path data-name="패스 19634" d="M21.512 17.849c2.981-.518 13.041-2.587 11.8-8.329-.446-2.06-2.564-4.324-5.76-5.9a22.405 22.405 0 0 0-9.173-1.82C8.668 1.8 1.915 6.934 1.915 13.266c0 4.41 3.278 8.237 8.549 10.154 1.119-2.944 5.572-4.622 11.048-5.571" transform="translate(-1.066 -1.003)" style="fill:#006cbb"/>
        </g>
    </g>
    <g data-name="그룹 103520">
        <g data-name="그룹 103519" style="clip-path:url(#39e7am1deb)" transform="translate(12.384 18.348)">
            <path data-name="사각형 16246" style="fill:url(#0kmbxi2yyc)" d="M0 0h24.04v13.115H0z"/>
        </g>
    </g>
    <g data-name="그룹 103522">
        <g data-name="그룹 103521" style="clip-path:url(#vpbc04fefa)" transform="translate(2.645 7.737)">
            <path data-name="패스 19636" d="M13.822 14.154h-3.257l.038.094a4.72 4.72 0 0 1 .127 1.558l-.005 7.519h.065c.015 0 1.483.053 2.876.053a4.624 4.624 0 0 0 4.864-4.905c0-2.625-1.847-4.321-4.706-4.321m-1.7.821a17.5 17.5 0 0 1 1.177-.057c2.487 0 3.647 1.206 3.647 3.794 0 2.675-1.029 3.976-3.147 3.976-1.551 0-1.676-.075-1.676-.994z" transform="translate(-5.88 -7.877)" style="fill:#fff"/>
            <path data-name="패스 19637" d="M38.262 23.159a13.844 13.844 0 0 1-.069-1.221v-3.212h-1.547l.051.1a2.331 2.331 0 0 1 .157.984c0 .023.006 2.232-.056 2.755a5.367 5.367 0 0 1-1.2.131c-2.455 0-3.7-1.41-3.7-4.187a3.66 3.66 0 0 1 3.409-3.849 3.8 3.8 0 0 1 2.713.768l.112.1v-1.3l-.054-.01a11.3 11.3 0 0 0-2.119-.252c-3.535 0-5.646 1.86-5.646 4.976 0 3.319 2.578 4.5 4.99 4.5a19.006 19.006 0 0 0 2.9-.211l.062-.011z" transform="translate(-16.871 -7.772)" style="fill:#fff"/>
            <path data-name="패스 19638" d="M55.6 18.29a2.261 2.261 0 0 0 1.732-2.154c0-1.241-1.12-1.982-3-1.982h-2.778l.019.082a6.148 6.148 0 0 1 .082 1.215V23.4h.069c.009 0 1.095-.022 2.437-.022 2.342 0 3.684-1.017 3.684-2.789a2.535 2.535 0 0 0-2.241-2.3m-2.56.446h.718c1.661 0 2.5.652 2.5 1.937 0 1.356-.724 2.015-2.215 2.015-.722 0-1-.261-1-.93zm0-3.862h.91c1.433 0 2.043.433 2.043 1.449 0 1.155-.751 1.694-2.364 1.694h-.593z" transform="translate(-28.691 -7.877)" style="fill:#fff"/>
        </g>
    </g>
</svg>
