<svg xmlns="http://www.w3.org/2000/svg" width="40" height="40" viewBox="0 0 40 40">
    <defs>
        <clipPath id="45663ylk9a">
            <path data-name="사각형 16243" style="fill:none" d="M0 0h34.291v33.13H0z"/>
        </clipPath>
    </defs>
    <g data-name="그룹 103513" transform="translate(2.856 3.434)" style="clip-path:url(#45663ylk9a)">
        <path data-name="패스 19627" d="M8.343.414A3.839 3.839 0 0 0 6.4 2.649L.2 21.236a3.831 3.831 0 0 0 .211 2.953 3.87 3.87 0 0 0 2.239 1.933l20.328 6.808a3.882 3.882 0 0 0 4.909-2.447l6.2-18.584a3.873 3.873 0 0 0-2.458-4.891L11.3.2a3.863 3.863 0 0 0-2.96.216" style="fill:#fff"/>
        <path data-name="패스 19628" d="M18.852 18.855a10.62 10.62 0 0 1-4.076 2.836l-.925.355v-8.612l.91.35a10.675 10.675 0 0 1 4.09 2.825 9.251 9.251 0 0 0 1.379-4.336 9.351 9.351 0 0 0-5.9-9.236l-2.934-.981A2.516 2.516 0 0 0 8.22 3.665L2 22.263a2.542 2.542 0 0 0 1.632 3.194l14.11 4.7a9.3 9.3 0 0 0 1.112-11.3m-8.164 3.721h-1.4v-9.656h1.4z" transform="translate(-.572 -.592)" style="fill:#008ad3"/>
        <path data-name="패스 19629" d="M23.886 23.727a9.287 9.287 0 0 0-2.839-2.257v4.536a9.291 9.291 0 0 0 2.839-2.279" transform="translate(-6.422 -6.589)" style="fill:#ec4315"/>
        <path data-name="패스 19630" d="m39.191 9.993-12.95-4.317a10.617 10.617 0 0 1 .939 13.2 10.621 10.621 0 0 1-.616 12.889l4.866 1.62a2.5 2.5 0 0 0 3.17-1.604l6.224-18.593a2.543 2.543 0 0 0-1.632-3.2m-3.432 13.7-1.746.006-3.6-4.83 3.651-4.825 1.767-.006-3.662 4.847z" transform="translate(-8.006 -1.742)" style="fill:#004593"/>
    </g>
</svg>
