<svg xmlns="http://www.w3.org/2000/svg" width="32" height="32" viewBox="0 0 32 32">
    <defs>
        <radialGradient id="9c0i9dtulb" cx=".589" cy=".361" r=".47" gradientTransform="matrix(.988 0 0 -1 0 1.99)" gradientUnits="objectBoundingBox">
            <stop offset="0" stop-color="#fff"/>
            <stop offset="1" stop-color="#ce9b51"/>
        </radialGradient>
        <radialGradient id="4f5ff7hwxd" cx=".559" cy=".349" r="1.036" gradientTransform="matrix(.988 0 0 -1 0 1.976)" gradientUnits="objectBoundingBox">
            <stop offset="0" stop-color="#00bff2"/>
            <stop offset=".219" stop-color="#0096d5"/>
            <stop offset=".278" stop-color="#0085c9"/>
            <stop offset=".368" stop-color="#0074bc"/>
            <stop offset=".463" stop-color="#0069b4"/>
            <stop offset=".573" stop-color="#0066b2"/>
            <stop offset="1" stop-color="#0066b2"/>
        </radialGradient>
        <clipPath id="ewu0qyxl7a">
            <path data-name="패스 19619" d="M11.468.111A11.911 11.911 0 1 0 12.023.1c-.185 0-.37 0-.555.011" transform="translate(-.093 -.1)" style="fill:none"/>
        </clipPath>
        <clipPath id="p43692w5uc">
            <path data-name="패스 19620" d="M9.3 22.17A7.542 7.542 0 0 1 5 20.437a8.285 8.285 0 0 1-2.434-3.929c-.394-1.36-.554-2.94.09-2.825.2.049.542.915.914 1.549a3.951 3.951 0 0 0 .987 1.238c.137.106.591-.906 1.249-1.477.381-.319.8-.424.867.516.08 1.16-.129 2.535.212 2.535.316 0 1.028-.235 2.587-.371.593-.05.927.064.363.847A5.725 5.725 0 0 1 8.3 20.111c1.328 1.24 2.934 1.1 2.95 1.624.023.3-.557.469-1.326.469a5.858 5.858 0 0 1-.624-.034M13.763 11A1.925 1.925 0 0 1 12.3 9.638a4.264 4.264 0 0 1-.042-1.508 10.49 10.49 0 0 1 .922-2.943c.541-1.359-.774-2.162-.552-2.665.288-.676 1.231.191 2.292.248.894.05 1.438 0 2.142.1a4.377 4.377 0 0 1 2.544 1.03c.464.528-.239 1.186-1.073.78-.617-.306-1.388-.117-.932.518a2.049 2.049 0 0 0 1.357.769 1.408 1.408 0 0 1 .525 2.626c-1.178.86-2.368.5-2.851-1.192-.242-.841-.832-1.271-1.437-1.024-.612.231-.254 1.342.205 2.372.811 2.059-.836 2.259-1.446 2.259-.09 0-.156 0-.191-.008m-.878 11.559c-.008-.272.384-.344.384-.344 3.556-.694 2.517-3.028 1.258-4.214C14 17.5 9.055 13.24 9.055 13.24c-4.7-4.058-4.328-7.223-4.328-7.223.226-3.9 3.637-4.861 6.224-4.641.292.028.464.205.414.456-.067.277-.464.3-.464.3a4.148 4.148 0 0 0-2.109.516c-2.085 1.4-1.461 3.774 1.3 6.425.352.337.722.686 1.1 1.041 0 0 .557.494 1.662 1.546 2.14 1.969 3.3 3.031 3.3 3.031 3.76 3.123 2.476 5.988 1.036 6.982a7.136 7.136 0 0 1-3.89 1.207h-.037a.364.364 0 0 1-.388-.319M11.456.013A11.984 11.984 0 1 0 12.01 0c-.182 0-.368 0-.554.013" style="fill:none"/>
        </clipPath>
    </defs>
    <path data-name="사각형 16373" style="fill:none" d="M0 0h32v32H0z"/>
    <g data-name="그룹 103642">
        <g data-name="그룹 103639">
            <g data-name="그룹 103638" style="clip-path:url(#ewu0qyxl7a)" transform="translate(4.093 4.1)">
                <path data-name="사각형 16389" transform="translate(-.289)" style="fill:url(#9c0i9dtulb)" d="M0 0h24.378v24.092H0z"/>
            </g>
        </g>
        <g data-name="그룹 103641">
            <g data-name="그룹 103640" style="clip-path:url(#p43692w5uc)" transform="translate(4 4)">
                <path data-name="사각형 16390" transform="translate(-.289)" style="fill:url(#4f5ff7hwxd)" d="M0 0h24.579v24.295H0z"/>
            </g>
        </g>
    </g>
</svg>
