<svg xmlns="http://www.w3.org/2000/svg" width="40" height="40" viewBox="0 0 40 40">
    <defs>
        <radialGradient id="icv3m7cygb" cx=".602" cy=".372" r=".469" gradientTransform="matrix(.988 0 0 -1 0 1.99)" gradientUnits="objectBoundingBox">
            <stop offset="0" stop-color="#fff"/>
            <stop offset="1" stop-color="#cb8c2d"/>
        </radialGradient>
        <radialGradient id="yrnyeflnfd" cx=".581" cy=".369" r="1.035" gradientTransform="matrix(.988 0 0 -1 0 1.976)" gradientUnits="objectBoundingBox">
            <stop offset="0" stop-color="#4dbdd7"/>
            <stop offset=".219" stop-color="#3787bc"/>
            <stop offset=".251" stop-color="#2e79b5"/>
            <stop offset=".323" stop-color="#1f60a9"/>
            <stop offset=".399" stop-color="#144fa0"/>
            <stop offset=".48" stop-color="#0e449b"/>
            <stop offset=".573" stop-color="#0c419a"/>
            <stop offset="1" stop-color="#0c419a"/>
        </radialGradient>
        <clipPath id="lw6745mwza">
            <path data-name="패스 19639" d="M13.593.451a13.767 13.767 0 1 0 .635-.015c-.211 0-.422 0-.635.015" transform="translate(-.437 -.436)" style="fill:none"/>
        </clipPath>
        <clipPath id="g15i4hdmbc">
            <path data-name="패스 19640" d="M10.844 25.87a8.8 8.8 0 0 1-5-2.031A9.7 9.7 0 0 1 3 19.257c-.455-1.582-.647-3.432.106-3.286.23.046.63 1.062 1.065 1.8a4.755 4.755 0 0 0 1.157 1.444c.157.117.684-1.056 1.45-1.724.447-.368.936-.495 1.014.6.1 1.35-.145 2.952.246 2.952.369 0 1.2-.277 3.022-.431.684-.059 1.074.07.421.993a6.913 6.913 0 0 1-1.8 1.849c1.55 1.451 3.409 1.278 3.442 1.893.02.356-.675.551-1.588.551-.221 0-.456-.011-.7-.035m5.217-13.039a2.229 2.229 0 0 1-1.711-1.588 4.647 4.647 0 0 1-.041-1.75 11.884 11.884 0 0 1 1.073-3.43c.633-1.591-.9-2.523-.65-3.108.348-.793 1.447.214 2.67.289 1.055.058 1.689.006 2.509.115a5.079 5.079 0 0 1 2.972 1.2c.532.622-.281 1.382-1.258.906-.713-.348-1.614-.134-1.087.61a2.412 2.412 0 0 0 1.588.9 1.643 1.643 0 0 1 .614 3.061c-1.374 1-2.762.59-3.321-1.382-.281-.983-.976-1.484-1.686-1.205s-.29 1.573.249 2.774c.936 2.386-.959 2.632-1.679 2.632a2.226 2.226 0 0 1-.232-.01m-1.029 13.477c-.012-.316.451-.4.451-.4 4.141-.816 2.93-3.532 1.465-4.917-.615-.584-6.381-5.556-6.381-5.556C5.072 10.714 5.512 7.02 5.512 7.02c.265-4.546 4.246-5.674 7.258-5.414.353.03.548.246.484.539-.066.32-.532.344-.532.344a4.919 4.919 0 0 0-2.468.593c-2.426 1.633-1.71 4.409 1.526 7.5.407.39.839.8 1.282 1.215 0 0 .651.573 1.944 1.8 2.488 2.294 3.852 3.53 3.852 3.53 4.386 3.653 2.889 6.992 1.212 8.154a8.372 8.372 0 0 1-4.552 1.4.373.373 0 0 1-.05 0 .414.414 0 0 1-.436-.373M13.947 0c-.193 0-.385.006-.579.014A14 14 0 1 0 14.07 0z" style="fill:none"/>
        </clipPath>
    </defs>
    <g data-name="그룹 103524">
        <g data-name="그룹 103523" style="clip-path:url(#lw6745mwza)" transform="translate(6.223 6.221)">
            <path data-name="사각형 16248" transform="translate(-.333)" style="fill:url(#icv3m7cygb)" d="M0 0h28.218v27.887H0z"/>
        </g>
    </g>
    <g data-name="그룹 103526">
        <g data-name="그룹 103525" style="clip-path:url(#g15i4hdmbc)" transform="translate(6.001 5.999)">
            <path data-name="사각형 16249" transform="translate(-.335)" style="fill:url(#yrnyeflnfd)" d="M0 0h28.67v28.337H0z"/>
        </g>
    </g>
</svg>
