<svg xmlns="http://www.w3.org/2000/svg" width="32" height="32" viewBox="0 0 32 32">
    <g data-name="그룹 103500">
        <path d="m5.873 14.908.127.12C9.3 18.317 13.2 21 15.616 21a9.031 9.031 0 0 0 4.831-2.022l.091-.069a1.147 1.147 0 0 0 .462-.917 1.16 1.16 0 0 0-.416-.882l-4.864-4.028a1.138 1.138 0 0 0-.787-.314 1.125 1.125 0 0 0-.8.325l-.78.78a1.259 1.259 0 0 1-1.778 0L9.35 11.649 7.126 9.421a1.257 1.257 0 0 1 0-1.777l.78-.78a1.143 1.143 0 0 0 .01-1.584L3.89.415A1.159 1.159 0 0 0 3.007 0a1.146 1.146 0 0 0-.917.461l-.068.092A9.021 9.021 0 0 0 0 5.383C0 7.8 2.682 11.695 5.971 15" transform="translate(4.5 6.5)" style="fill:none;stroke:#111;stroke-width:1.5px"/>
        <g data-name="그룹 103501">
            <path data-name="패스 19543" d="M536.333 364a4.945 4.945 0 0 0 4.026 1.807A5.315 5.315 0 0 0 544.5 364" transform="rotate(-135 207.563 295.9)" style="stroke-linecap:round;fill:none;stroke:#111;stroke-width:1.5px"/>
            <path data-name="패스 19544" d="M536.333 364s1.764 2.344 5.851 2.344a8.432 8.432 0 0 0 6.149-2.344" transform="rotate(-135 209.342 294.316)" style="stroke-linecap:round;fill:none;stroke:#111;stroke-width:1.5px"/>
        </g>
    </g>
</svg>
