<svg xmlns="http://www.w3.org/2000/svg" width="40" height="40" viewBox="0 0 40 40">
    <g data-name="사각형 15538" transform="translate(8 4)" style="stroke:#111;stroke-width:1.5px;fill:none">
        <rect width="24" height="32" rx="4" style="stroke:none"/>
        <rect x=".75" y=".75" width="22.5" height="30.5" rx="3.25" style="fill:none"/>
    </g>
    <g data-name="사각형 15539" transform="translate(15.001 29)" style="fill:#fff;stroke:#111;stroke-width:1.5px">
        <rect width="10" height="1.5" rx=".75" style="stroke:none"/>
        <rect x=".75" y=".75" width="8.5" style="fill:none"/>
    </g>
    <g data-name="사각형 15981" style="fill:#fff;stroke:#111;stroke-width:1.5px">
        <path d="M0 0h12v3a2 2 0 0 1-2 2H2a2 2 0 0 1-2-2V0z" style="stroke:none" transform="translate(14 4)"/>
        <path d="M.75.75h10.5V3A1.25 1.25 0 0 1 10 4.25H2A1.25 1.25 0 0 1 .75 3V.75z" style="fill:none" transform="translate(14 4)"/>
    </g>
</svg>
