<svg width="64" height="64" viewBox="0 0 64 64" fill="none" xmlns="http://www.w3.org/2000/svg">
<path d="M44.8004 9.59998H16.8004C13.2658 9.59998 10.4004 12.4654 10.4004 16V49.6C10.4004 53.1346 13.2658 56 16.8004 56H44.8004C48.335 56 51.2004 53.1346 51.2004 49.6V16C51.2004 12.4654 48.335 9.59998 44.8004 9.59998Z" fill="white"/>
<path d="M44.8012 10.4H16.8012C13.7084 10.4 11.2012 12.9072 11.2012 16V49.6C11.2012 52.6928 13.7084 55.2 16.8012 55.2H44.8012C47.894 55.2 50.4012 52.6928 50.4012 49.6V16C50.4012 12.9072 47.894 10.4 44.8012 10.4Z" stroke="#111111" stroke-width="2"/>
<path d="M38.4 5.59998H23.2C21.4327 5.59998 20 7.03266 20 8.79998V12C20 13.7673 21.4327 15.2 23.2 15.2H38.4C40.1673 15.2 41.6 13.7673 41.6 12V8.79998C41.6 7.03266 40.1673 5.59998 38.4 5.59998Z" fill="white"/>
<path d="M38.4008 6.40002H23.2008C21.8753 6.40002 20.8008 7.47454 20.8008 8.80002V12C20.8008 13.3255 21.8753 14.4 23.2008 14.4H38.4008C39.7263 14.4 40.8008 13.3255 40.8008 12V8.80002C40.8008 7.47454 39.7263 6.40002 38.4008 6.40002Z" stroke="#111111" stroke-width="2"/>
<path d="M19.8004 27.2C20.5736 27.2 21.2004 26.5732 21.2004 25.8C21.2004 25.0268 20.5736 24.4 19.8004 24.4C19.0272 24.4 18.4004 25.0268 18.4004 25.8C18.4004 26.5732 19.0272 27.2 19.8004 27.2Z" fill="white"/>
<path d="M19.8012 26.4001C20.1325 26.4001 20.4012 26.1314 20.4012 25.8001C20.4012 25.4687 20.1325 25.2001 19.8012 25.2001C19.4698 25.2001 19.2012 25.4687 19.2012 25.8001C19.2012 26.1314 19.4698 26.4001 19.8012 26.4001Z" stroke="#111111" stroke-width="2"/>
<path d="M38.0004 25H25.2004C24.7586 25 24.4004 25.3582 24.4004 25.8C24.4004 26.2418 24.7586 26.6 25.2004 26.6H38.0004C38.4422 26.6 38.8004 26.2418 38.8004 25.8C38.8004 25.3582 38.4422 25 38.0004 25Z" fill="#111111"/>
<path d="M19.8004 36.4C20.5736 36.4 21.2004 35.7732 21.2004 35C21.2004 34.2268 20.5736 33.6 19.8004 33.6C19.0272 33.6 18.4004 34.2268 18.4004 35C18.4004 35.7732 19.0272 36.4 19.8004 36.4Z" fill="white"/>
<path d="M19.8012 35.6C20.1325 35.6 20.4012 35.3314 20.4012 35C20.4012 34.6687 20.1325 34.4 19.8012 34.4C19.4698 34.4 19.2012 34.6687 19.2012 35C19.2012 35.3314 19.4698 35.6 19.8012 35.6Z" stroke="#111111" stroke-width="2"/>
<path d="M34.8004 34.2H25.2004C24.7586 34.2 24.4004 34.5581 24.4004 35C24.4004 35.4418 24.7586 35.8 25.2004 35.8H34.8004C35.2422 35.8 35.6004 35.4418 35.6004 35C35.6004 34.5581 35.2422 34.2 34.8004 34.2Z" fill="#111111"/>
<path d="M48.2976 42.564L47.9776 42.9008C47.9035 42.9801 47.8138 43.0434 47.7142 43.0867C47.6145 43.1299 47.5071 43.1522 47.3984 43.1522C47.2898 43.1522 47.1824 43.1299 47.0827 43.0867C46.9831 43.0434 46.8934 42.9801 46.8192 42.9008L46.4993 42.564C42.9681 38.8376 36.5145 41.412 36.8065 46.572C36.8803 47.9621 37.4447 49.2811 38.3993 50.2944L39.6848 51.6544L43.5432 55.7256L45.1432 57.416C45.4317 57.7259 45.7809 57.9731 46.1692 58.1421C46.5574 58.3112 46.9762 58.3984 47.3996 58.3984C47.8231 58.3984 48.2419 58.3112 48.6302 58.1421C49.0184 57.9731 49.3676 57.7259 49.6561 57.416L56.3993 50.2944C57.3531 49.2796 57.916 47.9595 57.988 46.5688C58.2824 41.4144 51.8288 38.8376 48.2976 42.564Z" fill="#EFF8F5" stroke="#111111" stroke-width="2"/>
</svg>
