<svg width="64" height="64" viewBox="0 0 64 64" fill="none" xmlns="http://www.w3.org/2000/svg">
<path d="M48 9.59998H14.4C10.8654 9.59998 8 12.4654 8 16V46.4C8 49.9346 10.8654 52.8 14.4 52.8H48C51.5346 52.8 54.4 49.9346 54.4 46.4V16C54.4 12.4654 51.5346 9.59998 48 9.59998Z" fill="white"/>
<path d="M48.0008 10.4H14.4008C11.308 10.4 8.80078 12.9072 8.80078 16V46.4C8.80078 49.4928 11.308 52 14.4008 52H48.0008C51.0936 52 53.6008 49.4928 53.6008 46.4V16C53.6008 12.9072 51.0936 10.4 48.0008 10.4Z" stroke="#111111" stroke-width="2"/>
<path d="M8.80078 23.2V21.6L53.6008 21.6V23.2L8.80078 23.2Z" fill="black"/>
<path d="M9.60156 22.3999L52.8016 22.3999L9.60156 22.3999Z" stroke="black" stroke-width="2" stroke-miterlimit="10"/>
<path d="M47.1992 59.2008C53.8266 59.2008 59.1992 53.8282 59.1992 47.2008C59.1992 40.5734 53.8266 35.2008 47.1992 35.2008C40.5718 35.2008 35.1992 40.5734 35.1992 47.2008C35.1992 53.8282 40.5718 59.2008 47.1992 59.2008Z" fill="#EFF8F5"/>
<path d="M47.2 58.4009C53.3856 58.4009 58.4 53.3864 58.4 47.2009C58.4 41.0153 53.3856 36.0009 47.2 36.0009C41.0144 36.0009 36 41.0153 36 47.2009C36 53.3864 41.0144 58.4009 47.2 58.4009Z" stroke="#111111" stroke-width="2"/>
<path d="M42.8008 44.4009L45.0008 50.0009L47.2008 44.4009L49.4008 50.0009L51.6008 44.4009" stroke="#111111" stroke-width="2" stroke-linecap="round" stroke-linejoin="round"/>
<path d="M41.8008 47.2008H43.8008" stroke="#111111" stroke-width="2" stroke-linecap="round"/>
<path d="M50.5996 47.2008H52.5996" stroke="#111111" stroke-width="2" stroke-linecap="round"/>
<path d="M20.1988 7.2C20.1988 7.08954 20.1093 7 19.9988 7C19.8884 7 19.7988 7.08954 19.7988 7.2V13.6C19.7988 13.7105 19.8884 13.8 19.9988 13.8C20.1093 13.8 20.1988 13.7105 20.1988 13.6V7.2Z" stroke="black" stroke-width="1.5" stroke-miterlimit="10"/>
<path d="M42.5992 7.2C42.5992 7.08954 42.5097 7 42.3992 7C42.2888 7 42.1992 7.08954 42.1992 7.2V13.6C42.1992 13.7105 42.2888 13.8 42.3992 13.8C42.5097 13.8 42.5992 13.7105 42.5992 13.6V7.2Z" stroke="black" stroke-width="1.5" stroke-miterlimit="10"/>
</svg>
