<svg width="64" height="64" viewBox="0 0 64 64" fill="none" xmlns="http://www.w3.org/2000/svg">
<mask id="mask0_31_842" style="mask-type:alpha" maskUnits="userSpaceOnUse" x="0" y="0" width="64" height="64">
<rect width="64" height="64" fill="white"/>
</mask>
<g mask="url(#mask0_31_842)">
<path d="M50.3376 37.9687C50.5076 37.5559 51.0923 37.5559 51.2623 37.9688C53.5 45.5 55 46 62.1999 48.6064C62.6128 48.7764 62.6127 49.3611 62.1999 49.5311C55 52 53.5 53.5 51.2623 60.5688C51.0923 60.9816 50.5076 60.9816 50.3376 60.5688C48 53.5 46.5 52 39.4999 49.5311C39.0871 49.3611 39.0869 48.7764 39.4998 48.6064C47 46.5 48 45 50.3376 37.9687Z" fill="#EFF8F5"/>
<path d="M51 31V13.9951C50.9999 12.3399 49.6583 11 48 11H14C12.3431 11 11 12.3431 11 14V48C11 49.6584 12.3399 50.9999 13.9951 51H33.5C34.0523 51 34.5 51.4477 34.5 52C34.5 52.5523 34.0523 53 33.5 53H13.9951C11.2322 52.9999 9 50.7598 9 48V14C9 11.2386 11.2386 9 14 9H48C50.7598 9 52.9999 11.2323 53 13.9951V31C53 31.5523 52.5523 32 52 32C51.4477 32 51 31.5523 51 31Z" fill="#111111"/>
<path d="M40 21L40.1025 21.0049C40.6067 21.0562 41 21.4823 41 22C41 22.5177 40.6067 22.9438 40.1025 22.9951L40 23H38.0898V38H40L40.1025 38.0049C40.6067 38.0562 41 38.4823 41 39C41 39.5177 40.6067 39.9438 40.1025 39.9951L40 40H34.2871C33.735 39.9998 33.2871 39.5522 33.2871 39C33.2871 38.4478 33.735 38.0002 34.2871 38H36.0898V23H34.2871C33.735 22.9998 33.2871 22.5522 33.2871 22C33.2871 21.4478 33.735 21.0002 34.2871 21H40ZM25.1641 21.9326C25.5319 20.8407 27.0912 20.8407 27.459 21.9326L27.4912 22.0459L31.5938 38.7617L31.6133 38.8623C31.6837 39.3641 31.3639 39.8472 30.8613 39.9707C30.3583 40.0942 29.8504 39.8138 29.6807 39.3359L29.6514 39.2383L28.3086 33.7666H24.3145L22.9707 39.2383C22.839 39.7746 22.2981 40.1023 21.7617 39.9707C21.2254 39.839 20.8977 39.2981 21.0293 38.7617L25.1318 22.0459L25.1641 21.9326ZM24.8047 31.7666H27.8174L26.3105 25.6289L24.8047 31.7666Z" fill="#111111"/>
<path d="M62.5806 47.6823C63.819 48.1923 63.819 49.9454 62.5806 50.4554L62.5523 50.4672L62.5247 50.4768C58.9252 51.7111 56.9545 52.6441 55.58 54.0296C54.3813 55.2381 53.5594 56.8682 52.6245 59.6202L52.2157 60.8701L52.2026 60.9108L52.1874 60.9495C51.6774 62.188 49.9228 62.188 49.4129 60.9495L49.399 60.9163L49.388 60.8832C48.2212 57.3548 47.3196 55.4133 45.9547 54.0262C44.589 52.6384 42.663 51.7072 39.1667 50.4741L39.1432 50.4658L39.1191 50.4554C37.8813 49.9456 37.8803 48.1925 39.1191 47.6823L39.1736 47.6595L39.2295 47.6436C42.9742 46.5919 44.8617 45.7449 46.1383 44.4361C47.4316 43.11 48.2075 41.206 49.3887 37.6529L49.3997 37.6198L49.4135 37.588C49.9078 36.3882 51.5689 36.3509 52.1356 37.4762L52.1867 37.588L52.2061 37.635L52.2206 37.684L52.4277 38.3649C53.4472 41.6551 54.2915 43.2743 55.5372 44.3898C56.9135 45.6222 58.8635 46.3355 62.5399 47.6664L62.5606 47.6733L62.5806 47.6823ZM60.5256 49.0619C57.7164 48.0368 55.708 47.2275 54.2031 45.88C52.6755 44.5121 51.7261 42.6586 50.778 39.7743C49.8423 42.4551 48.9868 44.3801 47.5705 45.8323C46.1275 47.3119 44.1844 48.2251 41.2922 49.1206C44.0013 50.1465 45.912 51.1314 47.3799 52.623C48.8529 54.1199 49.8095 56.0551 50.7898 58.8047C51.7323 56.0591 52.6724 54.1208 54.1603 52.621C55.6685 51.1006 57.6643 50.1068 60.5256 49.0619Z" fill="#111111"/>
</g>
</svg>
