<svg width="64" height="64" viewBox="0 0 64 64" fill="none" xmlns="http://www.w3.org/2000/svg">
<path d="M29.2988 7.64966H42.0988C43.1597 7.64966 44.1771 8.07109 44.9273 8.82123C45.6774 9.57138 46.0988 10.5888 46.0988 11.6497C46.0988 13.9836 45.1717 16.2219 43.5214 17.8722C41.871 19.5225 39.6327 20.4497 37.2988 20.4497H34.0988C31.7649 20.4497 29.5266 19.5225 27.8763 17.8722C26.226 16.2219 25.2988 13.9836 25.2988 11.6497C25.2988 10.5888 25.7203 9.57138 26.4704 8.82123C27.2205 8.07109 28.238 7.64966 29.2988 7.64966Z" fill="white"/>
<path d="M29.4596 8.44971H41.9396C42.8307 8.44971 43.6854 8.80371 44.3155 9.43383C44.9456 10.064 45.2996 10.9186 45.2996 11.8097C45.2996 13.889 44.4736 15.8831 43.0033 17.3534C41.533 18.8237 39.5389 19.6497 37.4596 19.6497H33.9396C31.8603 19.6497 29.8662 18.8237 28.3959 17.3534C26.9256 15.8831 26.0996 13.889 26.0996 11.8097C26.0996 10.9186 26.4536 10.064 27.0837 9.43383C27.7139 8.80371 28.5685 8.44971 29.4596 8.44971Z" stroke="#111111" stroke-width="2"/>
<mask id="mask0_2776_33933" style="mask-type:luminance" maskUnits="userSpaceOnUse" x="14" y="18" width="43" height="34">
<path d="M14.0996 18.8496H56.4996V46.5832L38.2332 51.6496L14.0996 49.2496V18.8496Z" fill="white"/>
</mask>
<g mask="url(#mask0_2776_33933)">
<path d="M37.3 18.8496H34.1C24.3798 18.8496 16.5 26.7294 16.5 36.4496V42.8496C16.5 52.5698 24.3798 60.4496 34.1 60.4496H37.3C47.0202 60.4496 54.9 52.5698 54.9 42.8496V36.4496C54.9 26.7294 47.0202 18.8496 37.3 18.8496Z" fill="#EFF8F5"/>
<path d="M37.3008 19.6497H34.1008C24.8224 19.6497 17.3008 27.1713 17.3008 36.4497V42.8497C17.3008 52.128 24.8224 59.6497 34.1008 59.6497H37.3008C46.5792 59.6497 54.1008 52.128 54.1008 42.8497V36.4497C54.1008 27.1713 46.5792 19.6497 37.3008 19.6497Z" stroke="#111111" stroke-width="2"/>
</g>
<path d="M42.7864 55.3816L57.3872 45.636C58.1088 45.1063 58.6157 44.3345 58.815 43.4618C59.0144 42.589 58.8929 41.6737 58.4728 40.8832C58.3001 40.5036 58.0474 40.1658 57.732 39.893C57.4166 39.6202 57.046 39.4188 56.6455 39.3026C56.2449 39.1864 55.8241 39.1582 55.4116 39.2199C54.9992 39.2816 54.605 39.4317 54.256 39.66L42.7856 46.6712C41.9772 47.1701 41.0559 47.4566 40.1072 47.504L38.56 47.5768L28.9264 41.1432L20.6424 36.0096C19.7532 35.4518 18.7256 35.1541 17.676 35.1504H12.3008V50.8792L21.04 54.9456C22.1209 55.4541 23.2928 55.7403 24.4864 55.7872L39.4464 56.3472C40.6338 56.3863 41.803 56.0483 42.7864 55.3816Z" fill="white" stroke="#111111" stroke-width="2"/>
<path d="M28.9805 41.2496H37.0604C37.9249 41.2927 38.7371 41.6766 39.3193 42.3171C39.9015 42.9576 40.2062 43.8026 40.1669 44.6672C40.2062 45.5319 39.9015 46.3769 39.3193 47.0174C38.7371 47.6579 37.9249 48.0417 37.0604 48.0848H28.9805" fill="white"/>
<path d="M28.9805 41.2496H37.0604C37.9249 41.2927 38.7371 41.6766 39.3193 42.3171C39.9015 42.9576 40.2062 43.8026 40.1669 44.6672C40.2062 45.5319 39.9015 46.3769 39.3193 47.0174C38.7371 47.6579 37.9249 48.0417 37.0604 48.0848H28.9805" stroke="#111111" stroke-width="2" stroke-linecap="round"/>
<path d="M14.4004 54.4008L14.4004 33.6008C14.4004 32.2753 13.3259 31.2008 12.0004 31.2008H7.20039C5.87491 31.2008 4.80039 32.2753 4.80039 33.6008L4.80039 54.4008C4.80039 55.7263 5.87491 56.8008 7.20039 56.8008H12.0004C13.3259 56.8008 14.4004 55.7263 14.4004 54.4008Z" fill="white" stroke="#111111" stroke-width="2"/>
</svg>
