<svg xmlns="http://www.w3.org/2000/svg" width="32" height="32" viewBox="0 0 32 32">
    <defs>
        <clipPath id="qsxvxp8e4a">
            <path data-name="사각형 16201" style="fill:none" d="M0 0h18.977v20.366H0z"/>
        </clipPath>
    </defs>
    <g data-name="그룹 103393" transform="translate(6.619 5.933)" style="clip-path:url(#qsxvxp8e4a)">
        <path data-name="패스 19621" d="M33.825 578.532a8.757 8.757 0 0 0-8.757-8.757h-.93a8.757 8.757 0 0 0-8.757 8.757 1.453 1.453 0 0 0 1.453 1.453h15.538a1.453 1.453 0 0 0 1.453-1.453" transform="translate(-15.115 -559.886)" style="fill:#fff"/>
        <path data-name="패스 19622" d="M17.257 565.136H1.72a1.722 1.722 0 0 1-1.72-1.72 9.024 9.024 0 0 1 9.024-9.024h.93a9.024 9.024 0 0 1 9.024 9.024 1.722 1.722 0 0 1-1.72 1.72m-8.234-10.21a8.5 8.5 0 0 0-8.49 8.49A1.187 1.187 0 0 0 1.72 564.6h15.537a1.187 1.187 0 0 0 1.186-1.186 8.5 8.5 0 0 0-8.49-8.49z" transform="translate(0 -544.77)" style="fill:#009591"/>
        <path data-name="패스 19623" d="M232.158 22.67a5.459 5.459 0 1 0 5.459-5.459 5.459 5.459 0 0 0-5.459 5.459" transform="translate(-228.129 -16.912)" style="fill:#fff"/>
        <path data-name="패스 19624" d="M220.7 11.513a5.758 5.758 0 1 1 5.758-5.758 5.764 5.764 0 0 1-5.758 5.758m0-10.918a5.16 5.16 0 1 0 5.16 5.16 5.166 5.166 0 0 0-5.16-5.16" transform="translate(-211.211 .003)" style="fill:#009591"/>
    </g>
</svg>
