<svg xmlns="http://www.w3.org/2000/svg" width="64" height="64" viewBox="0 0 64 64">
    <g transform="translate(4.571 6.856)">
        <rect data-name="사각형 16010" width="56" height="1.5" rx=".75" transform="translate(-.571 49.643)" style="fill:#011"/>
        <g data-name="사각형 15990" style="stroke:#111;stroke-width:1.5px;fill:none">
            <path d="M4 0h24a4 4 0 0 1 4 4v29H0V4a4 4 0 0 1 4-4z" style="stroke:none" transform="translate(20.429 18.143)"/>
            <path d="M4 .75h24A3.25 3.25 0 0 1 31.25 4v28.25H.75V4A3.25 3.25 0 0 1 4 .75z" style="fill:none" transform="translate(20.429 18.143)"/>
        </g>
        <g data-name="그룹 103132">
            <g data-name="사각형 15978" style="fill:#fff;stroke:#111;stroke-width:1.5px">
                <path d="M4 0h31a4 4 0 0 1 4 4v48H0V4a4 4 0 0 1 4-4z" style="stroke:none" transform="translate(2.429 -.857)"/>
                <path d="M4 .75h31A3.25 3.25 0 0 1 38.25 4v47.25H.75V4A3.25 3.25 0 0 1 4 .75z" style="fill:none" transform="translate(2.429 -.857)"/>
            </g>
            <g data-name="그룹 103134">
                <g data-name="사각형 15991" style="fill:#fff;stroke:#111;stroke-width:1.5px" transform="translate(10.429 7.143)">
                    <rect width="5" height="5" rx="1" style="stroke:none"/>
                    <rect x=".75" y=".75" width="3.5" height="3.5" rx=".25" style="fill:none"/>
                </g>
                <g data-name="사각형 16011" transform="translate(10.429 16.143)" style="fill:#fff;stroke:#111;stroke-width:1.5px">
                    <rect width="5" height="5" rx="1" style="stroke:none"/>
                    <rect x=".75" y=".75" width="3.5" height="3.5" rx=".25" style="fill:none"/>
                </g>
                <g data-name="사각형 16014" transform="translate(10.429 25.143)" style="fill:#fff;stroke:#111;stroke-width:1.5px">
                    <rect width="5" height="5" rx="1" style="stroke:none"/>
                    <rect x=".75" y=".75" width="3.5" height="3.5" rx=".25" style="fill:none"/>
                </g>
                <g data-name="사각형 15991" transform="translate(19.429 7.143)" style="fill:#fff;stroke:#111;stroke-width:1.5px">
                    <rect width="5" height="5" rx="1" style="stroke:none"/>
                    <rect x=".75" y=".75" width="3.5" height="3.5" rx=".25" style="fill:none"/>
                </g>
                <g data-name="사각형 16012" transform="translate(19.429 16.143)" style="fill:#fff;stroke:#111;stroke-width:1.5px">
                    <rect width="5" height="5" rx="1" style="stroke:none"/>
                    <rect x=".75" y=".75" width="3.5" height="3.5" rx=".25" style="fill:none"/>
                </g>
                <g data-name="사각형 16015" transform="translate(19.429 25.143)" style="fill:#fff;stroke:#111;stroke-width:1.5px">
                    <rect width="5" height="5" rx="1" style="stroke:none"/>
                    <rect x=".75" y=".75" width="3.5" height="3.5" rx=".25" style="fill:none"/>
                </g>
                <g data-name="사각형 15991" transform="translate(28.429 7.143)" style="fill:#fff;stroke:#111;stroke-width:1.5px">
                    <rect width="5" height="5" rx="1" style="stroke:none"/>
                    <rect x=".75" y=".75" width="3.5" height="3.5" rx=".25" style="fill:none"/>
                </g>
                <g data-name="사각형 16013" transform="translate(28.429 16.143)" style="fill:#fff;stroke:#111;stroke-width:1.5px">
                    <rect width="5" height="5" rx="1" style="stroke:none"/>
                    <rect x=".75" y=".75" width="3.5" height="3.5" rx=".25" style="fill:none"/>
                </g>
                <g data-name="사각형 16016" transform="translate(28.429 25.143)" style="fill:#fff;stroke:#111;stroke-width:1.5px">
                    <rect width="5" height="5" rx="1" style="stroke:none"/>
                    <rect x=".75" y=".75" width="3.5" height="3.5" rx=".25" style="fill:none"/>
                </g>
            </g>
        </g>
    </g>
</svg>
