<svg xmlns="http://www.w3.org/2000/svg" width="80" height="80" viewBox="0 0 80 80">
    <defs>
        <clipPath id="wd4ueh3uqa">
            <ellipse data-name="타원 551" cx="39.927" cy="39.919" rx="39.927" ry="39.919" style="fill:none"/>
        </clipPath>
    </defs>
    <g transform="translate(-752.299 -761.238)">
        <circle data-name="타원 526" cx="40" cy="40" r="40" transform="translate(752.299 761.238)" style="fill:#f7ebdf"/>
        <g transform="translate(752.445 761.238)" style="clip-path:url(#wd4ueh3uqa)">
            <g data-name="그룹 103603" transform="translate(-.003 -.471)">
                <g data-name="그룹 103602">
                    <path data-name="패스 1714" d="M801.392 894.641s7.212-2.063 7.691-2.315 11.849 2.833 11.849 2.833h5.844l3.274-2.065 3.37-.718 7.472 1.113-1.774 15.32-16.9 3.576-12.418-2.72-8.816-7.806z" transform="translate(-780.432 -836.241)" style="fill:#e8e8e8"/>
                    <g data-name="그룹 103601">
                        <path data-name="패스 1715" d="M840.6 864.049a23.076 23.076 0 0 0 .541 7.369c.642 2.4 3.962 5.449 3.923 6.336s-2.806 10.3-10.36 10.3-10.4-9.392-10.4-10.3 3.281-3.938 3.924-6.336a23.093 23.093 0 0 0 .541-7.369" transform="translate(-793.86 -819.967)" style="fill:#f2cabf"/>
                    </g>
                    <path data-name="패스 1716" d="m825.794 881.42-5.716 4.635 5.556 11.757 6.588-3.889-7.445-8.983z" transform="translate(-791.427 -829.969)" style="fill:#fff"/>
                    <path data-name="패스 1717" d="m855.19 881.42 5.71 4.68-5.605 11.707-6.588-3.889 7.445-8.983z" transform="translate(-807.911 -829.969)" style="fill:#fff"/>
                    <path data-name="패스 1718" d="m833.175 914.784 6.476 20.766h2.632l4.069-20.766-6.588-3.889z" transform="translate(-798.968 -846.941)" style="fill:#e8e8e8"/>
                    <path data-name="패스 1719" d="m840.42 913.145 2.256 4.451h2.968l2.1-4.451-3.812-2.25z" transform="translate(-803.14 -846.941)" style="fill:#1aa4a4"/>
                    <path data-name="패스 1720" d="m843.443 926.693-1.691 8.856 2.95 9.365h2.519l1.916-10.043-2.726-8.178z" transform="translate(-803.907 -856.038)" style="fill:#448787"/>
                    <path data-name="패스 1721" d="M836.82 898.906a4.5 4.5 0 0 0-2.127-1.2 162.243 162.243 0 0 0-19.932-4.614c-1.579 3.189-2.384 12.689-14.593 12.689-12.347 0-13.13-9.335-14.495-12.158-.831.213-6.326 1.7-7.157 1.912-4.488 1.152-9.2 2.425-12.506 5.67a4.838 4.838 0 0 0-1.519 2.45c-.33 1.769.969 3.387 2.181 4.718 3.537 3.882 7.183 7.822 11.811 10.306a47.087 47.087 0 0 0 9.922 3.541q.81.222 1.628.442c4.77 1.274 9.71 2.337 14.493 1.267a31.117 31.117 0 0 0 7.369-2.987v.847c.09-.047.182 1.6.272 1.556 4.832-2.5 9.608-7.66 14.324-10.376 1.069-.616 2.137-1.238 3.143-1.952 3.2-2.267 5.73-1.644 7.21-5.272.572-1.398.939-5.681-.024-6.839z" transform="translate(-759.39 -836.689)" style="fill:#f2bf3f"/>
                </g>
                <path data-name="패스 1722" d="M839.2 881.029a3.624 3.624 0 0 0 2.318 1.086 3.062 3.062 0 0 0 1.4-.492 8.15 8.15 0 0 0 3.621-4.607 18.8 18.8 0 0 1-3.223 1.7 6.308 6.308 0 0 1-3.58.345 9.413 9.413 0 0 1-1.316-.445 11.129 11.129 0 0 0-2.524-.953c-.032.573.928 1.226 1.3 1.585q.968.923 2.004 1.781z" transform="translate(-800.534 -827.433)" style="fill:#e7b9ac"/>
                <ellipse data-name="타원 550" cx="40.439" cy="40.431" rx="40.439" ry="40.431" style="fill:none"/>
            </g>
            <path data-name="패스 1723" d="M837.645 789.549a10.175 10.175 0 0 1 3.208-.589 6.188 6.188 0 0 1 1.462.121 13.355 13.355 0 0 1 3.13 1.41c1.234.853 2 2.3 3.313 3.023a1.982 1.982 0 0 1 .516.336 1.532 1.532 0 0 1 .29.554c1.008 2.835 1.67 5.921.961 8.845a19.747 19.747 0 0 1-.7 2.162 10.054 10.054 0 0 1-.718 1.641 7.644 7.644 0 0 1-1.544 1.782 15.707 15.707 0 0 1-1.294 1.038 1.691 1.691 0 0 1-.665.335.618.618 0 0 1-.652-.261l-18.386-11.379.147-4.2" transform="translate(-795.164 -777.2)" style="fill:#3d312b"/>
            <path data-name="패스 1724" d="M833.465 787.755a6.133 6.133 0 0 0-4.964-2.207 94.953 94.953 0 0 0-9.6.561 4.942 4.942 0 0 1-3.845-.539 7.616 7.616 0 0 0-1.342 4.736 11.493 11.493 0 0 1 .074 1.673c-.12 1.332-1.03 2.45-1.441 3.723a10.246 10.246 0 0 0-.3 3.432 18.454 18.454 0 0 0 .238 2.964 12.876 12.876 0 0 0 .561 1.967 21.045 21.045 0 0 0 3.05 5.59" transform="translate(-786.794 -775.235)" style="fill:#3d312b"/>
            <path data-name="패스 1725" d="M813.969 833.357a2.3 2.3 0 0 0-2.28-.737 2.809 2.809 0 0 0-1.812 1.835 4.586 4.586 0 0 0 .1 3.019 6.439 6.439 0 0 0 1.615 2.373 8.27 8.27 0 0 0 2.026 1.446 6.521 6.521 0 0 1 1.629.938" transform="translate(-785.436 -802.3)" style="fill:#f9d6cd"/>
            <path data-name="패스 1726" d="M875.791 830.65a2.356 2.356 0 0 1 2.217-.995 2.687 2.687 0 0 1 1.94 1.656 4.722 4.722 0 0 1 .118 3.064 6.876 6.876 0 0 1-1.435 2.577 8.748 8.748 0 0 1-1.911 1.684 6.83 6.83 0 0 0-1.554 1.127" transform="translate(-823.15 -800.619)" style="fill:#f9d6cd"/>
            <path data-name="패스 1727" d="M841.959 804.655c1.011 2.545 1.884 4.591 1.715 7.31-.1 1.634-.009 4.991-.446 6.578-.764 2.769 0 4.672-1.582 7.115a18.11 18.11 0 0 1-8.509 6.237 7.764 7.764 0 0 1-3.723.18 17.9 17.9 0 0 1-4.182-1.428 11.559 11.559 0 0 1-3.064-2.511 11.736 11.736 0 0 1-2.242-4.556c-1.667-5.388-1.346-8.807-1.866-14.4 0 0-.521-8.684 10.337-9.168s12.774 2.658 13.562 4.643z" transform="translate(-790.266 -783.533)" style="fill:#f9d6cd"/>
            <path data-name="패스 1728" d="M880.074 832.85a2.49 2.49 0 0 0-1.937.745q.9.121 1.788.3a.926.926 0 0 1 .815.581 1.4 1.4 0 0 1 .014.477 1.311 1.311 0 0 1-.237.786.787.787 0 0 1-.687.154l-1.129-.112a.914.914 0 0 0 .686.535.346.346 0 0 1 .24.078.443.443 0 0 1 .07.3 2.669 2.669 0 0 1-1.6 2.5 2.114 2.114 0 0 0 1.949-.885 5.9 5.9 0 0 0 1.034-2.3c.137-.548.437-1.622.055-2.093-.313-.391-.648-.942-1.061-1.066z" transform="translate(-824.839 -802.455)" style="fill:#e7b9ac"/>
            <path data-name="패스 1729" d="M812.3 835.5a2.44 2.44 0 0 1 1.983.522q-.884.215-1.759.484c-.321.1-.694.267-.77.659a1.356 1.356 0 0 0 .02.469 1.238 1.238 0 0 0 .294.746.784.784 0 0 0 .7.077l1.117-.233a.956.956 0 0 1-.645.6.362.362 0 0 0-.233.1.44.44 0 0 0-.048.3 2.516 2.516 0 0 0 1.773 2.279 2.062 2.062 0 0 1-2-.657 5.543 5.543 0 0 1-1.2-2.145c-.176-.523-.552-1.545-.205-2.047.279-.411.573-.988.973-1.154z" transform="translate(-786.307 -803.962)" style="fill:#e7b9ac"/>
            <path data-name="패스 1730" d="M818.774 805.717a9 9 0 0 1-.328-2.023c.059-.291 3-2.964 8.232-3.668a14.462 14.462 0 0 1 3.512-.133l5.08.557a3.825 3.825 0 0 1 2.331.8c.841.823.742 2.18 1.138 3.288a72.985 72.985 0 0 0 3.516 7.141c.557-.375.523-1.032.606-1.7a22.48 22.48 0 0 0 .115-4.388 6.352 6.352 0 0 0-.5-2.288 6.935 6.935 0 0 0-1.942-2.205 12.236 12.236 0 0 0-2.434-1.698 10.9 10.9 0 0 0-2.877-.852 46.336 46.336 0 0 0-8.7-.5 13.734 13.734 0 0 0-2.765.226 13.218 13.218 0 0 0-5.526 3.252 8.18 8.18 0 0 0-1.781 1.908 8.6 8.6 0 0 0-.813 4.513c0 .983-.024 5.081 1.368 5.018.11 0 .689-1.855.89-2.322a14.39 14.39 0 0 0 .818-2.314 5.585 5.585 0 0 0 .06-2.612z" transform="translate(-788.872 -782.43)" style="fill:#3d312b"/>
            <path data-name="패스 1731" d="m875.311 823.576.278 2.016a20.194 20.194 0 0 1 .259 2.907 1.065 1.065 0 0 0 .46-.595 9.06 9.06 0 0 0 .873-4.565" transform="translate(-823.234 -796.996)" style="fill:#3d312b"/>
            <path data-name="패스 1732" d="m818.894 827.465-.17 2.071c-.081.991-.163 1.987-.149 2.983a1.084 1.084 0 0 1-.318-.594 13.244 13.244 0 0 1-.636-4.644" transform="translate(-790.003 -799.266)" style="fill:#3d312b"/>
            <g data-name="그룹 103606">
                <path data-name="패스 1733" d="M836.655 834.09a.874.874 0 1 1-.844-1.09.99.99 0 0 1 .844 1.09z" transform="translate(-799.999 -802.559)" style="fill:#0a0807"/>
                <path data-name="패스 1734" d="M860.3 834.158a.874.874 0 1 1-.845-1.09.99.99 0 0 1 .845 1.09z" transform="translate(-813.614 -802.598)" style="fill:#0a0807"/>
                <g data-name="그룹 103604">
                    <path data-name="패스 1735" d="M844.555 836.748a.211.211 0 0 1-.161-.074l-.88-1.032a.4.4 0 0 1-.111-.234.41.41 0 0 1 .149-.32 3.823 3.823 0 0 0 1.025-2.4 8.884 8.884 0 0 0-.279-2.72.212.212 0 0 1 .414-.094 9.27 9.27 0 0 1 .287 2.851 4.24 4.24 0 0 1-1.149 2.662l-.008.008.874 1a.212.212 0 0 1-.023.3.215.215 0 0 1-.138.053z" transform="translate(-804.86 -800.665)" style="fill:#bd9886"/>
                </g>
                <path data-name="패스 1736" d="M828.568 845.339c0 .717-1.024 1.3-2.283 1.292s-2.277-.588-2.275-1.3 1.024-1.3 2.283-1.292 2.277.583 2.275 1.3z" transform="translate(-793.694 -808.912)" style="fill:#eebaba"/>
                <path data-name="패스 1737" d="M864.608 843.909c0 .717-1.024 1.295-2.283 1.292s-2.277-.588-2.275-1.3 1.024-1.3 2.283-1.292 2.277.583 2.275 1.3z" transform="translate(-814.446 -808.089)" style="fill:#eebaba"/>
                <path data-name="패스 1738" d="M860.532 825.073a1.757 1.757 0 0 1 .9.323 7.206 7.206 0 0 1-2.317.082 9.256 9.256 0 0 1-2.618.087c.083-.453 1.53-.5 1.84-.529a9.023 9.023 0 0 1 2.195.037z" transform="translate(-812.399 -797.945)" style="fill:#0a0807"/>
                <path data-name="패스 1739" d="M832.1 825.3a8.041 8.041 0 0 0-3.117.1 1.208 1.208 0 0 0-.949.568 3.7 3.7 0 0 0 1.357-.031 21.57 21.57 0 0 1 3.8-.18 2.041 2.041 0 0 0-1.76-.481" transform="translate(-796.011 -798.061)" style="fill:#0a0807"/>
                <g data-name="그룹 103605">
                    <path data-name="패스 1740" d="M844.927 856.8a6.083 6.083 0 0 0 1.371-2.3 3.941 3.941 0 0 0 .136-.56 41.5 41.5 0 0 1-10.256.426 5.1 5.1 0 0 1-.624-.064 13.369 13.369 0 0 0 .838 1.883 5.247 5.247 0 0 0 .651.811 34.082 34.082 0 0 1 7.884-.196z" transform="translate(-800.342 -814.616)" style="fill:#0a0807"/>
                    <path data-name="패스 1741" d="M846.145 852.5a2.089 2.089 0 0 0-.007-.833.3.3 0 0 0-.118-.2.331.331 0 0 0-.229-.009 39.226 39.226 0 0 1-4.094.619 24.839 24.839 0 0 1-3.587.086 54.098 54.098 0 0 0-3.045-.033c-.047 0 .047.317.2.734a5.072 5.072 0 0 0 .623.064 41.489 41.489 0 0 0 10.257-.428z" transform="translate(-800.052 -813.178)" style="fill:#fff"/>
                    <path data-name="패스 1742" d="M839.065 860.685a5.1 5.1 0 0 0 1.385 1.041 5.542 5.542 0 0 0 4.736.045 5.762 5.762 0 0 0 1.762-1.286 34.088 34.088 0 0 0-7.883.2z" transform="translate(-802.363 -818.304)" style="fill:#ff5959"/>
                </g>
            </g>
        </g>
    </g>
</svg>
