<svg xmlns="http://www.w3.org/2000/svg" xmlns:xlink="http://www.w3.org/1999/xlink" width="48" height="48" viewBox="0 0 48 48">
    <defs>
        <clipPath id="d7z3bn2aab">
            <use xlink:href="#529d5krl5a"/>
        </clipPath>
    </defs>
    <path data-name="패스 19602" d="M0 0h48v48H0z" style="fill:none"/>
    <g data-name="그룹 103696" transform="translate(-337.752 -651.574)">
        <rect data-name="사각형 16404" width="30.931" height="1.5" rx=".75" transform="translate(346.069 679.577)" style="fill:#333"/>
        <g data-name="사각형 16405" transform="translate(350.218 669.755)" style="stroke-linecap:round;stroke-linejoin:round;stroke-width:1.5px;stroke:#009591;fill:none">
            <rect id="529d5krl5a" width="6" height="1.5" rx=".75" style="stroke:none"/>
            <path d="M0 .75h6M5.25 0v1.5M6 .75H0m.75.75V0" style="clip-path:url(#d7z3bn2aab);fill:none"/>
        </g>
        <rect data-name="사각형 16406" width="4" height="1.5" rx=".75" transform="translate(350.218 674.755)" style="fill:#333"/>
        <rect data-name="사각형 16407" width="4" height="1.5" rx=".75" transform="translate(356.218 674.755)" style="fill:#333"/>
        <rect data-name="사각형 16408" width="4" height="1.5" rx=".75" transform="translate(362.218 674.755)" style="fill:#333"/>
        <rect data-name="사각형 16409" width="4" height="1.5" rx=".75" transform="translate(368.218 674.755)" style="fill:#333"/>
        <g data-name="사각형 16410" transform="translate(345.752 664.574)" style="stroke:#333;stroke-linecap:round;stroke-linejoin:round;stroke-width:1.5px;fill:none">
            <rect width="32" height="22" rx="3" style="stroke:none"/>
            <rect x=".75" y=".75" width="30.5" height="20.5" rx="2.25" style="fill:none"/>
        </g>
    </g>
</svg>
